<?xml version="1.0" encoding="utf-8"?>
<!-- Generator: Adobe Illustrator 25.4.1, SVG Export Plug-In . SVG Version: 6.00 Build 0)  -->
<svg version="1.1" id="Layer_1" xmlns="http://www.w3.org/2000/svg" xmlns:xlink="http://www.w3.org/1999/xlink" x="0px" y="0px"
	 viewBox="0 0 1094.3 1287.3" style="enable-background:new 0 0 1094.3 1287.3;" xml:space="preserve">
<style type="text/css">
	.st0{fill:none;stroke:#A780F1;stroke-width:4.4391;stroke-linecap:round;stroke-linejoin:round;stroke-miterlimit:10;}
	.st1{fill:#EA614B;stroke:#A780F1;stroke-width:3.1389;stroke-linecap:round;stroke-linejoin:round;stroke-miterlimit:10;}
	.st2{fill:#A780F1;}
	.st3{fill:none;stroke:#000000;stroke-width:4.0189;stroke-miterlimit:10;}
	.st4{fill:none;stroke:#000000;stroke-width:4.4391;stroke-linecap:round;stroke-linejoin:round;stroke-miterlimit:10;}
	.st5{fill:#EA614B;stroke:#000000;stroke-width:3.1389;stroke-linecap:round;stroke-linejoin:round;stroke-miterlimit:10;}
	.st6{fill:#ED614A;stroke:#261F26;stroke-width:8.3392;stroke-linecap:round;stroke-linejoin:round;stroke-miterlimit:10;}
	.st7{fill:#261F26;}
	.st8{fill:#A180EB;}
	.st9{fill:#412581;}
	.st10{fill:#22A88F;stroke:#261F26;stroke-width:8.3392;stroke-miterlimit:10;}
	.st11{fill:#096856;}
	.st12{fill:none;stroke:#261F26;stroke-width:8.3392;stroke-linecap:round;stroke-linejoin:round;stroke-miterlimit:10;}
	.st13{fill:#FFE8D6;stroke:#261F26;stroke-width:8.3392;stroke-linecap:round;stroke-linejoin:round;stroke-miterlimit:10;}
	.st14{fill:none;stroke:#FFE8D6;stroke-width:8.3392;stroke-linecap:round;stroke-linejoin:round;stroke-miterlimit:10;}
	.st15{fill:none;stroke:#EA614B;stroke-width:4.7071;stroke-linecap:round;stroke-linejoin:round;stroke-miterlimit:10;}
	.st16{fill:#EA614B;}
	.st17{fill:#261F21;}
	.st18{fill:#FAAD17;}
	.st19{fill:#D58F12;}
	.st20{fill:none;stroke:#261F21;stroke-width:8.3392;stroke-miterlimit:10;}
	.st21{fill:#FFFFFF;}
</style>
<g>
	<g>
		<g>
			<line class="st0" x1="217.8" y1="1056.7" x2="157.3" y2="1134.7"/>
			<line class="st0" x1="226.6" y1="1126" x2="148.6" y2="1065.5"/>
			<line class="st0" x1="193" y1="1138.1" x2="182.3" y2="1053.7"/>
			<line class="st0" x1="229.6" y1="1090.4" x2="144.1" y2="1101.2"/>
			<circle class="st1" cx="236.3" cy="1089.4" r="4.8"/>
			<circle class="st1" cx="181.4" cy="1046.8" r="4.8"/>
			<circle class="st1" cx="138.6" cy="1101.9" r="4.8"/>
			<circle class="st1" cx="193" cy="1144.1" r="4.8"/>
			<polyline class="st0" points="207.3,1052.6 209.4,1067.5 224.4,1065.8 			"/>
			<polyline class="st0" points="151.5,1124.6 166.5,1122.9 168.6,1137.8 			"/>
			<polyline class="st0" points="157.7,1058.9 159.4,1073.9 144.5,1075.9 			"/>
			<polyline class="st0" points="229.5,1114.6 214.6,1116.7 216.3,1131.6 			"/>
			<polygon class="st0" points="172.3,1084.6 173.6,1072.4 184.9,1077.4 193.9,1069.9 198.3,1081.1 210.2,1082.5 205.2,1093.1 
				212.8,1102.8 201.4,1107.1 200.1,1119.2 188.8,1114.2 179.8,1121.7 175.4,1110.5 163.6,1109.1 168.5,1098.5 160.9,1088.8 			"/>
		</g>
		<circle class="st2" cx="264.1" cy="1186.5" r="10.3"/>
		<g>
			<line class="st3" x1="160.9" y1="948.3" x2="160.9" y2="990.2"/>
			<line class="st3" x1="181.5" y1="969.3" x2="140.3" y2="969.3"/>
			<polyline class="st3" points="154.1,986.9 160.9,980.2 167.5,986.9 			"/>
			<polyline class="st3" points="154.1,950.5 160.9,957.2 167.5,950.5 			"/>
			<polyline class="st3" points="142.9,961.9 149.5,968.8 142.9,975.5 			"/>
			<polyline class="st3" points="178.7,961.9 172.1,968.8 178.7,975.5 			"/>
		</g>
		<g>
			<line class="st4" x1="963.7" y1="960.5" x2="903.2" y2="1038.5"/>
			<line class="st4" x1="972.5" y1="1029.7" x2="894.5" y2="969.3"/>
			<line class="st4" x1="938.8" y1="1041.9" x2="928.1" y2="957.4"/>
			<line class="st4" x1="975.5" y1="994.2" x2="889.9" y2="1005"/>
			<circle class="st5" cx="982.2" cy="993.1" r="4.8"/>
			<circle class="st5" cx="927.3" cy="950.5" r="4.8"/>
			<circle class="st5" cx="884.5" cy="1005.7" r="4.8"/>
			<circle class="st5" cx="938.9" cy="1047.9" r="4.8"/>
			<polyline class="st4" points="953.2,956.4 955.3,971.3 970.3,969.6 			"/>
			<polyline class="st4" points="897.4,1028.4 912.4,1026.7 914.4,1041.6 			"/>
			<polyline class="st4" points="903.6,962.7 905.3,977.7 890.4,979.7 			"/>
			<polyline class="st4" points="975.4,1018.4 960.5,1020.4 962.2,1035.4 			"/>
			<polygon class="st4" points="918.2,988.3 919.5,976.2 930.8,981.2 939.8,973.7 944.1,984.9 956,986.3 951.1,996.9 958.7,1006.6 
				947.2,1010.8 946,1023 934.7,1018 925.7,1025.5 921.3,1014.3 909.4,1012.9 914.4,1002.3 906.8,992.6 			"/>
		</g>
		<g>
			<g>
				<g>
					<polygon class="st6" points="908.2,302.5 933.4,331.1 907.6,334.5 					"/>
					<path class="st6" d="M463.8,1185.7l-38,35.8h59.9l15.8,19c0,0,104.1-32.1,63.1-68.6s19.9-56.9,19.9-56.9h-165
						c0,0-53.6,81.8,97.8,71.5"/>
					<path class="st7" d="M425,1172.8c0,0,82.6-45.8,124.2-35.3l25.7-18l-103.7-25.9l-56,18.4l-4.9,43.2L425,1172.8z"/>
					<path class="st6" d="M711.5,1212.5c0,0,31.6,39.7,34,43c2.4,3.3-66.5-9.9-66.5-9.9l-14.2,28.6c0,0-95-40.7-49.8-72.5
						s-11.9-86.8-11.9-86.8l109.2-19.5c0,0,163.6,120.5-38.1,118.3"/>
					<path class="st7" d="M631.2,1161c0,0,61.4-43.9,122.6-29.7l-34.3-35.9l-95.9,11.5l-15.8,11.7l18.5,23.9L631.2,1161z"/>
					<g>
						<path class="st8" d="M522.4,1115.2c-36.1,0-76.5-0.2-120.1-0.7c-49.8-0.5-87.4-14.7-111.7-42c-35.7-40.2-30.2-96-30.2-96.6
							c0-0.2,0-0.3,0-0.5L259,423.1l-0.7-125.4c95.7-51.3,200.8-77.3,312.3-77.3c101.8,0,190.4,22.1,246.8,40.7
							c52.9,17.4,88.1,35,96.9,39.6l1.6,662.6c0.4,55.3-12.7,96.7-38.8,123.1c-27.9,28.1-61.1,28.5-61.4,28.5c0,0-189.9-0.6-190-0.6
							C625.3,1114.3,594.5,1115.2,522.4,1115.2C522.4,1115.2,522.4,1115.2,522.4,1115.2z"/>
						<path class="st7" d="M570.6,224.6c44.7,0,90.5,4.2,136.2,12.6c36.6,6.7,73.3,16,109,27.8c49,16.1,82.7,32.4,94.2,38.2
							l1.6,660.1c0.2,34-4.8,62.9-14.9,85.9c-7.9,18-19,32.5-32.9,43c-23.5,17.8-47.6,18.4-48.4,18.4l-189.8-0.6c0,0,0,0,0,0
							c-0.1,0-0.2,0-0.3,0c-0.3,0-31,1-103.1,1c-36.1,0-76.5-0.2-120.1-0.7c-48.6-0.5-85.1-14.1-108.6-40.5
							c-17.9-20.1-24.9-44.3-27.6-61c-3-18.5-1.6-32.3-1.6-32.4c0-0.3,0-0.6,0-0.9l-1.4-552.4l-0.7-122.9
							C357,250,460.6,224.6,570.6,224.6 M570.6,216.2c-97.6,0-207.1,19.8-316.5,79l0.7,127.9l1.4,552.4c0,0-15.4,141.5,146,143.2
							c48.8,0.5,88.5,0.7,120.2,0.7c73.1,0,103.4-1,103.4-1l189.9,0.6c0,0,105.5-0.1,104.4-155.8c-0.4-175.8-1.7-665.1-1.7-665.1
							S769,216.2,570.6,216.2L570.6,216.2z"/>
					</g>
					<g>
						<path class="st9" d="M911.6,301.2l0.1,43.8c-318.7-58.7-555.1-16.8-654.1,4l-0.3-46.5C470.5,243.6,698.1,242.9,911.6,301.2z"
							/>
					</g>
					<g>
						<path class="st10" d="M912.3,303c-213.5-58.3-451.1-58-664.3,0.8c-15.5-27-11.4-49.8-6.6-87.1
							c242.9-67.1,432.7-67.3,675.9-0.8C926.3,258.1,927.7,275.9,912.3,303z"/>
					</g>
					<polygon class="st11" points="640.1,171.2 612.4,170.1 639.7,256.6 683.3,259.2 649.1,171.6 					"/>
					<polygon class="st11" points="523.2,171.2 550.9,170.1 522.4,256.6 479.7,259.2 514.2,171.6 					"/>
					<g>
						<path class="st9" d="M687.5,290.1c0,0,110,133.1,224.6,129l-0.7-106.4L687.5,290.1z"/>
					</g>
					<path class="st12" d="M305.8,1011.3c0,0-5.8,36.9,24.5,55"/>
					<path class="st12" d="M343,1076.9c0,0,44.2,22.9,114.3,19.8"/>
					<path class="st6" d="M648,169.5c0,0,8.5,173.8,270.7,230.1l14.7-68.5c0,0-207.6-41.8-242-158.5L648,169.5z"/>
					<polygon class="st7" points="674.2,1215.7 736.9,1240.6 711.5,1213.2 					"/>
					<polygon class="st7" points="430.6,1220.3 517.3,1186.5 458.9,1186.7 					"/>
					<line class="st6" x1="909.5" y1="383.9" x2="896.7" y2="380.5"/>
					<line class="st6" x1="882.2" y1="374.4" x2="867" y2="369.7"/>
					<g>
						<path class="st9" d="M486.6,290.1c0,0-110.4,133-225.1,128.8l0.9-106.8L486.6,290.1z"/>
					</g>
					<polygon class="st6" points="254,302.5 228.8,331.1 254.6,334.5 					"/>
					<path class="st6" d="M514.2,169.5c0,0-10.3,177.6-272.5,233.9l-12.9-72.3c0,0,207.6-41.8,242-158.5L514.2,169.5z"/>
					<line class="st6" x1="254.3" y1="386.3" x2="267.1" y2="382.9"/>
					<line class="st6" x1="645.5" y1="1248.5" x2="631.8" y2="1240"/>
					<line class="st6" x1="732.6" y1="1132.1" x2="739.9" y2="1139.8"/>
					<line class="st6" x1="756.2" y1="1154.4" x2="761.4" y2="1161.6"/>
					<path class="st6" d="M533.5,1149.3c0,0,3,7.8,7.7,9.6"/>
					<path class="st6" d="M526.1,1216.5c0,0,9.3-3,14.9-6.6"/>
					<path class="st6" d="M903.1,286.4c0,0,7.5-23,6-33"/>
					<path class="st6" d="M257.5,286c0,0,20.1-8.7,40.6-10.2"/>
					<path class="st6" d="M314.4,270.2c0,0,17.5-4.7,30.2-5"/>
					<g>
						<g>
							<path class="st6" d="M572.4,152.9c4.8,0.2,9.5,0.6,13.7,1.2c8.6,1.4,12.6,6.9,14.3,12.3l21.2,6.7c11.6,3.7,24,5.5,36.5,5.3
								c114-1.8,119.9-39.8,129.7-66.4c10.8-29.4,28.7-91.4,28.7-91.4C755.9,42.4,686,57.5,595.1,64.8
								C546,68.8,568.7,138.1,572.4,152.9z M600.8,158.2c0,0,59-68.7,121.1-72.7c1.7-0.1,3,1.1,2.7,2.5c-1.8,7.9-7.7,31.6-18.3,40.6
								c-12.9,11.1-23.4,11.1-76.2,24.8C615.1,156,600.8,158.2,600.8,158.2z"/>
							<path class="st6" d="M548.5,60.2c-64.4-11.2-154.6-42.1-219-47.1c0,0,12.1,32.4,23.9,49.6c3.9,5.7,6.8,11.8,8.5,18
								c8.9,33.6,11,89.2,125.1,94.5c19.2,0.9,38.3-2.2,56.2-8.8l16.9-6.3c1.9-6.9-1.6-7.6,7.8-9.5c4.5-0.9,9.7-1.4,14.9-1.6
								C586.9,130,601.5,69.4,548.5,60.2z M524.1,143.1c-58.9-17.5-50.2-19.6-41.8-37.7c8.4-18.1-10.1-29.4-10.1-29.4
								c70.6,2.3,83.6,70.4,83.6,70.4S540.9,146.5,524.1,143.1z"/>
							<path class="st6" d="M616.7,161.6c-0.6,2.2-2.3,4-4.7,5.5c-0.1,0-0.1,0.1-0.2,0.1c-6.5,3.8-18.2,5.3-29.6,5.8
								c-4.5,0.2-8.9,0.2-13,0.2c-2.9,0-5.7-0.1-8.1-0.2c-6.3-0.3-11.1-3.4-10.7-7.1c0-0.1,0-0.1,0-0.2c0.2-1.7,0.5-3.5,1.1-5.4
								c1.7-5.4,5.6-10.8,14-12.3c4.1-0.7,8.7-1.1,13.3-1.2c3.9-0.2,7.8-0.2,11.5-0.1c4.6,0.1,9,0.3,12.6,0.6
								c6.6,0.4,11.9,3.3,13.3,7.1C617.1,156.3,617.5,158.8,616.7,161.6z"/>
						</g>
					</g>
					<path class="st6" d="M562.1,162.7c0,0,1.1-2.3,4.8-2.7"/>
					<path class="st6" d="M718.2,159.2c0,0,14.8-4,19.6-7.2"/>
					<path class="st6" d="M749.8,147.1c0,0,7.6-3.2,9.1-4.4"/>
					<line class="st6" x1="357.5" y1="40.6" x2="361.5" y2="46.8"/>
					<line class="st6" x1="367.8" y1="56.1" x2="371.5" y2="61.1"/>
				</g>
				<path class="st7" d="M597.7,146.4l-10.6-1.5l2-49.8l-10.6-21.2c0,0,12.6-11.5,51.6-11.5C630.2,62.3,591.1,71.7,597.7,146.4z"/>
				<path class="st7" d="M658.2,212.2c0,0,13.5-18.4,47-8.8l-12.5-26.5l-42.1,2.1L658.2,212.2z"/>
				<path class="st7" d="M470.4,173.9l-14.5,31.2c0,0,20.1-14.1,43.8,17.7l13.9-48.2L470.4,173.9z"/>
			</g>
			<g>
				<g>
					<path class="st12" d="M466.9,501.1c0,0-1.4-7.4-6.5-11"/>
					<path class="st12" d="M479.8,501c0,0,2.2-10.9,0-13.2"/>
				</g>
				<g>
					<path class="st12" d="M671.3,495.8c0,0-0.6-7.5-5.4-11.6"/>
					<path class="st12" d="M683.3,497c0,0,3.3-10.7,1.3-13.2"/>
				</g>
				<path class="st12" d="M577.6,909.5c-5.1,0-9.2-4.1-9.2-9.2c0-5.1,4.1-9.2,9.2-9.2c2.5,0,4.8,1,6.5,2.7"/>
				<g>
					<path class="st12" d="M650.3,908.3c0,0-23.7,29.2,10.3,36"/>
					<g>
						<path class="st12" d="M642.2,927.5c-8.3,4.6-16.5,8.2-24.4,11.1"/>
						<path class="st12" d="M491.9,926.3c0,0,17.1,12.3,44.9,18.2"/>
						<path class="st12" d="M581.5,947c-2.7,0.3-5.3,0.5-7.9,0.6"/>
						<path class="st13" d="M573.6,948.7c0.3,10.1-7.7,18.5-17.8,18.8c-10.1,0.3-18.5-7.7-18.8-17.8l-0.1-5.1
							c10.7,2.3,23.1,3.7,36.7,3.1L573.6,948.7z"/>
						<path class="st13" d="M618,945.2c0.3,10.1-7.7,18.5-17.8,18.7c-9.8,0.3-18-7.3-18.7-16.9c11.4-1.2,23.6-3.8,36.4-8.4
							L618,945.2z"/>
					</g>
				</g>
				<path class="st7" d="M616.9,946.5c0.2,7.6-4.3,14.3-10.9,17.2c2.3-6.3,1.5-14.2,0.1-20.4c3.5-1,7-2.1,10.6-3.4L616.9,946.5z"/>
				<path class="st7" d="M572.5,950c0.2,8.8-5.9,16.4-14.2,18.3c2.9-5.7,2.7-13,1.7-19.4c4,0.2,8.2,0.2,12.5,0L572.5,950z"/>
				<g>
					<path class="st7" d="M534.1,721.7L534.1,721.7v85.9L516,824.1l15.1,18c-7.6,28.5-29.3,49.1-54.8,49.1
						c-31.9,0-57.7-32.1-57.7-71.7v-97.7l0,0c-0.3-7.4,0-15,0-22.6c0-104.8,25.8-189.8,57.7-189.8c31.9,0,57.7,85,57.7,189.8
						C534.1,706.8,534.3,714.3,534.1,721.7z"/>
					<path class="st7" d="M735.7,721.7L735.7,721.7v85.9l-57.7,10.1l54.8,24.4c-7.6,28.5-29.3,49.1-54.8,49.1
						c-31.9,0-57.7-32.1-57.7-71.7v-97.7l0,0c-0.3-7.4,0-15,0-22.6c0-104.8,25.8-189.8,57.7-189.8c31.9,0,57.7,85,57.7,189.8
						C735.7,706.8,735.9,714.3,735.7,721.7z"/>
				</g>
				<path class="st12" d="M492.3,487.8c0,0-4.5,11.3-12.5,13.2"/>
				<path class="st14" d="M465.3,539.3c0,0,33.9-73.8,50.7,140"/>
				<path class="st14" d="M517.9,700.2c0,0,2.4,34.8,0.7,60.3"/>
				<path class="st14" d="M677.9,524.7c0,0,18.9,11.1,27.4,58.8"/>
				<path class="st14" d="M710.5,600.4c0,0,6.8,11.4,11.1,81.6"/>
			</g>
			<path class="st6" d="M280.5,383.2c0,0,53.1-13.4,102.8-52.5"/>
		</g>
		<g>
			<line class="st15" x1="938.9" y1="1111.1" x2="938.9" y2="1153"/>
			<line class="st15" x1="959.5" y1="1132.1" x2="918.3" y2="1132.1"/>
			<polyline class="st15" points="932.1,1149.7 938.9,1143 945.5,1149.7 			"/>
			<polyline class="st15" points="932.1,1113.3 938.9,1119.9 945.5,1113.3 			"/>
			<polyline class="st15" points="920.9,1124.7 927.5,1131.6 920.9,1138.3 			"/>
			<polyline class="st15" points="956.7,1124.7 950.1,1131.6 956.7,1138.3 			"/>
		</g>
		<circle class="st16" cx="1074.5" cy="1076.9" r="10.3"/>
		<circle class="st17" cx="19.9" cy="1115" r="10.3"/>
	</g>
	<path class="st7" d="M218.5,773.6c-1.4,13.6,8.9,25.6,22.5,27.3l17.4,2.1c2.9,0.4,5.9-1.3,6.9-4.1c0.7-2.1,0.2-4.3-1-5.9
		c-1-1.3-2.4-2.1-4.1-2.3l-14.5-1.8c-6.9-0.8-12.3-7.2-11.3-14.1c0.5-3.3,2.2-6.1,4.6-8c1.6-1.2,3.4-2.1,5.4-2.4
		c1.9-0.3,3.8-0.1,5.6,0.4L351,810.1l15.3-43.8l-120.1-14.7C232.5,749.9,220,759.8,218.5,773.6z"/>
	<path class="st7" d="M948.3,752.7c4,13-3.7,26.8-16.7,31.1l-16.6,5.5c-2.8,0.9-6-0.1-7.5-2.6c-1.1-2-1.1-4.2-0.2-5.9
		c0.7-1.4,2-2.6,3.6-3.1l13.9-4.6c6.6-2.2,10.6-9.5,8.3-16.1c-1.1-3.1-3.4-5.6-6.1-7c-1.8-0.9-3.7-1.4-5.8-1.3
		c-1.9,0-3.7,0.6-5.4,1.5l-90.3,64.2l-23.5-40l114.9-37.9C930,732.2,944.2,739.4,948.3,752.7z"/>
	<g>
		<rect x="691.9" y="760.8" class="st7" width="110" height="89"/>
		<rect x="357.7" y="760.8" class="st7" width="76.6" height="89"/>
		<path class="st18" d="M427.7,835.8c0,26.2-16.9,41.9-26.2,41.9c-12.9,0-1.6-11.2-22.9-11.2h-77.3c-4.2,0-13.6,0.5-13.6-6.1
			c0-3.7-0.5-3.7,17.1-20.4c11.9-11.2,40.3-40.5,40.3-57.1c0-8.2-4.9-13.3-13.1-13.3c-14.3,0-17.1,13.6-27.9,13.6
			c-6.8,0-15.2-6.6-15.2-13.6c0-20.6,44-41,72.8-41c39.6,0,56,18.3,56,36.8c0,30-39.3,49.2-39.3,58.8c0,5.4,5.6,8.2,10.3,8.2
			c16.6,0,20.8-14,28.6-14C425.8,818.2,427.7,829,427.7,835.8z"/>
		<path class="st18" d="M622,838.9c3.8-3.6,8.9-8.7,14.2-14.6c4.2,2,8.9,3.2,13.9,3.2c7.9,0,15-2.8,20.6-7.5
			c7-5.9,11.4-14.7,11.4-24.5c0-17.7-14.3-32-32.1-32c-12.4,0-23.2,7-28.5,17.4h-9.1c-4.2-2.5-7.6-6.8-7.6-11.2
			c0-20.6,44-41,72.8-41c39.6,0,56,18.3,56,36.8c0,30-39.3,49.2-39.3,58.8c0,5.4,5.6,8.2,10.3,8.2c16.6,0,20.8-14.1,28.6-14.1
			c8.7,0,10.5,10.8,10.5,17.6c0,26.2-16.9,41.9-26.2,41.9c-12.9,0-1.6-11.2-22.9-11.2h-77.3c-4.2,0-13.6,0.5-13.6-6.1
			c0-3.7-0.5-3.7,15.8-19.2L622,838.9z"/>
		<path class="st19" d="M682.1,795.4c0,0,39.3-20,42.7-5.5c0,0,23.3-43-6-53.8c-29.3-10.9-103.2-4.4-113.9,33.5
			c-1.2,11.2,11.8,19.2,32.8-2.4C658.7,745.4,690.6,773.7,682.1,795.4z"/>
		<path class="st7" d="M636.2,824.3c-5.3,5.8-10.4,10.9-14.2,14.6c-0.4,0.4-0.8,0.8-1.2,1.1c-0.4,0.4-0.8,0.8-1.2,1.2l-28.1-15
			c-8.5-6.3-17.6-6.3-26.1,0L543.7,843v-62.2h68.7c2.5,1.5,5.2,2.4,7.7,2.4h0.4c-1.6,3.8-2.5,7.9-2.5,12.3c0,5.6,1.5,10.9,4,15.5
			C625.2,816.7,630.2,821.4,636.2,824.3z"/>
		<path class="st20" d="M683,796.3c0,9.8-4.4,18.7-11.4,24.5c-5.6,4.7-12.8,7.5-20.6,7.5c-5,0-9.7-1.1-13.9-3.2
			c-6-2.9-10.9-7.6-14.2-13.4c-2.5-4.6-4-9.9-4-15.5c0-4.4,0.9-8.5,2.5-12.3c0.3-0.8,0.7-1.6,1.1-2.4c5.3-10.3,16.1-17.4,28.5-17.4
			C668.6,764.3,683,778.6,683,796.3z"/>
		<path class="st19" d="M332.4,811.9c0,0,47.2-66.3,84-37.8c0,0-0.5-52.9-58.8-45.4s-75.3,40-60,52.8c15.2,12.8,40.2-26,43.6-5.1
			C344.6,797.3,332.4,811.9,332.4,811.9z"/>
		<path class="st19" d="M332.4,866.5c0,0,54.1-15,61.3-34.7l26.3-13.5l6.3,29.7l-15,29.7l-13.8,2.2l-11.8-14.5L332.4,866.5z"/>
		<path class="st18" d="M482.8,728.6c-41.2,0-65.3,29.7-65.3,69.3c0,38.9,26.7,71.9,67.2,71.9c30.7,0,68.1-22.9,68.1-69.1
			C552.8,761.8,522.4,728.6,482.8,728.6z M485.2,831.2c-17.7,0-32-14.3-32-32c0-17.7,14.3-32,32-32c17.7,0,32,14.3,32,32
			C517.2,816.9,502.9,831.2,485.2,831.2z"/>
		<path class="st20" d="M427.7,835.8c0,26.2-16.9,41.9-26.2,41.9c-12.9,0-1.6-11.2-22.9-11.2h-77.3c-4.2,0-13.6,0.5-13.6-6.1
			c0-3.7-0.5-3.7,17.1-20.4c11.9-11.2,40.3-40.5,40.3-57.1c0-8.2-4.9-13.3-13.1-13.3c-14.3,0-17.1,13.6-27.9,13.6
			c-6.8,0-15.2-6.6-15.2-13.6c0-20.6,44-41,72.8-41c39.6,0,56,18.3,56,36.8c0,30-39.3,49.2-39.3,58.8c0,5.4,5.6,8.2,10.3,8.2
			c16.6,0,20.8-14,28.6-14C425.8,818.2,427.7,829,427.7,835.8z"/>
		<path class="st19" d="M629,863.9c0,0,68.1-16,82.6-32.7l21.1-13l10.5,17.6c0,0-3.2,42.5-26.2,41.9c0,0-15-12.5-22.9-11.2
			C686.1,867.8,629,863.9,629,863.9z"/>
		<path class="st19" d="M527,744.7c0,0-23.9,3.3-28.1,25.5c0,0-44.9-16-44.4,38.4c0,0,1.7,24.4,30.6,22.6c0,0-8.8,22.7,2.8,38.5
			c-5.7,3.1-72.8-4.4-69.5-77.5S505.1,712.4,527,744.7z"/>
		<path class="st20" d="M622,838.9c3.8-3.6,8.9-8.7,14.2-14.6c4.2,2,8.9,3.2,13.9,3.2c7.9,0,15-2.8,20.6-7.5
			c7-5.9,11.4-14.7,11.4-24.5c0-17.7-14.3-32-32.1-32c-12.4,0-23.2,7-28.5,17.4h-9.1c-4.2-2.5-7.6-6.8-7.6-11.2
			c0-20.6,44-41,72.8-41c39.6,0,56,18.3,56,36.8c0,30-39.3,49.2-39.3,58.8c0,5.4,5.6,8.2,10.3,8.2c16.6,0,20.8-14.1,28.6-14.1
			c8.7,0,10.5,10.8,10.5,17.6c0,26.2-16.9,41.9-26.2,41.9c-12.9,0-1.6-11.2-22.9-11.2h-77.3c-4.2,0-13.6,0.5-13.6-6.1
			c0-3.7-0.5-3.7,15.8-19.2L622,838.9z"/>
		<path class="st20" d="M482.8,728.6c-41.2,0-65.3,29.7-65.3,69.3c0,38.9,26.7,71.9,67.2,71.9c30.7,0,68.1-22.9,68.1-69.1
			C552.8,761.8,522.4,728.6,482.8,728.6z M485.2,831.2c-17.7,0-32-14.3-32-32c0-17.7,14.3-32,32-32c17.7,0,32,14.3,32,32
			C517.2,816.9,502.9,831.2,485.2,831.2z"/>
		<path class="st18" d="M868.1,835.8c0,26.2-16.9,41.9-26.2,41.9c-12.9,0-1.6-11.2-22.9-11.2h-77.3c-4.2,0-13.6,0.5-13.6-6.1
			c0-3.7-0.5-3.7,17.1-20.4c11.9-11.2,40.3-40.5,40.3-57.1c0-8.2-4.9-13.3-13.1-13.3c-14.3,0-17.1,13.6-27.9,13.6
			c-6.8,0-15.2-6.6-15.2-13.6c0-20.6,44-41,72.8-41c39.6,0,56,18.3,56,36.8c0,30-39.3,49.2-39.3,58.8c0,5.4,5.6,8.2,10.3,8.2
			c16.6,0,20.8-14,28.6-14C866.2,818.2,868.1,829,868.1,835.8z"/>
		<path class="st19" d="M784.6,777.6c0,0,10.1-49.9,56.9-39.9c0,0-80.7-28.8-112.3,31.8c0,0,0,26.8,43.1,0
			C777.1,768.2,778.6,780.1,784.6,777.6z"/>
		<path class="st19" d="M753.9,863.9c0,0,68.1-16,82.6-32.7l21.1-13l10.5,17.6c0,0-3.2,42.5-26.2,41.9c0,0-15-12.5-22.9-11.2
			C810.9,867.8,753.9,863.9,753.9,863.9z"/>
		<path class="st20" d="M868.1,835.8c0,26.2-16.9,41.9-26.2,41.9c-12.9,0-1.6-11.2-22.9-11.2h-77.3c-4.2,0-13.6,0.5-13.6-6.1
			c0-3.7-0.5-3.7,17.1-20.4c11.9-11.2,40.3-40.5,40.3-57.1c0-8.2-4.9-13.3-13.1-13.3c-14.3,0-17.1,13.6-27.9,13.6
			c-6.8,0-15.2-6.6-15.2-13.6c0-20.6,44-41,72.8-41c39.6,0,56,18.3,56,36.8c0,30-39.3,49.2-39.3,58.8c0,5.4,5.6,8.2,10.3,8.2
			c16.6,0,20.8-14,28.6-14C866.2,818.2,868.1,829,868.1,835.8z"/>
	</g>
	<g>
		<polygon class="st21" points="853.4,699.6 857.6,708.9 866.2,714.5 856.9,718.8 851.3,727.4 847,718 838.4,712.4 847.8,708.2 		
			"/>
		<polygon class="st21" points="827.2,714.2 834.4,730 849,739.5 833.2,746.6 823.7,761.2 816.5,745.4 801.9,735.9 817.8,728.8 		
			"/>
	</g>
</g>
</svg>
