<?xml version="1.0" encoding="utf-8"?>
<!-- Generator: Adobe Illustrator 25.4.1, SVG Export Plug-In . SVG Version: 6.00 Build 0)  -->
<svg version="1.1" id="Layer_1" xmlns="http://www.w3.org/2000/svg" xmlns:xlink="http://www.w3.org/1999/xlink" x="0px" y="0px"
	 viewBox="0 0 986.47 181.13" style="enable-background:new 0 0 986.47 181.13;" xml:space="preserve">
<style type="text/css">
	.st0{fill:#261F26;}
</style>
<g>
	<path class="st0" d="M35.65,60.82c0.24-12.42-8.8-6.39-8.8-14.23c0-5.55,7-6.39,11.22-6.39h39.32c33.53,0,44.51,20.75,44.51,42.46
		c0,22.44-13.15,43.54-43.66,43.54c-5.19,0-9.53-0.12-13.27-0.36c-3.74-0.12-7-0.24-10.37-0.24c-3.38,0-6.88,0.12-10.25,0.24
		c-3.38,0.24-6.75,0.36-10.25,0.36c-4.1,0-9.29-2.05-9.29-6.88c0-8.68,9.53,0.97,9.89-16.65L35.65,60.82z M64.6,104.96
		c0,6.15,0.96,8.69,7.48,8.69c15.2,0,17.85-15.56,17.85-27.62c0-28.23-10.62-32.69-19.9-32.69c-5.06,0-5.43,2.05-5.43,6.63V104.96z"
		/>
	<path class="st0" d="M126.97,97.73c0-21.59,18.94-33.77,38.84-33.77c21.11,0,33.17,16.52,33.17,31.48
		c0,19.78-21.23,31.84-38.96,31.84C142.17,127.28,126.97,116.79,126.97,97.73z M160.62,78.19c-3.98,0-6.15,3.74-5.91,7.24
		c0.48,7.6,2.66,26.17,10.98,26.66c4.58,0.24,5.55-3.62,5.55-7.48C171.24,99.17,168.82,78.19,160.62,78.19z"/>
	<path class="st0" d="M243.98,67.45c0-12.55,12.06-28.11,35.46-28.11c7.72,0,16.4,3.5,18.21,3.5c1.69,0,3.38-1.45,5.91-1.45
		c4.1,0,13.27,8.93,13.27,19.06c0,4.1-2.65,8.2-7.12,8.2c-8.08,0-12.79-13.75-25.33-13.75c-3.74,0-7.72,1.69-7.72,6.03
		c0,9.53,16.52,7,30.52,16.28c7.48,4.95,11.22,10.98,11.22,20.02c0,14.11-11.58,30.04-39.68,30.04c-7.96,0-21.59-2.05-28.47-5.79
		c-5.79-3.26-8.56-16.04-8.56-22.19c0-3.26,1.45-6.51,5.07-6.51c8.56,0,7.12,19.18,29.31,19.18c2.66,0,9.29-1.33,9.29-5.91
		c0-8.69-16.52-6.51-29.91-17.25C248.8,83.49,243.98,76.14,243.98,67.45z"/>
	<path class="st0" d="M323.11,97.73c0-21.59,18.94-33.77,38.84-33.77c21.11,0,33.17,16.52,33.17,31.48
		c0,19.78-21.23,31.84-38.96,31.84C338.31,127.28,323.11,116.79,323.11,97.73z M356.76,78.19c-3.98,0-6.15,3.74-5.91,7.24
		c0.48,7.6,2.66,26.17,10.98,26.66c4.58,0.24,5.55-3.62,5.55-7.48C367.38,99.17,364.97,78.19,356.76,78.19z"/>
	<path class="st0" d="M405.74,91.94c0-7.72-1.57-9.89-2.77-10.98c-1.57-1.33-3.26-1.21-3.26-4.34c0-8.93,29.91-12.3,30.16-12.3
		c3.02,0,3.26,2.65,3.26,5.19c0,1.45-0.48,5.55,2.05,5.55c1.21,0,3.14-2.65,6.51-5.43c3.38-2.65,8.2-5.31,15.32-5.31
		c14.35,0,14.48,10.73,17.01,10.73c0.97,0,3.14-2.65,6.63-5.43c3.62-2.65,8.44-5.31,14.59-5.31c11.46,0,18.58,6.27,18.58,18.09
		v25.45c0,7,4.46,7.6,4.46,11.1c0,7.6-13.75,7.96-18.46,7.96c-3.98,0-17.97-0.84-17.97-7.12c0-4.46,4.22-4.34,4.22-11.34V97.61
		c0-5.07,0.6-15.2-6.27-15.2c-6.75,0-6.15,8.2-6.15,12.66v7.48c0,14.84,4.34,12.3,4.34,16.77c0,7.48-14.48,7.6-18.82,7.6
		c-18.21,0-19.18-3.38-19.06-6.76c0.12-6.39,6.15-1.33,5.79-15.68v-6.88c0-4.34,0.6-15.2-6.27-15.2c-6.75,0-6.15,8.2-6.15,12.66
		v9.77c0,11.1,3.26,10.37,3.26,14.72c0,3.13-2.77,7.36-19.3,7.36c-4.7,0-18.94,0.12-18.94-6.27c0-5.43,7.24-2.53,7.24-17.61V91.94z"
		/>
	<path class="st0" d="M551.46,97.85c-1.33,0-3.26-0.36-3.26,1.69c0,6.03,7.84,11.1,13.51,11.1c9.05,0,13.51-5.43,16.04-5.43
		c2.53,0,4.7,3.74,4.7,6.03c0,9.29-17.01,16.04-27.86,16.04c-21.71,0-32.93-15.68-32.93-31.24c0-18.58,15.8-32.09,33.89-32.09
		c20.51,0,29.55,15.8,29.55,24.85c0,7.96-3.62,9.05-7.48,9.05H551.46z M561.95,82.65c0-4.34-2.65-7.72-7.12-7.72
		c-3.98,0-7.24,4.1-7.24,7.96c0,4.34,4.1,3.38,7.24,3.38C558.09,86.27,561.95,86.99,561.95,82.65z"/>
	<path class="st0" d="M625.88,99.54c0,8.08,3.38,10.01,6.63,10.01c3.74,0,5.91-2.77,8.08-2.77c2.41,0,4.1,3.38,4.1,5.55
		c0,7.96-13.75,14.96-25.93,14.96c-6.15,0-21.59-2.65-21.59-21.83V80.6c0-2.17,0-3.02-0.6-3.38c-0.6-0.36-1.93-0.12-4.7-0.12
		c-3.14,0-4.7,0.12-5.31-0.48c-0.84-0.84-0.6-2.05-0.6-4.83c0-1.69-0.36-3.02,1.09-3.98l27.5-17.49c2.77-1.69,2.65-1.33,6.27-1.33
		c4.82,0,5.07-0.48,5.07,5.07c0,3.74-0.24,7.48,0.36,8.93c0.36,0.97,1.21,0.97,4.34,0.97h8.44c5.19,0,5.19,0.36,5.19,5.79
		c0,6.88-0.84,7.36-5.55,7.36h-8.32c-4.22,0-4.46,0.12-4.46,4.46V99.54z"/>
	<path class="st0" d="M724.44,107.62c0,10.25,5.91,7.72,5.91,12.42c0,7-15.44,6.88-19.9,6.88c-3.74,0-18.34,0-18.34-6.15
		c0-3.5,3.38-3.38,4.34-9.53c0.72-3.86,0.84-8.08,0.84-12.06c0-6.03-0.12-17.37-8.69-17.37c-7.36,0-7.12,6.27-7.12,11.7v13.99
		c0,10.01,4.82,7.96,4.82,12.3c0,7-13.75,7.12-18.33,7.12c-17.25,0-21.23-3.62-21.23-7.36c0-4.83,4.7-2.65,6.75-10.49
		c1.45-5.67,1.45-21.59,1.45-28.23c0-5.43-0.36-10.98-0.48-16.41c-0.24-8.56-7.48-5.55-7.48-11.22c0-9.65,31.36-12.18,31.48-12.18
		c3.62,0,3.86,1.09,3.86,4.58l-0.72,22.92c-0.12,2.29-0.24,6.15,2.89,6.15c3.62,0,5.19-10.73,18.7-10.73
		c22.19,0,20.63,20.87,20.75,24.24L724.44,107.62z"/>
	<path class="st0" d="M768.35,103.28c0,14.23,7.12,9.05,7.12,15.44c0,8.2-15.32,8.2-20.75,8.2c-20.75,0-21.59-4.7-21.59-7.6
		c0-4.34,4.95-4.58,6.39-8.32c1.57-4.22,1.81-21.71,0.48-26.17c-1.09-4.22-7.24-2.9-7.24-8.32c0-8.56,30.64-12.18,31.84-12.18
		c3.62,0,3.74,2.77,3.74,5.31V103.28z M744.47,60.46c-5.07,0-10.49-2.29-10.49-8.2c0-7.96,15.92-11.22,22.07-11.22
		c4.82,0,11.7,1.57,11.7,7.6C767.75,58.04,751.34,60.46,744.47,60.46z"/>
	<path class="st0" d="M812.74,105.45c0,11.7,4.1,9.65,4.1,14.23c0,7.48-16.04,7.24-20.99,7.24c-4.83,0-17.13,0-17.13-7.24
		c0-5.79,5.55-0.6,5.91-12.42l0.48-18.09c0.24-8.93-7.12-6.03-7.12-12.42c0-6.39,27.74-12.42,30.16-12.42c2.65,0,4.34,2.29,4.34,4.7
		c0,0.72-0.12,1.45-0.12,2.17c0,1.45,0.6,3.14,2.41,3.14c1.93,0,3.02-2.53,5.43-5.07c2.41-2.41,6.03-4.95,12.91-4.95
		c24.97,0,20.75,24.48,21.95,42.82c0.6,9.53,5.55,7.36,5.55,12.54c0,2.17,0.48,7.24-22.19,7.24c-4.34,0-15.92,0.24-15.92-6.51
		c0-4.34,3.98-2.29,4.58-10.13c0.6-8.56,3.98-27.86-7.36-27.86c-7.72,0-7,8.32-7,13.75V105.45z"/>
	<path class="st0" d="M894.29,150.08c-22.31,0-30.76-8.44-30.76-16.16c0-6.99,6.63-7.12,6.63-8.92c0-1.57-6.51-4.95-6.51-10.25
		c0-8.56,9.77-11.1,9.77-12.79c0-1.45-8.2-7-8.2-15.92c0-14.6,18.21-21.35,30.4-21.35c6.15,0,14.48,2.29,18.7,2.29
		c9.17,0,13.75-6.39,15.56-6.39c2.77,0,3.98,3.62,3.98,5.91c0,6.76-6.75,11.58-6.75,12.91c0,1.21,0.36,2.53,0.36,3.74
		c0,16.28-18.94,21.83-32.21,21.83c-2.05,0-4.1-0.36-6.27-0.36c-2.05,0-3.26,1.33-3.26,3.26c0,3.74,5.31,4.46,8.08,4.46
		c3.74,0,17.73-2.05,22.56-2.05c12.54,0,17.85,7.12,17.85,14.35C934.21,135.48,923.84,150.08,894.29,150.08z M895.49,139.7
		c3.98,0,13.03-0.6,13.03-6.15c0-2.53-2.41-3.62-4.7-3.62c-1.81,0-6.51,0.72-10.37,0.72c-2.77,0-9.29-0.97-10.61-0.97
		c-1.09,0-1.45,1.09-1.45,1.93C881.38,138.01,890.79,139.7,895.49,139.7z M896.22,73.48c-4.7,0-6.76,4.46-6.76,8.69
		c0,4.58,1.21,14.59,7.36,14.59c5.43,0,7.24-4.7,7.24-9.41C904.06,82.41,902.97,73.48,896.22,73.48z"/>
	<path class="st0" d="M954,127.28c-8.08,0-14.59-6.51-14.59-14.6c0-8.08,6.51-14.59,14.59-14.59c8.08,0,14.59,6.51,14.59,14.59
		C968.59,120.77,962.08,127.28,954,127.28z"/>
</g>
</svg>
