<?xml version="1.0" encoding="utf-8"?>
<!-- Generator: Adobe Illustrator 25.4.1, SVG Export Plug-In . SVG Version: 6.00 Build 0)  -->
<svg version="1.1" id="Layer_1" xmlns="http://www.w3.org/2000/svg" xmlns:xlink="http://www.w3.org/1999/xlink" x="0px" y="0px"
	 viewBox="0 0 966.1 366.3" style="enable-background:new 0 0 966.1 366.3;" xml:space="preserve">
<style type="text/css">
	.st0{fill:#F3614A;}
	.st1{fill:#26201D;}
	.st2{fill:#F3614A;stroke:#26201D;stroke-width:5;stroke-linecap:round;stroke-linejoin:round;stroke-miterlimit:10;}
	.st3{fill:#4D17B3;stroke:#26201D;stroke-width:5;stroke-linecap:round;stroke-linejoin:round;stroke-miterlimit:10;}
	.st4{fill:#A780F1;}
	.st5{fill:none;stroke:#26201D;stroke-width:5;stroke-linejoin:round;}
	.st6{fill:#412587;}
	.st7{fill:#22AE95;stroke:#26201D;stroke-width:5;stroke-linecap:round;stroke-linejoin:round;stroke-miterlimit:10;}
	.st8{fill:none;stroke:#26201D;stroke-width:5;stroke-linecap:round;stroke-linejoin:round;stroke-miterlimit:10;}
	.st9{fill:#FFFFFF;}
	.st10{fill:#EAFFD2;stroke:#26201D;stroke-width:5;stroke-linecap:round;stroke-linejoin:round;stroke-miterlimit:10;}
</style>
<g>
	<g>
		<g>
			<g>
				<g>
					<g>
						<path class="st0" d="M463.7,46.3c-3.7-0.3-11.4-1-21-1.8c-5.2-0.4-10.5-0.8-15.8-1.1c-5.6-6.6-10.8-12.6-15.5-17.9
							c-0.4-0.5-1.2-0.7-2.1-0.7c0,0-0.1,0-0.1,0c-0.9,0-1.9,0.1-2.9,0.1c-16,0.2-48.5-2.2-89.1-6c-0.1,0-0.3,0-0.5,0
							c-1.3,0-2.7,0.6-3.6,1.4c-0.9,0.9-0.6,1.8,0.7,2c48.6,7.6,78.4,15.6,88.2,20.1c-13.1-0.3-26.7-0.4-40.6-0.1
							c-5.8,0.1-11.7,0.3-17.6,0.5c-2.7,0.1-5.4,0.2-8,0.2c-41.2,1.4-93.6-3.6-104.1-22.1c-4.7-7.9,0.7-14.3,3.8-16.8
							c34.2,2.4,84.8,4.9,132.5,8.3c47,3.2,91,7.3,97.7,9.4c10.6,3.1,5.9,12.2-0.9,22.7C464.3,45.3,464,45.8,463.7,46.3z"/>
						<path class="st1" d="M236.5,5.5c39.3,2.6,90.5,5.3,136.4,8.7c45.4,3.3,85.5,7.3,91.4,9.2c6.8,2.2,6.5,6.9-2.3,20.1
							c0,0.1-0.1,0.1-0.1,0.2c-4.1-0.4-10.8-0.9-18.7-1.6c-4.7-0.4-9.6-0.7-14.4-1c-5.3-6.2-10.3-11.8-14.9-16.8
							c-0.8-0.9-2.4-1.4-4.2-1.4c-0.1,0-0.1,0-0.2,0c-0.8,0-1.8,0-2.7,0.1c-15.7,0.2-47.9-2.2-88-5.8c-0.3,0-0.6,0-0.9,0
							c-2.5,0.1-5.5,1.1-7.1,2.7c-1.8,1.8-1.2,3.6,1.3,4c0,0,0,0,0.1,0c34.8,5.6,60.3,11.4,75.1,15.8c-8.3-0.1-16.7,0-25.2,0.1
							c-5.8,0.1-11.7,0.3-17.5,0.5c-2.7,0.1-5.3,0.2-7.9,0.2c-32.4,0.8-58.1-1.4-75.6-6.2c-13.8-3.7-22.7-8.9-26.3-14.8
							C230.9,13.6,233.7,8.4,236.5,5.5 M234.8,2.7c0.1-0.3-12.7,7.8-6.1,19.3c6.4,10.9,32.1,25.3,106.4,23.3
							c2.6-0.1,5.3-0.1,8.1-0.2c5.9-0.2,11.7-0.4,17.6-0.5c16.2-0.3,32.4-0.2,48.4,0.4c1-4.4-23.1-10.9-46-15.7
							c-23.2-4.9-45.1-8.2-47.7-8.6c26.2,2.4,68.5,6.3,90.2,6.1c1,0,2,0,3-0.1c4.9,5.6,10.4,12,16.2,19c5.8,0.3,11.5,0.7,17.1,1.2
							c13.8,1.1,23.5,2.1,23.5,2.1c0.5-3,19.6-24.2,1.4-28.6c-9.6-3.1-73.8-7.7-128.7-11.2C282.3,5.6,235.7,3.2,234.8,2.7
							C234.8,2.7,234.8,2.7,234.8,2.7z"/>
					</g>
					<g>
						<path class="st0" d="M463.7,46.3c-3.7-0.3-11.4-1-21-1.8c-5.2-0.4-10.5-0.8-15.8-1.1c-5.6-6.6-10.8-12.6-15.5-17.9
							c-0.4-0.5-1.2-0.7-2.1-0.7c0,0-0.1,0-0.1,0c-0.9,0-1.9,0.1-2.9,0.1c-16,0.2-48.5-2.2-89.1-6c-0.1,0-0.3,0-0.5,0
							c-1.3,0-2.7,0.6-3.6,1.4c-0.9,0.9-0.6,1.8,0.7,2c48.6,7.6,78.4,15.6,88.2,20.1c-13.1-0.3-26.7-0.4-40.6-0.1
							c-5.8,0.1-11.7,0.3-17.6,0.5c-2.7,0.1-5.4,0.2-8,0.2c-41.2,1.4-93.6-3.6-104.1-22.1c-4.7-7.9,0.7-14.3,3.8-16.8
							c34.2,2.4,84.8,4.9,132.5,8.3c47,3.2,91,7.3,97.7,9.4c10.6,3.1,5.9,12.2-0.9,22.7C464.3,45.3,464,45.8,463.7,46.3z"/>
						<path class="st1" d="M236.5,5.5c39.3,2.6,90.5,5.3,136.4,8.7c45.4,3.3,85.5,7.3,91.4,9.2c6.8,2.2,6.5,6.9-2.3,20.1
							c0,0.1-0.1,0.1-0.1,0.2c-4.1-0.4-10.8-0.9-18.7-1.6c-4.7-0.4-9.6-0.7-14.4-1c-5.3-6.2-10.3-11.8-14.9-16.8
							c-0.8-0.9-2.4-1.4-4.2-1.4c-0.1,0-0.1,0-0.2,0c-0.8,0-1.8,0-2.7,0.1c-15.7,0.2-47.9-2.2-88-5.8c-0.3,0-0.6,0-0.9,0
							c-2.5,0.1-5.5,1.1-7.1,2.7c-1.8,1.8-1.2,3.6,1.3,4c0,0,0,0,0.1,0c34.8,5.6,60.3,11.4,75.1,15.8c-8.3-0.1-16.7,0-25.2,0.1
							c-5.8,0.1-11.7,0.3-17.5,0.5c-2.7,0.1-5.3,0.2-7.9,0.2c-32.4,0.8-58.1-1.4-75.6-6.2c-13.8-3.7-22.7-8.9-26.3-14.8
							C230.9,13.6,233.7,8.4,236.5,5.5 M234.8,2.7c0.1-0.3-12.7,7.8-6.1,19.3c6.4,10.9,32.1,25.3,106.4,23.3
							c2.6-0.1,5.3-0.1,8.1-0.2c5.9-0.2,11.7-0.4,17.6-0.5c16.2-0.3,32.4-0.2,48.4,0.4c1-4.4-23.1-10.9-46-15.7
							c-23.2-4.9-45.1-8.2-47.7-8.6c26.2,2.4,68.5,6.3,90.2,6.1c1,0,2,0,3-0.1c4.9,5.6,10.4,12,16.2,19c5.8,0.3,11.5,0.7,17.1,1.2
							c13.8,1.1,23.5,2.1,23.5,2.1c0.5-3,19.6-24.2,1.4-28.6c-9.6-3.1-73.8-7.7-128.7-11.2C282.3,5.6,235.7,3.2,234.8,2.7
							C234.8,2.7,234.8,2.7,234.8,2.7z"/>
					</g>
					<path class="st2" d="M315.3,20.6c0,0,0.1,0,0.2,0"/>
				</g>
				<g>
					<g>
						<path class="st0" d="M481.9,43.9c-1.9-7.2-5.2-19.5,9.1-22.7c7.6-2,53.2-5.3,102.8-7.8c50.1-2.6,104.3-4.5,140.9-6.2
							c1.5,2.8,2.9,9-4.2,16.3c-17,17.8-68,22.6-106.2,21.4c0,0,0,0,0,0c-6.5-0.1-13.3-0.4-20.2-0.8c-14.8-0.8-29.5-1.3-43.5-1.5
							c-4.7-0.1-9.4-0.1-14.1-0.1c14-5,51.7-12.6,98.5-18.3c1.3-0.2,1.8-1.1,0.9-2c-0.7-0.9-2.3-1.5-3.6-1.5c-0.1,0-0.2,0-0.4,0
							c-28,1.9-68.4,4.6-90.3,4.4c-2.4,0-4.5-0.1-6.4-0.2c-0.1,0-0.1,0-0.2,0c-0.7,0-1.4,0.2-1.9,0.5c-7.2,5.2-15,11.1-23.2,17.6
							c-5.6,0.2-11.1,0.4-16.5,0.7c-9.5,0.5-17.2,1.1-21.2,1.3C482.1,44.8,482,44.4,481.9,43.9z"/>
						<path class="st1" d="M732.5,8.7c2.9,7.2-5.5,35.4-109,33.9c-6.4-0.1-13.1-0.4-20-0.8c-13.8-0.8-27.4-1.2-40.5-1.4
							c8.1-2,19.3-4.3,34.6-7c25.4-4.4,48.6-7.3,48.9-7.3c2.7-0.3,3.6-2.2,1.9-4.1c-1.5-1.7-4.6-2.9-7.2-2.9c-0.2,0-0.5,0-0.7,0
							c-40.2,2.7-72.4,4.5-89.4,4.3c-2.3,0-4.4-0.1-6.1-0.2c-0.1,0-0.3,0-0.4,0c-1.5,0-2.8,0.3-3.8,1c-7,4.9-14.5,10.5-22.4,16.6
							c-5.2,0.2-10.3,0.4-15.3,0.7c-7.6,0.4-14.1,0.8-18.4,1.1c-2.6-9.8-2.9-17.3,7.5-19.9c6.8-1.8,48.1-5,95.8-7.6
							C636,12.5,690.5,10.5,732.5,8.7 M736.3,5.7c-0.6,0.3-51.1,2-110.4,4.7c-58.3,2.7-125.4,6.4-136,9.2
							c-20.5,3.9-9.9,25.1-10.4,28.1c0,0,10.1-0.7,24.2-1.6c5.8-0.3,11.8-0.6,17.6-0.8c8.5-6.8,16.6-13,24-18.5
							c1.9,0.1,4.2,0.2,6.6,0.2c22.9,0.2,64.6-2.7,91.3-4.6c-1.5,0.2-25.6,3-51.7,7.5c-25.7,4.4-53.4,10.5-54.1,14.9
							c7.8-0.1,15.6-0.1,23.4,0c14.6,0.2,29.1,0.7,43.6,1.5c7.2,0.4,14,0.7,20.4,0.8c69.2,1.7,98-11.8,108.4-22.4
							C744,13.7,736.1,5.6,736.3,5.7C736.3,5.7,736.3,5.7,736.3,5.7z"/>
					</g>
					<g>
						<path class="st0" d="M481.9,43.9c-1.9-7.2-5.2-19.5,9.1-22.7c7.6-2,53.2-5.3,102.8-7.8c50.1-2.6,104.3-4.5,140.9-6.2
							c1.5,2.8,2.9,9-4.2,16.3c-17,17.8-68,22.6-106.2,21.4c0,0,0,0,0,0c-6.5-0.1-13.3-0.4-20.2-0.8c-14.8-0.8-29.5-1.3-43.5-1.5
							c-4.7-0.1-9.4-0.1-14.1-0.1c14-5,51.7-12.6,98.5-18.3c1.3-0.2,1.8-1.1,0.9-2c-0.7-0.9-2.3-1.5-3.6-1.5c-0.1,0-0.2,0-0.4,0
							c-28,1.9-68.4,4.6-90.3,4.4c-2.4,0-4.5-0.1-6.4-0.2c-0.1,0-0.1,0-0.2,0c-0.7,0-1.4,0.2-1.9,0.5c-7.2,5.2-15,11.1-23.2,17.6
							c-5.6,0.2-11.1,0.4-16.5,0.7c-9.5,0.5-17.2,1.1-21.2,1.3C482.1,44.8,482,44.4,481.9,43.9z"/>
						<path class="st1" d="M732.5,8.7c2.9,7.2-5.5,35.4-109,33.9c-6.4-0.1-13.1-0.4-20-0.8c-13.8-0.8-27.4-1.2-40.5-1.4
							c8.1-2,19.3-4.3,34.6-7c25.4-4.4,48.6-7.3,48.9-7.3c2.7-0.3,3.6-2.2,1.9-4.1c-1.5-1.7-4.6-2.9-7.2-2.9c-0.2,0-0.5,0-0.7,0
							c-40.2,2.7-72.4,4.5-89.4,4.3c-2.3,0-4.4-0.1-6.1-0.2c-0.1,0-0.3,0-0.4,0c-1.5,0-2.8,0.3-3.8,1c-7,4.9-14.5,10.5-22.4,16.6
							c-5.2,0.2-10.3,0.4-15.3,0.7c-7.6,0.4-14.1,0.8-18.4,1.1c-2.6-9.8-2.9-17.3,7.5-19.9c6.8-1.8,48.1-5,95.8-7.6
							C636,12.5,690.5,10.5,732.5,8.7 M736.3,5.7c-0.6,0.3-51.1,2-110.4,4.7c-58.3,2.7-125.4,6.4-136,9.2
							c-20.5,3.9-9.9,25.1-10.4,28.1c0,0,10.1-0.7,24.2-1.6c5.8-0.3,11.8-0.6,17.6-0.8c8.5-6.8,16.6-13,24-18.5
							c1.9,0.1,4.2,0.2,6.6,0.2c22.9,0.2,64.6-2.7,91.3-4.6c-1.5,0.2-25.6,3-51.7,7.5c-25.7,4.4-53.4,10.5-54.1,14.9
							c7.8-0.1,15.6-0.1,23.4,0c14.6,0.2,29.1,0.7,43.6,1.5c7.2,0.4,14,0.7,20.4,0.8c69.2,1.7,98-11.8,108.4-22.4
							C744,13.7,736.1,5.6,736.3,5.7C736.3,5.7,736.3,5.7,736.3,5.7z"/>
					</g>
					<path class="st2" d="M643.4,22.5C643.4,22.5,643.4,22.5,643.4,22.5"/>
				</g>
			</g>
			<g>
				<path class="st3" d="M892.9,350.2c16.2-8.5,30.2-18.2,41.9-28.5c12.8-10.5,16-23.8,16.6-29.7c8.4-69,7.6-140.7,6.2-208.7
					c-17.4,9.8-35.4,20.6-59.5,33.4c14.5,79.5,1.8,171.8-38.1,228.7C855.4,351.5,875.8,355.5,892.9,350.2z"/>
				<g>
					<path class="st4" d="M951.3,101.2c-5.7,4.6-11.7,9.4-18.3,14.5c10.2,75.4,2.6,158.7-22.7,222.4c-3.9,12.5-40.2,21.7-80.1,21.5
						c-240.5,1.3-488.9,1.2-728.6-0.2c-40.1,0.2-74-10.1-75.1-23.3c-12.6-67.8-16.4-144.6-11.3-217.7c21.4-17.3,59-35.6,105.6-52.3
						C237,61,406.7,61.6,569.6,67.7C731.6,73.8,886.7,85.4,951.3,101.2z"/>
					<path class="st5" d="M951.3,101.2c-5.7,4.6-11.7,9.4-18.3,14.5c10.2,75.4,2.6,158.7-22.7,222.4c-3.9,12.5-40.2,21.7-80.1,21.5
						c-240.5,1.3-488.9,1.2-728.6-0.2c-40.1,0.2-74-10.1-75.1-23.3c-12.6-67.8-16.4-144.6-11.3-217.7c21.4-17.3,59-35.6,105.6-52.3
						C237,61,406.7,61.6,569.6,67.7C731.6,73.8,886.7,85.4,951.3,101.2z"/>
				</g>
				<g>
					<path class="st6" d="M955.1,87.2c0.8,29.7,1.4,60.1,0.7,90.9c-4.4-3.2-9.9-6.6-16.3-10.2c-0.7-18.5-2.4-36.9-5.1-54.9
						c-3-0.7-6.1-1.3-9.4-2C935.9,102.5,945.5,94.7,955.1,87.2z"/>
				</g>
				<g>
					<path class="st6" d="M934,150.9c-63.5-12.6-201-26.5-347.7-37.7c-82.8-6.3-168.6-6.1-249.8,0.5
						C192.8,125.4,64.2,139.6,16,152.2c0.5-14.5,1.5-29,2.8-43.3C163,84.7,751.4,83.7,929,106.1C931.4,120.8,933.1,135.8,934,150.9z
						"/>
				</g>
				<path class="st7" d="M933.8,126.8c-43.1-8.5-117.3-16.5-204.2-23.3c-151.1-12-341.2-12-492.3,0C150.2,110.4,76,118.4,33,126.8
					c-18.9,3.5-27.8-2.2-28.1-12.1c0.1-10,0.2-20,0.3-30c-0.3-9,12.8-18.9,34-21.6c198.7-26.1,689.7-26.1,888.4,0
					c21.1,2.7,34.3,12.5,34,21.6c0.1,10,0.2,20,0.3,30C961.6,124.7,952.7,130.4,933.8,126.8z"/>
			</g>
		</g>
		<g>
			<g>
				<path class="st1" d="M327.7,227.7c19.9,8.5,38.2,22.6,52.4,40.2c-19.8-0.5-54-16.2-87.8-15.6c-19.7-0.4-36.8,2.8-51,6.7
					c-14.2,3.6-25.6,8-33.9,2.5c-7.5-4.7-11.8-22.4,0.7-42.2c11.7-19.3,40.9-40.6,79.8-39.9c37.2-0.8,69.6,19.4,86.6,39.4
					c17.8,20.3,20.1,39.3,14.4,45.3C366.3,238.8,327.4,226.5,327.7,227.7z"/>
				<path class="st8" d="M327.7,227.7c19.9,8.5,38.2,22.6,52.4,40.2c-19.8-0.5-54-16.2-87.8-15.6c-19.7-0.4-36.8,2.8-51,6.7
					c-14.2,3.6-25.6,8-33.9,2.5c-7.5-4.7-11.8-22.4,0.7-42.2c11.7-19.3,40.9-40.6,79.8-39.9c37.2-0.8,69.6,19.4,86.6,39.4
					c17.8,20.3,20.1,39.3,14.4,45.3C366.3,238.8,327.4,226.5,327.7,227.7z"/>
			</g>
			<g>
				<path class="st1" d="M653.2,224.5c19.6,8.5,35.6,22.5,44.7,40c-19.6-2.8-52.8-18.6-92.6-14.9c-45,0.6-84.7,28.2-98.6,15.1
					c-6.1-6.4-3.4-28.3,17.7-50.1c20.1-21.6,58.5-41.8,100.4-37.7c40.4,2.5,69.5,25,81.6,44.5c12.7,19.9,9.1,36.7,1.7,41
					C693.2,236.3,653.1,223.3,653.2,224.5z"/>
				<path class="st8" d="M653.2,224.5c19.6,8.5,35.6,22.5,44.7,40c-19.6-2.8-52.8-18.6-92.6-14.9c-45,0.6-84.7,28.2-98.6,15.1
					c-6.1-6.4-3.4-28.3,17.7-50.1c20.1-21.6,58.5-41.8,100.4-37.7c40.4,2.5,69.5,25,81.6,44.5c12.7,19.9,9.1,36.7,1.7,41
					C693.2,236.3,653.1,223.3,653.2,224.5z"/>
			</g>
			<path class="st8" d="M443.8,274c-15.6-0.1-28.5-4.1-28.8-9.1c-0.3-5,12.3-9.1,28.2-9.1c7.9,0,15.2,1.1,20.4,2.8"/>
			<path class="st8" d="M612.3,165.6c0,0-4.4-8-20.7-12.1"/>
			<g>
				<path class="st6" d="M769.3,293.1c-1.6,4.4-15.5,8.4-31.5,9.1c-16,0.7-28.3-2.3-26.9-6.7c1.3-4.4,16.1-8.6,32.3-9.2
					C759.5,285.6,770.9,288.7,769.3,293.1z"/>
			</g>
			<g>
				<path class="st6" d="M221.1,294.2c1.5,4.4-10.2,7.3-25.6,6.5c-15.4-0.8-28.7-4.9-30.3-9.2c-1.6-4.4,9.1-7.3,24.6-6.6
					C205.4,285.5,219.6,289.8,221.1,294.2z"/>
			</g>
			<path class="st8" d="M629.8,145.6c0,0,9.4,7.5,6.4,20"/>
			<path class="st8" d="M235.3,166.1c0,0-3.6-7.7-17.5-11.4"/>
			<path class="st8" d="M253.1,146.5c0,0,7.8,7.2,4.3,19.5"/>
			<path class="st9" d="M560.3,211.4c1.1,2.1,2.2,4.3,3.4,6.4c2.1,1.2,4.2,2.3,6.3,3.5c-2.2,1.2-4.3,2.3-6.5,3.5
				c-1.2,2.1-2.5,4.2-3.7,6.3c-1.1-2.1-2.2-4.2-3.3-6.3c-2.1-1.1-4.2-2.3-6.3-3.5c2.2-1.2,4.3-2.3,6.5-3.5
				C557.8,215.7,559.1,213.6,560.3,211.4z"/>
			<path class="st9" d="M542.2,223.2c1.9,3.6,3.8,7.1,5.6,10.7c3.5,1.9,7.1,3.8,10.6,5.7c-3.7,1.9-7.3,3.9-11,5.8
				c-2.1,3.5-4.2,6.9-6.3,10.3c-1.8-3.4-3.6-6.8-5.5-10.3c-3.5-1.9-7.1-3.8-10.6-5.7c3.7-1.9,7.3-3.9,11-5.8
				C538.1,230.4,540.2,226.8,542.2,223.2z"/>
			<path class="st9" d="M232.6,213.4c1.2,2.1,2.4,4.1,3.6,6.2c2,1.1,4,2.3,6,3.4c-1.8,1.1-3.6,2.2-5.4,3.2c-0.8,2-1.7,4-2.5,6
				c-1.3-2-2.5-4.1-3.7-6.1c-2-1.1-4-2.3-5.9-3.4c1.8-1.1,3.5-2.2,5.3-3.2C230.9,217.4,231.8,215.4,232.6,213.4z"/>
			<path class="st9" d="M218.1,224.3c2,3.4,4.1,6.9,6.3,10.3c3.4,1.9,6.7,3.8,10.2,5.7c-2.9,1.8-5.8,3.5-8.6,5.3
				c-1.2,3.3-2.3,6.5-3.4,9.7c-2.3-3.3-4.5-6.6-6.7-10c-3.4-1.9-6.7-3.8-10-5.7c2.8-1.7,5.6-3.5,8.4-5.3
				C215.4,231.1,216.7,227.7,218.1,224.3z"/>
			<path class="st8" d="M280.7,142.5c-0.1,0,3.8,16-1.2,23.4"/>
			<path class="st8" d="M661,145.9c0,0,0.6,10.7-7.5,19.8"/>
		</g>
		<path class="st8" d="M32.5,314.2c-0.1,0.1,4.8,22.1,15.6,25.7"/>
		<path class="st8" d="M56,342.6c0,0.2,16.2,8.4,92,7.2"/>
		<g>
			<path class="st10" d="M360.7,304.8c-0.5,0.9,13.3,14.9,30.7,22.9c17.9,8,39.5,9.9,65.6-12.5"/>
			<path class="st10" d="M467.7,316.7c0,1.3,13.4,12.2,30.7,17.3c17.8,4.8,39.5,3.7,67.7-28.1"/>
			<path class="st1" d="M523.6,313.4c0.2,0.1,18.5,12,4,19c-0.3,0,33.3-10.6,35.1-26.5C549.6,308.4,536.6,310.9,523.6,313.4z"/>
			<path class="st1" d="M412.1,314.1c0.1,0.1,15.6,11,3.5,17.8c-0.1-0.2,37.6-1.6,36.2-16.2C438.6,315.2,425.3,314.7,412.1,314.1z"
				/>
			<path class="st8" d="M625.9,274.9c-0.2,0-19.2,16.4-1.6,30.1"/>
			<path class="st8" d="M616.8,290.1c0.3,0.5-36.6,14-90.5,21c-54.6,7-126.2,7.6-211.4-18.3"/>
		</g>
	</g>
</g>
</svg>
