<?xml version="1.0" encoding="utf-8"?>
<!-- Generator: Adobe Illustrator 25.4.1, SVG Export Plug-In . SVG Version: 6.00 Build 0)  -->
<svg version="1.1" id="Layer_1" xmlns="http://www.w3.org/2000/svg" xmlns:xlink="http://www.w3.org/1999/xlink" x="0px" y="0px"
	 viewBox="0 0 1961.24 1202.13" style="enable-background:new 0 0 1961.24 1202.13;" xml:space="preserve">
<style type="text/css">
	.st0{fill:#F3614A;stroke:#261F26;stroke-width:3.9855;stroke-linecap:round;stroke-linejoin:round;stroke-miterlimit:10;}
	.st1{fill:#F3614A;stroke:#261F26;stroke-width:4.7487;stroke-linecap:round;stroke-linejoin:round;stroke-miterlimit:10;}
	.st2{fill:#261F26;}
	.st3{fill:#F3614A;stroke:#261F26;stroke-width:3.34;stroke-linecap:round;stroke-linejoin:round;stroke-miterlimit:10;}
	.st4{fill:#A780F1;}
	.st5{fill:#412587;}
	.st6{fill:#22AE95;stroke:#261F26;stroke-width:5.3139;stroke-miterlimit:10;}
	.st7{fill:#096856;}
	.st8{fill:none;stroke:#261F26;stroke-width:1.2328;stroke-linecap:round;stroke-linejoin:round;stroke-miterlimit:10;}
	.st9{fill:none;stroke:#261F26;stroke-width:2.657;stroke-linecap:round;stroke-linejoin:round;stroke-miterlimit:10;}
	.st10{fill:none;stroke:#261F26;stroke-width:5.3139;stroke-linecap:round;stroke-linejoin:round;stroke-miterlimit:10;}
	.st11{fill:#FFEEDC;stroke:#261F26;stroke-width:2.657;stroke-linecap:round;stroke-linejoin:round;stroke-miterlimit:10;}
	.st12{fill:#F3614A;stroke:#261F26;stroke-width:2.657;stroke-linecap:round;stroke-linejoin:round;stroke-miterlimit:10;}
	.st13{fill:#F3614A;stroke:#261F26;stroke-width:3.5615;stroke-linecap:round;stroke-linejoin:round;stroke-miterlimit:10;}
	.st14{fill:#F3614A;stroke:#261F26;stroke-width:2.2267;stroke-linecap:round;stroke-linejoin:round;stroke-miterlimit:10;}
	.st15{fill:#F3614A;stroke:#261F26;stroke-width:7;stroke-linecap:round;stroke-linejoin:round;stroke-miterlimit:10;}
	.st16{fill:#22AE95;stroke:#261F26;stroke-width:7;stroke-linecap:round;stroke-linejoin:round;stroke-miterlimit:10;}
	.st17{fill:#261F26;stroke:#261F26;stroke-width:7;stroke-linecap:round;stroke-linejoin:round;stroke-miterlimit:10;}
	.st18{fill:#261F26;stroke:#261F26;stroke-width:7;stroke-miterlimit:10;}
	.st19{fill:none;stroke:#261F26;stroke-width:7;stroke-linecap:round;stroke-linejoin:round;stroke-miterlimit:10;}
	.st20{fill:#FFEEDC;stroke:#261F26;stroke-width:7;stroke-linecap:round;stroke-linejoin:round;stroke-miterlimit:10;}
	.st21{fill:#F3614A;stroke:#261F26;stroke-width:2.8152;stroke-linecap:round;stroke-linejoin:round;stroke-miterlimit:10;}
	.st22{fill:#22AE95;stroke:#261F26;stroke-width:2.8152;stroke-linecap:round;stroke-linejoin:round;stroke-miterlimit:10;}
	.st23{fill:#261F26;stroke:#261F26;stroke-width:2.8152;stroke-linecap:round;stroke-linejoin:round;stroke-miterlimit:10;}
	.st24{fill:#261F26;stroke:#261F26;stroke-width:2.8152;stroke-miterlimit:10;}
	.st25{fill:none;stroke:#261F26;stroke-width:2.8152;stroke-linecap:round;stroke-linejoin:round;stroke-miterlimit:10;}
	.st26{fill:#FFEEDC;stroke:#261F26;stroke-width:2.8152;stroke-linecap:round;stroke-linejoin:round;stroke-miterlimit:10;}
	.st27{fill:#F3614A;stroke:#261F26;stroke-width:1.3167;stroke-linecap:round;stroke-linejoin:round;stroke-miterlimit:10;}
	.st28{fill:#22AE95;stroke:#261F26;stroke-width:1.3167;stroke-linecap:round;stroke-linejoin:round;stroke-miterlimit:10;}
	.st29{fill:#261F26;stroke:#261F26;stroke-width:1.3167;stroke-linecap:round;stroke-linejoin:round;stroke-miterlimit:10;}
	.st30{fill:#261F26;stroke:#261F26;stroke-width:1.3167;stroke-miterlimit:10;}
	.st31{fill:none;stroke:#261F26;stroke-width:1.3167;stroke-linecap:round;stroke-linejoin:round;stroke-miterlimit:10;}
	.st32{fill:#FFEEDC;stroke:#261F26;stroke-width:1.3167;stroke-linecap:round;stroke-linejoin:round;stroke-miterlimit:10;}
	.st33{fill:#F3614A;stroke:#261F26;stroke-width:6.7358;stroke-linecap:round;stroke-linejoin:round;stroke-miterlimit:10;}
	.st34{fill:#F3614A;stroke:#261F26;stroke-width:5.0518;stroke-linecap:round;stroke-linejoin:round;stroke-miterlimit:10;}
	.st35{fill:#F3614A;stroke:#261F26;stroke-width:5.6532;stroke-linecap:round;stroke-linejoin:round;stroke-miterlimit:10;}
	.st36{fill:#22AE95;stroke:#261F26;stroke-width:5;stroke-miterlimit:10;}
	.st37{fill:none;stroke:#261F26;stroke-width:1.7487;stroke-linecap:round;stroke-linejoin:round;stroke-miterlimit:10;}
	.st38{fill:none;stroke:#261F26;stroke-width:3.7688;stroke-linecap:round;stroke-linejoin:round;stroke-miterlimit:10;}
	.st39{fill:none;stroke:#261F26;stroke-width:7.5376;stroke-linecap:round;stroke-linejoin:round;stroke-miterlimit:10;}
	.st40{fill:#FFEEDC;stroke:#261F26;stroke-width:3.7688;stroke-linecap:round;stroke-linejoin:round;stroke-miterlimit:10;}
	.st41{fill:#F3614A;stroke:#261F26;stroke-width:3.7688;stroke-linecap:round;stroke-linejoin:round;stroke-miterlimit:10;}
	.st42{fill:#F3614A;stroke:#261F26;stroke-width:4.7376;stroke-linecap:round;stroke-linejoin:round;stroke-miterlimit:10;}
	.st43{fill:#F3614A;stroke:#261F26;stroke-width:3.1584;stroke-linecap:round;stroke-linejoin:round;stroke-miterlimit:10;}
	.st44{fill:#22AE95;stroke:#261F26;stroke-width:7;stroke-miterlimit:10;}
	.st45{fill:#F3614A;stroke:#261F26;stroke-width:5.5485;stroke-linecap:round;stroke-linejoin:round;stroke-miterlimit:10;}
	.st46{fill:#F3614A;stroke:#261F26;stroke-width:4.1613;stroke-linecap:round;stroke-linejoin:round;stroke-miterlimit:10;}
	.st47{fill:#22AE95;stroke:#261F26;stroke-width:6;stroke-linecap:round;stroke-linejoin:round;stroke-miterlimit:10;}
	.st48{fill:none;stroke:#261F26;stroke-width:1.9328;stroke-linecap:round;stroke-linejoin:round;stroke-miterlimit:10;}
	.st49{fill:none;stroke:#261F26;stroke-width:4.8679;stroke-linecap:round;stroke-linejoin:round;stroke-miterlimit:10;}
	.st50{fill:none;stroke:#261F26;stroke-width:6;stroke-linecap:round;stroke-linejoin:round;stroke-miterlimit:10;}
	.st51{fill:#261F26;stroke:#261F26;stroke-width:6;stroke-linecap:round;stroke-linejoin:round;stroke-miterlimit:10;}
	.st52{fill:#FFFFFF;stroke:#261F26;stroke-width:6;stroke-linecap:round;stroke-linejoin:round;stroke-miterlimit:10;}
	.st53{fill:#F3614A;stroke:#261F26;stroke-width:5;stroke-linecap:round;stroke-linejoin:round;stroke-miterlimit:10;}
	.st54{fill:#1C3B47;stroke:#261F26;stroke-width:6;stroke-miterlimit:10;}
	.st55{fill:#1C3B47;}
	.st56{fill:#A780F1;stroke:#261F26;stroke-width:6;stroke-linecap:round;stroke-linejoin:round;stroke-miterlimit:10;}
	.st57{fill:#F3614A;stroke:#261F26;stroke-width:2.6448;stroke-linecap:round;stroke-linejoin:round;stroke-miterlimit:10;}
	.st58{fill:#F3614A;stroke:#261F26;stroke-width:1.9836;stroke-linecap:round;stroke-linejoin:round;stroke-miterlimit:10;}
	.st59{fill:#22AE95;stroke:#261F26;stroke-width:2.86;stroke-linecap:round;stroke-linejoin:round;stroke-miterlimit:10;}
	.st60{fill:none;stroke:#261F26;stroke-width:0.9213;stroke-linecap:round;stroke-linejoin:round;stroke-miterlimit:10;}
	.st61{fill:none;stroke:#261F26;stroke-width:2.3204;stroke-linecap:round;stroke-linejoin:round;stroke-miterlimit:10;}
	.st62{fill:none;stroke:#261F26;stroke-width:2.86;stroke-linecap:round;stroke-linejoin:round;stroke-miterlimit:10;}
	.st63{fill:#261F26;stroke:#261F26;stroke-width:2.86;stroke-linecap:round;stroke-linejoin:round;stroke-miterlimit:10;}
	.st64{fill:#FFFFFF;stroke:#261F26;stroke-width:2.86;stroke-linecap:round;stroke-linejoin:round;stroke-miterlimit:10;}
	.st65{fill:#F3614A;stroke:#261F26;stroke-width:2.3833;stroke-linecap:round;stroke-linejoin:round;stroke-miterlimit:10;}
	.st66{fill:#1C3B47;stroke:#261F26;stroke-width:2.86;stroke-miterlimit:10;}
	.st67{fill:#A780F1;stroke:#261F26;stroke-width:2.86;stroke-linecap:round;stroke-linejoin:round;stroke-miterlimit:10;}
	.st68{fill:#F3614A;stroke:#261F26;stroke-width:2.2583;stroke-linecap:round;stroke-linejoin:round;stroke-miterlimit:10;}
	.st69{fill:#F3614A;stroke:#261F26;stroke-width:1.5055;stroke-linecap:round;stroke-linejoin:round;stroke-miterlimit:10;}
	.st70{fill:#F3614A;stroke:#261F26;stroke-width:1.7509;stroke-linecap:round;stroke-linejoin:round;stroke-miterlimit:10;}
	.st71{fill:#F3614A;stroke:#261F26;stroke-width:1.3132;stroke-linecap:round;stroke-linejoin:round;stroke-miterlimit:10;}
	.st72{fill:#22AE95;stroke:#261F26;stroke-width:1.8934;stroke-linecap:round;stroke-linejoin:round;stroke-miterlimit:10;}
	.st73{fill:none;stroke:#261F26;stroke-width:0.6099;stroke-linecap:round;stroke-linejoin:round;stroke-miterlimit:10;}
	.st74{fill:none;stroke:#261F26;stroke-width:1.5362;stroke-linecap:round;stroke-linejoin:round;stroke-miterlimit:10;}
	.st75{fill:none;stroke:#261F26;stroke-width:1.8934;stroke-linecap:round;stroke-linejoin:round;stroke-miterlimit:10;}
	.st76{fill:#261F26;stroke:#261F26;stroke-width:1.8934;stroke-linecap:round;stroke-linejoin:round;stroke-miterlimit:10;}
	.st77{fill:#FFFFFF;stroke:#261F26;stroke-width:1.8934;stroke-linecap:round;stroke-linejoin:round;stroke-miterlimit:10;}
	.st78{fill:#F3614A;stroke:#261F26;stroke-width:1.5778;stroke-linecap:round;stroke-linejoin:round;stroke-miterlimit:10;}
	.st79{fill:#1C3B47;stroke:#261F26;stroke-width:1.8934;stroke-miterlimit:10;}
	.st80{fill:#A780F1;stroke:#261F26;stroke-width:1.8934;stroke-linecap:round;stroke-linejoin:round;stroke-miterlimit:10;}
	.st81{fill:#F3614A;stroke:#261F26;stroke-width:1.495;stroke-linecap:round;stroke-linejoin:round;stroke-miterlimit:10;}
	.st82{fill:#F3614A;stroke:#261F26;stroke-width:0.9967;stroke-linecap:round;stroke-linejoin:round;stroke-miterlimit:10;}
</style>
<g>
	<g>
		<path class="st33" d="M885.66,1060.42l-27.8,45.27h43.88l11.55,23.98c0,0,76.21-40.57,46.19-86.68c-30.02-46.11,7-59.02,7-59.02
			l-113.24-12.91c0,0-39.26,103.28,71.59,90.37"/>
		<path class="st2" d="M852.37,1036.49c0,0,76-22.38,96.54-16.33v-27.35h-57.07l-50.9,7.65L852.37,1036.49z"/>
		<path class="st33" d="M1067.04,1118.95c0,0,23.16,50.19,24.9,54.35s-48.67-12.49-48.67-12.49l-10.43,36.09
			c0,0-69.53-51.36-36.5-91.61c33.02-40.25-8.69-109.65-8.69-109.65l79.95-24.58c0,0,119.77,152.28-27.89,149.5"/>
		<path class="st2" d="M1005.51,1039.6c0,0,45.6-30.03,90.45-21.18l-3.56-22.79l-104.75,0.01L1005.51,1039.6z"/>
		<polygon class="st2" points="1039.72,1120.56 1082.81,1153.2 1067.04,1118.95 		"/>
		<polygon class="st2" points="871.43,1086.58 921.82,1064.85 883.52,1062.03 		"/>
		<line class="st34" x1="1024.96" y1="1175.57" x2="1018.2" y2="1166.43"/>
		<line class="st34" x1="1090.51" y1="1022.27" x2="1093.63" y2="1029.75"/>
		<line class="st34" x1="1095.96" y1="1035.4" x2="1098.14" y2="1040.89"/>
		<path class="st34" d="M939.2,1022.27c0,0,0.57,5.31,3.44,7.48"/>
		<path class="st34" d="M917.75,1117.68c0,0,6.48-2.78,10.26-5.55"/>
	</g>
	<polygon class="st35" points="1931.74,261.23 1957.56,294.02 1931.31,295 	"/>
	<g>
		<path class="st4" d="M678.1,1021.36c-73.13,0-151.77-0.09-233.74-0.27c-2.19,0.01-4.32,0.01-6.47,0.01
			c-112.3,0-204.18-9.94-273.08-29.53c-51.22-14.56-89.1-34.16-112.58-58.24c-23.79-24.4-23.55-44.75-23.55-44.95
			c0-0.03-0.94-528.25-0.94-528.25l-1.39-119.38c280.59-50.58,588.75-76.22,916.01-76.22c292.42,0,546.26,20.9,707.71,38.44
			c159.05,17.27,262.03,34.75,280.18,37.92l1.12,633.03c0.39,26.33-9.23,49.64-28.6,69.33c-38.55,39.2-109.53,57.93-162.29,66.73
			c-57.49,9.6-106.4,9.8-106.89,9.8l-546.15,0.16C1086.26,1019.97,966.55,1021.36,678.1,1021.36z"/>
		<path class="st2" d="M942.38,168.04c129.01,0,261.34,4.04,393.31,12c105.59,6.37,211.18,15.25,313.85,26.4
			c152.02,16.51,252.83,33.2,277.24,37.4l1.12,630.09c0,0.03,0,0.06,0,0.09c0.38,25.31-8.91,47.78-27.59,66.78
			c-16.58,16.87-40.76,31.34-71.85,43.02c-25.23,9.48-54.98,17.12-88.42,22.7c-57.22,9.56-105.94,9.77-106.42,9.77l-546.15,0.16
			c-0.03,0-0.05,0-0.08,0c-1.18,0.01-120.9,1.41-409.27,1.41c-73.11,0-151.75-0.09-233.79-0.27c-2.17,0.01-4.3,0.01-6.44,0.01
			c-111.56,0-202.86-9.82-271.36-29.18c-50.66-14.32-88.12-33.52-111.32-57.06c-22.59-22.92-23.01-41.98-23.01-42.88
			c0-0.09,0-0.1,0-0.22l-0.94-528.14c0-0.02,0-0.05,0-0.07l-1.35-116.38C309.51,193.49,616.47,168.04,942.38,168.04 M32.2,888.46
			L32.2,888.46L32.2,888.46 M942.38,161.04c-283.01,0-601.29,19.2-919.54,76.8l1.42,122.3l0.94,528.14c0,0-4.87,136.33,412.7,136.33
			c2.15,0,4.29,0,6.47-0.01c87.91,0.19,165.59,0.27,233.76,0.27c291.77,0,409.36-1.41,409.36-1.41l546.15-0.16
			c0,0,303.48-0.55,301.27-149.37c-0.3-168.13-1.13-635.96-1.13-635.96S1508.76,161.04,942.38,161.04L942.38,161.04z"/>
	</g>
	<g>
		<path class="st5" d="M1927.07,249.14l0.08,46.24c-355.64-61.74-1789.42-15.01-1899.85,6.97l-0.29-49.06
			C265.02,191.02,1688.85,187.69,1927.07,249.14z"/>
	</g>
	<polygon class="st5" points="506.81,263.83 31.45,438.51 30.75,253.59 	"/>
	<g>
		<path class="st44" d="M1927.85,253.59c-238.26-61.44-1667.46-61.2-1905.5,1.09c-17.26-28.48-12.69-52.61-7.29-91.99
			c271.19-70.96,1647.07-71.1,1918.5-1.11C1943.48,206.19,1945.01,225.05,1927.85,253.59z"/>
	</g>
	<path class="st7" d="M936.3,105.79c-4.52,2.94-358.9,103.45-358.9,103.45l111.32-2.36l333.47-101.09H936.3z"/>
	<polygon class="st5" points="1451.79,263.83 1927.15,438.51 1927.85,253.59 	"/>
	<g>
		<g>
			<path class="st2" d="M889.22,910.63c10.42,4.38,19.67,11.07,27.06,19.68c-14.89,4.62-32.83,3.57-49.33,3.99
				c-18.39-1.63-41.91,2.11-53.92-9.52c-13.29-11.16,10.41-53.53,59.21-51.25c46.43,3.09,63.73,42.4,51.04,52.09
				C910.09,914.34,889.13,910.19,889.22,910.63z"/>
			<path class="st37" d="M889.22,910.63c10.42,4.38,19.67,11.07,27.06,19.68c-14.89,4.62-32.83,3.57-49.33,3.99
				c-18.39-1.63-41.91,2.11-53.92-9.52c-13.29-11.16,10.41-53.53,59.21-51.25c46.43,3.09,63.73,42.4,51.04,52.09
				C910.09,914.34,889.13,910.19,889.22,910.63z"/>
		</g>
		<g>
			<path class="st2" d="M1110.28,910.23c10.42,4.38,19.67,11.07,27.06,19.68c-14.89,4.62-32.83,3.57-49.33,3.99
				c-18.39-1.63-41.91,2.11-53.92-9.52c-13.29-11.16,10.41-53.53,59.21-51.25c46.43,3.09,63.73,42.4,51.04,52.09
				C1131.15,913.95,1110.19,909.79,1110.28,910.23z"/>
			<path class="st37" d="M1110.28,910.23c10.42,4.38,19.67,11.07,27.06,19.68c-14.89,4.62-32.83,3.57-49.33,3.99
				c-18.39-1.63-41.91,2.11-53.92-9.52c-13.29-11.16,10.41-53.53,59.21-51.25c46.43,3.09,63.73,42.4,51.04,52.09
				C1131.15,913.95,1110.19,909.79,1110.28,910.23z"/>
		</g>
		<path class="st38" d="M975.74,924.95c-4.18,0.01-7.58-3.38-7.58-7.56c-0.01-4.18,3.38-7.58,7.56-7.58c2.09,0,3.98,0.84,5.36,2.21"
			/>
		<g>
			<path class="st39" d="M863.02,865.91c0,0-1.13-6.07-5.39-9.1"/>
			<path class="st39" d="M873.63,865.89c0,0,1.81-9.04-0.02-10.93"/>
		</g>
		<g>
			<path class="st39" d="M1085.53,862.02c0,0-1.13-6.07-5.39-9.1"/>
			<path class="st39" d="M1095.48,862c0,0,1.81-9.04-0.02-10.93"/>
		</g>
		<g>
			<path class="st38" d="M1035.82,936.64c0,0-19.61,24.13,8.52,29.76"/>
			<g>
				<path class="st38" d="M1029.19,952.52c-6.88,3.76-13.61,6.77-20.14,9.13"/>
				<path class="st38" d="M905.04,951.52c0,0,14.08,10.14,37.11,15.04"/>
				<path class="st38" d="M979,968.59c-2.23,0.23-4.39,0.39-6.53,0.5"/>
				<path class="st40" d="M972.49,970.01c0.22,8.33-6.39,15.3-14.73,15.49c-8.36,0.22-15.28-6.39-15.52-14.73l-0.1-4.21
					c8.87,1.92,19.08,3.04,30.31,2.53L972.49,970.01z"/>
				<path class="st40" d="M1009.2,967.11c0.22,8.33-6.37,15.28-14.73,15.47c-8.11,0.21-14.88-5.99-15.47-13.99
					c9.43-0.95,19.5-3.11,30.05-6.94L1009.2,967.11z"/>
			</g>
		</g>
		<path class="st2" d="M1008.26,968.18c0.16,6.29-3.54,11.78-8.96,14.19c1.88-5.24,1.22-11.7,0.1-16.83c2.86-0.8,5.76-1.74,8.72-2.8
			L1008.26,968.18z"/>
		<path class="st2" d="M971.56,971.09c0.2,7.29-4.86,13.54-11.71,15.12c2.4-4.68,2.26-10.76,1.4-16.02
			c3.32,0.14,6.75,0.14,10.29-0.02L971.56,971.09z"/>
	</g>
	<path class="st7" d="M1057.1,113.46c4.52,2.94,351.59,96.32,351.59,96.32l-142.45-3.17L969,115.46L1057.1,113.46z"/>
	<path class="st39" d="M45.7,873.47c0,0,5.51,42.75,26.19,53.18"/>
	<path class="st39" d="M85.2,935.5c0,0,38.83,32.3,90.25,30.48"/>
	<path class="st35" d="M994.22,113.81c0,0,760.57,193.05,952.58,252.5l10.76-72.28c0,0-719.65-140.32-918.44-196.43L994.22,113.81z"
		/>
	<line class="st41" x1="1938.68" y1="357.02" x2="1929.34" y2="353.42"/>
	<line class="st41" x1="1922.52" y1="350.55" x2="1911.39" y2="345.59"/>
	<polygon class="st35" points="22.13,263.83 3.68,294.02 22.56,297.61 	"/>
	<path class="st35" d="M968.04,112.2c0,0-761.58,196.53-953.6,255.98L3.68,295.9c0,0,683.48-127.58,882.28-183.69H968.04z"/>
	<line class="st41" x1="29.04" y1="355.37" x2="38.73" y2="352.89"/>
	<line class="st41" x1="45.84" y1="350.83" x2="57.95" y2="347.23"/>
	<g>
		<g>
			<g>
				<path class="st42" d="M979.37,95.63c3.44,0.15,6.81,0.49,9.77,1.1c6.16,1.27,8.98,6.04,10.25,10.76l26.92,10.45
					c95.73,2.99,96.77-39.81,103.14-64.78c1.08-4.26,2.96-8.4,5.55-12.32c7.77-11.76,15.68-33.98,15.68-33.98
					c-42.26,3.39-101.41,24.59-143.67,32.22C972.24,45.35,976.7,82.61,979.37,95.63z M1000.28,100.21c0,0,10.48-48.81,56.82-50.36
					c0,0-12.14,7.75-6.62,20.15c5.52,12.39,9.94,13.94-28.68,25.96C1010.75,98.28,1000.28,100.21,1000.28,100.21z"/>
				<path class="st42" d="M950.75,36.45C908.49,28.82,849.34,7.62,807.08,4.23c0,0,7.91,22.21,15.68,33.98
					c2.59,3.92,4.46,8.06,5.55,12.32c6.37,24.97,7.4,67.77,103.14,64.78l26.92-10.45c1.27-4.71,4.09-9.49,10.25-10.76
					c2.97-0.61,6.34-0.95,9.77-1.1C981.05,79.99,985.51,42.73,950.75,36.45z M935.96,93.33c-38.61-12.01-34.2-13.56-28.68-25.96
					c5.51-12.4-6.62-20.15-6.62-20.15c46.34,1.55,56.82,50.36,56.82,50.36S947,95.66,935.96,93.33z"/>
				<path class="st42" d="M999.35,104.97c-0.44,1.93-1.67,3.51-3.45,4.79c-0.04,0.03-0.09,0.06-0.12,0.09
					c-4.74,3.32-13.3,4.66-21.68,5.08c-3.27,0.17-6.53,0.19-9.52,0.15c-2.14-0.03-4.15-0.11-5.93-0.2c-4.59-0.23-8.1-3-7.81-6.22
					c0.01-0.07,0.01-0.13,0.02-0.19c0.13-1.47,0.39-3.1,0.84-4.74c1.27-4.71,4.09-9.49,10.25-10.76c2.97-0.61,6.34-0.95,9.77-1.1
					c2.84-0.13,5.71-0.13,8.45-0.06c3.4,0.09,6.58,0.28,9.19,0.49c4.82,0.39,8.73,2.89,9.73,6.22
					C999.64,100.36,999.9,102.57,999.35,104.97z"/>
			</g>
		</g>
		<line class="st43" x1="817.1" y1="13.2" x2="820.08" y2="19.76"/>
		<line class="st43" x1="821.43" y1="23.5" x2="824.11" y2="28.79"/>
		<path class="st43" d="M959.36,100.4c0,0,0.77-2.38,3.55-2.81"/>
		<path class="st43" d="M1069.82,110.33c0,0,11.47-1.95,15.56-4.54"/>
		<path class="st43" d="M1089.52,103.42c0,0,6.09-2.2,7.45-3.22"/>
	</g>
</g>
</svg>
