<?xml version="1.0" encoding="utf-8"?>
<!-- Generator: Adobe Illustrator 25.4.1, SVG Export Plug-In . SVG Version: 6.00 Build 0)  -->
<svg version="1.1" id="Layer_1" xmlns="http://www.w3.org/2000/svg" xmlns:xlink="http://www.w3.org/1999/xlink" x="0px" y="0px"
	 viewBox="0 0 960 267.6" style="enable-background:new 0 0 960 267.6;" xml:space="preserve">
<style type="text/css">
	.st0{fill:#F3614A;stroke:#261F26;stroke-width:4;stroke-linecap:round;stroke-linejoin:round;stroke-miterlimit:10;}
	.st1{fill:#22AE95;stroke:#261F26;stroke-width:4;stroke-linecap:round;stroke-linejoin:round;stroke-miterlimit:10;}
	.st2{fill:#A780F1;stroke:#000000;stroke-width:4;stroke-miterlimit:10;}
	.st3{fill:#261F26;}
	.st4{fill:#261F26;stroke:#261F26;stroke-width:4;stroke-linecap:round;stroke-linejoin:round;stroke-miterlimit:10;}
	.st5{fill:#261F26;stroke:#261F26;stroke-width:4;stroke-miterlimit:10;}
	.st6{fill:none;stroke:#261F26;stroke-width:4;stroke-linecap:round;stroke-linejoin:round;stroke-miterlimit:10;}
	.st7{fill:#FFEEDC;stroke:#261F26;stroke-width:4;stroke-linecap:round;stroke-linejoin:round;stroke-miterlimit:10;}
	.st8{fill:none;stroke:#FFEEDC;stroke-width:4;stroke-linecap:round;stroke-linejoin:round;stroke-miterlimit:10;}
</style>
<g>
	<g>
		<g>
			<path class="st0" d="M494.1,14.7c0,0.4-9.7,32.7-12.9,34.3c0,0-10.7-0.4-24.5-1.3c1.1-8.9,1.9-19,1.9-19S344,17.2,323.2,14.2
				c-20.8-3.3-24.5-2.2-24.5-2.2c0-1.1,69.5,13.5,97.3,18.6c21.5,3,39.6,3.4,46,16c-18.4-1.5-37.6-3.5-43.9-5.1
				c-7.2-1.8-51.6-12.4-94.2-18.2c-42.6-6.5-83.3-8.3-83.3-8.3c15.9-4,31.8-6.9,47.7-9.6C343.7,7.2,418.9,11.5,494.1,14.7z"/>
			<path class="st0" d="M739.3,43.8c0-0.3-40.4,10.4-82.6,16c-42.2,6.4-86.4,7.8-93.5,7.9c-3.3,0.1-10.3-0.8-19-2.4
				c16.1-23.9,100-30.8,99.9-31.2c-40.1,0.5-80.2-0.5-120.3-2.6c0,0.4-27.1,13.4-29,23.4c-8.8-2-14.9-3.4-14.9-3.4
				c-3.3-2.2,19.4-34,19.4-34.9c63.8-0.6,127.6-5.2,191.2-12.4C706.8,17.6,723,31.1,739.3,43.8z"/>
		</g>
		<path class="st1" d="M939,264.1c-305.9,4.2-611.7-2.2-917.6,2C10.3,265.9,1.6,256.9,2,246c2-59,4.1-117.4,6.2-175.4
			c0.4-11.3,9.6-23.4,20.6-26.5c301-92.3,602,107.3,903,15.6c11-3.1,20.2,2.7,20.6,13.4c2.1,57.5,4.1,114.5,6.2,171.1
			C958.9,255.4,950.2,264.2,939,264.1z"/>
		<g>
			<path class="st2" d="M7,104.4c0.4-11.8,0.8-23.5,1.2-35.2c0.4-11.8,8-23.8,16.9-26.3C328.4-48.8,631.6,146.8,934.9,56
				c8.9-2.5,16.4,4.5,16.9,16c0.4,11.7,0.8,23.3,1.2,34.9C637.7,275.6,322.3-65.9,7,104.4z"/>
			<path class="st3" d="M934.9,57.6c8.1-2.3,14.9,4.3,15.3,15c0.4,11.2,0.8,22.4,1.2,33.6C637.1,271.9,322.8-65.2,8.5,102.1
				c0.4-11.2,0.8-22.4,1.2-33.6C10.1,57.6,17,46.6,25,44.3C328.4-49.7,631.7,150.6,934.9,57.6 M934.8,54.4
				C631.6,142.9,328.4-47.9,25.2,41.5C15.5,44.1,7.2,57,6.8,69.8c-0.4,12.3-0.9,24.6-1.3,36.9c316.4-173.4,632.7,172.5,949.1,0.8
				c-0.4-12.1-0.9-24.2-1.3-36.2C952.8,59.2,944.5,51.8,934.8,54.4L934.8,54.4z"/>
		</g>
		<path class="st4" d="M17.1,163.7c-0.5,14.5-1,29.2-1.4,44.2"/>
		<path class="st4" d="M15.4,215.6c-0.3,8-0.5,16-0.8,24.2"/>
		<path class="st4" d="M946.2,163.9c0.7,19.7,1.4,39.1,2.1,58"/>
		<path class="st4" d="M940.4,207.9c0.5,13.2,1,26,1.5,38.5"/>
		<path class="st5" d="M237.3,205.6c0,0.1,7.3-19.6,5.5-43.8c-1.9-24.1-1.1-36.3,6-39.2c7.1-3.8,11.4,45,11.4,46.1
			c0-0.5,0.4-34.5,11.2-24.2c10.8,9.8,21.9,42.5,7,62.9c-15,20.2-18.7,39.4-16.1,56.2c-10.1,0-20.3,0-30.4,0
			C231.8,263.7,226,233.4,237.3,205.6z"/>
		<path class="st3" d="M477.2,223.2c0,0.1,5,20.9-15.6,19.6c0-7,0-14,0-20.9C466.8,222.3,472,222.7,477.2,223.2z"/>
		<path class="st3" d="M514.6,215.2c0,0.2,0.9,25.9-19.7,24.1c1-6.6,2.1-13.3,3.1-19.9C503.5,218,509,216.6,514.6,215.2z"/>
		<path class="st5" d="M744,265.4c0,0.1-3.4-3.1-8.2-5.9c-6.9-3.7-6.8-9-0.7-17.9c6.1-9.1-4.9-15.8-9.7-10.8
			c-4.8,4.9-6.8,12.2-6.8,12.1c0,0-17.9-7.1-28.8,4.1c-11,10.7,21.3,13.1,22.9,15.1c1.6,1.9,1.1,3.4,1.1,3.4
			C723.8,265.4,733.9,265.4,744,265.4z"/>
		<g>
			<g>
				<path class="st5" d="M586.8,213.7c7.4,2.1,14.8,4.1,22.2,6c-3.3,11.3-14.6,17.3-27.5,15.2c-14.8-2.4-26-16.9-25-33.7
					c1-16.7,13.7-27.8,28.4-23.6c14.2,4,25.1,20.4,25.1,34.9C602.9,212.9,586.8,213.7,586.8,213.7z"/>
				<path class="st6" d="M470.7,192.2c-3.9-0.9-7-5.7-7-10.8s3.2-8.4,7-7.4c1.9,0.5,3.7,1.9,5,3.9"/>
				<path class="st6" d="M573.2,165.7c0,0-1.3-6.5-6.2-10.9"/>
				<path class="st6" d="M581.3,167.7c0,0,2-8.7-0.1-11.2"/>
				<path class="st5" d="M384.6,169.3c7.7,2.4,15.4,4.9,23,7.4c-3.5,16.9-15,29.1-27.9,26.6c-14.8-2.7-25.8-25.8-24.5-48.4
					c1.2-22.6,14.2-35.2,28.9-30.9c14.1,4.2,24.8,22.3,24.6,42.4C401.6,167.2,384.6,169.2,384.6,169.3z"/>
				<path class="st6" d="M372.6,111.4c0,0-1.2-6.7-6-10.9"/>
				<path class="st6" d="M380.7,113.4c0,0,2.1-8.9,0.1-11.3"/>
			</g>
			<g>
				<path class="st6" d="M519.5,199.4c-2,5.9-2.9,14.2,3.7,20.3"/>
				<g>
					<path class="st6" d="M518.2,212.2c-3.8,1.7-7.5,3.2-11.1,4.5"/>
					<path class="st6" d="M429.6,210.7c4.5,2.6,9.8,5.2,15.6,7.2"/>
					<path class="st6" d="M479.6,222.4c-2.1,0.1-4,0.2-6,0.2"/>
					<path class="st7" d="M473.6,223.8c0.7,10.1-5,18.5-12.7,18.9c-7.8,0.5-14.6-8.2-15.4-19.3c-0.1-1.9-0.2-3.7-0.4-5.5
						c8.4,2.9,17.9,4.8,28.3,4.8C473.6,223,473.6,223.4,473.6,223.8z"/>
					<path class="st7" d="M507.5,222.8c0.8,9.2-4.9,16.4-12.6,16.6c-7.5,0.2-14.2-7.3-15.3-16.9c8.7-0.6,17.9-2.4,27.5-5.7
						C507.2,218.7,507.4,220.8,507.5,222.8z"/>
				</g>
			</g>
			<g>
				<path class="st4" d="M328.2,177.3c-3.1,7.6-6.2,15.7-9.3,24"/>
				<path class="st4" d="M340.3,179.1c-3.1,7.5-6.2,15.3-9.3,23.6"/>
			</g>
			<g>
				<path class="st4" d="M629.3,231.6c-3,3.8-5.9,7.5-8.9,11"/>
				<path class="st4" d="M641.4,233.3c-3,3.7-5.9,7.3-8.9,10.7"/>
			</g>
		</g>
	</g>
</g>
<path class="st8" d="M374.2,126.6c0,0-17.9,5-15.1,36.7"/>
<path class="st8" d="M360.3,171c0,0,0.7,13.8,7.7,19.9"/>
<path class="st8" d="M594.5,185.4c0,0-17.2-14.9-30.2,1.3"/>
<path class="st8" d="M560.2,194.3c0,0-3.5,13.6,3.3,23.5"/>
</svg>
