<?xml version="1.0" encoding="utf-8"?>
<!-- Generator: Adobe Illustrator 25.4.1, SVG Export Plug-In . SVG Version: 6.00 Build 0)  -->
<svg version="1.1" id="Layer_1" xmlns="http://www.w3.org/2000/svg" xmlns:xlink="http://www.w3.org/1999/xlink" x="0px" y="0px"
	 viewBox="0 0 375.6 1240.6" style="enable-background:new 0 0 375.6 1240.6;" xml:space="preserve">
<style type="text/css">
	.st0{fill:#F3614A;stroke:#261F26;stroke-width:4;stroke-linecap:round;stroke-linejoin:round;stroke-miterlimit:10;}
	.st1{fill:#261F26;stroke:#261F26;stroke-width:4;stroke-linecap:round;stroke-linejoin:round;stroke-miterlimit:10;}
	.st2{fill:none;stroke:#261F26;stroke-width:4;stroke-linecap:round;stroke-linejoin:round;stroke-miterlimit:10;}
	.st3{fill:#261F26;}
	.st4{fill:#F3614A;}
	.st5{fill:#22AE95;stroke:#261F26;stroke-width:4;stroke-linecap:round;stroke-linejoin:round;stroke-miterlimit:10;}
	.st6{fill:#FFFFFF;}
	.st7{fill:#FFFFFF;stroke:#261F26;stroke-width:4;stroke-linecap:round;stroke-linejoin:round;stroke-miterlimit:10;}
	.st8{fill:#1C3B47;stroke:#261F26;stroke-width:4;stroke-miterlimit:10;}
	.st9{fill:#1C3B47;}
	.st10{fill:#A780F1;stroke:#261F26;stroke-width:4;stroke-linecap:round;stroke-linejoin:round;stroke-miterlimit:10;}
</style>
<g>
	<g>
		<path class="st0" d="M120.1,370c0,0,13.9-78.2,11-97.9l28.2,27.2l25.2-21.5c0,0-3.2,89-13.4,113.5L120.1,370z"/>
		<path class="st1" d="M138.6,396.1c0,0,29.8,4.5,32.5-4.8s-18-27.1-18-27.1l-40.2,30.1L138.6,396.1z"/>
		<path class="st0" d="M120,407.5c14.9-33.6,32.7-43.2,33.1-43.4c-0.8,0.1-41.3,6.7-61.6,12.1c0,0-13.9,13.7-30.3,75.8
			c-12.5,46.8-22.7,130.6,8.1,252.8c3.9,15.5,6.7,31.3,7.9,47.2c6.1,75.9-13.3,141.1-13.3,141.1s-60.5,194.5-30.2,252.1
			c3.9,7.2,8.5,11.1,13.2,13.1l4.2,1.1c0,0-4.6,8.5-4.2-1.1l-28.5,45.3l36.6-6.4l11.3,31.5c0,0,20.1-9.1,42.9-46.9
			c14.8-24.5,12.3-40.4-1.4-46.7c-15.6-7.2-35.2-17.5-39.9-46.4c-0.8-4.6-1-9.2-0.9-13.8c1.9-67.9,34.8-172.4,34.8-172.4
			s30.7-96.7,0-227.3C101.7,675.2,61.2,529.3,120,407.5"/>
		<path class="st2" d="M153.1,364.1L153.1,364.1"/>
		<path class="st3" d="M121.8,362.2l18.5-5.6c12.4-3.7,25.8-1.2,36.1,6.7l1.1,0.8l7.2-89.8l-52.5,4.1L121.8,362.2z"/>
		<path class="st1" d="M46.8,1158.4c0,0,29.1,8,52-1.8l-73.9,37.6L46.8,1158.4z"/>
		<line class="st2" x1="108.7" y1="414.7" x2="103.6" y2="428"/>
		<path class="st2" d="M110.1,409.3c0,0,10-24.8,20.5-36"/>
		<path class="st2" d="M69.2,1218.5c0,0,7.4-4,12.4-10.5"/>
	</g>
	<g>
		<path class="st4" d="M255.1,1146.2l36.8,50.2l-45.5-8.4l-16.1,42.2c-29.2-9.7-53.6-70.6-21.9-94.2c31.7-23.5,63.3-96.6,63.3-96.6
			c16.8-32.1,27.1-64.9,27.5-98.8c0-0.7,0-1.4,0-2.1v0c-0.8-14.9-24.4-27.8-34.5-32.7l-2.2,18.5v0l-8.1,10.9l-16.6-2L219,920.8
			l17.7-43.9c0,0,13.7-11.3,28.1-11.7h0.1c1.4,0.2,2.9,0.6,4.5,1.1c6.4,2.1,13.8,6.8,19,15.4c3.1,4.5,2.5,10.9,5.1,15.6
			c50.6,76.1,31.1,145.1,10.4,185.7C303.9,1083,284,1120.3,255.1,1146.2z"/>
		<path class="st3" d="M239.5,874.9c0,0,4.8,31,23.7,38.3l-1.5,19.1l-30.2-2.6l4.7-51.6L239.5,874.9z"/>
		<g>
			<path class="st2" d="M292.5,893.5c52,75.3,32.1,144.4,13.7,184.8c0,0-22,50.2-74.8,85.5"/>
			<path class="st2" d="M255.6,1148l35.7,49l-45.5-8.4l-16.1,42.2c-29.2-9.7-53.6-70.6-21.9-94.2s63.3-96.6,63.3-96.6
				c24.5-47,35.3-95.5,21.4-146.6c-13.9-51.1-56.4-16.1-56.4-16.1"/>
			<line class="st2" x1="262" y1="925" x2="268.9" y2="866"/>
			<path class="st2" d="M265,905c0,0,35,16.2,33.6,36.3"/>
			<path class="st0" d="M235.1,318.9c0,0,6.3-20.2,15.8,55.9c9.8,78.1-89.6,508.6-42.6,580.9c2.3,3.5,7.2,4.1,10.3,1.3
				c11.8-10.5,15.2-16,29.5-14.5C264.4,944.3,262,925,262,925s-33.6,49.6-25.1-126.2c8.6-175.8,88.1-474.2,41.7-500.1
				c-12.5,19.5-20.1,20.9-27.4,20.1C243.9,318.1,235.1,318.9,235.1,318.9z"/>
		</g>
		<path class="st3" d="M250.4,365c3.1-3.2,11.7-24.5,43.7-14.9l-8.8-90l-55.2,41.1L250.4,365z"/>
		<path class="st3" d="M231.4,1165.1l21.8-19.4l21.6,29.6C274.8,1175.3,240.2,1177.9,231.4,1165.1z"/>
		<path class="st3" d="M298.6,934.8c-1.4-4.5-4.6-8.9-8.8-12.7c-9.6-9.9-23.7-16.8-25.5-17.6l2.8-24l0-0.2l1.7-14.3
			c0.2,0,0.4,0.1,0.5,0.2c5.9,1.9,12.5,6,17.6,13.3c1.4,2.4,2.7,5.3,3.9,8.5c0.7,3.2,1.2,6.5,2.7,9.2
			C296.6,909.8,298.3,922.4,298.6,934.8z"/>
	</g>
	<path class="st5" d="M322.1,344.4H87.6c-10.6,0-19.2-8.6-19.2-19.1v-201h272.8v201C341.2,335.8,332.6,344.4,322.1,344.4z"/>
	<g>
		<g>
			<path class="st3" d="M153.1,205.1c4.6,1.1,9.4,2.6,14.2,4.9c-0.1,6.2-3.2,9.5-7.4,10.5c-4.3,1.1-9.7-0.1-15.4,0.2
				c-6.4-0.1-12.7,1.7-17.2-0.4c-4.4-1.8-7-7.6-5-15.8c1.7-8.2,7.3-14.8,11.7-18.4c4.6-3.8,7.9-4.6,10.6-4.7c2.6,0.2,5.7,1.1,10,4.5
				c4.1,3.3,9.4,9.1,11.6,16.7C161.1,204,153.1,205.1,153.1,205.1z"/>
			<path class="st2" d="M153.1,205.1c4.6,1.1,9.4,2.6,14.2,4.9c-0.1,6.2-3.2,9.5-7.4,10.5c-4.3,1.1-9.7-0.1-15.4,0.2
				c-6.4-0.1-12.7,1.7-17.2-0.4c-4.4-1.8-7-7.6-5-15.8c1.7-8.2,7.3-14.8,11.7-18.4c4.6-3.8,7.9-4.6,10.6-4.7c2.6,0.2,5.7,1.1,10,4.5
				c4.1,3.3,9.4,9.1,11.6,16.7C161.1,204,153.1,205.1,153.1,205.1z"/>
		</g>
		<g>
			<path class="st3" d="M237.4,203c4.5,1.2,9,2.9,13.7,5.5c-1.3,12.4-12.7,9.3-23.3,9.7c-6.1,0.2-12.2,1.9-16.2-0.6
				c-4-2.2-6-8.6-3.5-16.7c2.2-8.2,7.7-14.2,11.9-17.6c4.4-3.4,7.3-4.2,9.9-4.2c2.5,0.2,5.7,1.3,9.9,4.9c4,3.5,9,9.7,10.6,17.2
				C245.4,202.2,237.5,203,237.4,203z"/>
			<path class="st2" d="M237.4,203c4.5,1.2,9,2.9,13.7,5.5c-1.3,12.4-12.7,9.3-23.3,9.7c-6.1,0.2-12.2,1.9-16.2-0.6
				c-4-2.2-6-8.6-3.5-16.7c2.2-8.2,7.7-14.2,11.9-17.6c4.4-3.4,7.3-4.2,9.9-4.2c2.5,0.2,5.7,1.3,9.9,4.9c4,3.5,9,9.7,10.6,17.2
				C245.4,202.2,237.5,203,237.4,203z"/>
		</g>
		<path class="st2" d="M186.8,229c-4.6,0-8.2-3.8-8.2-8.4s3.7-8.4,8.2-8.4c2.3,0,4.3,0.9,5.8,2.5"/>
		<path class="st2" d="M106.9,225.4c0,0-1.3-8.2,0.5-13"/>
		<path class="st2" d="M102,226.6c0,0-4.3-11.6-3.8-14.4"/>
		<path class="st2" d="M271.7,213.7c0,0,3.2-7.7,7.3-10.7"/>
		<path class="st2" d="M266.9,212.2c0,0,2.5-12.1,4.5-14.2"/>
		<ellipse class="st6" cx="221.1" cy="181.7" rx="8.3" ry="2.6"/>
		<ellipse class="st6" cx="212.1" cy="187.2" rx="6.2" ry="2"/>
		<ellipse class="st6" cx="129.7" cy="187.1" rx="5.9" ry="2"/>
		<ellipse class="st6" cx="135.6" cy="181.6" rx="3.9" ry="1.2"/>
	</g>
	<path class="st1" d="M203,256.3c-15,4.2-30.3,2.6-45.2-3.7c-22.5-9.6-57.6-20.3-63,4c-7.9,36.1,30.7,69.1,102.8,64.7
		c67.6-4.1,106.5-12.3,104.6-74.4c-0.3-9.5-3-18-7.4-22.2C276.2,206.9,248.7,243.4,203,256.3z"/>
	<path class="st7" d="M173.6,261c0,11-4.6,19.9-10.2,19.9s-10.2-8.9-10.2-19.9c0-3.3,0.4-6.4,1.1-9.1c0.9,0.4,1.8,0.7,2.7,1.1
		c5.4,2.3,10.9,4,16.4,5C173.6,259,173.6,260,173.6,261z"/>
	<path class="st7" d="M206,261c0,11-4.6,19.9-10.2,19.9s-10.2-8.9-10.2-19.9c0-0.6,0-1.2,0-1.8c5.6,0,11.1-0.8,16.6-2.4
		c1.1-0.3,2.3-0.7,3.4-1C205.9,257.5,206,259.2,206,261z"/>
	<path class="st0" d="M166.5,320.7c0,0,14.9-32.1,34.9-16.7c0,0,18.2-33.7,41,12.7C242.4,316.7,199.1,328.2,166.5,320.7z"/>
	<polygon class="st8" points="340.8,330.1 347.6,288.2 347.6,112.4 341.2,124.2 	"/>
	<rect x="69.3" y="112.4" class="st9" width="271.1" height="32.3"/>
	<path class="st10" d="M347,124.2H71.4c-4.7,0-8.5-3.8-8.5-8.5V83.9c0-4.7,3.8-8.5,8.5-8.5H347c4.7,0,8.5,3.8,8.5,8.5v31.7
		C355.5,120.4,351.7,124.2,347,124.2z"/>
	<path class="st2" d="M74.8,298.7c0,0-0.5,21,0,23.4"/>
	<path class="st2" d="M77.3,328c0,0,2.6,9.5,14.8,9.9"/>
	<g>
		<g>
			<g>
				<path class="st0" d="M210.4,70.4c2.2,0.1,4.3,0.3,6.2,0.7c3.9,0.8,5.7,3.8,6.5,6.8l14.1,5.5c2,0.8,4.1,1.2,6.2,1.2
					c57.2,0.8,57.9-25.5,61.8-41c0.7-2.7,1.9-5.3,3.5-7.8c4.9-7.4,9.9-21.5,9.9-21.5c-26.7,2.1-64,15.5-90.7,20.4
					C205.9,38.6,208.7,62.2,210.4,70.4z M223.6,73.3c0,0,6.6-30.8,35.9-31.8c0,0-7.7,4.9-4.2,12.7c3.5,7.8,6.3,8.8-18.1,16.4
					C230.2,72.1,223.6,73.3,223.6,73.3z"/>
				<path class="st0" d="M192.3,33c-26.7-4.8-64-18.2-90.7-20.4c0,0,5,14,9.9,21.5c1.6,2.5,2.8,5.1,3.5,7.8
					c3.9,15.3,4.6,41.2,59.9,41c3.3,0,6.6-0.6,9.7-1.8l12.5-4.9c0.8-3,2.6-6,6.5-6.8c1.9-0.4,4-0.6,6.2-0.7
					C211.4,60.5,214.2,37,192.3,33z M182.9,68.9c-24.4-7.6-21.6-8.6-18.1-16.4c3.5-7.8-4.2-12.7-4.2-12.7
					c29.3,1,35.9,31.8,35.9,31.8S189.9,70.4,182.9,68.9z"/>
				<path class="st0" d="M223,76.3c-0.3,1.2-1.1,2.2-2.2,3c0,0-0.1,0-0.1,0.1c-3,2.1-8.4,2.9-13.7,3.2c-2.1,0.1-4.1,0.1-6,0.1
					c-1.4,0-2.6-0.1-3.7-0.1c-2.9-0.1-5.1-1.9-4.9-3.9c0,0,0-0.1,0-0.1c0.1-0.9,0.2-2,0.5-3c0.8-3,2.6-6,6.5-6.8
					c1.9-0.4,4-0.6,6.2-0.7c1.8-0.1,3.6-0.1,5.3,0c2.1,0.1,4.1,0.2,5.8,0.3c3,0.2,5.5,1.8,6.1,3.9C223.1,73.4,223.3,74.8,223,76.3z"
					/>
			</g>
		</g>
		<line class="st2" x1="110.4" y1="19.6" x2="112.3" y2="23.7"/>
		<line class="st2" x1="114.8" y1="28.3" x2="116.5" y2="31.7"/>
		<path class="st0" d="M198,75.3c0,0,0.5-1.5,2.2-1.8"/>
		<path class="st0" d="M267.2,77.3c0,0,7.2-1.2,9.8-2.9"/>
		<path class="st0" d="M281.4,71.9c0,0,3.9-1.4,4.7-2"/>
	</g>
	<path class="st2" d="M210.2,1143.2c0,0-8.7,7.6-9.1,15.2"/>
	<path class="st2" d="M226.2,1222.9c0,0-8.7-4.2-10.7-11"/>
	<path class="st0" d="M214,949.8c0,0-8.9-16.9-9.1-22.4"/>
	<path class="st0" d="M286.1,353.5c0,0,1.7,13.2,0,29.6"/>
	<line class="st2" x1="286.1" y1="387.9" x2="284.3" y2="403.4"/>
</g>
</svg>
