<?xml version="1.0" encoding="utf-8"?>
<!-- Generator: Adobe Illustrator 25.4.1, SVG Export Plug-In . SVG Version: 6.00 Build 0)  -->
<svg version="1.1" id="Layer_1" xmlns="http://www.w3.org/2000/svg" xmlns:xlink="http://www.w3.org/1999/xlink" x="0px" y="0px"
	 viewBox="0 0 320 191" style="enable-background:new 0 0 320 191;" xml:space="preserve">
<style type="text/css">
	.st0{clip-path:url(#SVGID_00000098927674255697964250000014173942635685124773_);}
	.st1{fill:#F3614A;stroke:#261F26;stroke-width:1.1509;stroke-linecap:round;stroke-linejoin:round;stroke-miterlimit:10;}
	.st2{fill:#261F26;stroke:#261F26;stroke-width:1.1509;stroke-linecap:round;stroke-linejoin:round;stroke-miterlimit:10;}
	.st3{fill:none;stroke:#261F26;stroke-width:1.1509;stroke-linecap:round;stroke-linejoin:round;stroke-miterlimit:10;}
	.st4{fill:#261F26;}
	.st5{fill:#F3614A;}
	.st6{fill:#22AE95;stroke:#261F26;stroke-width:1.1509;stroke-linecap:round;stroke-linejoin:round;stroke-miterlimit:10;}
	.st7{fill:#FFFFFF;stroke:#261F26;stroke-width:1.1509;stroke-linecap:round;stroke-linejoin:round;stroke-miterlimit:10;}
	.st8{fill:#1C3B47;stroke:#261F26;stroke-width:1.1509;stroke-miterlimit:10;}
	.st9{fill:#1C3B47;}
	.st10{fill:#A780F1;stroke:#261F26;stroke-width:1.1509;stroke-linecap:round;stroke-linejoin:round;stroke-miterlimit:10;}
</style>
<g>
	<g>
		<defs>
			<rect id="SVGID_1_" x="84.24" y="-8.44" width="151.51" height="195.38"/>
		</defs>
		<clipPath id="SVGID_00000008847104340370881490000002508486988188982661_">
			<use xlink:href="#SVGID_1_"  style="overflow:visible;"/>
		</clipPath>
		<g style="clip-path:url(#SVGID_00000008847104340370881490000002508486988188982661_);">
			<g>
				<path class="st1" d="M124.43,157.67c0,0,6-33.83,4.77-42.35l12.18,11.78l10.92-9.3c0,0-1.41,38.47-5.82,49.07L124.43,157.67z"/>
				<path class="st2" d="M132.41,168.97c0,0,12.87,1.94,14.07-2.09c1.2-4.03-7.8-11.73-7.8-11.73l-17.37,13.02L132.41,168.97z"/>
				<path class="st1" d="M124.37,173.91c6.43-14.55,14.13-18.66,14.31-18.76c-0.33,0.05-17.87,2.88-26.64,5.24
					c0,0-6,5.93-13.12,32.76c-5.42,20.22-9.81,56.49,3.48,109.32c1.68,6.7,2.88,13.52,3.43,20.4c2.62,32.8-5.76,61.03-5.76,61.03
					S73.92,468,87.04,492.89c1.67,3.09,3.68,4.8,5.69,5.65l1.81,0.46c0,0-2.01,3.67-1.81-0.46l-12.35,19.58l15.84-2.76l4.89,13.61
					c0,0,8.69-3.94,18.53-20.27c6.4-10.61,5.31-17.48-0.6-20.2c-6.74-3.1-15.21-7.56-17.25-20.07c-0.32-1.97-0.43-3.97-0.37-5.96
					c0.82-29.36,15.07-74.54,15.07-74.54s13.29-41.81,0-98.28C116.49,289.65,98.95,226.55,124.37,173.91"/>
				<line class="st3" x1="138.68" y1="155.15" x2="138.67" y2="155.15"/>
				<path class="st4" d="M125.17,154.31l8-2.41c5.36-1.61,11.17-0.54,15.6,2.89l0.47,0.36l3.09-38.81l-22.69,1.76L125.17,154.31z"/>
				<line class="st3" x1="119.51" y1="177" x2="117.3" y2="182.78"/>
				<path class="st3" d="M120.09,174.69c0,0,4.33-10.74,8.86-15.56"/>
			</g>
			<g>
				<g>
					<path class="st1" d="M174.15,135.58c0,0,2.71-8.74,6.84,24.17c4.24,33.78-38.75,219.91-18.4,251.17
						c0.99,1.52,3.12,1.77,4.47,0.56c5.09-4.54,6.59-6.92,12.76-6.26c7,0.76,5.97-7.57,5.97-7.57s-14.55,21.43-10.84-54.57
						s38.08-205.01,18.04-216.22c-5.42,8.45-8.68,9.05-11.86,8.71C177.94,135.23,174.15,135.58,174.15,135.58z"/>
				</g>
				<path class="st4" d="M180.79,155.54c1.35-1.39,5.04-10.57,18.88-6.45l-3.78-38.9L172,127.98L180.79,155.54z"/>
			</g>
			<path class="st6" d="M211.75,146.6H110.36c-4.57,0-8.28-3.71-8.28-8.28V51.4h117.95v86.92
				C220.03,142.89,216.32,146.6,211.75,146.6z"/>
			<g>
				<g>
					<path class="st4" d="M138.69,86.41c2.01,0.46,4.06,1.11,6.14,2.1c-0.02,2.67-1.38,4.11-3.22,4.55
						c-1.86,0.49-4.21-0.03-6.64,0.09c-2.76-0.06-5.49,0.73-7.43-0.19c-1.92-0.79-3.04-3.29-2.18-6.85
						c0.75-3.54,3.16-6.38,5.04-7.95c1.98-1.63,3.42-2,4.57-2.05c1.11,0.08,2.46,0.47,4.33,1.94c1.78,1.43,4.07,3.94,5.03,7.23
						C142.17,85.92,138.71,86.38,138.69,86.41z"/>
					<path class="st3" d="M138.69,86.41c2.01,0.46,4.06,1.11,6.14,2.1c-0.02,2.67-1.38,4.11-3.22,4.55
						c-1.86,0.49-4.21-0.03-6.64,0.09c-2.76-0.06-5.49,0.73-7.43-0.19c-1.92-0.79-3.04-3.29-2.18-6.85
						c0.75-3.54,3.16-6.38,5.04-7.95c1.98-1.63,3.42-2,4.57-2.05c1.11,0.08,2.46,0.47,4.33,1.94c1.78,1.43,4.07,3.94,5.03,7.23
						C142.17,85.92,138.71,86.38,138.69,86.41z"/>
				</g>
				<g>
					<path class="st4" d="M175.17,85.5c1.93,0.53,3.9,1.26,5.91,2.37c-0.56,5.36-5.5,4.04-10.06,4.21c-2.65,0.07-5.26,0.82-7-0.27
						c-1.73-0.94-2.58-3.72-1.53-7.23c0.94-3.53,3.34-6.15,5.12-7.59c1.89-1.49,3.17-1.8,4.29-1.83c1.07,0.11,2.48,0.55,4.3,2.14
						c1.74,1.53,3.89,4.2,4.61,7.44C178.6,85.15,175.17,85.47,175.17,85.5z"/>
					<path class="st3" d="M175.17,85.5c1.93,0.53,3.9,1.26,5.91,2.37c-0.56,5.36-5.5,4.04-10.06,4.21c-2.65,0.07-5.26,0.82-7-0.27
						c-1.73-0.94-2.58-3.72-1.53-7.23c0.94-3.53,3.34-6.15,5.12-7.59c1.89-1.49,3.17-1.8,4.29-1.83c1.07,0.11,2.48,0.55,4.3,2.14
						c1.74,1.53,3.89,4.2,4.61,7.44C178.6,85.15,175.17,85.47,175.17,85.5z"/>
				</g>
				<path class="st3" d="M153.26,96.71c-1.97,0-3.56-1.62-3.56-3.63s1.59-3.63,3.56-3.63c0.98,0,1.87,0.41,2.52,1.06"/>
				<path class="st3" d="M118.71,95.15c0,0-0.58-3.56,0.22-5.62"/>
				<path class="st3" d="M116.62,95.69c0,0-1.88-5.02-1.63-6.24"/>
				<path class="st3" d="M189.98,90.11c0,0,1.4-3.32,3.17-4.64"/>
				<path class="st3" d="M187.91,89.46c0,0,1.08-5.25,1.94-6.15"/>
			</g>
			<path class="st2" d="M160.29,108.51c-6.5,1.83-13.12,1.14-19.53-1.6c-9.71-4.16-24.92-8.79-27.23,1.71
				c-3.43,15.62,13.29,29.87,44.46,27.98c29.22-1.77,46.05-5.31,45.21-32.15c-0.13-4.1-1.3-7.8-3.2-9.6
				C191.92,87.15,180.05,102.96,160.29,108.51z"/>
			<path class="st7" d="M147.57,110.56c0,4.75-1.97,8.61-4.41,8.61s-4.41-3.86-4.41-8.61c0-1.42,0.17-2.75,0.49-3.92
				c0.4,0.17,0.8,0.32,1.18,0.49c2.34,1,4.72,1.72,7.1,2.16C147.55,109.7,147.57,110.12,147.57,110.56z"/>
			<path class="st7" d="M161.57,110.56c0,4.75-1.98,8.61-4.42,8.61c-2.44,0-4.41-3.86-4.41-8.61c0-0.26,0.01-0.53,0.02-0.8
				c2.4-0.02,4.8-0.36,7.19-1.02c0.5-0.13,0.98-0.28,1.47-0.44C161.51,109.02,161.57,109.78,161.57,110.56z"/>
			<path class="st1" d="M144.48,136.36c0,0,6.46-13.87,15.1-7.2c0,0,7.86-14.56,17.74,5.48
				C177.31,134.64,158.59,139.61,144.48,136.36z"/>
			<polygon class="st8" points="219.86,140.44 222.79,122.32 222.79,46.3 220.03,51.4 			"/>
			<rect x="102.45" y="46.3" class="st9" width="117.21" height="13.98"/>
			<path class="st10" d="M222.54,51.4H103.39c-2.03,0-3.67-1.65-3.67-3.67V34.01c0-2.03,1.65-3.67,3.67-3.67h119.15
				c2.03,0,3.67,1.65,3.67,3.67v13.72C226.21,49.76,224.57,51.4,222.54,51.4z"/>
			<path class="st3" d="M104.28,128.06c0,0-0.24,9.1,0,10.12"/>
			<path class="st3" d="M105.35,140.7c0,0,1.12,4.09,6.39,4.26"/>
			<g>
				<g>
					<g>
						<path class="st1" d="M163.45,28.14c0.94,0.04,1.86,0.13,2.67,0.3c1.68,0.35,2.45,1.65,2.8,2.94l6.09,2.36
							c0.85,0.33,1.76,0.51,2.68,0.52c24.73,0.35,25.03-11.03,26.74-17.72c0.3-1.16,0.81-2.29,1.52-3.36
							c2.12-3.21,4.28-9.28,4.28-9.28c-11.54,0.93-27.69,6.71-39.23,8.8C161.51,14.41,162.72,24.59,163.45,28.14z M169.16,29.39
							c0,0,2.86-13.33,15.51-13.75c0,0-3.31,2.12-1.81,5.5c1.51,3.38,2.71,3.81-7.83,7.09C172.02,28.87,169.16,29.39,169.16,29.39z"
							/>
						<path class="st1" d="M155.64,11.98c-11.54-2.08-27.69-7.87-39.23-8.8c0,0,2.16,6.07,4.28,9.28c0.71,1.07,1.22,2.2,1.52,3.36
							c1.69,6.62,2,17.81,25.89,17.73c1.44-0.01,2.87-0.27,4.21-0.79l5.41-2.1c0.35-1.29,1.12-2.59,2.8-2.94
							c0.81-0.17,1.73-0.26,2.67-0.3C163.91,23.87,165.13,13.7,155.64,11.98z M151.6,27.51c-10.54-3.28-9.34-3.7-7.83-7.09
							c1.5-3.39-1.81-5.5-1.81-5.5c12.65,0.42,15.51,13.75,15.51,13.75S154.61,28.15,151.6,27.51z"/>
						<path class="st1" d="M168.91,30.69c-0.12,0.53-0.45,0.96-0.94,1.31c-0.01,0.01-0.02,0.02-0.03,0.02
							c-1.29,0.91-3.63,1.27-5.92,1.39c-0.89,0.05-1.78,0.05-2.6,0.04c-0.58-0.01-1.13-0.03-1.62-0.05
							c-1.25-0.06-2.21-0.82-2.13-1.7c0-0.02,0-0.03,0.01-0.05c0.04-0.4,0.11-0.85,0.23-1.29c0.35-1.29,1.12-2.59,2.8-2.94
							c0.81-0.17,1.73-0.26,2.67-0.3c0.77-0.04,1.56-0.04,2.31-0.02c0.93,0.02,1.8,0.08,2.51,0.13c1.32,0.11,2.38,0.79,2.66,1.7
							C168.99,29.43,169.06,30.04,168.91,30.69z"/>
					</g>
				</g>
				<line class="st1" x1="119.27" y1="5.83" x2="120.08" y2="7.62"/>
				<line class="st1" x1="121.18" y1="9.6" x2="121.91" y2="11.05"/>
				<path class="st1" d="M158.11,29.64c0,0,0.21-0.65,0.97-0.77"/>
				<path class="st1" d="M187.86,31.84c0,0,3.13-0.53,4.25-1.24"/>
				<path class="st1" d="M194.01,29.52c0,0,1.66-0.6,2.03-0.88"/>
			</g>
			<path class="st1" d="M196.19,150.57c0,0,0.75,5.72,0,12.78"/>
			<line class="st1" x1="196.19" y1="165.43" x2="195.44" y2="172.12"/>
		</g>
	</g>
	<line class="st3" x1="118.98" y1="186.94" x2="100.65" y2="186.94"/>
	<line class="st3" x1="196.23" y1="186.94" x2="179.79" y2="186.94"/>
</g>
</svg>
