<?xml version="1.0" encoding="utf-8"?>
<!-- Generator: Adobe Illustrator 25.4.1, SVG Export Plug-In . SVG Version: 6.00 Build 0)  -->
<svg version="1.1" id="Layer_1" xmlns="http://www.w3.org/2000/svg" xmlns:xlink="http://www.w3.org/1999/xlink" x="0px" y="0px"
	 viewBox="0 0 394.18 893.67" style="enable-background:new 0 0 394.18 893.67;" xml:space="preserve">
<style type="text/css">
	.st0{fill:#F3614A;stroke:#261F26;stroke-width:3.9855;stroke-linecap:round;stroke-linejoin:round;stroke-miterlimit:10;}
	.st1{fill:#F3614A;stroke:#261F26;stroke-width:4.7487;stroke-linecap:round;stroke-linejoin:round;stroke-miterlimit:10;}
	.st2{fill:#261F26;}
	.st3{fill:#F3614A;stroke:#261F26;stroke-width:3.34;stroke-linecap:round;stroke-linejoin:round;stroke-miterlimit:10;}
	.st4{fill:#A780F1;}
	.st5{fill:#412587;}
	.st6{fill:#22AE95;stroke:#261F26;stroke-width:5.3139;stroke-miterlimit:10;}
	.st7{fill:#096856;}
	.st8{fill:none;stroke:#261F26;stroke-width:1.2328;stroke-linecap:round;stroke-linejoin:round;stroke-miterlimit:10;}
	.st9{fill:none;stroke:#261F26;stroke-width:2.657;stroke-linecap:round;stroke-linejoin:round;stroke-miterlimit:10;}
	.st10{fill:none;stroke:#261F26;stroke-width:5.3139;stroke-linecap:round;stroke-linejoin:round;stroke-miterlimit:10;}
	.st11{fill:#FFEEDC;stroke:#261F26;stroke-width:2.657;stroke-linecap:round;stroke-linejoin:round;stroke-miterlimit:10;}
	.st12{fill:#F3614A;stroke:#261F26;stroke-width:2.657;stroke-linecap:round;stroke-linejoin:round;stroke-miterlimit:10;}
	.st13{fill:#F3614A;stroke:#261F26;stroke-width:3.5615;stroke-linecap:round;stroke-linejoin:round;stroke-miterlimit:10;}
	.st14{fill:#F3614A;stroke:#261F26;stroke-width:2.2267;stroke-linecap:round;stroke-linejoin:round;stroke-miterlimit:10;}
	.st15{fill:#F3614A;stroke:#261F26;stroke-width:7;stroke-linecap:round;stroke-linejoin:round;stroke-miterlimit:10;}
	.st16{fill:#22AE95;stroke:#261F26;stroke-width:7;stroke-linecap:round;stroke-linejoin:round;stroke-miterlimit:10;}
	.st17{fill:#261F26;stroke:#261F26;stroke-width:7;stroke-linecap:round;stroke-linejoin:round;stroke-miterlimit:10;}
	.st18{fill:#261F26;stroke:#261F26;stroke-width:7;stroke-miterlimit:10;}
	.st19{fill:none;stroke:#261F26;stroke-width:7;stroke-linecap:round;stroke-linejoin:round;stroke-miterlimit:10;}
	.st20{fill:#FFEEDC;stroke:#261F26;stroke-width:7;stroke-linecap:round;stroke-linejoin:round;stroke-miterlimit:10;}
	.st21{fill:#F3614A;stroke:#261F26;stroke-width:2.8152;stroke-linecap:round;stroke-linejoin:round;stroke-miterlimit:10;}
	.st22{fill:#22AE95;stroke:#261F26;stroke-width:2.8152;stroke-linecap:round;stroke-linejoin:round;stroke-miterlimit:10;}
	.st23{fill:#261F26;stroke:#261F26;stroke-width:2.8152;stroke-linecap:round;stroke-linejoin:round;stroke-miterlimit:10;}
	.st24{fill:#261F26;stroke:#261F26;stroke-width:2.8152;stroke-miterlimit:10;}
	.st25{fill:none;stroke:#261F26;stroke-width:2.8152;stroke-linecap:round;stroke-linejoin:round;stroke-miterlimit:10;}
	.st26{fill:#FFEEDC;stroke:#261F26;stroke-width:2.8152;stroke-linecap:round;stroke-linejoin:round;stroke-miterlimit:10;}
	.st27{fill:#F3614A;stroke:#261F26;stroke-width:1.3167;stroke-linecap:round;stroke-linejoin:round;stroke-miterlimit:10;}
	.st28{fill:#22AE95;stroke:#261F26;stroke-width:1.3167;stroke-linecap:round;stroke-linejoin:round;stroke-miterlimit:10;}
	.st29{fill:#261F26;stroke:#261F26;stroke-width:1.3167;stroke-linecap:round;stroke-linejoin:round;stroke-miterlimit:10;}
	.st30{fill:#261F26;stroke:#261F26;stroke-width:1.3167;stroke-miterlimit:10;}
	.st31{fill:none;stroke:#261F26;stroke-width:1.3167;stroke-linecap:round;stroke-linejoin:round;stroke-miterlimit:10;}
	.st32{fill:#FFEEDC;stroke:#261F26;stroke-width:1.3167;stroke-linecap:round;stroke-linejoin:round;stroke-miterlimit:10;}
	.st33{fill:#F3614A;stroke:#261F26;stroke-width:6.7358;stroke-linecap:round;stroke-linejoin:round;stroke-miterlimit:10;}
	.st34{fill:#F3614A;stroke:#261F26;stroke-width:5.0518;stroke-linecap:round;stroke-linejoin:round;stroke-miterlimit:10;}
	.st35{fill:#F3614A;stroke:#261F26;stroke-width:5.6532;stroke-linecap:round;stroke-linejoin:round;stroke-miterlimit:10;}
	.st36{fill:#22AE95;stroke:#261F26;stroke-width:5;stroke-miterlimit:10;}
	.st37{fill:none;stroke:#261F26;stroke-width:1.7487;stroke-linecap:round;stroke-linejoin:round;stroke-miterlimit:10;}
	.st38{fill:none;stroke:#261F26;stroke-width:3.7688;stroke-linecap:round;stroke-linejoin:round;stroke-miterlimit:10;}
	.st39{fill:none;stroke:#261F26;stroke-width:7.5376;stroke-linecap:round;stroke-linejoin:round;stroke-miterlimit:10;}
	.st40{fill:#FFEEDC;stroke:#261F26;stroke-width:3.7688;stroke-linecap:round;stroke-linejoin:round;stroke-miterlimit:10;}
	.st41{fill:#F3614A;stroke:#261F26;stroke-width:3.7688;stroke-linecap:round;stroke-linejoin:round;stroke-miterlimit:10;}
	.st42{fill:#F3614A;stroke:#261F26;stroke-width:4.7376;stroke-linecap:round;stroke-linejoin:round;stroke-miterlimit:10;}
	.st43{fill:#F3614A;stroke:#261F26;stroke-width:3.1584;stroke-linecap:round;stroke-linejoin:round;stroke-miterlimit:10;}
	.st44{fill:#22AE95;stroke:#261F26;stroke-width:7;stroke-miterlimit:10;}
	.st45{fill:#F3614A;stroke:#261F26;stroke-width:5.5485;stroke-linecap:round;stroke-linejoin:round;stroke-miterlimit:10;}
	.st46{fill:#F3614A;stroke:#261F26;stroke-width:4.1613;stroke-linecap:round;stroke-linejoin:round;stroke-miterlimit:10;}
	.st47{fill:#22AE95;stroke:#261F26;stroke-width:6;stroke-linecap:round;stroke-linejoin:round;stroke-miterlimit:10;}
	.st48{fill:none;stroke:#261F26;stroke-width:1.9328;stroke-linecap:round;stroke-linejoin:round;stroke-miterlimit:10;}
	.st49{fill:none;stroke:#261F26;stroke-width:4.8679;stroke-linecap:round;stroke-linejoin:round;stroke-miterlimit:10;}
	.st50{fill:none;stroke:#261F26;stroke-width:6;stroke-linecap:round;stroke-linejoin:round;stroke-miterlimit:10;}
	.st51{fill:#261F26;stroke:#261F26;stroke-width:6;stroke-linecap:round;stroke-linejoin:round;stroke-miterlimit:10;}
	.st52{fill:#FFFFFF;stroke:#261F26;stroke-width:6;stroke-linecap:round;stroke-linejoin:round;stroke-miterlimit:10;}
	.st53{fill:#F3614A;stroke:#261F26;stroke-width:5;stroke-linecap:round;stroke-linejoin:round;stroke-miterlimit:10;}
	.st54{fill:#1C3B47;stroke:#261F26;stroke-width:6;stroke-miterlimit:10;}
	.st55{fill:#1C3B47;}
	.st56{fill:#A780F1;stroke:#261F26;stroke-width:6;stroke-linecap:round;stroke-linejoin:round;stroke-miterlimit:10;}
	.st57{fill:#F3614A;stroke:#261F26;stroke-width:2.6448;stroke-linecap:round;stroke-linejoin:round;stroke-miterlimit:10;}
	.st58{fill:#F3614A;stroke:#261F26;stroke-width:1.9836;stroke-linecap:round;stroke-linejoin:round;stroke-miterlimit:10;}
	.st59{fill:#22AE95;stroke:#261F26;stroke-width:2.86;stroke-linecap:round;stroke-linejoin:round;stroke-miterlimit:10;}
	.st60{fill:none;stroke:#261F26;stroke-width:0.9213;stroke-linecap:round;stroke-linejoin:round;stroke-miterlimit:10;}
	.st61{fill:none;stroke:#261F26;stroke-width:2.3204;stroke-linecap:round;stroke-linejoin:round;stroke-miterlimit:10;}
	.st62{fill:none;stroke:#261F26;stroke-width:2.86;stroke-linecap:round;stroke-linejoin:round;stroke-miterlimit:10;}
	.st63{fill:#261F26;stroke:#261F26;stroke-width:2.86;stroke-linecap:round;stroke-linejoin:round;stroke-miterlimit:10;}
	.st64{fill:#FFFFFF;stroke:#261F26;stroke-width:2.86;stroke-linecap:round;stroke-linejoin:round;stroke-miterlimit:10;}
	.st65{fill:#F3614A;stroke:#261F26;stroke-width:2.3833;stroke-linecap:round;stroke-linejoin:round;stroke-miterlimit:10;}
	.st66{fill:#1C3B47;stroke:#261F26;stroke-width:2.86;stroke-miterlimit:10;}
	.st67{fill:#A780F1;stroke:#261F26;stroke-width:2.86;stroke-linecap:round;stroke-linejoin:round;stroke-miterlimit:10;}
	.st68{fill:#F3614A;stroke:#261F26;stroke-width:2.2583;stroke-linecap:round;stroke-linejoin:round;stroke-miterlimit:10;}
	.st69{fill:#F3614A;stroke:#261F26;stroke-width:1.5055;stroke-linecap:round;stroke-linejoin:round;stroke-miterlimit:10;}
	.st70{fill:#F3614A;stroke:#261F26;stroke-width:1.7509;stroke-linecap:round;stroke-linejoin:round;stroke-miterlimit:10;}
	.st71{fill:#F3614A;stroke:#261F26;stroke-width:1.3132;stroke-linecap:round;stroke-linejoin:round;stroke-miterlimit:10;}
	.st72{fill:#22AE95;stroke:#261F26;stroke-width:1.8934;stroke-linecap:round;stroke-linejoin:round;stroke-miterlimit:10;}
	.st73{fill:none;stroke:#261F26;stroke-width:0.6099;stroke-linecap:round;stroke-linejoin:round;stroke-miterlimit:10;}
	.st74{fill:none;stroke:#261F26;stroke-width:1.5362;stroke-linecap:round;stroke-linejoin:round;stroke-miterlimit:10;}
	.st75{fill:none;stroke:#261F26;stroke-width:1.8934;stroke-linecap:round;stroke-linejoin:round;stroke-miterlimit:10;}
	.st76{fill:#261F26;stroke:#261F26;stroke-width:1.8934;stroke-linecap:round;stroke-linejoin:round;stroke-miterlimit:10;}
	.st77{fill:#FFFFFF;stroke:#261F26;stroke-width:1.8934;stroke-linecap:round;stroke-linejoin:round;stroke-miterlimit:10;}
	.st78{fill:#F3614A;stroke:#261F26;stroke-width:1.5778;stroke-linecap:round;stroke-linejoin:round;stroke-miterlimit:10;}
	.st79{fill:#1C3B47;stroke:#261F26;stroke-width:1.8934;stroke-miterlimit:10;}
	.st80{fill:#A780F1;stroke:#261F26;stroke-width:1.8934;stroke-linecap:round;stroke-linejoin:round;stroke-miterlimit:10;}
	.st81{fill:#F3614A;stroke:#261F26;stroke-width:1.495;stroke-linecap:round;stroke-linejoin:round;stroke-miterlimit:10;}
	.st82{fill:#F3614A;stroke:#261F26;stroke-width:0.9967;stroke-linecap:round;stroke-linejoin:round;stroke-miterlimit:10;}
</style>
<g>
	<polygon class="st0" points="365.94,200.54 378.95,221.82 365.64,224.35 	"/>
	<path class="st1" d="M135.48,769.55l-19.6,31.91h30.93l8.14,16.9c0,0,53.73-28.6,32.56-61.11c-21.17-32.5,4.94-41.61,4.94-41.61
		l-79.83-9.1c0,0-27.68,72.81,50.47,63.71"/>
	<path class="st2" d="M112.02,752.68c0,0,53.58-15.78,68.06-11.51v-19.28h-40.24l-35.88,5.39L112.02,752.68z"/>
	<path class="st1" d="M263.36,810.82c0,0,16.33,35.38,17.56,38.32s-34.31-8.81-34.31-8.81l-7.35,25.44c0,0-49.01-36.21-25.73-64.58
		s-6.13-77.3-6.13-77.3l56.37-17.33c0,0,84.44,107.35-19.66,105.4"/>
	<path class="st2" d="M219.98,754.88c0,0,32.15-21.17,63.77-14.93l-2.51-16.06l-73.85,0L219.98,754.88z"/>
	<g>
		<g>
			<path class="st3" d="M201.42,91.63c2.42,0.1,4.8,0.34,6.89,0.77c4.34,0.9,6.33,4.26,7.23,7.58l18.98,7.37
				c67.49,2.11,68.22-28.06,72.71-45.67c0.76-3,2.09-5.92,3.91-8.69c5.48-8.29,11.05-23.95,11.05-23.95
				c-29.79,2.39-71.5,17.33-101.29,22.71C196.39,56.18,199.53,82.45,201.42,91.63z M216.15,94.86c0,0,7.39-34.41,40.06-35.5
				c0,0-8.56,5.46-4.67,14.2c3.89,8.74,7.01,9.83-20.22,18.3C223.54,93.49,216.15,94.86,216.15,94.86z"/>
			<path class="st3" d="M181.24,49.91c-29.79-5.38-71.5-20.33-101.29-22.71c0,0,5.58,15.66,11.05,23.95
				c1.83,2.77,3.15,5.68,3.91,8.69c4.49,17.61,5.22,47.78,72.71,45.67l18.98-7.37c0.89-3.32,2.89-6.69,7.23-7.58
				c2.09-0.43,4.47-0.67,6.89-0.77C202.6,80.6,205.74,54.33,181.24,49.91z M170.81,90.01c-27.22-8.47-24.11-9.56-20.22-18.3
				c3.89-8.74-4.67-14.2-4.67-14.2c32.67,1.09,40.06,35.5,40.06,35.5S178.59,91.65,170.81,90.01z"/>
			<path class="st3" d="M215.5,98.21c-0.31,1.36-1.17,2.47-2.44,3.38c-0.03,0.02-0.06,0.04-0.09,0.06
				c-3.34,2.34-9.37,3.28-15.29,3.58c-2.31,0.12-4.6,0.14-6.71,0.1c-1.51-0.02-2.93-0.08-4.18-0.14c-3.23-0.16-5.71-2.12-5.51-4.39
				c0.01-0.05,0.01-0.09,0.01-0.14c0.09-1.04,0.28-2.19,0.59-3.34c0.89-3.32,2.89-6.69,7.23-7.58c2.09-0.43,4.47-0.67,6.89-0.77
				c2-0.09,4.03-0.09,5.96-0.04c2.4,0.06,4.64,0.2,6.48,0.34c3.4,0.27,6.15,2.04,6.86,4.38C215.71,94.96,215.89,96.52,215.5,98.21z"
				/>
		</g>
	</g>
	<g>
		<path class="st4" d="M165.95,742.5c-18.42,0-39.03-0.15-61.24-0.46c-21.82-0.3-39.13-7.32-51.43-20.85
			c-24.75-27.25-21.35-72.31-21.31-72.76c0.01-0.07,0.01-0.15,0.01-0.22l-0.66-372.33l-0.36-84.84c49.29-34.51,103.38-52,160.79-52
			c93.74,0,167.02,47.28,176.81,53.9l0.79,446.95c0.15,29.22-4.18,68.48-25.64,89.64c-12.63,12.45-25.51,12.72-25.64,12.72
			c0,0-98.07-0.4-98.1-0.4C219.82,741.84,203.72,742.5,165.95,742.5C165.96,742.5,165.96,742.5,165.95,742.5z"/>
		<path class="st2" d="M191.76,141.67c51.86,0,97,14.7,125.75,27.03c25.17,10.8,42.52,21.72,48.41,25.63l0.79,445.56
			c0.15,28.51-3.99,66.82-24.54,87.42c-11.73,11.76-23.34,12.25-24.1,12.27l-97.96-0.4c-0.01,0-0.01,0-0.02,0c-0.07,0-0.15,0-0.22,0
			c-0.16,0.01-16.21,0.66-53.91,0.66c-18.41,0-39-0.15-61.21-0.46c-21.05-0.29-37.69-7.01-49.48-19.96
			c-23.97-26.36-20.68-70.34-20.65-70.77c0.01-0.15,0.02-0.3,0.02-0.45l-0.66-372.35l-0.36-83.44
			C82.15,158.74,135.34,141.67,191.76,141.67 M191.76,136.36c-50.41,0-106.95,13.37-163.46,53.29l0.37,86.22l0.66,372.33
			c0,0-7.95,95.35,75.35,96.49c24.79,0.34,45.05,0.46,61.28,0.46c38.29,0,54.13-0.66,54.13-0.66l98.01,0.4
			c0,0,54.46-0.11,53.92-105.03c-0.21-118.53-0.8-448.35-0.8-448.35S294.13,136.36,191.76,136.36L191.76,136.36z"/>
	</g>
	<g>
		<path class="st5" d="M365.94,200.54l0.06,32.6c-164.52-43.68-281.24-12.98-332.31,2.47l-0.15-34.59
			C143.59,157.22,255.73,157.12,365.94,200.54z"/>
	</g>
	<g>
		<path class="st6" d="M368.09,200.9c-110.22-43.42-232.85-43.2-342.92,0.61c-7.99-20.09-5.89-37.1-3.41-64.86
			c125.4-49.91,223.36-50.08,348.93-0.62C375.29,167.49,376.01,180.79,368.09,200.9z"/>
	</g>
	<polygon class="st7" points="227.45,102.85 213.12,102.03 227.73,166.99 250.11,169.15 232.08,103.11 	"/>
	<g>
		<path class="st2" d="M132.06,638.55c7.34,3.08,13.87,7.8,19.07,13.87c-10.49,3.25-23.15,2.52-34.77,2.82
			c-12.97-1.15-29.54,1.49-38.01-6.72c-9.37-7.87,7.34-37.74,41.75-36.13c32.73,2.18,44.93,29.89,35.98,36.73
			C146.77,641.17,131.99,638.24,132.06,638.55z"/>
		<path class="st8" d="M132.06,638.55c7.34,3.08,13.87,7.8,19.07,13.87c-10.49,3.25-23.15,2.52-34.77,2.82
			c-12.97-1.15-29.54,1.49-38.01-6.72c-9.37-7.87,7.34-37.74,41.75-36.13c32.73,2.18,44.93,29.89,35.98,36.73
			C146.77,641.17,131.99,638.24,132.06,638.55z"/>
	</g>
	<polygon class="st7" points="167.19,102.85 181.52,102.03 166.91,166.99 144.53,169.15 162.56,103.11 	"/>
	<g>
		<path class="st2" d="M287.91,638.27c7.34,3.08,13.87,7.8,19.07,13.87c-10.49,3.25-23.15,2.52-34.77,2.82
			c-12.97-1.15-29.54,1.49-38.01-6.72c-9.37-7.87,7.34-37.74,41.75-36.13c32.73,2.18,44.93,29.89,35.98,36.73
			C302.62,640.89,287.84,637.96,287.91,638.27z"/>
		<path class="st8" d="M287.91,638.27c7.34,3.08,13.87,7.8,19.07,13.87c-10.49,3.25-23.15,2.52-34.77,2.82
			c-12.97-1.15-29.54,1.49-38.01-6.72c-9.37-7.87,7.34-37.74,41.75-36.13c32.73,2.18,44.93,29.89,35.98,36.73
			C302.62,640.89,287.84,637.96,287.91,638.27z"/>
	</g>
	<path class="st9" d="M193.06,648.65c-2.95,0.01-5.34-2.38-5.35-5.33c-0.01-2.95,2.38-5.34,5.33-5.35c1.47,0,2.81,0.59,3.78,1.56"/>
	<g>
		<path class="st10" d="M113.59,607.02c0,0-0.8-4.28-3.8-6.42"/>
		<path class="st10" d="M121.07,607.01c0,0,1.28-6.37-0.01-7.7"/>
	</g>
	<g>
		<path class="st10" d="M270.46,604.28c0,0-0.8-4.28-3.8-6.42"/>
		<path class="st10" d="M277.47,604.27c0,0,1.28-6.37-0.01-7.7"/>
	</g>
	<g>
		<path class="st9" d="M235.41,656.89c0,0-13.82,17.01,6.01,20.98"/>
		<g>
			<path class="st9" d="M230.74,668.09c-4.85,2.65-9.59,4.77-14.2,6.44"/>
			<path class="st9" d="M143.22,667.38c0,0,9.93,7.15,26.16,10.61"/>
			<path class="st9" d="M195.35,679.42c-1.57,0.16-3.09,0.27-4.6,0.35"/>
			<path class="st11" d="M190.77,680.41c0.15,5.88-4.51,10.79-10.38,10.92c-5.89,0.15-10.77-4.51-10.94-10.38l-0.07-2.97
				c6.26,1.36,13.45,2.14,21.37,1.78L190.77,680.41z"/>
			<path class="st11" d="M216.64,678.37c0.15,5.88-4.49,10.77-10.38,10.91c-5.72,0.15-10.49-4.22-10.91-9.86
				c6.64-0.67,13.74-2.19,21.19-4.89L216.64,678.37z"/>
		</g>
	</g>
	<g>
		<path class="st5" d="M251.66,191.3c0,0,55.24,99.18,114.41,96.08l-0.11-79.19L251.66,191.3z"/>
	</g>
	<path class="st2" d="M215.98,679.13c0.11,4.44-2.5,8.31-6.32,10c1.32-3.7,0.86-8.25,0.07-11.86c2.02-0.56,4.06-1.23,6.15-1.98
		L215.98,679.13z"/>
	<path class="st2" d="M190.11,681.18c0.14,5.14-3.42,9.54-8.26,10.66c1.69-3.3,1.59-7.59,0.99-11.29c2.34,0.1,4.76,0.1,7.25-0.01
		L190.11,681.18z"/>
	<path class="st10" d="M46.23,669.6c0,0,3.89,30.14,18.46,37.49"/>
	<path class="st10" d="M69.36,715.12c0,0,14.69,17.88,50.89,15.52"/>
	<path class="st0" d="M231.62,101.54c0,0,4.38,129.33,139.75,171.24l7.59-50.96c0,0-107.16-31.09-124.93-117.96L231.62,101.54z"/>
	<polygon class="st2" points="244.1,811.95 274.47,834.97 263.36,810.82 	"/>
	<polygon class="st2" points="125.45,788 160.98,772.68 133.98,770.69 	"/>
	<line class="st12" x1="366.62" y1="265.18" x2="360.04" y2="262.65"/>
	<line class="st12" x1="355.23" y1="260.62" x2="347.38" y2="257.13"/>
	<g>
		<path class="st5" d="M148.3,191.3c0,0-55.24,99.18-114.41,96.08l0.11-79.19L148.3,191.3z"/>
	</g>
	<polygon class="st0" points="28.24,200.54 15.23,221.82 28.54,224.35 	"/>
	<path class="st0" d="M162.56,101.54c0,0-5.31,132.15-140.68,174.06l-6.66-53.78c0,0,107.16-31.09,124.93-117.96L162.56,101.54z"/>
	<line class="st12" x1="29.06" y1="265.41" x2="35.64" y2="262.87"/>
	<line class="st12" x1="40.45" y1="260.85" x2="48.63" y2="257.34"/>
	<line class="st13" x1="233.69" y1="850.74" x2="228.92" y2="844.29"/>
	<line class="st13" x1="279.9" y1="742.66" x2="282.1" y2="747.93"/>
	<line class="st13" x1="283.75" y1="751.92" x2="285.28" y2="755.79"/>
	<path class="st13" d="M173.23,742.66c0,0,0.4,3.75,2.42,5.27"/>
	<path class="st13" d="M158.11,809.92c0,0,4.57-1.96,7.23-3.91"/>
	<line class="st14" x1="87.01" y1="33.51" x2="89.12" y2="38.14"/>
	<line class="st14" x1="90.06" y1="40.78" x2="91.96" y2="44.51"/>
	<path class="st14" d="M187.31,94.99c0,0,0.54-1.68,2.5-1.98"/>
	<path class="st14" d="M265.18,101.99c0,0,8.09-1.37,10.97-3.2"/>
	<path class="st14" d="M279.07,97.12c0,0,4.3-1.55,5.25-2.27"/>
</g>
</svg>
