<?xml version="1.0" encoding="utf-8"?>
<!-- Generator: Adobe Illustrator 25.4.1, SVG Export Plug-In . SVG Version: 6.00 Build 0)  -->
<svg version="1.1" id="Layer_1" xmlns="http://www.w3.org/2000/svg" xmlns:xlink="http://www.w3.org/1999/xlink" x="0px" y="0px"
	 viewBox="0 0 394.2 893.7" style="enable-background:new 0 0 394.2 893.7;" xml:space="preserve">
<style type="text/css">
	.st0{fill:#F3614A;stroke:#261F26;stroke-width:5;stroke-linecap:round;stroke-linejoin:round;stroke-miterlimit:10;}
	.st1{fill:#261F26;}
	.st2{fill:#A780F1;}
	.st3{fill:#412587;}
	.st4{fill:#22AE95;stroke:#261F26;stroke-width:5;stroke-miterlimit:10;}
	.st5{fill:#096856;}
	.st6{fill:none;stroke:#261F26;stroke-width:2;stroke-linecap:round;stroke-linejoin:round;stroke-miterlimit:10;}
	.st7{fill:none;stroke:#261F26;stroke-width:5;stroke-linecap:round;stroke-linejoin:round;stroke-miterlimit:10;}
	.st8{fill:#FFEEDC;stroke:#261F26;stroke-width:5;stroke-linecap:round;stroke-linejoin:round;stroke-miterlimit:10;}
	.st9{fill:#FFFFFF;}
</style>
<g>
	<polygon class="st0" points="365.9,200.5 379,221.8 365.6,224.4 	"/>
	<path class="st0" d="M135.5,769.5l-19.6,31.9h30.9l8.1,16.9c0,0,53.7-28.6,32.6-61.1c-21.2-32.5,4.9-41.6,4.9-41.6l-79.8-9.1
		c0,0-27.7,72.8,50.5,63.7"/>
	<path class="st1" d="M113.2,758.1c0,0,53.6-15.8,68.1-11.5v-19.3H141l-35.9,5.4L113.2,758.1z"/>
	<path class="st0" d="M263.4,810.8c0,0,16.3,35.4,17.6,38.3s-34.3-8.8-34.3-8.8l-7.4,25.4c0,0-49-36.2-25.7-64.6s-6.1-77.3-6.1-77.3
		l56.4-17.3c0,0,84.4,107.3-19.7,105.4"/>
	<path class="st1" d="M220,760.6c0,0,32.2-21.2,63.8-14.9l-2.5-16.1h-73.9L220,760.6z"/>
	<g>
		<path class="st2" d="M165.9,742.5c-18.4,0-39-0.2-61.2-0.5c-21.8-0.3-39.1-7.3-51.4-20.8c-24.8-27.2-21.4-72.3-21.3-72.8
			c0-0.1,0-0.2,0-0.2l-0.7-372.3L31,191c49.3-34.5,103.4-52,160.8-52c93.7,0,167,47.3,176.8,53.9l0.8,446.9
			c0.1,29.2-4.2,68.5-25.6,89.6c-12.6,12.5-25.5,12.7-25.6,12.7c0,0-98.1-0.4-98.1-0.4C219.8,741.8,203.7,742.5,165.9,742.5
			C166,742.5,166,742.5,165.9,742.5z"/>
		<path class="st1" d="M191.8,141.7c51.9,0,97,14.7,125.8,27c25.2,10.8,42.5,21.7,48.4,25.6l0.8,445.6c0.1,28.5-4,66.8-24.5,87.4
			c-11.7,11.8-23.3,12.2-24.1,12.3l-98-0.4c0,0,0,0,0,0c-0.1,0-0.1,0-0.2,0c-0.2,0-16.2,0.7-53.9,0.7c-18.4,0-39-0.2-61.2-0.5
			c-21-0.3-37.7-7-49.5-20c-24-26.4-20.7-70.3-20.6-70.8c0-0.2,0-0.3,0-0.5L34,275.8l-0.4-83.4C82.2,158.7,135.3,141.7,191.8,141.7
			 M191.8,136.4c-50.4,0-106.9,13.4-163.5,53.3l0.4,86.2l0.7,372.3c0,0-7.9,95.3,75.3,96.5c24.8,0.3,45,0.5,61.3,0.5
			c38.3,0,54.1-0.7,54.1-0.7l98,0.4c0,0,54.5-0.1,53.9-105c-0.2-118.5-0.8-448.4-0.8-448.4S294.1,136.4,191.8,136.4L191.8,136.4z"/>
	</g>
	<g>
		<path class="st3" d="M365.9,200.5l0.1,32.6c-164.5-43.7-281.2-13-332.3,2.5L33.5,201C143.6,157.2,255.7,157.1,365.9,200.5z"/>
	</g>
	<g>
		<path class="st4" d="M368.1,200.9c-110.2-43.4-232.9-43.2-342.9,0.6c-8-20.1-5.9-37.1-3.4-64.9c125.4-49.9,223.4-50.1,348.9-0.6
			C375.3,167.5,376,180.8,368.1,200.9z"/>
	</g>
	<polygon class="st5" points="227.4,102.8 213.1,102 227.7,167 250.1,169.1 232.1,103.1 	"/>
	<g>
		<path class="st1" d="M132.1,638.5c7.3,3.1,13.9,7.8,19.1,13.9c-10.5,3.2-23.2,2.5-34.8,2.8c-13-1.2-29.5,1.5-38-6.7
			c-9.4-7.9,7.3-37.7,41.8-36.1c32.7,2.2,44.9,29.9,36,36.7C146.8,641.2,132,638.2,132.1,638.5z"/>
		<path class="st6" d="M132.1,638.5c7.3,3.1,13.9,7.8,19.1,13.9c-10.5,3.2-23.2,2.5-34.8,2.8c-13-1.2-29.5,1.5-38-6.7
			c-9.4-7.9,7.3-37.7,41.8-36.1c32.7,2.2,44.9,29.9,36,36.7C146.8,641.2,132,638.2,132.1,638.5z"/>
	</g>
	<polygon class="st5" points="167.2,102.8 181.5,102 166.9,167 144.5,169.1 162.6,103.1 	"/>
	<g>
		<path class="st1" d="M287.9,638.3c7.3,3.1,13.9,7.8,19.1,13.9c-10.5,3.2-23.1,2.5-34.8,2.8c-13-1.2-29.5,1.5-38-6.7
			c-9.4-7.9,7.3-37.7,41.7-36.1c32.7,2.2,44.9,29.9,36,36.7C302.6,640.9,287.8,638,287.9,638.3z"/>
		<path class="st6" d="M287.9,638.3c7.3,3.1,13.9,7.8,19.1,13.9c-10.5,3.2-23.1,2.5-34.8,2.8c-13-1.2-29.5,1.5-38-6.7
			c-9.4-7.9,7.3-37.7,41.7-36.1c32.7,2.2,44.9,29.9,36,36.7C302.6,640.9,287.8,638,287.9,638.3z"/>
	</g>
	<path class="st7" d="M193.1,648.7c-2.9,0-5.3-2.4-5.4-5.3c0-3,2.4-5.3,5.3-5.3c1.5,0,2.8,0.6,3.8,1.6"/>
	<g>
		<path class="st7" d="M113.6,607c0,0-0.8-4.3-3.8-6.4"/>
		<path class="st7" d="M121.1,607c0,0,1.3-6.4,0-7.7"/>
	</g>
	<g>
		<path class="st7" d="M270.5,604.3c0,0-0.8-4.3-3.8-6.4"/>
		<path class="st7" d="M277.5,604.3c0,0,1.3-6.4,0-7.7"/>
	</g>
	<g>
		<path class="st7" d="M235.4,656.9c0,0-13.8,17,6,21"/>
		<g>
			<path class="st7" d="M230.7,668.1c-4.9,2.7-9.6,4.8-14.2,6.4"/>
			<path class="st7" d="M143.2,667.4c0,0,9.9,7.2,26.2,10.6"/>
			<path class="st7" d="M195.4,679.4c-1.6,0.2-3.1,0.3-4.6,0.3"/>
			<path class="st8" d="M190.8,680.4c0.1,5.9-4.5,10.8-10.4,10.9c-5.9,0.2-10.8-4.5-10.9-10.4l-0.1-3c6.3,1.4,13.4,2.1,21.4,1.8
				L190.8,680.4z"/>
			<path class="st8" d="M216.6,678.4c0.1,5.9-4.5,10.8-10.4,10.9c-5.7,0.2-10.5-4.2-10.9-9.9c6.6-0.7,13.7-2.2,21.2-4.9L216.6,678.4
				z"/>
		</g>
	</g>
	<g>
		<path class="st3" d="M251.7,191.3c0,0,55.2,99.2,114.4,96.1l-0.1-79.2L251.7,191.3z"/>
	</g>
	<path class="st1" d="M216,679.1c0.1,4.4-2.5,8.3-6.3,10c1.3-3.7,0.9-8.2,0.1-11.9c2-0.6,4.1-1.2,6.1-2L216,679.1z"/>
	<path class="st1" d="M190.1,681.2c0.1,5.1-3.4,9.5-8.3,10.7c1.7-3.3,1.6-7.6,1-11.3c2.3,0.1,4.8,0.1,7.2,0L190.1,681.2z"/>
	<path class="st7" d="M43.9,672.7c0,0,3.9,30.1,18.5,37.5"/>
	<path class="st7" d="M70.7,717.1c0,0,14.7,17.9,50.9,15.5"/>
	<path class="st0" d="M231.6,101.5c0,0,4.4,129.3,139.8,171.2l7.6-51c0,0-107.2-31.1-124.9-118L231.6,101.5z"/>
	<polygon class="st1" points="244.1,812 274.5,835 263.4,810.8 	"/>
	<polygon class="st1" points="125.4,788 161,772.7 134,770.7 	"/>
	<line class="st7" x1="366.6" y1="265.2" x2="360" y2="262.6"/>
	<line class="st7" x1="353.9" y1="259.7" x2="346.1" y2="256.2"/>
	<g>
		<path class="st3" d="M148.3,191.3c0,0-55.2,99.2-114.4,96.1l0.1-79.2L148.3,191.3z"/>
	</g>
	<polygon class="st0" points="28.2,200.5 15.2,221.8 28.5,224.4 	"/>
	<path class="st0" d="M162.6,101.5c0,0-5.3,132.1-140.7,174.1l-6.7-53.8c0,0,107.2-31.1,124.9-118L162.6,101.5z"/>
	<line class="st7" x1="29.1" y1="265.4" x2="35.6" y2="262.9"/>
	<line class="st7" x1="42.1" y1="260.2" x2="50.3" y2="256.7"/>
	<line class="st7" x1="233.7" y1="850.7" x2="228.9" y2="844.3"/>
	<line class="st7" x1="279.9" y1="742.7" x2="282.1" y2="747.9"/>
	<line class="st7" x1="283.8" y1="753.9" x2="285.3" y2="757.7"/>
	<path class="st0" d="M173.2,742.7c0,0,0.4,3.8,2.4,5.3"/>
	<path class="st0" d="M158.1,806c0,0,4.6-2,7.2-3.9"/>
	<g>
		<g>
			<path class="st0" d="M201.4,91.6c2.4,0.1,4.8,0.3,6.9,0.8c4.3,0.9,6.3,4.3,7.2,7.6l11.8,4.6c5.1,2,10.5,3,15.9,2.9
				c58.9-0.7,59.7-28.9,64-45.8c0.8-3,2.1-5.9,3.9-8.7c5.5-8.3,11-24,11-24c-29.8,2.4-71.5,17.3-101.3,22.7
				C196.4,56.2,199.5,82.4,201.4,91.6z M216.1,94.9c0,0,7.4-34.4,40.1-35.5c0,0-8.6,5.5-4.7,14.2s7,9.8-20.2,18.3
				C223.5,93.5,216.1,94.9,216.1,94.9z"/>
			<path class="st0" d="M181.2,49.9C151.5,44.5,109.7,29.6,80,27.2c0,0,5.6,15.7,11.1,24c1.8,2.8,3.2,5.7,3.9,8.7
				c4.1,16.2,5.1,42.9,57.4,45.6c9.1,0.5,18.2-1,26.6-4.3l7.6-3c0.9-3.3,2.9-6.7,7.2-7.6c2.1-0.4,4.5-0.7,6.9-0.8
				C202.6,80.6,205.7,54.3,181.2,49.9z M170.8,90c-27.2-8.5-24.1-9.6-20.2-18.3s-4.7-14.2-4.7-14.2C178.6,58.6,186,93,186,93
				S178.6,91.7,170.8,90z"/>
			<path class="st0" d="M215.5,98.2c-0.3,1.4-1.2,2.5-2.4,3.4c0,0-0.1,0-0.1,0.1c-3.3,2.3-9.4,3.3-15.3,3.6
				c-2.3,0.1-4.6,0.1-6.7,0.1c-1.5,0-2.9-0.1-4.2-0.1c-3.2-0.2-5.7-2.1-5.5-4.4c0-0.1,0-0.1,0-0.1c0.1-1,0.3-2.2,0.6-3.3
				c0.9-3.3,2.9-6.7,7.2-7.6c2.1-0.4,4.5-0.7,6.9-0.8c2-0.1,4-0.1,6,0c2.4,0.1,4.6,0.2,6.5,0.3c3.4,0.3,6.1,2,6.9,4.4
				C215.7,95,215.9,96.5,215.5,98.2z"/>
		</g>
	</g>
	<line class="st7" x1="89.5" y1="34.2" x2="91.6" y2="38.9"/>
	<line class="st7" x1="94.4" y1="44.3" x2="96.3" y2="48"/>
	<path class="st0" d="M188,96.8c0,0,0.5-1.7,2.5-2"/>
	<path class="st0" d="M265.2,99.1c0,0,8.1-1.4,11-3.2"/>
	<path class="st0" d="M281.8,93.2c0,0,4.2-1.8,5.1-2.6"/>
</g>
<polygon class="st9" points="98.2,614.4 99.9,616.6 102.5,617.6 100.2,619.3 99.3,621.9 97.6,619.6 95,618.7 97.2,617 "/>
<polygon class="st9" points="89.9,616.4 90.7,622.2 94.4,626.6 88.7,627.4 84.2,631.1 83.5,625.4 79.7,620.9 85.5,620.2 "/>
<polygon class="st9" points="248.7,615.9 251.2,617.1 254,616.8 252.7,619.3 253,622 250.5,620.8 247.8,621.1 249,618.6 "/>
<polygon class="st9" points="238.6,618.9 241.9,623.7 247.3,625.9 242.5,629.3 240.3,634.6 237,629.9 231.6,627.7 236.4,624.3 "/>
</svg>
