<?xml version="1.0" encoding="utf-8"?>
<!-- Generator: Adobe Illustrator 25.4.1, SVG Export Plug-In . SVG Version: 6.00 Build 0)  -->
<svg version="1.1" id="Layer_1" xmlns="http://www.w3.org/2000/svg" xmlns:xlink="http://www.w3.org/1999/xlink" x="0px" y="0px"
	 viewBox="0 0 960 267.64" style="enable-background:new 0 0 960 267.64;" xml:space="preserve">
<style type="text/css">
	.st0{fill:#F3614A;stroke:#261F26;stroke-width:3;stroke-linecap:round;stroke-linejoin:round;stroke-miterlimit:10;}
	.st1{fill:#22AE95;stroke:#261F26;stroke-width:3;stroke-linecap:round;stroke-linejoin:round;stroke-miterlimit:10;}
	.st2{fill:#A780F1;}
	.st3{fill:#261F26;}
	.st4{fill:#261F26;stroke:#261F26;stroke-width:3;stroke-linecap:round;stroke-linejoin:round;stroke-miterlimit:10;}
	.st5{fill:#261F26;stroke:#261F26;stroke-width:3;stroke-miterlimit:10;}
	.st6{fill:none;stroke:#261F26;stroke-width:3;stroke-linecap:round;stroke-linejoin:round;stroke-miterlimit:10;}
	.st7{fill:#FFEEDC;stroke:#261F26;stroke-width:3;stroke-linecap:round;stroke-linejoin:round;stroke-miterlimit:10;}
</style>
<g>
	<g>
		<g>
			<path class="st0" d="M494.13,14.74c0.01,0.37-9.69,32.65-12.86,34.28c0,0-10.72-0.43-24.55-1.34c1.11-8.88,1.94-19.02,1.94-19.02
				c0.01,0-114.58-11.54-135.35-14.47c-20.77-3.35-24.51-2.16-24.51-2.23c-0.02-1.1,69.52,13.45,97.29,18.64
				c21.46,3.04,39.57,3.43,46.02,15.96c-18.37-1.48-37.63-3.52-43.86-5.06c-7.22-1.76-51.63-12.35-94.18-18.19
				C261.51,16.78,220.79,15,220.79,15c15.93-3.96,31.82-6.89,47.69-9.63C343.71,7.15,418.93,11.5,494.13,14.74z"/>
			<path class="st0" d="M739.3,43.81c0-0.27-40.37,10.42-82.62,16.04c-42.24,6.44-86.37,7.8-93.55,7.9
				c-3.31,0.13-10.34-0.83-18.99-2.38c16.06-23.92,99.95-30.76,99.94-31.17c-40.08,0.48-80.18-0.5-120.3-2.56
				c0.01,0.41-27.13,13.39-28.97,23.38c-8.84-1.97-14.87-3.36-14.87-3.36c-3.26-2.17,19.37-34.05,19.36-34.9
				c63.81-0.56,127.56-5.2,191.25-12.41C706.77,17.64,723.02,31.06,739.3,43.81z"/>
		</g>
		<path class="st1" d="M939.04,264.06c-305.87,4.19-611.73-2.2-917.6,2.02C10.3,265.9,1.58,256.9,1.98,245.97
			c2.06-58.94,4.13-117.39,6.19-175.35c0.4-11.27,9.6-23.41,20.56-26.55c301-92.29,602,107.26,903,15.65
			c10.96-3.12,20.17,2.65,20.56,13.44c2.06,57.51,4.13,114.53,6.19,171.07C958.89,255.36,950.18,264.24,939.04,264.06z"/>
		<g>
			<path class="st2" d="M7,104.44c0.42-11.77,0.84-23.51,1.25-35.24c0.42-11.84,7.98-23.79,16.86-26.29
				c303.26-91.74,606.52,103.87,909.78,13.09c8.88-2.47,16.44,4.55,16.86,15.98c0.42,11.66,0.83,23.3,1.25,34.91
				C637.67,275.58,322.33-65.88,7,104.44z"/>
			<path class="st3" d="M934.94,57.64c8.06-2.31,14.93,4.3,15.31,15c0.4,11.23,0.8,22.42,1.19,33.56
				c-314.3,165.66-628.6-171.36-942.91-4.07c0.4-11.23,0.8-22.42,1.2-33.58C10.13,57.64,17,46.64,25.06,44.3
				C328.35-49.66,631.65,150.61,934.94,57.64 M934.84,54.38C631.61,142.92,328.39-47.93,25.16,41.54
				c-9.7,2.63-17.95,15.51-18.4,28.32c-0.44,12.3-0.87,24.61-1.31,36.91c316.37-173.36,632.74,172.5,949.11,0.81
				c-0.44-12.07-0.87-24.15-1.31-36.24C952.79,59.17,944.54,51.78,934.84,54.38C934.84,54.38,934.84,54.38,934.84,54.38z"/>
		</g>
		<path class="st4" d="M17.06,163.69c-0.48,14.49-0.97,29.24-1.45,44.23"/>
		<path class="st4" d="M15.36,215.58c-0.26,7.98-0.51,16.04-0.77,24.16"/>
		<path class="st4" d="M946.16,163.92c0.71,19.74,1.42,39.08,2.13,58"/>
		<path class="st4" d="M940.37,207.91c0.5,13.17,0.99,25.99,1.49,38.48"/>
		<path class="st5" d="M237.32,205.58c0,0.05,7.33-19.65,5.46-43.78c-1.87-24.06-1.14-36.31,5.99-39.23
			c7.12-3.83,11.41,45.01,11.41,46.13c0-0.52,0.42-34.54,11.22-24.18c10.79,9.82,21.94,42.51,6.96,62.91
			c-14.98,20.25-18.73,39.4-16.09,56.16c-10.14-0.01-20.28,0-30.42,0.01C231.84,263.66,226.04,233.4,237.32,205.58z"/>
		<path class="st3" d="M477.18,223.2c0,0.11,4.95,20.93-15.64,19.56c0.01-7.01,0.02-13.98,0.03-20.91
			C466.77,222.28,471.97,222.73,477.18,223.2z"/>
		<path class="st3" d="M514.56,215.25c0,0.18,0.91,25.94-19.67,24.11c1.03-6.65,2.07-13.26,3.1-19.85
			C503.51,217.99,509.04,216.58,514.56,215.25z"/>
		<path class="st5" d="M744,265.38c0,0.11-3.44-3.15-8.25-5.9c-6.91-3.73-6.81-9.04-0.74-17.92c6.07-9.07-4.92-15.8-9.7-10.84
			c-4.79,4.9-6.76,12.18-6.76,12.09c-0.01-0.04-17.86-7.07-28.83,4.14c-11,10.74,21.35,13.12,22.92,15.07
			c1.56,1.94,1.08,3.41,1.08,3.41C723.81,265.41,733.91,265.4,744,265.38z"/>
		<g>
			<g>
				<path class="st5" d="M586.83,213.7c7.4,2.07,14.79,4.06,22.19,5.96c-3.27,11.28-14.61,17.3-27.53,15.22
					c-14.81-2.36-26.02-16.89-25.05-33.72c0.96-16.67,13.66-27.83,28.37-23.61c14.16,4.01,25.07,20.42,25.14,34.91
					C602.92,212.94,586.83,213.7,586.83,213.7z"/>
				<path class="st6" d="M470.69,192.16c-3.89-0.85-7.03-5.7-7.03-10.8c0.01-5.1,3.16-8.41,7.04-7.42c1.94,0.49,3.7,1.95,4.97,3.9"
					/>
				<path class="st6" d="M573.17,165.69c0,0.01-1.32-6.47-6.18-10.88"/>
				<path class="st6" d="M581.32,167.72c0,0.04,2.01-8.67-0.09-11.2"/>
				<path class="st5" d="M384.57,169.29c7.68,2.45,15.37,4.93,23.05,7.41c-3.5,16.85-15.01,29.08-27.92,26.62
					c-14.8-2.71-25.76-25.78-24.51-48.43c1.25-22.63,14.17-35.25,28.88-30.95c14.15,4.2,24.84,22.32,24.64,42.43
					C401.64,167.2,384.58,169.23,384.57,169.29z"/>
				<path class="st6" d="M372.56,111.41c0-0.01-1.22-6.71-6.04-10.94"/>
				<path class="st6" d="M380.72,113.39c0-0.04,2.15-8.94,0.08-11.34"/>
			</g>
			<g>
				<path class="st6" d="M519.55,199.37c-2,5.9-2.92,14.25,3.7,20.26"/>
				<g>
					<path class="st6" d="M518.17,212.2c-3.76,1.73-7.47,3.22-11.14,4.49"/>
					<path class="st6" d="M429.62,210.72c4.55,2.64,9.78,5.16,15.58,7.17"/>
					<path class="st6" d="M479.58,222.42c-2.06,0.14-4.05,0.21-6.04,0.23"/>
					<path class="st7" d="M473.62,223.76c0.74,10.07-4.95,18.5-12.7,18.94c-7.77,0.47-14.63-8.19-15.37-19.27
						c-0.12-1.85-0.24-3.7-0.35-5.54c8.37,2.95,17.93,4.77,28.34,4.76C473.57,223.02,473.6,223.39,473.62,223.76z"/>
					<path class="st7" d="M507.54,222.77c0.77,9.17-4.88,16.45-12.65,16.59c-7.53,0.16-14.24-7.26-15.31-16.94
						c8.7-0.58,17.91-2.42,27.46-5.73C507.2,218.72,507.37,220.75,507.54,222.77z"/>
				</g>
			</g>
			<g>
				<path class="st4" d="M328.17,177.34c-3.1,7.65-6.2,15.66-9.3,24.03"/>
				<path class="st4" d="M340.28,179.07c-3.09,7.5-6.18,15.34-9.28,23.55"/>
			</g>
			<g>
				<path class="st4" d="M629.28,231.61c-2.96,3.81-5.92,7.46-8.88,10.99"/>
				<path class="st4" d="M641.39,233.27c-2.95,3.72-5.91,7.26-8.87,10.66"/>
			</g>
		</g>
	</g>
</g>
</svg>
