<?xml version="1.0" encoding="utf-8"?>
<!-- Generator: Adobe Illustrator 25.4.1, SVG Export Plug-In . SVG Version: 6.00 Build 0)  -->
<svg version="1.1" id="Layer_1" xmlns="http://www.w3.org/2000/svg" xmlns:xlink="http://www.w3.org/1999/xlink" x="0px" y="0px"
	 viewBox="0 0 1920 1080" style="enable-background:new 0 0 1920 1080;" xml:space="preserve">
<style type="text/css">
	.st0{fill:#F3614A;stroke:#261F26;stroke-width:4.3194;stroke-linecap:round;stroke-linejoin:round;stroke-miterlimit:10;}
	.st1{fill:#261F26;}
	.st2{fill:none;stroke:#261F26;stroke-width:4.3194;stroke-linecap:round;stroke-linejoin:round;stroke-miterlimit:10;}
	.st3{fill:#22AE95;}
	.st4{fill:#FFFFFF;}
	.st5{fill:none;stroke:#261F26;stroke-width:2.7455;stroke-linecap:round;stroke-linejoin:round;stroke-miterlimit:10;}
	.st6{fill:#A780F1;stroke:#261F26;stroke-width:4.9129;stroke-linecap:round;stroke-linejoin:round;stroke-miterlimit:10;}
	.st7{fill:#412587;stroke:#261F26;stroke-width:4.9129;stroke-miterlimit:10;}
	.st8{fill:#412587;}
	.st9{fill:#22AE95;stroke:#261F26;stroke-width:4.9129;stroke-linecap:round;stroke-linejoin:round;stroke-miterlimit:10;}
	.st10{fill:#F3614A;stroke:#261F26;stroke-width:4.9129;stroke-linecap:round;stroke-linejoin:round;stroke-miterlimit:10;}
	.st11{fill:none;stroke:#261F26;stroke-width:4.9129;stroke-linecap:round;stroke-linejoin:round;stroke-miterlimit:10;}
	.st12{fill:#261F26;stroke:#261F26;stroke-width:4.9129;stroke-linecap:round;stroke-linejoin:round;stroke-miterlimit:10;}
	.st13{fill:#FFFFFF;stroke:#261F26;stroke-width:4.5156;stroke-linecap:round;stroke-linejoin:round;stroke-miterlimit:10;}
	.st14{fill:#FFFFFF;stroke:#261F26;stroke-width:4.5934;stroke-linecap:round;stroke-linejoin:round;stroke-miterlimit:10;}
	.st15{fill:#F3614A;}
	.st16{opacity:0.46;}
	.st17{clip-path:url(#SVGID_00000071534435295963114410000013270322180324132486_);fill:#F3614A;}
	.st18{clip-path:url(#SVGID_00000066506864603316077690000015994920043168959923_);fill:#F3614A;}
	.st19{clip-path:url(#SVGID_00000044177511770571677980000000201872137089680043_);fill:#F3614A;}
	.st20{clip-path:url(#SVGID_00000003789113262147166950000010144517436434449082_);fill:#F3614A;}
</style>
<g>
	<g>
		<path class="st0" d="M831.58,340.93c0.77-15.28-229.86,72.9-302.89-137.56c-23.94-75.01,28.87-189.14,28.87-189.14l24.15,58.91
			l67.9-47.74c0,0-90.48,211.64,161.64,228.78"/>
		<path class="st1" d="M653.5,333.3c0,0,48.17,13.32,72.68-46.53l90.07-25.4l20.48,76.27C836.73,337.64,705.56,357.96,653.5,333.3z"
			/>
		<g>
			<g>
				<path class="st0" d="M910.5,768.74c-0.82,0.23-1.49,17.28-28.76-41.64c-6.72-14.18-12.44-50.28-8.62-96.12
					c3.27-45.9,16.09-101.55,33.85-156.19c17.21-54.7,39.35-108.4,48.71-151.76c8.81-43.43,4.82-76.52-42.85-91.4
					c-8.59-2.58-27-1.76-38.26,1.79c-42.26,13.86-54.07,18.1-104.3,30.42c-43.65,10.71-43.46,28.16-43.65,27.68
					c-0.94,0.05,26.4-19.27,53.42-17.32c27.07,1.55,53.81,24.38,52.8,99.32c0.99,37.17-9.67,83.68-16.19,131.81
					c-7.08,48.14-10.02,97.9-6.62,141.63c6.42,88.84,37.71,149.68,61.44,150.75c5.71-20.04,14.16-23.78,21.87-25.16
					C901.24,771.1,910.48,768.72,910.5,768.74z"/>
			</g>
			<path class="st1" d="M850.9,725.77c-3.45,4.37,20.86,33.08-7.21,48.4c14.5,20.87,22.26,33.83,34.88,55.74
				c9.57-16.95,22.79-33.23,39.58-47.52C908.54,765.85,863.77,740.83,850.9,725.77z"/>
			<path class="st1" d="M918.15,782.39c-9.61-16.53-54.38-41.56-67.25-56.63c-3.45,4.37,10.52,31.37-7.21,48.4"/>
		</g>
		<path class="st0" d="M906.59,239.45c0,0,43.69,15.76,39.54,51.43"/>
		<path class="st0" d="M845.53,758.84c0.05-0.02-6.67-9.15-10.28-22.57"/>
		<path class="st0" d="M832.03,726.17c-1.07-4.26-2.1-8.54-3.09-12.83"/>
	</g>
	<g>
		<path class="st0" d="M1163.21,401.32c0,0,91.49,94.94,150.39,33.04c58.91-61.9,43.86-157.13,43.86-157.13l-52.69,29.45
			l-54.23-48.11c0,0,29.6,104.4-59.21,99.81L1163.21,401.32z"/>
		<g>
			<path class="st1" d="M1180.96,417.27c0,0,28.69-20.25,58.71-6.14l2.34-31.32l-77.58-11.65l-6.64,28.03L1180.96,417.27z"/>
			<g>
				<path class="st0" d="M1017.86,779.71c0.61,0.19-1.69,14.18,29.54-34.17c7.64-11.64,18.12-41.27,22.69-78.89
					c5.02-37.67,4.13-83.34-0.82-128.18c-4.5-44.89-13.06-88.96-13.25-124.55c0.25-35.64,8.87-62.8,48.88-75.01
					c7.2-2.11,21.56-1.45,29.84,1.47c31,11.37,38.94,16.41,77.13,24.97c42.83,11.34,29.58,23.11,29.8,22.72
					c0.73,0.04-17.61-15.82-39.22-14.21c-21.58,1.27-46.42,20.01-58.03,81.51c-6.93,30.51-6.23,68.68-9.06,108.18
					c-2.39,39.51-8.31,80.34-18.23,116.24c-19.76,72.91-54.48,122.84-73.34,123.72c-1.18-16.45-7.22-19.52-13.07-20.65
					C1024.76,781.65,1017.88,779.7,1017.86,779.71z"/>
			</g>
			<path class="st1" d="M1067.96,745.98c2,3.59-15.43,30.86,7.62,31.22c-14.88,17.13-29.11,34.71-42.68,52.7
				c-4.73-13.91-12.46-27.27-23.32-39C1019.88,777.34,1055.32,758.35,1067.96,745.98z"/>
		</g>
		<path class="st0" d="M1070.68,771.58c-0.03-0.02,6.77-7.51,11.83-18.53"/>
		<path class="st0" d="M1086.73,744.77c1.55-3.5,3.07-7.01,4.56-10.53"/>
		<path class="st0" d="M1069.97,376.68c0,0,18.45-31.63,51.53-30.21"/>
		<path class="st2" d="M1241.69,388.05c0,0-6.63,62.22,24.18,67.25"/>
	</g>
	<g>
		<g>
			<path class="st3" d="M1107.6,598.34c-0.57,0-1.11-0.02-1.63-0.05c-18.21-1.07-20.93-9.7-20.93-14.75
				c0-19.17,31.21-27.29,43.62-27.29c3.25,0,11.35,0.56,16.38,5.71c2.5,2.56,3.78,5.86,3.69,9.53
				C1148.52,587.86,1121.6,598.34,1107.6,598.34L1107.6,598.34z"/>
			<path class="st1" d="M1128.67,560.57c6.84,0,15.95,2.66,15.76,10.82c-0.18,13.34-24.82,22.64-36.82,22.64
				c-0.47,0-0.91-0.01-1.34-0.04c-6.46-0.38-16.9-2.09-16.9-10.44C1089.36,568.34,1116.51,560.57,1128.67,560.57 M1128.67,551.92
				c-6.77,0-18,2.04-27.84,6.59c-12.96,6-20.1,14.89-20.1,25.02c0,5.29,2.44,17.73,25,19.06c0.6,0.04,1.23,0.06,1.88,0.06
				c7.78,0,18.31-2.86,26.83-7.29c11.87-6.17,18.49-14.63,18.63-23.83c0.1-4.85-1.6-9.21-4.92-12.61
				C1141.96,552.6,1132.46,551.92,1128.67,551.92L1128.67,551.92z"/>
		</g>
		<g>
			<path class="st3" d="M1177.84,705.77c-16.68,0-30.5-5.75-38.88-15.98c-10.43,10.23-31.47,14.84-39.15,14.84
				c-9.68,0-19.7-6.23-19.7-16.66c0-0.01,0-0.02,0-0.04c-4.09,3.49-9.17,6.36-13.82,8.55c-10.11,4.75-22.79,8.34-29.51,8.34
				c-11.55,0-19.41-5.14-22.19-14.11c-10.1,8.76-27.63,14.11-34.96,14.11c-14.39,0-15.61-10.02-16.2-14.83c0-0.01,0-0.01,0-0.02
				c-0.78,0.65-1.64,1.42-2.37,2.07c-5.75,5.14-15.37,13.73-30.04,13.73c-9.9,0-18.02-4.48-23-12.5
				c-10.32,7.56-26.85,11.36-34.72,11.36c-11.1,0-17.99-6.53-17.99-17.04c0-6.94,1.58-14.82,3.1-22.44
				c0.72-3.59,1.4-6.98,1.88-10.12l2.22-16.5c-0.05-1.5-0.53-1.5-0.99-1.5c-9.6,0-12.22,26.84-13.08,35.66l-0.09,0.89
				c-2.17,23.82-8.64,29.63-34.63,31.04c-0.61,0.03-1.22,0.05-1.83,0.05c-10.38,0-16.58-5.32-16.58-14.24
				c0-4.36,1.52-11.68,3.28-20.15c0.37-1.77,0.75-3.61,1.13-5.49c-3.4,8.18-8.42,15.59-14.9,21.84
				c-12.78,12.34-30.11,19.13-48.8,19.13c-23.89,0-41.2-11.85-46.16-30.47c-16.9,22.82-43.21,28-63.58,28h-42.91
				c-2.48,0-5.13,0.17-7.86,0.37l-0.56,0.04c-2.72,0.18-5.29,0.35-8.11,0.35c-12.69,0-19.13-5.22-19.13-15.52
				c0-10.17,6.29-12.24,10.05-13.47c3.15-1.03,4.46-1.57,5.34-4.35c4.48-14.33,10.62-59.44,10.62-73.89c0-5.25-1.33-5.75-4.25-6.82
				c-3.17-1.17-8.47-3.12-8.47-11.4c0-17.07,17.39-17.07,23.1-17.07c0.8,0,1.6,0.01,2.38,0.03c2.7,0.06,5.5,0.09,8.56,0.09
				c9.78,0,20.27-0.3,30.42-0.6c5.56-0.16,11.32-0.33,16.86-0.44c0.87-0.02,1.76-0.03,2.68-0.03c16.27,0,28.91,3.23,38.65,9.89
				c13.9,9.5,21.31,25.62,22.06,47.95c12.74-13.93,31.16-21.93,51.56-21.93c16.96,0,30.91,5.91,39.25,16.42
				c1.69-1.49,3.77-2.9,6.27-4.27c8.44-5,26.64-11.01,36.69-11.01c10.35,0,12.05,9.08,12.96,13.96c0.12,0.62,0.26,1.41,0.42,2.1
				c1.37-0.81,3.33-2.16,5-3.32c7.44-5.15,18.68-12.93,30.79-12.93c17.05,0,25.96,11.44,25.96,22.74c0,3.09-0.32,6.58-0.82,10.28
				c1.63-2.97,3.44-5.81,5.4-8.5c10.42-14.3,24.45-22.94,39.51-24.31c0.98-0.1,2-0.15,2.99-0.15c8.07,0,13.39,3.34,17.28,5.77
				c1.6,1,3.42,2.14,4.23,2.14c0.89-0.1,3.57-1.62,4.44-2.11l0.75-0.42l0.08-0.04c5.9-2.95,11.33-5.39,18.07-5.39
				c4.75,0,7.66,1.38,9.44,3.2c2.02-0.97,4.35-1.59,6.99-1.85c3.22-0.4,3.24-0.46,5.63-8.32c1.86-6.21,4.41-13.08,11.19-16.34
				c8.25-4.01,19.58-4.6,25.61-4.6c7.33,0,11.53,4.13,11.53,11.34v0.22l-0.02,0.21c-0.1,1.02-0.27,2.53-0.46,4.26
				c-0.47,4.2-1.17,10.45-1.22,12.71c0.23,0.02,0.55,0.04,0.97,0.04c0.84,0,1.81-0.07,2.85-0.14c1.23-0.08,2.5-0.17,3.82-0.17
				c8.41,0,9.07,5.92,9.07,7.74c0,0.28,0,0.57-0.01,0.86c0.62-0.27,1.21-0.52,1.78-0.76l0.2-0.08c9.41-4,24.3-8.32,34.72-8.32
				c8.17,0,12.86,4.76,12.86,13.05c0,4.93-0.96,12.47-1.85,18.49c2.91-4.86,6.47-9.35,10.62-13.36
				c12.78-12.34,30.11-19.13,48.8-19.13c16.96,0,30.91,5.91,39.25,16.42c1.69-1.49,3.77-2.9,6.27-4.27
				c8.44-5,26.64-11.01,36.7-11.01c10.35,0,12.05,9.08,12.96,13.96c0.12,0.62,0.26,1.41,0.42,2.1c1.37-0.81,3.33-2.16,5-3.32
				c7.44-5.15,18.68-12.93,30.79-12.93c17.05,0,25.96,11.44,25.96,22.74c0,7.4-1.82,17.08-3.59,26.44
				c-1.57,8.35-3.06,16.24-3.06,21.41c0,0.27,0.02,0.45,0.04,0.56c0.32,0.16,1.01,0.37,1.49,0.51c2.46,0.74,7.58,2.29,7.58,9.18
				c0,7.9-6.31,14.87-18.26,20.16c-9.59,4.25-19.97,6.18-25.55,6.18c-11.1,0-17.99-6.53-17.99-17.04c0-6.94,1.58-14.82,3.11-22.44
				c0.72-3.59,1.4-6.98,1.88-10.12l2.22-16.5c-0.05-1.5-0.53-1.5-0.99-1.5c-9.6,0-12.22,26.84-13.08,35.66l-0.09,0.89
				c-2.17,23.82-8.64,29.63-34.63,31.04c-0.61,0.03-1.22,0.05-1.83,0.05c-10.38,0-16.58-5.32-16.58-14.24
				c0-4.36,1.52-11.68,3.28-20.15c0.37-1.77,0.75-3.61,1.13-5.49c-3.4,8.18-8.42,15.59-14.9,21.84
				C1213.87,698.96,1196.53,705.77,1177.84,705.77z M1192.84,625.26c-3.83,0-5.66,8.5-6.64,13.06c-0.12,0.57-0.24,1.11-0.35,1.61
				c-2.3,11.31-3.69,23.55-3.69,32.66c0,4.41,1.1,4.41,1.76,4.41c3.5,0,5-6.29,6.12-12.19c0.1-0.5,0.19-0.98,0.28-1.42
				c1.1-5.63,4.47-22.81,4.47-33.14C1194.79,625.26,1193.57,625.26,1192.84,625.26z M751.03,625.26c-3.83,0-5.66,8.5-6.64,13.06
				c-0.12,0.57-0.24,1.11-0.35,1.61c-2.3,11.32-3.69,23.56-3.69,32.66c0,4.41,1.1,4.41,1.76,4.41c3.5,0,5-6.29,6.12-12.2
				c0.1-0.5,0.19-0.98,0.27-1.42c1.1-5.63,4.47-22.81,4.47-33.14C752.97,625.26,751.75,625.26,751.03,625.26z M623.06,671.45
				c0.01,0,0.42,0.23,1.7,0.23c21.71,0,23.4-41.16,23.4-53.78c0-19.05-4.14-26.82-14.29-26.82c-4.72,0-5.64,1.46-6.18,9.76
				c-0.09,1.34-0.18,2.72-0.35,4.04l-4.91,60.22l0.03,1.03C622.52,668.02,622.59,670.85,623.06,671.45L623.06,671.45z
				 M1013.52,668.09l0.09,0.01c0.39,0.05,0.78,0.12,1.15,0.2c0.22-1.47,0.45-2.87,0.66-4.2l5.7-33.45c0.25-1.41,0.41-2.48,0.47-3.21
				c-0.6-0.06-1.56-0.1-3.05-0.1c-0.61,0-1.28-0.02-1.99-0.08c-0.02,0.16-0.04,0.31-0.07,0.47c-1.25,9-2.67,19.21-3.51,30.55
				c-0.03,0.47-0.08,1.08-0.13,1.75c-0.16,2.03-0.48,6.04-0.09,8C1012.97,668.05,1013.52,668.09,1013.52,668.09z M971.36,627.58
				c-6.45,2.6-17.77,25.57-17.6,36.59c0,1.43,0.16,2.4,0.32,2.98c2.1-0.96,6.21-5.46,10.73-15.3c4.32-9.41,6.85-19.04,6.7-22.56
				v-0.17C971.51,628.48,971.44,627.96,971.36,627.58z M1066.85,657.58l-0.04,0.2c-0.98,4.31-0.46,6.93,0.28,7.86
				c0.16,0.2,0.32,0.35,0.82,0.35c1.5,0,3.05-0.8,4.69-1.64c1.88-0.97,3.83-1.97,6.13-1.97c1.72,0,3.27,0.4,4.58,1.13l2.92-19.11
				c0.26-1.52,0.53-2.88,0.79-4.15c0.39-1.97,0.76-3.84,0.85-5.12h-0.3c-7.94,0-10.53-4.34-11.12-8.72
				c-1.96,0.04-3.94,0.16-4.32,0.62c-1,1.19-1.83,6.03-2.8,11.65L1066.85,657.58z"/>
			<path class="st1" d="M645.01,564.9c21.29,0,56.46,5.24,56.46,57.36c0,2.78-0.13,6.19-0.52,10
				c10.98-19.18,31.92-31.46,56.34-31.46c16.97,0,31.8,6.51,38.88,19.31c1.73-3.44,5.63-6.01,8.78-7.73
				c7.97-4.75,25.44-10.44,34.56-10.44c11.58,0,6.46,16.71,12.34,16.71c4.75,0,20.32-16.9,36.83-16.9
				c11.01,0,21.64,6.46,21.64,18.42c0,13.48-6.65,36.26-6.65,47.85c0,3.13,1.55,4.16,3.37,4.82c0-0.72,0.01-1.44,0.05-2.16
				c1.52-34.18,22.78-66.07,52.02-68.73c0.9-0.09,1.77-0.13,2.6-0.13c11.41,0,16.38,7.92,21.51,7.92c2.09,0,5.51-2.09,7.21-3.04
				c5.32-2.66,10.25-4.94,16.14-4.94c4.69,0,7.45,1.48,7.78,5.48c1.99-2.36,5.03-3.76,9.12-4.15c6.08-0.76,6.65-2.66,9.3-11.39
				c1.71-5.7,3.8-11.2,8.92-13.67c6.65-3.23,16.33-4.18,23.73-4.18c4.75,0,7.21,2.09,7.21,7.02c-0.38,3.8-1.71,14.62-1.71,17.66
				c0,3.42,2.26,4.1,5.29,4.1c2.02,0,4.39-0.3,6.67-0.3c2.47,0,4.75,0.57,4.75,3.42c0,2.66-0.57,5.7-0.95,8.16
				c-0.02,0.11-0.03,0.23-0.05,0.34c2.81-1.92,6.14-3.32,8.97-4.52c8.92-3.8,23.35-7.97,33.04-7.97c5.89,0,8.54,3.04,8.54,8.73
				c0,8.16-2.85,24.3-3.23,26.96c-0.38,2.09-3.8,23.92-4.75,31.33c-0.38,3.61,2.09,3.61,5.13,3.61c0.36,0,0.7,0,1.04,0.01
				c-0.55-2.67-0.85-5.52-0.85-8.56c0-36.26,28.48-63.03,64.55-63.03c16.97,0,31.8,6.51,38.88,19.31c1.73-3.44,5.63-6.01,8.78-7.73
				c7.97-4.75,25.44-10.44,34.56-10.44c11.58,0,6.46,16.71,12.34,16.71c4.75,0,20.32-16.9,36.83-16.9
				c11.01,0,21.64,6.46,21.64,18.42c0,13.48-6.65,36.26-6.65,47.85c0,7.59,9.11,2.85,9.11,10.25c0,13.86-28.67,22.02-39.49,22.02
				c-8.35,0-13.67-4.18-13.67-12.72c0-9.68,3.42-22.02,4.94-31.9l2.28-16.9c0-3.42-1.71-6.08-5.32-6.08
				c-13.86,0-16.33,28.86-17.47,40.44c-1.9,20.89-6.08,25.82-30.57,27.15c-0.53,0.03-1.06,0.05-1.59,0.05
				c-6.29,0-12.27-2.21-12.27-9.92c0-9.49,8.73-37.97,8.16-54.49c0-3.8-1.33-6.08-5.32-6.08h-1.9c-0.3,0-0.58-0.02-0.86-0.05
				c0.56,2.68,0.86,5.54,0.86,8.59c0,36.26-28.48,63.03-64.55,63.03c-16.8,0-31.49-6.38-38.65-18.93
				c-6.1,11.19-29.98,17.79-39.38,17.79c-7.21,0-15.38-4.37-15.38-12.34c0-3.61,0.57-7.02,1.14-10.63l4.94-32.28
				c0.76-4.37,1.71-7.97,1.71-10.44c0-2.47-0.95-3.8-4.18-3.8c-0.15,0-0.3,0-0.46,0c-2.85,0-6.94-0.17-6.94-6.65
				c0-0.73,0.07-1.43,0.21-2.09c-0.78,0-1.51,0-2.19,0c-10.74,0-10.91,0.5-13.58,15.95l-2.47,18.8c-1.9,8.35,0.57,13.48,5.32,13.48
				c4.56,0,7.97-3.61,10.82-3.61c3.99,0,5.13,3.61,5.13,6.83c0,14.81-36.07,26.96-47.09,26.96c-11.39,0-18.99-5.51-18.99-17.66
				c0-6.08,0.95-12.15,1.9-18.04l5.7-33.42c1.33-7.4,0.76-8.35-6.84-8.35c-2.5,0-4.37-0.41-5.55-1.62
				c-1.36,10.1-3.28,22.52-4.32,36.55c-0.19,3.04-0.95,9.11,0.19,12.15c0.76,2.28,2.09,2.09,4.18,2.28
				c2.85,0.38,4.75,1.71,4.75,4.75c0,12.34-27.72,23.35-38.16,23.35c-16.9,0-8.73-16.14-14.81-16.14c-4.94,0-14.24,17.09-33.8,17.09
				c-11.3,0-18.31-6.44-21.64-15.16c-7.92,8.94-27.55,14.02-36.08,14.02c-8.35,0-13.67-4.18-13.67-12.72
				c0-9.68,3.42-22.02,4.94-31.9l2.28-16.9c0-3.42-1.71-6.08-5.32-6.08c-13.86,0-16.33,28.86-17.47,40.44
				c-1.9,20.89-6.08,25.82-30.57,27.15c-0.53,0.03-1.06,0.05-1.59,0.05c-6.29,0-12.27-2.21-12.27-9.92c0-9.49,8.73-37.97,8.16-54.49
				c0-3.8-1.33-6.08-5.32-6.08h-1.9c-0.3,0-0.58-0.02-0.86-0.05c0.56,2.68,0.86,5.54,0.86,8.59c0,36.26-28.48,63.03-64.55,63.03
				c-23.73,0-43.29-12.72-43.29-37.59c0-0.56,0.01-1.11,0.02-1.66c-9.36,19.15-28.38,36.78-66.47,36.78h-42.91
				c-2.66,0-5.51,0.19-8.16,0.38c-2.85,0.19-5.51,0.38-8.35,0.38c-8.16,0-14.81-1.9-14.81-11.2c0-13.1,11.77-5.7,15.19-16.52
				c4.75-15.19,10.82-60.57,10.82-75.19c0-15.38-12.72-6.84-12.72-18.23c0-11.36,9.82-12.75,18.78-12.75c0.77,0,1.54,0.01,2.29,0.03
				c2.82,0.06,5.7,0.09,8.64,0.09c15.23,0,31.77-0.72,47.37-1.04C643.26,564.91,644.12,564.9,645.01,564.9 M624.77,676.01
				c23.16,0,27.72-35.12,27.72-58.1c0-14.81-2.28-31.14-18.61-31.14c-11.58,0-9.87,10.63-10.82,17.66l-4.94,60.57
				C618.31,671.26,617.93,676.01,624.77,676.01 M1183.92,681.32c7.97,0,9.49-11.39,10.63-17.09c1.9-9.68,4.56-24.3,4.56-33.99
				c0-4.37-0.95-9.3-6.27-9.3c-7.97,0-9.87,12.15-11.2,18.04c-2.09,10.25-3.8,23.16-3.8,33.61
				C1177.84,676.95,1178.98,681.32,1183.92,681.32 M742.1,681.32c7.97,0,9.49-11.39,10.63-17.09c1.9-9.68,4.56-24.3,4.56-33.99
				c0-4.37-0.95-9.3-6.27-9.3c-7.97,0-9.87,12.15-11.2,18.04c-2.09,10.25-3.8,23.16-3.8,33.61
				C736.03,676.95,737.17,681.32,742.1,681.32 M953.4,671.65c0.13,0,0.27-0.01,0.4-0.02c10.06-0.76,22.4-33.04,22.02-42.53
				c0-2.41-0.72-6.08-3.58-6.08c-0.07,0-0.14,0-0.22,0.01c-10.06,0.76-22.78,29.05-22.59,41.2
				C949.44,666.97,949.96,671.65,953.4,671.65 M645.01,556.27L645.01,556.27c-0.94,0-1.86,0.01-2.75,0.03
				c-5.58,0.11-11.35,0.28-16.92,0.44c-10.12,0.29-20.58,0.59-30.29,0.59c-3.02,0-5.79-0.03-8.45-0.09
				c-0.82-0.02-1.65-0.03-2.48-0.03c-4.89,0-11.19,0.34-16.58,3.01c-6.99,3.45-10.84,9.98-10.84,18.38
				c0,11.29,7.92,14.21,11.3,15.46c0.39,0.14,0.88,0.32,1.22,0.47c0.09,0.37,0.2,1.09,0.2,2.3c0,14.21-6.03,58.53-10.43,72.61
				c-0.12,0.4-0.25,0.6-0.28,0.65c-0.27,0.21-1.48,0.61-2.28,0.87c-3.9,1.28-13.02,4.28-13.02,17.57c0,9.33,4.61,14.1,8.48,16.46
				c4.96,3.03,10.92,3.38,14.97,3.38c2.97,0,5.63-0.18,8.44-0.37l0.49-0.03c2.58-0.18,5.25-0.36,7.59-0.36h42.91
				c19.55,0,44.31-4.56,62.08-23.72c7.61,16.21,24.9,26.19,47.66,26.19c19.82,0,38.22-7.22,51.8-20.34c1.2-1.16,2.35-2.35,3.45-3.57
				c-0.19,1.58-0.29,3-0.29,4.27c0,11.27,8.21,18.56,20.9,18.56c0.68,0,1.37-0.02,2.07-0.06c12.69-0.69,22.51-2.4,29.14-8.52
				c4.22-3.9,6.53-8.88,7.93-15.16c-0.03,0.78-0.05,1.56-0.05,2.33c0,12.98,8.76,21.36,22.31,21.36c7.15,0,22.26-3.02,33.62-9.78
				c5.8,7.04,14.18,10.92,24.1,10.92c13.85,0,23.43-6.69,29.8-12.1c0.52,1.29,1.2,2.6,2.13,3.87c3.53,4.83,9.14,7.28,16.67,7.28
				c6.94,0,17.79-3.23,26.99-8.03c2.27-1.18,4.34-2.41,6.23-3.68c4.48,7.45,12.84,11.71,23.92,11.71c7.39,0,20.57-3.68,31.35-8.75
				c3.38-1.59,6.42-3.26,9.11-5c3.57,8.61,13.2,13.55,22.57,13.55c7.71,0,26.7-4.02,38.76-13.18c9.3,9.21,23.06,14.32,39.27,14.32
				c19.82,0,38.22-7.22,51.8-20.34c1.2-1.16,2.35-2.35,3.45-3.57c-0.19,1.58-0.29,3-0.29,4.27c0,11.27,8.21,18.56,20.9,18.56
				c0.68,0,1.37-0.02,2.07-0.06c12.69-0.69,22.51-2.4,29.14-8.52c4.22-3.9,6.53-8.88,7.93-15.16c-0.03,0.78-0.05,1.56-0.05,2.33
				c0,12.98,8.76,21.36,22.31,21.36c7.36,0,18.59-2.7,27.3-6.55c17.21-7.62,20.83-17.32,20.83-24.11c0-5.34-2.43-8.52-4.47-10.24
				c-1.54-1.3-3.16-2.04-4.54-2.54c0.37-4.82,1.64-11.54,2.87-18.08c1.8-9.55,3.66-19.44,3.66-27.24c0-8.25-3.57-15.54-10.06-20.54
				c-5.46-4.2-12.64-6.52-20.22-6.52c-13.25,0-25,7.99-32.88,13.45c-0.5-1.85-1.21-3.8-2.34-5.66c-2.97-4.9-7.93-7.6-13.95-7.6
				c-10.86,0-29.72,6.2-38.83,11.57c-1.27,0.7-2.45,1.42-3.55,2.15c-9.29-9.55-23.26-14.86-39.83-14.86
				c-19.82,0-38.22,7.22-51.8,20.34c-0.53,0.51-1.06,1.04-1.57,1.56c0.08-1.28,0.12-2.48,0.12-3.58c0-10.55-6.74-17.37-17.18-17.37
				c-9.98,0-23.69,3.68-33.47,7.47c-1.78-3.88-5.76-6.9-12.28-6.9c-1.03,0-2.02,0.05-2.96,0.1c0.26-2.62,0.6-5.67,0.83-7.74
				c0.2-1.76,0.37-3.29,0.47-4.32l0.04-0.43v-0.43c0-9.52-6.22-15.66-15.85-15.66c-6.39,0-18.47,0.66-27.51,5.05
				c-9.04,4.35-11.89,13.85-13.42,18.96c-0.58,1.92-1.23,4.03-1.7,5.25c-0.09,0.01-0.19,0.03-0.3,0.04
				c-2.06,0.21-3.98,0.6-5.75,1.19c-2.38-1.52-5.66-2.57-10.18-2.57c-7.67,0-13.84,2.77-20,5.85l-0.17,0.08l-0.16,0.09
				c-0.21,0.12-0.45,0.25-0.71,0.4c-0.52,0.29-1.51,0.85-2.32,1.25c-0.59-0.33-1.33-0.8-1.93-1.18c-4.08-2.56-10.26-6.43-19.57-6.43
				c-1.12,0-2.27,0.06-3.42,0.17c-14.94,1.37-28.89,9.26-39.7,22.36c-1.06-6.4-4.41-11.99-9.7-16.07
				c-5.46-4.2-12.64-6.52-20.22-6.52c-13.25,0-25,7.99-32.88,13.45c-0.5-1.85-1.21-3.8-2.34-5.66c-2.97-4.9-7.93-7.6-13.95-7.6
				c-10.86,0-29.72,6.2-38.83,11.57c-1.27,0.7-2.45,1.42-3.55,2.15c-9.29-9.55-23.26-14.86-39.83-14.86
				c-13.35,0-26.31,3.34-37.47,9.66c-3.73,2.11-7.24,4.54-10.49,7.25c-2.37-19.08-10.16-33.24-23.23-42.17
				C675.62,559.74,662.18,556.27,645.01,556.27L645.01,556.27z M632.73,595.48c0.23-0.04,0.6-0.09,1.15-0.09
				c3.73,0,9.97,0,9.97,22.5c0,7.94-0.85,46.28-17.03,49.27c-0.01-0.4-0.02-0.79-0.03-1.15c-0.01-0.27-0.01-0.54-0.02-0.81
				l4.88-59.88c0.18-1.42,0.27-2.84,0.36-4.22C632.12,599.4,632.3,596.65,632.73,595.48L632.73,595.48z M1073.6,639.33
				c0.34-1.94,0.69-3.99,1.03-5.74c1.6,2.38,4.16,4.47,8.23,5.38c-0.03,0.15-0.06,0.3-0.09,0.44c-0.25,1.24-0.53,2.66-0.79,4.16
				l-0.02,0.09l-0.01,0.09l-2.19,14.35c-0.34-0.02-0.69-0.04-1.04-0.04c-3.31,0-5.92,1.32-8.03,2.41c0.07-0.51,0.17-1.08,0.31-1.72
				l0.09-0.39l0.05-0.4L1073.6,639.33L1073.6,639.33z M1294.86,670.02c0.58-5.64,1.54-13.27,3.43-19.6
				c0.04-0.14,0.09-0.28,0.13-0.42l-0.6,4.44c-0.47,3.02-1.13,6.34-1.84,9.85C1295.61,666.2,1295.23,668.11,1294.86,670.02
				L1294.86,670.02z M853.05,670.02c0.58-5.64,1.54-13.27,3.43-19.6c0.04-0.14,0.08-0.28,0.13-0.42l-0.6,4.44
				c-0.47,3.02-1.13,6.33-1.84,9.85C853.8,666.2,853.41,668.11,853.05,670.02L853.05,670.02z"/>
		</g>
	</g>
	<g>
		<g>
			<path class="st4" d="M992.11,421.44c-9.71,0-12.41-7.66-14.39-13.26c-0.12-0.34-0.24-0.68-0.36-1.02
				c-1.84,9.31-6.71,12.9-22.42,14.15c-0.66,0.06-1.34,0.09-1.99,0.09c-5.06,0-8.65-2.1-10.24-5.81
				c-6.72,3.73-15.38,5.61-20.03,5.61c-7.93,0-13.06-4.89-13.06-12.46c0-4.6,1.03-9.72,2.02-14.68c0.46-2.27,0.89-4.41,1.19-6.37
				l1.25-9.34c-1.69,1.15-4.24,5.58-5.75,21.05l-0.05,0.54c-1.44,15.94-6.3,20.31-23.61,21.25c-0.41,0.02-0.83,0.04-1.25,0.04
				c-7.5,0-12.17-4.09-12.17-10.66c0-2.95,0.94-7.47,2.13-13.19c1.44-6.92,3.22-15.51,3.1-21.21h-0.3c-4.69,0-7.71-3.22-7.71-8.21
				c0-4.27,2.81-7.98,8.37-11.04c5.7-3.36,17.48-7.24,24.24-7.24c7.19,0,8.95,5.9,9.64,9.27c0.42-0.29,0.85-0.58,1.23-0.84
				c4.92-3.4,12.35-8.55,20.57-8.55c9.04,0,14.81,4.65,17.07,10.39c0.29-3.19,0.46-6.22,0.46-8.98c0-0.3,0-0.55-0.01-0.78
				c-0.55,0.04-1.11,0.08-1.65,0.08c-5.69,0-6.73-4.55-6.84-7.26c-0.14-3.11,1.03-6.07,3.39-8.54c7.58-7.93,26.6-9.55,31.27-9.55
				c6.66,0,10.03,3.13,10.03,9.3c0,1.76-0.3,4.07-0.56,6.1c-0.07,0.56-0.14,1.09-0.2,1.56l-1.8,13.28
				c5.12-3.49,10.59-6.33,18.02-6.33c12.36,0,19.74,7.24,19.74,19.37c0,8.25-4.65,14.93-13.81,19.88l4.59,7.34
				c0.2,0.28,0.46,0.64,0.6,0.8c0.16,0.09,0.48,0.26,0.68,0.36l0.4,0.17c2.01,0.87,5.37,2.33,5.37,7.63
				c0,3.61-2.03,8.82-11.68,13.18C1002.5,419.85,996.14,421.44,992.11,421.44z M984.21,376.9c-0.63,0.7-1.29,1.58-1.9,2.54
				C983.06,378.62,983.73,377.76,984.21,376.9z"/>
			<path class="st1" d="M976.21,329.23c3.77,0,5.71,0.86,5.71,4.98c0,1.94-0.48,5.1-0.73,7.16L979,357.52
				c-0.12,0.73-0.98,4.86,1.09,4.86c1.1,0,2.91-1.46,3.77-2.06c5.58-4.01,10.68-7.16,17.84-7.16c9.71,0,15.42,5.1,15.42,15.05
				c0,8.02-5.59,12.99-12.14,16.39c-0.61,0.36-3.04,1.1-3.04,2.06c0,0.48,0.86,1.82,1.22,2.43l5.46,8.74
				c1.22,1.7,1.34,1.82,3.04,2.67c2.18,0.97,3.27,1.21,3.27,3.89c0,7.65-16.75,12.74-22.82,12.74c-7.65,0-8.86-6.68-11.17-12.74
				c-0.6-1.58-2.67-7.77-4.36-7.77c-1.94,0-2.68,3.4-2.8,4.85c-0.97,10.69-2.31,14.2-19.18,15.54c-0.57,0.05-1.12,0.08-1.64,0.08
				c-4.34,0-6.85-1.84-6.85-6.39c0-1.14,0.04-2.27,0.17-3.4c-4.66,6.11-17.94,9.6-23.6,9.6c-5.34,0-8.74-2.67-8.74-8.14
				c0-6.19,2.19-14.08,3.16-20.39l1.45-10.81c0-2.19-1.09-3.89-3.4-3.89c-8.86,0-10.44,18.45-11.17,25.86
				c-1.21,13.35-3.89,16.51-19.54,17.36c-0.34,0.02-0.68,0.03-1.01,0.03c-4.02,0-7.85-1.42-7.85-6.34c0-6.06,5.58-24.27,5.22-34.84
				c0-2.43-0.85-3.88-3.4-3.88h-1.22c-2.43,0-3.4-1.46-3.4-3.89c0-3.4,3.52-5.82,6.19-7.28c5.11-3.03,16.27-6.68,22.1-6.68
				c7.4,0,4.13,10.69,7.89,10.69c3.03,0,12.99-10.81,23.55-10.81c7.04,0,13.84,4.13,13.84,11.77c0,8.62-4.25,23.19-4.25,30.59
				c0,3.92,3.81,2.7,5.28,4.59c2.63-14.34,6.98-35.51,6.98-49.86c0-3.61-0.29-5.15-3.37-5.15c-0.34,0-0.71,0.02-1.12,0.06
				c-0.57,0.05-1.06,0.08-1.48,0.08c-1.77,0-2.42-0.57-2.52-3.12C945.37,332.15,969.54,329.23,976.21,329.23 M975.96,388.11
				c4.37,0,13.36-7.41,13.36-13.72c0-1.82-0.85-3.4-2.79-3.4c-5.71,0-11.29,10.81-11.29,15.78
				C975.24,387.26,975.24,388.11,975.96,388.11 M976.21,320.6c-0.24,0-24.27,0.3-34.4,10.89c-3.19,3.34-4.78,7.4-4.58,11.74
				c0.04,0.89,0.13,1.71,0.28,2.48c-1.6-0.3-3.27-0.46-5-0.46c-7.69,0-14.44,3.62-19.57,6.97c-0.09-0.16-0.18-0.33-0.28-0.49
				c-2.45-4.04-6.67-6.36-11.58-6.36c-7.52,0-20.06,4.11-26.37,7.81c-4.84,2.68-10.55,7.4-10.55,14.79c0,5.83,3.09,10.26,7.88,11.87
				c-0.44,4.99-1.76,11.34-2.87,16.67c-1.24,5.97-2.22,10.68-2.22,14.07c0,8.96,6.63,14.98,16.49,14.98c0.49,0,0.99-0.01,1.49-0.04
				c8.78-0.47,15.65-1.72,20.57-6.27c0.68-0.63,1.29-1.29,1.84-1.98c2.79,5.14,8.28,8.26,15.35,8.26c4.07,0,9.84-1.15,15.06-3.01
				c1.21-0.43,2.37-0.89,3.47-1.37c2.71,2.92,6.76,4.57,11.74,4.57c0.76,0,1.56-0.04,2.37-0.11c8.97-0.71,15.92-2.1,20.7-6.54
				c0.46-0.43,0.89-0.88,1.29-1.34c2.72,4.25,7.12,8.03,14.79,8.03c4.65,0,11.58-1.71,17.24-4.27c11.76-5.3,14.22-12.23,14.22-17.11
				c0-8.04-5.66-10.59-7.89-11.56l-2.09-3.34c6.28-4.33,12.16-11.11,12.16-21.28c0-9.16-3.67-14.57-6.75-17.51
				c-2.96-2.82-8.36-6.18-17.31-6.18c-4.81,0-8.91,1.04-12.57,2.62l0.62-4.6l0.01-0.08l0.01-0.08c0.05-0.46,0.12-0.97,0.19-1.52
				c0.28-2.16,0.59-4.62,0.59-6.65c0-5.96-2.63-9.22-4.84-10.91C982.56,320.9,978.98,320.6,976.21,320.6L976.21,320.6z"/>
		</g>
		<g>
			<path class="st4" d="M820.23,421.92c-6.5,0-11.87-2.74-15.36-7.7c-6.72,4.41-15.91,6.99-21.02,6.99c-0.37,0-0.72-0.01-1.05-0.03
				c-8.54-0.5-12.89-5.05-12.89-13.54c0-4.67,1.47-11.12,2.89-17.36c1.09-4.78,2.21-9.72,2.21-12.14c0-0.13,0-0.25-0.01-0.36
				c-1.47,1.2-4.63,5.85-6.78,23.76c-0.06,0.48-0.22,1.81-0.26,2.15c-0.38,3.33-0.9,7.88-3.91,10.89
				c-4.22,4.39-13.39,6.85-18.1,6.85c-3.49,0-14.88-0.84-14.88-11.6c0-2.43,0.71-5.82,1.39-9.09c0.35-1.68,0.68-3.27,0.84-4.39
				c0.42-2.91,1.23-7.31,2.18-12.4c1.09-5.89,2.41-12.99,3.41-19.5c-1.28,0.36-2.65,0.54-4.1,0.54c-8.27,0-10.96-7.45-12.57-11.9
				c-0.07-0.2-0.15-0.42-0.23-0.65c-0.23,1.53-0.43,3.38-0.6,5.02c-0.08,0.79-0.17,1.61-0.26,2.46c-0.17,1.67-0.44,4.02-0.76,6.74
				c-1,8.58-2.5,21.54-2.5,29.2c0,2.67,0.32,2.79,2.4,3.55c2.22,0.81,6.83,2.5,6.83,8.83c0,13.06-25.54,13.06-33.93,13.06
				c-12.36,0-26.54-1.43-26.54-12.58c0-7.19,5.62-8.82,8.32-9.61c2.19-0.64,2.58-0.88,2.77-1.38c2.07-5.53,5.22-31.71,6.41-43.08
				c-2.01,4.38-5.44,10.32-13.53,10.32c-7.62,0-12.94-5.52-12.94-13.42c0-4.74,2.08-11.11,5.31-16.22
				c4.15-6.57,9.49-10.19,15.03-10.19c1.75,0,3.18,0.43,4.45,0.81l0.27,0.08c1.15,0.31,2.07,0.56,3.18,0.56h34.59
				c4.41,0,6.41-0.33,7.66-0.62c0.36-0.08,0.68-0.17,0.97-0.24c1.06-0.28,2.27-0.59,4-0.59c2.47,0,5.84,0.86,9.08,4.52
				c1.28-0.51,2.54-0.92,3.7-1.29c7.33-2.34,13.64-3.48,19.26-3.48c8.26,0,12.45,3.42,12.45,10.15c0,3.31-0.82,8.1-1.54,12.33
				c-0.27,1.56-0.52,3.01-0.69,4.2l-0.71,4.4c4.69-3.26,11.19-7.03,18.53-7.03c11.15,0,18.1,6.48,18.16,16.93
				c6.72-9.19,16.05-15.23,26.48-16.18c0.66-0.07,1.37-0.1,2.05-0.1c5.61,0,9.38,2.36,11.88,3.93c0.6,0.38,1.39,0.87,1.84,1.07
				c0.64-0.25,1.72-0.86,2.17-1.12l0.46-0.26l0.1-0.05c3.96-1.97,7.62-3.61,12.24-3.61c3.23,0,5.61,0.86,7.26,2.64
				c1.54,1.66,2.23,3.88,2.03,6.6c-0.23,3.33-0.77,7.27-1.41,11.84c-0.8,5.75-1.71,12.27-2.24,19.49c-0.02,0.29-0.05,0.69-0.08,1.13
				c-0.06,0.76-0.19,2.4-0.17,3.62c3.78,0.76,6.1,3.47,6.1,7.21c0,11.69-21.34,19.25-28.72,19.25c-8.04,0-10.53-4.56-11.41-8.05
				C836,416.73,829.71,421.92,820.23,421.92z M844.23,374.1c-1.12,1.38-2.46,3.42-3.88,6.29c-2.04,4.15-3.54,8.7-3.93,11.79
				c1.17-1.51,2.69-3.97,4.37-7.78C842.61,380.29,843.72,376.57,844.23,374.1z"/>
			<path class="st1" d="M765.12,329.23c4.61,0,8.13,0.73,8.13,5.83c0,4.13-1.57,11.65-2.19,15.9l-1.21,7.52
				c-0.36,1.82-1.34,5.58,0.36,5.58c2.19,0,11.9-10.8,22.94-10.8c8.25,0,13.84,4.13,13.84,12.74c0,9.11-4.01,22.34-4.13,29.26
				c-0.04,2.38,0.88,3.08,2.03,3.36c0.01-0.23,0.02-0.46,0.03-0.69c0.98-21.85,14.57-42.24,33.27-43.95
				c0.58-0.06,1.13-0.08,1.66-0.08c7.3,0,10.48,5.06,13.75,5.06c1.34,0,3.52-1.33,4.61-1.94c3.4-1.69,6.56-3.15,10.31-3.15
				c3.4,0,5.23,1.22,4.98,4.61c-0.49,7.28-2.68,18.21-3.65,31.32c-0.12,1.94-0.6,5.83,0.12,7.78c0.48,1.45,1.34,1.33,2.67,1.45
				c1.82,0.24,3.04,1.1,3.04,3.04c0,7.89-17.73,14.93-24.4,14.93c-10.8,0-5.58-10.31-9.47-10.31c-3.15,0-9.11,10.92-21.61,10.92
				c-7.38,0-11.9-4.29-13.97-10.04c-5.28,5.52-16.66,9.34-22.41,9.34c-0.26,0-0.52-0.01-0.76-0.02c-6.19-0.36-8.86-3.03-8.86-9.23
				c0-7.89,5.1-23.31,5.1-29.5c0-2.43-0.85-5.1-3.52-5.1c-9.1,0-11.4,24.4-12.02,29.14c-0.36,2.91-0.6,7.16-2.79,9.35
				c-3.03,3.15-10.8,5.58-15.05,5.58c-4.98,0-10.57-1.34-10.57-7.28c0-3.15,1.7-9.47,2.19-12.87c1.29-9.01,6.75-33.92,7.14-46.03
				c-0.71,5.38-3.89,9.74-9.93,9.74c-9.22,0-7.65-15.06-12.98-15.06c-3.89,0-4.01,5.11-4.98,13.84c-0.73,7.28-3.28,26.11-3.28,36.42
				c0,10.44,9.23,5.1,9.23,12.38c0,3.65-4.37,8.74-29.61,8.74c-21.86,0-22.22-5.7-22.22-8.26c0-7.28,8.62-3.64,10.81-9.47
				c2.91-7.77,7.16-47.82,7.16-49.65c0-1.82-0.73-4.01-2.91-4.01c-6.07,0-4.61,15.06-15.42,15.06c-5.58,0-8.62-3.89-8.62-9.11
				c0-7.65,7.04-22.09,16.03-22.09c1.22,0,2.31,0.36,3.52,0.73c1.33,0.36,2.67,0.73,4.37,0.73h34.59c4.73,0,7.04-0.36,8.62-0.73
				c1.58-0.36,2.43-0.73,4.01-0.73c3.15,0,5.75,2.4,7.71,5.61c2.09-1.18,4.49-1.99,6.37-2.57
				C752.87,330.69,759.17,329.23,765.12,329.23 M834.54,398.57c0.08,0,0.17,0,0.26-0.01c6.44-0.48,14.32-21.12,14.08-27.19
				c0-1.53-0.46-3.88-2.29-3.88c-0.05,0-0.09,0-0.14,0c-6.44,0.48-14.57,18.57-14.44,26.34
				C832.01,395.57,832.34,398.57,834.54,398.57 M765.12,320.6c-6.08,0-12.81,1.21-20.6,3.69c-0.42,0.13-0.86,0.27-1.3,0.42
				c-3.88-3.25-7.76-3.86-10.14-3.86c-2.28,0-3.9,0.42-5.09,0.73c-0.26,0.07-0.54,0.14-0.85,0.21c-0.6,0.14-2.21,0.51-6.69,0.51
				h-34.59c-0.51,0-1.02-0.13-2-0.39l-0.21-0.06c-1.4-0.42-3.31-1-5.69-1c-15.3,0-24.66,19.9-24.66,30.73
				c0,10.28,7.26,17.74,17.26,17.74c3.04,0,5.58-0.64,7.72-1.67c-1.3,10.53-2.98,22.47-4.22,27.25c-0.12,0.03-0.23,0.07-0.34,0.1
				c-2.83,0.82-11.43,3.32-11.43,13.76c0,6.7,3.81,10.46,7.01,12.44c4.92,3.04,12.5,4.46,23.85,4.46c12.51,0,21.51-1.19,27.53-3.64
				c1.87-0.76,5.17-2.41,7.62-5.31c2.41,4.96,7.84,9.07,17.65,9.07c5.37,0,15.81-2.6,21.22-8.18c0.17-0.18,0.34-0.36,0.51-0.54
				c2.65,5.05,7.76,8.03,14.88,8.46c0.42,0.03,0.86,0.04,1.3,0.04c5.55,0,13.44-2.16,20.11-5.75c4.19,4.15,9.84,6.45,16.27,6.45
				c7.89,0,13.88-3.09,18.17-6.19c2.05,2.63,5.92,5.58,12.91,5.58c8.49,0,33.04-8.1,33.04-23.57c0-4.47-2.27-8.17-5.97-10.16
				c0.01-0.12,0.02-0.23,0.03-0.32c0.04-0.44,0.07-0.84,0.09-1.19c0.52-7.07,1.42-13.5,2.21-19.17c0.65-4.65,1.2-8.66,1.44-12.16
				c0.35-4.91-1.54-8.05-3.18-9.82c-2.48-2.67-5.99-4.02-10.42-4.02c-5.55,0-9.86,1.92-14.16,4.06l-0.2,0.1l-0.19,0.11l-0.28,0.16
				c-2.77-1.73-7.26-4.39-13.85-4.39c-0.81,0-1.65,0.04-2.48,0.12c-8.65,0.8-16.8,4.7-23.58,11.2
				c-3.26-7.48-10.66-11.96-20.64-11.96c-4.66,0-9,1.29-12.8,3.03c0.73-4.28,1.53-9.05,1.53-12.61c0-7.45-4.22-10.93-6.73-12.35
				C771.85,320.85,768.23,320.6,765.12,320.6L765.12,320.6z M722.17,395.54c0.04-7.46,1.5-20,2.47-28.35
				c0.06-0.51,0.12-1.01,0.17-1.49c2.51,2.13,5.56,3.37,8.9,3.59c-0.81,4.8-1.71,9.66-2.5,13.89c-0.95,5.14-1.78,9.58-2.2,12.57
				c-0.13,0.91-0.42,2.32-0.71,3.74C726.24,397.18,723.65,396.08,722.17,395.54L722.17,395.54z"/>
		</g>
		<g>
			<path class="st4" d="M1078.41,421.32c-13.46,0-28.72,0-28.72-11.48c0-7.33,5.76-9,8.53-9.81c0.63-0.18,1.55-0.45,1.96-0.67
				l3.35-24.12c-0.11-1.81-1.44-3.95-2.62-5.86l-12.13-19.7c-1.04-1.27-2.3-1.76-3.88-2.37c-2.39-0.92-6.84-2.64-6.84-8.6
				c0-12.12,14.12-13.06,34.06-13.06c6.05,0,16.45,0,19.7,6.63c2.28-3.6,8.01-6.63,20.84-6.63c6.09,0,20.34,0,20.34,11.12
				c0,7.28-6.06,8.9-9.32,9.77c-1.33,0.35-2.98,0.8-3.43,1.35l-14.19,17.47c-7.07,8.68-7.07,8.68-7.65,20.68l-0.48,13.93
				c0.31,0.09,0.67,0.18,0.95,0.26c2.29,0.59,7.66,1.97,7.66,8.42v0.16c0.01,1.26,0.03,4.21-2.64,6.91
				C1100.07,419.54,1091.98,421.32,1078.41,421.32z M1087.58,346.05c0.44,1.32,1.35,3.35,2.24,4.97c1.49-1.88,3.28-4.45,4.27-6.13
				c-0.7-0.7-1.65-1.69-2.4-3.06c-1.13,2.15-2.88,3.37-4.01,4.15C1087.65,346.01,1087.61,346.04,1087.58,346.05z"/>
			<path class="st1" d="M1112.65,329.96c10.56,0,16.02,1.58,16.02,6.8c0,6.68-8.5,4.37-11.78,8.38l-14.2,17.48
				c-8.01,9.83-8.01,10.8-8.62,23.43l-0.49,14.2c-0.24,6.07,8.62,2.19,8.62,8.38c0,2.31,0.73,8.38-23.79,8.38
				c-12.75,0-24.4-0.24-24.4-7.16c0-7.65,9.59-3.76,10.44-9.83l3.4-24.52c0-3.04-1.7-5.83-3.28-8.38l-12.26-19.91
				c-4.01-5.22-9.95-3.03-9.95-8.5c0-6.68,6.56-8.74,29.74-8.74c13.11,0,16.39,2.31,16.39,7.04c0,5.58-5.46,5.1-5.46,8.38
				c0,2.19,4.37,11.65,6.43,11.77c0.01,0,0.02,0,0.03,0c1.87,0,9.44-11.06,9.44-12.5c0-2.43-4.13-3.28-4.13-7.65
				C1094.8,330.2,1108.16,329.96,1112.65,329.96 M1112.65,321.32c-1.84,0-7.44,0-12.57,1.2c-3.43,0.8-6.02,1.99-7.98,3.37
				c-0.94-0.76-2-1.43-3.17-1.99c-3.81-1.81-8.84-2.58-16.82-2.58c-13.18,0-20.72,0.64-26.03,2.23
				c-10.75,3.2-12.35,10.87-12.35,15.15c0,8.93,6.98,11.62,9.61,12.63c1.24,0.48,1.69,0.68,1.97,0.94l11.93,19.36
				c0.57,0.92,1.69,2.72,1.94,3.62l-2.89,20.85c-3.4,1.04-10.9,3.96-10.9,13.73c0,3.52,1.4,11.98,14.32,14.64
				c5.24,1.08,11.57,1.16,18.72,1.16c15,0,23.8-2.13,28.54-6.91c3.94-3.98,3.91-8.5,3.9-9.98v-0.12c0-4.18-1.76-7.75-4.96-10.07
				c-1.19-0.86-2.42-1.43-3.53-1.83l0.35-10.33l0.01-0.17c0.26-5.34,0.4-8.28,1.05-10.09c0.62-1.75,2.31-3.99,5.63-8.06l13.73-16.9
				c0.45-0.15,1.16-0.34,1.67-0.48c2.04-0.54,4.57-1.22,6.96-2.9c3.59-2.52,5.56-6.44,5.56-11.04c0-6.15-3.48-11.04-9.55-13.4
				C1124.15,321.95,1119.49,321.32,1112.65,321.32L1112.65,321.32z"/>
		</g>
		<g>
			<path class="st4" d="M1129.64,421.92c-19.14,0-32-11.39-32-28.35c0-12.32,4.73-23.67,13.31-31.95
				c8.46-8.17,19.93-12.67,32.29-12.67c10.9,0,20.13,3.84,25.81,10.5c2.4-1.9,5.17-3.33,7.44-4.39c5.24-2.46,13.2-5.38,21.37-5.38
				c9.15,0,10.51,7.04,10.51,11.24c0,3.99-1.39,11.48-2.62,18.08c-0.36,1.93-0.7,3.74-0.96,5.24c-0.02,0.14-0.09,0.48-0.18,0.91
				c-0.7,3.44-0.88,5.53-0.88,6.79c0.78-0.78,1.79-2.18,2.82-4.41c2-4.6,2.72-10.4,3.35-15.52c0.9-7.31,1.68-13.62,5.9-17.15
				c5.96-5.23,19.19-5.29,19.32-5.29c10.54,0,11.36,7.3,11.36,9.54c0,1.24-0.2,2.83-0.39,4.36c-0.1,0.77-0.19,1.5-0.23,2.05
				l-0.02,0.21l-4.17,23.64c-0.3,1.52-0.57,2.94-0.64,4.18h0.02c2.18,0.09,7.97,0.32,7.97,7.57c0,13.19-23.77,20.1-31.99,20.1
				c-7.47,0-9.18-6.13-9.86-9.42c-0.19,0.13-0.39,0.27-0.57,0.4c-4.87,3.38-13.03,9.03-22.77,9.03c-0.32,0-0.64-0.01-0.96-0.02
				c-9.04-0.32-14.64-6.56-14.96-16.68c-0.03-0.8-0.02-1.63,0.02-2.48c-1.72,2.6-3.73,5.02-6.01,7.22
				C1153.46,417.42,1142,421.92,1129.64,421.92z M1138.83,370.71c-0.57,0.61-1.36,2.38-2.33,6.87c-0.08,0.37-0.15,0.71-0.23,1.03
				c-1.45,7.09-2.32,14.79-2.32,20.54c0,0.36,0.02,0.66,0.04,0.9c0.47-0.6,1.14-2.17,1.9-6.17l0.18-0.92
				c0.7-3.56,2.84-14.43,2.84-20.88C1138.92,371.47,1138.88,371.04,1138.83,370.71z"/>
			<path class="st1" d="M1143.24,353.27c11.21,0,20.97,4.44,25.29,13.18c1.79-3.52,6.82-6.1,9.78-7.48
				c5.95-2.79,12.99-4.98,19.54-4.98c4.61,0,6.19,2.43,6.19,6.92c0,4.73-2.43,16.27-3.52,22.58c-0.25,1.57-3.28,13.59,1.94,13.59
				c3.89,0,6.68-4.86,8.02-7.77c4.98-11.41,2.67-26.7,8.13-31.19c3.4-3.03,12.02-4.25,16.51-4.25c3.77,0,7.04,1.09,7.04,5.22
				c0,1.58-0.48,4.49-0.6,6.07l-4.13,23.43c-0.36,1.82-0.73,3.76-0.73,5.58c0,2.67,1.34,3.65,3.77,3.65c2.79,0.12,4.24,0,4.24,3.27
				c0,9.35-20.27,15.78-27.67,15.78c-7.77,0-4.13-10.81-8.38-10.81c-2.61,0-12.56,10.82-24.82,10.82c-0.26,0-0.53-0.01-0.79-0.02
				c-6.8-0.24-10.56-4.61-10.81-12.5c-0.24-6.8,2.56-16.76,3.52-25.13c0.36-3.15,1.22-5.95-2.79-6.44
				c-0.84-0.09-1.71-0.18-2.49-0.41c0.28,1.55,0.42,3.18,0.42,4.91c0,23.19-18.2,40.3-41.27,40.3c-15.18,0-27.68-8.13-27.68-24.03
				C1101.96,370.38,1120.17,353.27,1143.24,353.27 M1133.52,404.74c5.11,0,6.07-7.28,6.8-10.93c1.22-6.19,2.92-15.54,2.92-21.73
				c0-2.79-0.61-5.95-4.01-5.95c-5.1,0-6.32,7.78-7.16,11.53c-1.34,6.56-2.43,14.81-2.43,21.48
				C1129.64,401.95,1130.37,404.74,1133.52,404.74 M1143.24,344.63c-13.48,0-26.01,4.93-35.29,13.88
				c-9.43,9.1-14.63,21.56-14.63,35.06c0,10.21,3.94,18.76,11.39,24.73c6.49,5.2,15.12,7.95,24.93,7.95
				c13.47,0,25.99-4.92,35.26-13.86c2.62,7.95,9.01,12.81,17.84,13.12c0.35,0.01,0.73,0.02,1.1,0.02c8.57,0,15.8-3.66,21.09-7.02
				c0.15,0.28,0.31,0.55,0.49,0.83c2.53,3.99,6.66,6.18,11.63,6.18c5.41,0,13.55-2.08,20.24-5.19
				c13.28-6.15,16.06-13.86,16.06-19.23c0-5.65-2.67-8.56-4.92-10.01c-0.83-0.53-1.65-0.91-2.46-1.18l4.1-23.24l0.07-0.42l0.03-0.42
				c0.03-0.4,0.12-1.14,0.21-1.84c0.21-1.66,0.42-3.38,0.42-4.89c0-4.9-2.27-9.1-6.24-11.53c-2.56-1.57-5.65-2.33-9.44-2.33
				c-0.61,0-14.94,0.07-22.13,6.33c-0.65,0.54-1.23,1.13-1.76,1.75c-0.5-1.12-1.14-2.13-1.91-3.06c-1.86-2.23-5.35-4.89-11.47-4.89
				c-8.97,0-17.57,3.15-23.21,5.79c-1.54,0.72-3.29,1.6-5.05,2.67C1163.1,347.95,1153.85,344.63,1143.24,344.63L1143.24,344.63z"/>
		</g>
	</g>
	<g>
		<g>
			<path class="st4" d="M840.26,546.09c-19.14,0-32-11.39-32-28.35c0-12.32,4.73-23.67,13.31-31.95
				c8.46-8.17,19.93-12.67,32.28-12.67c10.29,0,19,3.32,24.72,9.26c2.61-1.96,5.85-3.21,8.68-4.3c1.25-0.48,2.44-0.94,3.27-1.36
				c3.14-1.63,8.02-3.61,13.1-3.61c5.65,0,7.95,3.82,9.02,7.17c2.26-3.48,6.08-7.29,13.44-7.29c9.84,0,17.55,8.24,17.55,18.76
				c0,11.3-6.52,18.88-16.22,18.88c-4.21,0-6.9-1.26-9.03-3.46l-1.57,16.95c0.34,6.44-0.94,11.04-4.03,14.47
				c-3.86,4.29-10.38,6.41-21.12,6.88c-0.38,0.02-0.81,0.03-1.24,0.03c-7.78,0-12.62-4.13-12.62-10.78c0-2.51,0.46-5.6,1.12-9.11
				c-1.8,2.82-3.94,5.44-6.39,7.8C864.08,541.59,852.61,546.09,840.26,546.09z M849.45,494.89c-0.56,0.62-1.36,2.39-2.32,6.87
				c-0.08,0.37-0.15,0.71-0.23,1.03c-1.45,7.09-2.32,14.8-2.32,20.54c0,0.37,0.02,0.67,0.04,0.91c0.48-0.6,1.14-2.19,1.9-6.19
				l0.17-0.9c0.7-3.55,2.83-14.38,2.83-20.88C849.53,495.65,849.49,495.2,849.45,494.89z"/>
			<path class="st1" d="M926.08,477.32c7.89,0,13.23,6.8,13.23,14.44c0,7.4-3.64,14.57-11.9,14.57c-4.37,0-6.06-1.7-8.13-5.22
				c-0.36-0.73-1.46-2.91-2.43-2.91c-1.7,0-2.43,5.1-2.55,6.19l-1.82,19.67c0.73,11.77-4.37,16.39-21,17.11
				c-0.35,0.02-0.7,0.03-1.05,0.03c-4.17,0-8.3-1.42-8.3-6.46c0-7.28,4.86-22.45,5.1-33.74c0.12-3.28-0.24-4.25-3.52-4.25
				c-1.01,0-1.88-0.07-2.63-0.26c0.29,1.57,0.44,3.23,0.44,4.99c0,23.19-18.21,40.3-41.27,40.3c-15.18,0-27.68-8.13-27.68-24.03
				c0-23.19,18.21-40.3,41.27-40.3c10.62,0,19.92,3.97,24.55,11.81c1.87-4.87,9.98-6.63,14.05-8.66c3.28-1.7,7.28-3.15,11.17-3.15
				c7.4,0,4.13,11.53,8.02,11.53C915.15,488.97,914.79,477.32,926.08,477.32 M844.14,528.91c5.1,0,6.07-7.28,6.8-10.93
				c1.22-6.19,2.91-15.54,2.91-21.73c0-2.79-0.6-5.95-4-5.95c-5.1,0-6.32,7.77-7.16,11.53c-1.34,6.56-2.43,14.81-2.43,21.48
				C840.26,526.12,840.99,528.91,844.14,528.91 M926.08,468.68c-5.68,0-9.74,1.86-12.66,4.26c-2.48-2.66-5.92-4.14-9.8-4.14
				c-4.75,0-9.82,1.37-15.07,4.08c-0.66,0.32-1.72,0.73-2.85,1.17c-1.96,0.76-4.31,1.66-6.61,2.92c-6.41-5.28-15.17-8.18-25.23-8.18
				c-13.48,0-26.01,4.93-35.28,13.88c-9.43,9.1-14.63,21.56-14.63,35.06c0,10.21,3.94,18.76,11.39,24.73
				c6.49,5.2,15.12,7.95,24.93,7.95c12.67,0,24.5-4.35,33.57-12.31c1.49,7.14,7.79,11.73,16.6,11.73c0.48,0,0.97-0.01,1.46-0.04
				c15.34-0.68,20.94-4.79,24.1-8.31c3.79-4.22,5.48-9.87,5.14-17.27l0.92-9.95c1.56,0.44,3.33,0.7,5.35,0.7
				c12.09,0,20.53-9.54,20.53-23.2C947.94,478.82,938.34,468.68,926.08,468.68L926.08,468.68z"/>
		</g>
		<g>
			<path class="st4" d="M1099.04,546.09c-10.88,0-19.56-3.1-25.02-8.84c-6.74,5.07-16.98,8.14-22.64,8.14
				c-0.37,0-0.73-0.01-1.07-0.04c-8.53-0.5-12.88-5.05-12.88-13.53c0-4.67,1.47-11.12,2.89-17.36c1.09-4.78,2.21-9.72,2.21-12.14
				c0-0.13,0-0.24-0.01-0.35c-1.48,1.21-4.64,5.88-6.78,23.8c0,0-0.22,1.8-0.26,2.15c-0.38,3.31-0.91,7.85-3.91,10.85
				c-4.22,4.39-13.4,6.85-18.1,6.85c-9.82,0-13.2-4.49-14.33-8.06c-8.31,5-19.46,7.94-24.14,7.94c-10.15,0-16.46-5.98-16.46-15.61
				c0-4.34,0.7-8.71,1.26-12.22c0,0,3.69-21.6,3.7-21.7c-0.05,0-0.11,0-0.17,0c-7.95,0-8.81-5.91-8.81-8.45
				c0-7.48,4.18-12.18,11.48-12.91c0.48-0.06,0.75-0.12,0.9-0.16c0.35-0.63,0.88-2.37,1.39-4.06c0.92-3.09,2.64-8.83,7.97-11.39
				c5.56-2.7,13.07-3.1,17.05-3.1c3.62,0,6.35,1.46,7.78,4.01c3.17-4.47,9.45-6.44,12.29-7.33c7.32-2.34,13.62-3.48,19.25-3.48
				c8.27,0,12.46,3.42,12.46,10.15c0,3.28-0.81,8.02-1.53,12.2c-0.27,1.6-0.53,3.09-0.7,4.31l-0.71,4.41
				c4.69-3.26,11.19-7.03,18.53-7.03c11.2,0,18.16,6.54,18.16,17.06c0,0.32,0,0.65-0.01,0.99c10.08-11.52,25.47-18.05,39.87-18.05
				c13.8,0,22.05,7.01,22.05,18.76c0,9.24-5.39,17.36-12.84,22.88c0.13-0.01,0.26-0.01,0.39-0.01c4.81,0,9.18,4.49,9.18,9.42
				c0,9.42-10.55,14.31-15.62,16.66C1113.7,544.48,1106.68,546.09,1099.04,546.09z M995.76,514.02l-0.04,0.19
				c-0.36,1.6-0.34,2.66-0.24,3.25c0.51-0.16,1.12-0.47,1.72-0.78c1.21-0.62,2.71-1.39,4.5-1.43c0.38-2.11,0.82-4.5,1.29-7.07
				c0.74-4,1.58-8.52,2.35-13.03c-0.62,0.14-1.3,0.21-2.06,0.21h-1.54c-0.79,0-2.28,0-3.04,0.1c-0.42,1.08-0.9,3.89-1.34,6.42
				L995.76,514.02z M1004.49,474.1c1.35,0,2.49,0.22,3.43,0.59c0.01-0.25,0.01-0.49,0.01-0.73c-1.48-0.05-4.38-0.25-6.44-2.07
				c-0.09,0.85-0.17,1.67-0.23,2.36c0.22-0.01,0.44-0.03,0.67-0.04C1002.72,474.15,1003.6,474.1,1004.49,474.1z"/>
			<path class="st1" d="M1032.65,453.4c4.61,0,8.14,0.73,8.14,5.83c0,4.13-1.58,11.65-2.19,15.9l-1.22,7.52
				c-0.36,1.82-1.33,5.58,0.36,5.58c2.19,0,11.9-10.8,22.94-10.8c8.26,0,13.84,4.13,13.84,12.74c0,9.11-4.01,22.34-4.13,29.26
				c-0.04,2.13,0.7,2.92,1.68,3.26c-0.11-1.15-0.15-2.35-0.1-3.62c1.1-25.25,24.65-41.64,46.74-41.64c9.59,0,17.73,3.76,17.73,14.44
				c0,14.69-16.39,26.1-30.11,26.1c-1.7,0-4.73,0-4.73,2.55c0,3.52,4.37,5.47,7.4,5.47c8.74,0,15.42-6.92,19.3-6.92
				c2.56,0,4.86,2.67,4.86,5.1c0,6.43-8.14,10.44-13.11,12.74c-6.8,3.03-13.36,4.86-21,4.86c-10.5,0-20.03-3.24-24.47-10.94
				c-4.84,6-17.14,10.24-23.2,10.24c-0.27,0-0.52-0.01-0.77-0.03c-6.19-0.36-8.86-3.03-8.86-9.23c0-7.89,5.1-23.31,5.1-29.5
				c0-2.43-0.85-5.1-3.52-5.1c-9.11,0-11.41,24.4-12.02,29.14c-0.37,2.91-0.61,7.16-2.8,9.35c-3.03,3.15-10.8,5.58-15.05,5.58
				c-4.98,0-10.57-1.34-10.57-7.28c0-1.51,0.4-3.77,0.86-6.08c-5.01,7.57-22.75,13.24-28.77,13.24c-7.28,0-12.14-3.52-12.14-11.29
				c0-3.88,0.6-7.77,1.21-11.53l3.65-21.36c0.85-4.73,0.48-5.34-4.37-5.34c-2.91,0-4.49-0.85-4.49-4.13c0-5.22,2.55-8.13,7.65-8.62
				c3.89-0.48,4.25-1.69,5.95-7.28c1.09-3.64,2.43-7.16,5.7-8.73c4.25-2.06,10.44-2.68,15.18-2.68c3.03,0,4.61,1.34,4.61,4.49
				c-0.24,2.43-1.1,9.35-1.1,11.29c0,2.19,1.44,2.62,3.38,2.62c1.3,0,2.81-0.2,4.27-0.2c1.57,0,3.03,0.36,3.03,2.19
				c0,1.7-0.36,3.65-0.6,5.22c-0.37,2.68-0.37,5.23-3.65,5.23c-0.55,0-1.06,0-1.54,0c-6.83,0-6.95,0.32-8.65,10.2l-1.58,12.02
				c-1.21,5.34,0.36,8.62,3.4,8.62c2.91,0,5.1-2.31,6.91-2.31c1.86,0,2.75,1.22,3.09,2.68c0.07-0.4,0.13-0.76,0.18-1.11
				c1.34-9.35,7.16-35.81,7.16-47.34c0-2.55-0.36-4.01-3.27-4.13c-2.79-0.12-5.46,0.12-5.46-3.76c0-5.46,6.92-7.9,11.17-9.23
				C1020.39,454.86,1026.7,453.4,1032.65,453.4 M1103.54,508.03c3.4,0,9.35-8.98,8.98-14.82c-0.12-1.57-0.86-3.76-2.79-3.76
				c-4.98,0-8.38,11.29-8.38,15.17C1101.35,506.08,1101.84,508.03,1103.54,508.03 M1032.65,444.76c-6.08,0-12.8,1.21-20.57,3.69
				c-2.29,0.72-7.03,2.21-10.96,5.28c-2.12-1.39-4.77-2.16-7.8-2.16c-4.35,0-12.6,0.46-18.95,3.55c-7.01,3.37-9.17,10.57-10.2,14.03
				c-0.14,0.47-0.3,0.97-0.44,1.43c-8.39,1.58-13.52,7.92-13.52,16.95c0,6.05,3.13,10.43,8.3,12.06l-2.95,17.32l-0.01,0.04
				l-0.01,0.04c-0.59,3.66-1.32,8.21-1.32,12.9c0,12.11,8.16,19.93,20.78,19.93c4.33,0,13.9-2.2,22.41-6.4
				c2.9,3.74,8.01,6.52,16.07,6.52c5.37,0,15.8-2.6,21.22-8.17c0.18-0.18,0.34-0.36,0.51-0.54c2.65,5.05,7.76,8.03,14.87,8.45
				c0.42,0.03,0.87,0.04,1.32,0.04c5.55,0,14.84-2.43,22.24-6.96c6.22,4.99,14.94,7.66,25.42,7.66c8.27,0,15.83-1.73,24.52-5.6
				l0.06-0.03l0.06-0.03c5.42-2.51,18.12-8.4,18.12-20.58c0-4.37-2.25-8.41-5.59-10.97c5.75-6.18,8.86-13.58,8.86-21.32
				c0-14.24-10.1-23.08-26.37-23.08c-12.81,0-26.33,4.78-36.81,13.42c-2.9-8.35-10.6-13.42-21.21-13.42c-4.66,0-9,1.29-12.8,3.03
				c0.73-4.27,1.53-9.05,1.53-12.6c0-7.45-4.22-10.94-6.74-12.35C1039.37,445.01,1035.75,444.76,1032.65,444.76L1032.65,444.76z"/>
		</g>
		<g>
			<path class="st4" d="M781.38,566.24c-9.26,0-15.49-4.66-15.49-11.6c0-3.91,1.92-6.16,3.6-7.69c1.3-1.2,1.31-1.24,1.71-3.38
				c0.13-0.72,0.29-1.54,0.51-2.52c1.99-8.5,5.28-24.76,5.58-33.95c-0.08,0-0.15,0-0.23,0.01c-0.38,0.01-0.76,0.02-1.14,0.02
				c-3.21,0-9.18,0-9.18-6.63c0-0.85,0.1-2.14,0.26-4l0.38-4.2l0.03-0.16c0.05-0.29,0.08-0.57,0.11-0.82
				c0.48-4.09,2.58-6.21,6.24-6.31c-1.52-2.46-3.01-6.03-3.01-11.46c0-7.55,3.65-14.23,10.27-18.8c5.44-3.75,12.65-5.91,19.78-5.91
				c4.93,0,9.89,1.39,13.6,3.81c4.81,3.14,7.47,7.89,7.47,13.37c0,7.84-5.15,13.9-12.24,14.77c1.14,1.17,2.12,2.56,2.87,4.22h0.93
				c1.69,0,3.99,0,5.72,1.87c1.79,1.95,1.59,4.37,1.38,6.94l-0.35,5.32l-0.02,0.6c-0.11,3.62-0.79,7.48-7.49,7.51h-0.01
				c-0.05,0.29-0.16,0.93-0.16,0.93l-4.69,37.02c0,0.49,0.01,0.96,0.02,1.44c0.08,4.42,0.19,9.92-5.69,13.89
				C797.14,564.01,786.5,566.24,781.38,566.24z"/>
			<path class="st1" d="M800.81,453.16c7.65,0,16.75,4.01,16.75,12.87c0,5.71-3.76,10.56-9.71,10.56c-4.61,0-7.16-1.94-10.44-4.73
				c-1.21-0.97-2.91-2.79-4.61-2.79c-1.94,0-3.16,1.7-3.16,3.4c0,3.03,2.67,5.22,5.46,5.95c5.34,1.46,11.53,3.28,13.72,8.98
				c0.65,1.75,0.8,1.96,2.01,1.96c0.38,0,0.87-0.02,1.51-0.02c0.4,0,0.76,0,1.09,0c2.96,0,3.12,0.2,2.79,4.13l-0.36,5.46
				c-0.12,3.4,0.12,4.01-3.28,4.01c-3.64,0.12-3.76,1.09-4.37,4.61l-4.73,37.39c0,4.86,0.73,8.98-3.76,12.02
				c-4.01,2.79-13.6,4.98-18.33,4.98c-4.61,0-11.17-1.7-11.17-7.28c0-2.06,0.85-3.28,2.18-4.49c3.04-2.79,2.55-3.88,3.52-8.13
				c2.19-9.35,5.71-26.83,5.71-36.17c0-2.73-1.71-3.07-3.69-3.07c-0.66,0-1.35,0.04-2.02,0.04c-4.01,0-4.86-0.24-4.86-2.31
				c0-0.73,0.12-2.19,0.24-3.64l0.36-4.01c0.35-2.1,0.03-3.53,2.37-3.53c0.1,0,0.19,0,0.3,0.01c1.08,0,2.21,0.08,3.2,0.08
				c1.69,0,2.99-0.24,2.99-1.54c0-2.67-5.46-4.73-5.46-14.32C775.07,460.08,788.91,453.16,800.81,453.16 M800.81,444.52
				c-7.99,0-16.09,2.43-22.24,6.67c-7.83,5.4-12.14,13.34-12.14,22.36c0,3.59,0.57,6.53,1.38,8.92c-2.13,1.41-4.06,3.91-4.58,8.34
				c-0.02,0.19-0.04,0.4-0.08,0.62l-0.05,0.32l-0.03,0.32l-0.36,4.01v0.03v0.03c-0.17,2.03-0.27,3.34-0.27,4.36
				c0,6.42,4.22,9,6.04,9.81c1.36,0.61,2.74,0.89,4.19,1.02c-0.81,8.04-2.99,19.46-5.15,28.71c-0.26,1.13-0.42,2.02-0.56,2.74
				c-0.05,0.25-0.1,0.52-0.14,0.75c-0.07,0.07-0.15,0.15-0.26,0.25c-1.2,1.09-4.98,4.52-4.98,10.85c0,9.37,8.14,15.92,19.81,15.92
				c5.67,0,17.17-2.31,23.22-6.49c7.77-5.28,7.63-12.94,7.54-17.52c-0.01-0.36-0.01-0.73-0.02-1.1l4.34-34.26
				c1.81-0.42,3.83-1.33,5.48-3.28c2.37-2.79,2.46-5.83,2.53-8.05l0.02-0.52l0.35-5.24c0.24-2.89,0.54-6.83-2.51-10.15
				c-1.07-1.16-2.26-1.91-3.43-2.39c4.49-3.43,7.3-9.01,7.3-15.54C826.2,452.07,813.12,444.52,800.81,444.52L800.81,444.52z"/>
		</g>
	</g>
	<g>
		<g>
			<path class="st5" d="M824.09,1023.66c0,0-0.56,21.71,0,24.15"/>
			<path class="st5" d="M826.65,1053.8c0,0,2.67,9.76,15.25,10.16"/>
			<g>
				<path class="st6" d="M1080.46,1067.86H838.59c-10.91,0-19.75-8.84-19.75-19.75V840.77h281.36v207.34
					C1100.21,1059.03,1091.37,1067.86,1080.46,1067.86z"/>
				<polygon class="st7" points="1099.82,1053.18 1106.79,1009.96 1106.79,828.6 1100.21,840.77 				"/>
				<rect x="819.72" y="828.6" class="st8" width="279.6" height="33.34"/>
				<path class="st9" d="M1104.07,840.78H819.85c-4.84,0-8.77-3.92-8.77-8.77v-32.73c0-4.84,3.92-8.77,8.77-8.77h284.22
					c4.84,0,8.77,3.92,8.77,8.77v32.73C1112.84,836.85,1108.92,840.78,1104.07,840.78z"/>
				<g>
					<g>
						<g>
							<path class="st10" d="M963.12,785.29c2.24,0.1,4.43,0.32,6.37,0.71c4.01,0.83,5.85,3.94,6.68,7.01l14.52,5.64
								c2.04,0.79,4.21,1.22,6.4,1.25c58.99,0.85,59.72-26.3,63.79-42.27c0.71-2.77,1.93-5.47,3.61-8.02
								c5.06-7.66,10.21-22.13,10.21-22.13c-27.53,2.21-66.06,16.01-93.58,20.99C958.48,752.54,961.38,776.82,963.12,785.29z
								 M976.74,788.27c0,0,6.83-31.79,37.01-32.8c0,0-7.9,5.05-4.31,13.12c3.6,8.07,6.47,9.08-18.68,16.91
								C983.56,787.02,976.74,788.27,976.74,788.27z"/>
							<path class="st10" d="M944.48,746.74c-27.53-4.97-66.06-18.78-93.58-20.99c0,0,5.15,14.47,10.21,22.13
								c1.69,2.56,2.91,5.25,3.61,8.02c4.02,15.78,4.78,42.49,61.77,42.29c3.43-0.01,6.84-0.65,10.03-1.89l12.9-5.01
								c0.82-3.07,2.67-6.18,6.68-7.01c1.93-0.4,4.13-0.62,6.37-0.71C964.22,775.1,967.12,750.83,944.48,746.74z M934.85,783.79
								c-25.15-7.82-22.27-8.83-18.68-16.91c3.59-8.08-4.31-13.12-4.31-13.12c30.19,1.01,37.01,32.8,37.01,32.8
								S942.04,785.32,934.85,783.79z"/>
							<path class="st10" d="M976.14,791.38c-0.29,1.26-1.08,2.29-2.25,3.12c-0.02,0.02-0.06,0.04-0.08,0.06
								c-3.09,2.16-8.66,3.03-14.12,3.31c-2.13,0.11-4.25,0.13-6.2,0.1c-1.39-0.02-2.7-0.07-3.86-0.13
								c-2.99-0.15-5.28-1.96-5.09-4.05c0.01-0.04,0.01-0.08,0.01-0.13c0.09-0.96,0.25-2.02,0.55-3.09
								c0.82-3.07,2.67-6.18,6.68-7.01c1.93-0.4,4.13-0.62,6.37-0.71c1.85-0.09,3.72-0.09,5.51-0.04c2.21,0.06,4.28,0.18,5.99,0.32
								c3.14,0.25,5.68,1.89,6.34,4.05C976.33,788.38,976.49,789.82,976.14,791.38z"/>
						</g>
					</g>
					<line class="st11" x1="862.22" y1="734.93" x2="864.16" y2="739.21"/>
					<line class="st11" x1="867.58" y1="745.26" x2="870.42" y2="750.84"/>
					<path class="st10" d="M951.51,790.7c0,0,0.5-1.55,2.31-1.83"/>
					<path class="st10" d="M1022.72,790.92c0,0,7.47-1.27,10.14-2.96"/>
					<path class="st10" d="M1039.33,784.7c0,0,3.6-2.2,4.33-3.03"/>
				</g>
				<line class="st11" x1="1074.7" y1="833.8" x2="1099.32" y2="833.8"/>
				<line class="st11" x1="1066.28" y1="833.8" x2="994.93" y2="833.8"/>
				<g>
					<g>
						<path class="st11" d="M950.05,975.41c-4.69,0-8.5-3.87-8.5-8.65s3.8-8.65,8.5-8.65c2.35,0,4.47,0.97,6.01,2.53"/>
						<path class="st11" d="M868.9,967.92c0,0-6.03-6.12-11.11-7.5"/>
						<path class="st11" d="M872.91,964.65c0,0-7.01-10.7-9.72-11.93"/>
						<path class="st11" d="M1061.02,950.74c0,0,6.27-5.87,11.41-7.04"/>
						<path class="st11" d="M1057.15,947.32c0,0,7.44-10.4,10.2-11.52"/>
					</g>
					<path class="st12" d="M960.45,994.68c-13.39,3.35-27.03,2.1-40.24-2.94c-20.02-7.64-51.35-16.13-56.11,3.14
						c-7.08,28.66,27.39,54.81,91.61,51.34c60.21-3.25,94.9-9.75,93.17-58.99c-0.26-7.53-2.69-14.31-6.59-17.63
						C1025.63,955.47,1001.17,984.51,960.45,994.68z"/>
					<path class="st13" d="M948.54,999.08c0.48,9.56-4.88,17.63-11.99,17.99s-13.26-7.12-13.74-16.69
						c-0.14-2.86-0.02-5.08,0.77-7.49c1.18,0.28,2.36,0.53,3.51,0.82c6.93,1.67,14.2,2.3,21.19,2.83
						C948.4,997.38,948.5,998.21,948.54,999.08z"/>
					<path class="st14" d="M980.72,992.34c1.88,9.73-2.62,18.8-10.03,20.23c-7.41,1.43-14.94-5.32-16.82-15.05
						c-0.1-0.54-0.1-0.54-0.18-1.09c7.29-1.45,14.32-3.68,21.33-6.44c1.45-0.56,2.87-1.16,4.29-1.75
						C979.89,989.66,980.41,990.76,980.72,992.34z"/>
					<path class="st10" d="M921.4,1045.05c0,0,15.41-34.32,36.01-18.41c0,0,18.75-32.51,42.31,15.29
						C999.73,1041.93,963.25,1050.51,921.4,1045.05z"/>
					<g>
						<path class="st15" d="M894.74,912.65l0.16,1.33c-0.1-0.51-0.21-1.02-0.34-1.51c0-0.02-0.01-0.04-0.01-0.06
							c0-0.01-0.01-0.02-0.01-0.03c0,0.01,0.01,0.01,0.01,0.01c0,0.01,0.01,0.01,0.01,0.01
							C894.68,912.57,894.74,912.65,894.74,912.65z"/>
						<path class="st10" d="M947.48,899.48c0.56,3.6,0.27,7.14-0.72,10.4c-2.36,9.84-10,21.17-21.57,29.58
							c-14.21,10.33-15.75,16.8-15.71,19.21c0,0.07,0,0.14-0.01,0.22l-0.05,0.44l-0.14-0.34c-0.05-0.11-0.08-0.23-0.12-0.35
							c-0.68-2.38-4.05-8.11-20.4-14.04c-13.45-4.88-23.92-13.65-28.92-22.45c-1.85-2.86-3.11-6.18-3.57-9.8
							c-1.6-12.55,7.15-24.25,19.64-26.26c10.6-1.7,20.62,3.92,25.01,13.07c1.68-10,9.75-18.18,20.41-19.48
							C933.89,878.15,945.55,886.97,947.48,899.48z"/>
						<g class="st16">
							<g>
								<defs>
									<path id="SVGID_1_" d="M947.48,899.48c0.56,3.6,0.27,7.14-0.72,10.4c-2.36,9.84-10,21.17-21.57,29.58
										c-14.21,10.33-15.75,16.8-15.71,19.21c0,0.07,0,0.14-0.01,0.22l-0.05,0.44l-0.14-0.34c-0.05-0.11-0.08-0.23-0.12-0.35
										c-0.68-2.38-4.05-8.11-20.4-14.04c-13.45-4.88-23.92-13.65-28.92-22.45c-1.85-2.86-3.11-6.18-3.57-9.8
										c-1.6-12.55,7.15-24.25,19.64-26.26c10.6-1.7,20.62,3.92,25.01,13.07c1.68-10,9.75-18.18,20.41-19.48
										C933.89,878.15,945.55,886.97,947.48,899.48z"/>
								</defs>
								<clipPath id="SVGID_00000111913243211122555500000009405117499915025077_">
									<use xlink:href="#SVGID_1_"  style="overflow:visible;"/>
								</clipPath>
								<path style="clip-path:url(#SVGID_00000111913243211122555500000009405117499915025077_);fill:#F3614A;" d="M891.9,964.43
									c0,0-34.05-49.63-7.96-56.31c26.09-6.69,10.83-35.38,0.42-33.91c-10.41,1.47-41.08,29.03-24.52,63.27
									S891.9,964.43,891.9,964.43z"/>
							</g>
							<g>
								<defs>
									<path id="SVGID_00000142871829572878429290000003265321169342029194_" d="M947.48,899.48c0.56,3.6,0.27,7.14-0.72,10.4
										c-2.36,9.84-10,21.17-21.57,29.58c-14.21,10.33-15.75,16.8-15.71,19.21c0,0.07,0,0.14-0.01,0.22l-0.05,0.44l-0.14-0.34
										c-0.05-0.11-0.08-0.23-0.12-0.35c-0.68-2.38-4.05-8.11-20.4-14.04c-13.45-4.88-23.92-13.65-28.92-22.45
										c-1.85-2.86-3.11-6.18-3.57-9.8c-1.6-12.55,7.15-24.25,19.64-26.26c10.6-1.7,20.62,3.92,25.01,13.07
										c1.68-10,9.75-18.18,20.41-19.48C933.89,878.15,945.55,886.97,947.48,899.48z"/>
								</defs>
								<clipPath id="SVGID_00000172418051080606805540000007278159533161912235_">
									<use xlink:href="#SVGID_00000142871829572878429290000003265321169342029194_"  style="overflow:visible;"/>
								</clipPath>
								<path style="clip-path:url(#SVGID_00000172418051080606805540000007278159533161912235_);fill:#F3614A;" d="M928.49,907.84
									c0,0,0.98,25.42-51.4,33.26s2.79,90.5,43.36,39.1s50.16-69.71,40.25-81.36C950.8,887.2,930.9,894.12,928.49,907.84z"/>
							</g>
						</g>
						<path class="st11" d="M921.65,885.96c0,0,12.55-1.55,19.03,13.16"/>
					</g>
					<g>
						<path class="st15" d="M1008.51,909.96l-0.31,1.31c0.08-0.52,0.16-1.03,0.2-1.54c0-0.02,0.01-0.04,0.01-0.06
							c0-0.01,0-0.02,0-0.03c0,0.01,0,0.01,0.01,0.02c0,0.01,0,0.01,0,0.01C1008.48,909.85,1008.51,909.96,1008.51,909.96z"/>
						<path class="st10" d="M1062.56,915.88c-0.72,3.57-2.22,6.79-4.28,9.51c-5.62,8.41-16.71,16.39-30.48,20.28
							c-16.91,4.77-20.59,10.3-21.39,12.58c-0.02,0.07-0.05,0.14-0.08,0.2l-0.2,0.39l-0.01-0.37c0-0.12,0-0.24,0.01-0.36
							c0.19-2.47-0.99-9.01-14.27-20.23c-10.93-9.23-17.72-21.09-19.36-31.07c-0.75-3.33-0.78-6.88,0.04-10.43
							c2.84-12.33,15.11-20.28,27.52-17.83c10.53,2.07,17.98,10.82,18.93,20.92c5.04-8.8,15.45-13.68,25.89-11.21
							C1057.19,891.16,1065.07,903.47,1062.56,915.88z"/>
						<g class="st16">
							<g>
								<defs>
									<path id="SVGID_00000142165628173228795700000013314959562110541239_" d="M1062.56,915.88c-0.72,3.57-2.22,6.79-4.28,9.51
										c-5.62,8.41-16.71,16.39-30.48,20.28c-16.91,4.77-20.59,10.3-21.39,12.58c-0.02,0.07-0.05,0.14-0.08,0.2l-0.2,0.39
										l-0.01-0.37c0-0.12,0-0.24,0.01-0.36c0.19-2.47-0.99-9.01-14.27-20.23c-10.93-9.23-17.72-21.09-19.36-31.07
										c-0.75-3.33-0.78-6.88,0.04-10.43c2.84-12.33,15.11-20.28,27.52-17.83c10.53,2.07,17.98,10.82,18.93,20.92
										c5.04-8.8,15.45-13.68,25.89-11.21C1057.19,891.16,1065.07,903.47,1062.56,915.88z"/>
								</defs>
								<clipPath id="SVGID_00000088113764205741303330000017437443011191116466_">
									<use xlink:href="#SVGID_00000142165628173228795700000013314959562110541239_"  style="overflow:visible;"/>
								</clipPath>
								<path style="clip-path:url(#SVGID_00000088113764205741303330000017437443011191116466_);fill:#F3614A;" d="M1045.19,896.18
									c0,0-1.45,25.39-54.34,28.2c-52.89,2.8-5.86,90.35,39.43,43.06c45.29-47.29,56.59-64.61,47.83-77.15
									C1069.37,877.76,1048.9,882.76,1045.19,896.18z"/>
							</g>
							<g>
								<defs>
									<path id="SVGID_00000103948186628922268710000011639413366500994946_" d="M1062.56,915.88c-0.72,3.57-2.22,6.79-4.28,9.51
										c-5.62,8.41-16.71,16.39-30.48,20.28c-16.91,4.77-20.59,10.3-21.39,12.58c-0.02,0.07-0.05,0.14-0.08,0.2l-0.2,0.39
										l-0.01-0.37c0-0.12,0-0.24,0.01-0.36c0.19-2.47-0.99-9.01-14.27-20.23c-10.93-9.23-17.72-21.09-19.36-31.07
										c-0.75-3.33-0.78-6.88,0.04-10.43c2.84-12.33,15.11-20.28,27.52-17.83c10.53,2.07,17.98,10.82,18.93,20.92
										c5.04-8.8,15.45-13.68,25.89-11.21C1057.19,891.16,1065.07,903.47,1062.56,915.88z"/>
								</defs>
								<clipPath id="SVGID_00000041280453369021712650000013427688551888689338_">
									<use xlink:href="#SVGID_00000103948186628922268710000011639413366500994946_"  style="overflow:visible;"/>
								</clipPath>
								<path style="clip-path:url(#SVGID_00000041280453369021712650000013427688551888689338_);fill:#F3614A;" d="M1022.28,886.41
									c-0.52-0.4-28.66-10.02-21.05,12.72c5.06,15.13-18.69,30.81-34.3,28.68s-7.42-58.66-7.42-58.66
									S1016.13,862.28,1022.28,886.41z"/>
							</g>
						</g>
						<path class="st11" d="M1043,894.24c0,0,12.31,2.89,13.3,18.94"/>
					</g>
				</g>
			</g>
		</g>
		<g>
			<polygon class="st4" points="992.76,869.65 994.89,874.34 999.21,877.15 994.52,879.27 991.72,883.6 989.59,878.9 985.27,876.1 
				989.96,873.98 			"/>
			<polygon class="st4" points="979.67,876.97 983.27,884.91 990.58,889.65 982.64,893.26 977.9,900.58 974.3,892.64 966.99,887.9 
				974.92,884.29 			"/>
		</g>
		<g>
			<polygon class="st4" points="853.45,898.16 858.19,900.18 863.27,899.33 861.25,904.07 862.11,909.15 857.37,907.12 
				852.29,907.98 854.31,903.24 			"/>
			<polygon class="st4" points="865.07,876.74 871.5,882.62 880.09,884.1 874.21,890.54 872.72,899.14 866.29,893.24 857.7,891.77 
				863.59,885.33 			"/>
		</g>
	</g>
	<path class="st0" d="M549.46,83.79c0,0-16.32,27.37-10.53,83.17"/>
	<path class="st0" d="M1272.71,439.29c0,0,44.13-4.64,59.05-62.61"/>
</g>
</svg>
