<?xml version="1.0" encoding="utf-8"?>
<!-- Generator: Adobe Illustrator 24.0.3, SVG Export Plug-In . SVG Version: 6.00 Build 0)  -->
<svg version="1.1" id="Layer_1" xmlns="http://www.w3.org/2000/svg" xmlns:xlink="http://www.w3.org/1999/xlink" x="0px" y="0px"
	 viewBox="0 0 800 110" style="enable-background:new 0 0 800 110;" xml:space="preserve">
<g>
	<g>
		<path style="fill:#FFFFFF;" d="M32.5,5c14.4,0,20.1,1,25.6,4.9c7.5,5.1,11.7,14.7,11.7,26.4c0,12.1-4.2,21.7-11.4,26.5
			c-5.8,3.9-12,5.2-24.9,5.2h-7.8V105H3.9V5H32.5z M25.7,50.9h6.7c10.2,0,14.1-4.2,14.1-15.1c0-5.1-1.5-9.4-4-11.8
			c-2.1-2.1-4.6-2.7-10-2.7h-6.7V50.9z"/>
		<path style="fill:#FFFFFF;" d="M90,31.1v17.8c3.7-13.2,9-18.9,17.4-18.9c1.2,0,1.9,0.1,3.6,0.4v20.1c-1.3-0.1-2.8-0.3-3.4-0.3
			c-10.3,0-15.1,7.3-15.1,22.8V105H71.9V31.1H90z"/>
		<path style="fill:#FFFFFF;" d="M170.7,68.1c0,25.5-10,38.4-30,38.4c-20.1,0-30.1-12.9-30.1-38.2c0-26.1,9.9-38.7,30.4-38.7
			C160.6,29.6,170.7,42.6,170.7,68.1z M131.9,68c0,18.1,2.2,24.1,8.8,24.1c6.4,0,8.7-6,8.7-24c0-17.8-2.2-24.1-8.5-24.1
			C134.1,44,131.9,50,131.9,68z"/>
		<path style="fill:#FFFFFF;" d="M232.9,5V105h-19V92.7c-3.9,9.9-8.2,13.3-16.9,13.3c-15,0-23.5-13.8-23.5-37.9s9-38.1,24.4-38.1
			c7.2,0,11.2,2.2,14.8,7.9V5H232.9z M212.7,62.1c0-7.6-0.3-9.3-1.8-13.5c-1-3-3.9-4.9-7.2-4.9c-6.4,0-9,6-9,20.8
			c0,11.2,0.1,14.1,0.9,18.1c1,6,3.6,9,7.9,9c6.4,0,9.1-4.9,9.1-16.5V62.1z"/>
		<path style="fill:#FFFFFF;" d="M261.6,31.1v47.3c0,5.5,0.1,7,0.7,8.4c1,2.5,3,3.6,6.4,3.6c4.2,0,6.9-1.6,8.1-5.2
			c0.9-2.2,1-4.8,1-16.3V31.1h20.5V105h-19.3v-10c-5.7,9.1-9.6,11.5-19.2,11.5c-7.2,0-12.4-2.2-15.4-6.6c-2.8-4.2-3.4-7.8-3.4-20.8
			V31.1H261.6z"/>
		<path style="fill:#FFFFFF;" d="M343.3,59c-0.6-10-2.8-13.8-8.1-13.8c-7,0-10.3,6.9-10.3,22c0,15.9,3,22.6,10,22.6
			c5.4,0,7.8-3.9,8.4-13.6l19.3,1.2c-2.2,19.6-11.7,29.1-29.1,29.1c-19.2,0-29.4-13.3-29.4-38.4c0-24.9,10.8-38.5,30.6-38.5
			c8.5,0,15,2.4,19.8,7.5c5.2,5.5,7.2,10.8,8.1,21.1L343.3,59z"/>
		<path style="fill:#FFFFFF;" d="M391.7,7.7v23.4h13.5v16.2h-13.5v27.1c0,9.9,0.1,11.1,1.8,12.9c1.3,1.5,3.6,2.1,7.2,2.1
			c1.8,0,2.2,0,5.5-0.1V105c-5.4,1.2-8.4,1.5-12.4,1.5c-9,0-15.4-2.8-18.9-8.2c-2.7-4.3-3.3-7.8-3.3-21.6V47.3h-8.2V31.1h9.3
			l1.6-21.9L391.7,7.7z"/>
		<path style="fill:#FFFFFF;" d="M409.5,25V4.6h21V25H409.5z M430.1,31.1V105h-20.5V31.1H430.1z"/>
		<path style="fill:#FFFFFF;" d="M495.9,68.1c0,25.5-10,38.4-30,38.4c-20.1,0-30.1-12.9-30.1-38.2c0-26.1,9.9-38.7,30.4-38.7
			C485.8,29.6,495.9,42.6,495.9,68.1z M457.1,68c0,18.1,2.2,24.1,8.8,24.1c6.4,0,8.7-6,8.7-24c0-17.8-2.2-24.1-8.5-24.1
			C459.3,44,457.1,50,457.1,68z"/>
		<path style="fill:#FFFFFF;" d="M521.1,31.1v10c3.7-8.4,8.8-11.5,18.6-11.5c7.8,0,13.3,2.8,16.5,8.4c2.1,3.7,2.7,7.5,2.7,18.6V105
			h-20.5V56.6c0-8.5-1.6-10.9-7.2-10.9c-4.5,0-7.2,1.8-8.4,5.5c-0.6,1.9-0.7,4.5-0.7,10.5V105h-20.5V31.1H521.1z"/>
		<path style="fill:#FFFFFF;" d="M636.7,69.9c-1.8,22.6-15,36.6-34.9,36.6c-24,0-37.6-18.7-37.6-51.4c0-33,13.6-51.5,37.9-51.5
			c12.4,0,21.9,4.9,27.7,14.5c3.9,6.3,5.5,12.7,6.4,24.1l-20.1,1.5c-0.6-8.7-1.2-12.1-3.1-15.6c-2.5-4.5-6.1-6.7-10.8-6.7
			c-10.6,0-15,10.3-15,35.4c0,22.6,4.3,31.9,15,31.9c7.9,0,12.4-6.3,14.1-20.1L636.7,69.9z"/>
		<path style="fill:#FFFFFF;" d="M662.7,5V105h-20.5V5H662.7z"/>
		<path style="fill:#FFFFFF;" d="M691.2,31.1v47.3c0,5.5,0.1,7,0.7,8.4c1,2.5,3,3.6,6.4,3.6c4.2,0,6.9-1.6,8.1-5.2
			c0.9-2.2,1-4.8,1-16.3V31.1H728V105h-19.3v-10c-5.7,9.1-9.6,11.5-19.2,11.5c-7.2,0-12.4-2.2-15.4-6.6c-2.8-4.2-3.4-7.8-3.4-20.8
			V31.1H691.2z"/>
		<path style="fill:#FFFFFF;" d="M756.9,5v33c4.8-5.8,9-7.9,15.4-7.9c14.8,0,23.8,14.1,23.8,37.5c0,25-9.4,39-26.4,39
			c-8.4,0-13.3-3.1-17.1-11.1c-1.6,3.1-2.4,5.1-3.9,9.6h-12.1V5H756.9z M756.9,74.3c0,8.1,0.1,9.9,1.3,12.9c1.3,3.3,3.9,5.1,7.3,5.1
			c6.7,0,9.3-6.4,9.3-24.1c0-17.8-2.4-24.4-9-24.4c-3.3,0-6.3,1.8-7.6,4.8c-1,2.2-1.3,3.7-1.3,8.7V74.3z"/>
	</g>
</g>
</svg>
