<?xml version="1.0" encoding="utf-8"?>
<!-- Generator: Adobe Illustrator 25.4.1, SVG Export Plug-In . SVG Version: 6.00 Build 0)  -->
<svg version="1.1" id="Layer_1" xmlns="http://www.w3.org/2000/svg" xmlns:xlink="http://www.w3.org/1999/xlink" x="0px" y="0px"
	 viewBox="0 0 796.17 1221.73" style="enable-background:new 0 0 796.17 1221.73;" xml:space="preserve">
<style type="text/css">
	.st0{fill:#F3614A;stroke:#261F26;stroke-width:3.9855;stroke-linecap:round;stroke-linejoin:round;stroke-miterlimit:10;}
	.st1{fill:#F3614A;stroke:#261F26;stroke-width:4.7487;stroke-linecap:round;stroke-linejoin:round;stroke-miterlimit:10;}
	.st2{fill:#261F26;}
	.st3{fill:#F3614A;stroke:#261F26;stroke-width:3.34;stroke-linecap:round;stroke-linejoin:round;stroke-miterlimit:10;}
	.st4{fill:#A780F1;}
	.st5{fill:#412587;}
	.st6{fill:#22AE95;stroke:#261F26;stroke-width:5.3139;stroke-miterlimit:10;}
	.st7{fill:#096856;}
	.st8{fill:none;stroke:#261F26;stroke-width:1.2328;stroke-linecap:round;stroke-linejoin:round;stroke-miterlimit:10;}
	.st9{fill:none;stroke:#261F26;stroke-width:2.657;stroke-linecap:round;stroke-linejoin:round;stroke-miterlimit:10;}
	.st10{fill:none;stroke:#261F26;stroke-width:5.3139;stroke-linecap:round;stroke-linejoin:round;stroke-miterlimit:10;}
	.st11{fill:#FFEEDC;stroke:#261F26;stroke-width:2.657;stroke-linecap:round;stroke-linejoin:round;stroke-miterlimit:10;}
	.st12{fill:#F3614A;stroke:#261F26;stroke-width:2.657;stroke-linecap:round;stroke-linejoin:round;stroke-miterlimit:10;}
	.st13{fill:#F3614A;stroke:#261F26;stroke-width:3.5615;stroke-linecap:round;stroke-linejoin:round;stroke-miterlimit:10;}
	.st14{fill:#F3614A;stroke:#261F26;stroke-width:2.2267;stroke-linecap:round;stroke-linejoin:round;stroke-miterlimit:10;}
	.st15{fill:#F3614A;stroke:#261F26;stroke-width:7;stroke-linecap:round;stroke-linejoin:round;stroke-miterlimit:10;}
	.st16{fill:#22AE95;stroke:#261F26;stroke-width:7;stroke-linecap:round;stroke-linejoin:round;stroke-miterlimit:10;}
	.st17{fill:#261F26;stroke:#261F26;stroke-width:7;stroke-linecap:round;stroke-linejoin:round;stroke-miterlimit:10;}
	.st18{fill:#261F26;stroke:#261F26;stroke-width:7;stroke-miterlimit:10;}
	.st19{fill:none;stroke:#261F26;stroke-width:7;stroke-linecap:round;stroke-linejoin:round;stroke-miterlimit:10;}
	.st20{fill:#FFEEDC;stroke:#261F26;stroke-width:7;stroke-linecap:round;stroke-linejoin:round;stroke-miterlimit:10;}
	.st21{fill:#F3614A;stroke:#261F26;stroke-width:2.8152;stroke-linecap:round;stroke-linejoin:round;stroke-miterlimit:10;}
	.st22{fill:#22AE95;stroke:#261F26;stroke-width:2.8152;stroke-linecap:round;stroke-linejoin:round;stroke-miterlimit:10;}
	.st23{fill:#261F26;stroke:#261F26;stroke-width:2.8152;stroke-linecap:round;stroke-linejoin:round;stroke-miterlimit:10;}
	.st24{fill:#261F26;stroke:#261F26;stroke-width:2.8152;stroke-miterlimit:10;}
	.st25{fill:none;stroke:#261F26;stroke-width:2.8152;stroke-linecap:round;stroke-linejoin:round;stroke-miterlimit:10;}
	.st26{fill:#FFEEDC;stroke:#261F26;stroke-width:2.8152;stroke-linecap:round;stroke-linejoin:round;stroke-miterlimit:10;}
	.st27{fill:#F3614A;stroke:#261F26;stroke-width:1.3167;stroke-linecap:round;stroke-linejoin:round;stroke-miterlimit:10;}
	.st28{fill:#22AE95;stroke:#261F26;stroke-width:1.3167;stroke-linecap:round;stroke-linejoin:round;stroke-miterlimit:10;}
	.st29{fill:#261F26;stroke:#261F26;stroke-width:1.3167;stroke-linecap:round;stroke-linejoin:round;stroke-miterlimit:10;}
	.st30{fill:#261F26;stroke:#261F26;stroke-width:1.3167;stroke-miterlimit:10;}
	.st31{fill:none;stroke:#261F26;stroke-width:1.3167;stroke-linecap:round;stroke-linejoin:round;stroke-miterlimit:10;}
	.st32{fill:#FFEEDC;stroke:#261F26;stroke-width:1.3167;stroke-linecap:round;stroke-linejoin:round;stroke-miterlimit:10;}
	.st33{fill:#F3614A;stroke:#261F26;stroke-width:6.7358;stroke-linecap:round;stroke-linejoin:round;stroke-miterlimit:10;}
	.st34{fill:#F3614A;stroke:#261F26;stroke-width:5.0518;stroke-linecap:round;stroke-linejoin:round;stroke-miterlimit:10;}
	.st35{fill:#F3614A;stroke:#261F26;stroke-width:5.6532;stroke-linecap:round;stroke-linejoin:round;stroke-miterlimit:10;}
	.st36{fill:#22AE95;stroke:#261F26;stroke-width:5;stroke-miterlimit:10;}
	.st37{fill:none;stroke:#261F26;stroke-width:1.7487;stroke-linecap:round;stroke-linejoin:round;stroke-miterlimit:10;}
	.st38{fill:none;stroke:#261F26;stroke-width:3.7688;stroke-linecap:round;stroke-linejoin:round;stroke-miterlimit:10;}
	.st39{fill:none;stroke:#261F26;stroke-width:7.5376;stroke-linecap:round;stroke-linejoin:round;stroke-miterlimit:10;}
	.st40{fill:#FFEEDC;stroke:#261F26;stroke-width:3.7688;stroke-linecap:round;stroke-linejoin:round;stroke-miterlimit:10;}
	.st41{fill:#F3614A;stroke:#261F26;stroke-width:3.7688;stroke-linecap:round;stroke-linejoin:round;stroke-miterlimit:10;}
	.st42{fill:#F3614A;stroke:#261F26;stroke-width:4.7376;stroke-linecap:round;stroke-linejoin:round;stroke-miterlimit:10;}
	.st43{fill:#F3614A;stroke:#261F26;stroke-width:3.1584;stroke-linecap:round;stroke-linejoin:round;stroke-miterlimit:10;}
	.st44{fill:#22AE95;stroke:#261F26;stroke-width:7;stroke-miterlimit:10;}
	.st45{fill:#F3614A;stroke:#261F26;stroke-width:5.5485;stroke-linecap:round;stroke-linejoin:round;stroke-miterlimit:10;}
	.st46{fill:#F3614A;stroke:#261F26;stroke-width:4.1613;stroke-linecap:round;stroke-linejoin:round;stroke-miterlimit:10;}
	.st47{fill:#22AE95;stroke:#261F26;stroke-width:6;stroke-linecap:round;stroke-linejoin:round;stroke-miterlimit:10;}
	.st48{fill:none;stroke:#261F26;stroke-width:1.9328;stroke-linecap:round;stroke-linejoin:round;stroke-miterlimit:10;}
	.st49{fill:none;stroke:#261F26;stroke-width:4.8679;stroke-linecap:round;stroke-linejoin:round;stroke-miterlimit:10;}
	.st50{fill:none;stroke:#261F26;stroke-width:6;stroke-linecap:round;stroke-linejoin:round;stroke-miterlimit:10;}
	.st51{fill:#261F26;stroke:#261F26;stroke-width:6;stroke-linecap:round;stroke-linejoin:round;stroke-miterlimit:10;}
	.st52{fill:#FFFFFF;stroke:#261F26;stroke-width:6;stroke-linecap:round;stroke-linejoin:round;stroke-miterlimit:10;}
	.st53{fill:#F3614A;stroke:#261F26;stroke-width:5;stroke-linecap:round;stroke-linejoin:round;stroke-miterlimit:10;}
	.st54{fill:#1C3B47;stroke:#261F26;stroke-width:6;stroke-miterlimit:10;}
	.st55{fill:#1C3B47;}
	.st56{fill:#A780F1;stroke:#261F26;stroke-width:6;stroke-linecap:round;stroke-linejoin:round;stroke-miterlimit:10;}
	.st57{fill:#F3614A;stroke:#261F26;stroke-width:2.6448;stroke-linecap:round;stroke-linejoin:round;stroke-miterlimit:10;}
	.st58{fill:#F3614A;stroke:#261F26;stroke-width:1.9836;stroke-linecap:round;stroke-linejoin:round;stroke-miterlimit:10;}
	.st59{fill:#22AE95;stroke:#261F26;stroke-width:2.86;stroke-linecap:round;stroke-linejoin:round;stroke-miterlimit:10;}
	.st60{fill:none;stroke:#261F26;stroke-width:0.9213;stroke-linecap:round;stroke-linejoin:round;stroke-miterlimit:10;}
	.st61{fill:none;stroke:#261F26;stroke-width:2.3204;stroke-linecap:round;stroke-linejoin:round;stroke-miterlimit:10;}
	.st62{fill:none;stroke:#261F26;stroke-width:2.86;stroke-linecap:round;stroke-linejoin:round;stroke-miterlimit:10;}
	.st63{fill:#261F26;stroke:#261F26;stroke-width:2.86;stroke-linecap:round;stroke-linejoin:round;stroke-miterlimit:10;}
	.st64{fill:#FFFFFF;stroke:#261F26;stroke-width:2.86;stroke-linecap:round;stroke-linejoin:round;stroke-miterlimit:10;}
	.st65{fill:#F3614A;stroke:#261F26;stroke-width:2.3833;stroke-linecap:round;stroke-linejoin:round;stroke-miterlimit:10;}
	.st66{fill:#1C3B47;stroke:#261F26;stroke-width:2.86;stroke-miterlimit:10;}
	.st67{fill:#A780F1;stroke:#261F26;stroke-width:2.86;stroke-linecap:round;stroke-linejoin:round;stroke-miterlimit:10;}
	.st68{fill:#F3614A;stroke:#261F26;stroke-width:2.2583;stroke-linecap:round;stroke-linejoin:round;stroke-miterlimit:10;}
	.st69{fill:#F3614A;stroke:#261F26;stroke-width:1.5055;stroke-linecap:round;stroke-linejoin:round;stroke-miterlimit:10;}
	.st70{fill:#F3614A;stroke:#261F26;stroke-width:1.7509;stroke-linecap:round;stroke-linejoin:round;stroke-miterlimit:10;}
	.st71{fill:#F3614A;stroke:#261F26;stroke-width:1.3132;stroke-linecap:round;stroke-linejoin:round;stroke-miterlimit:10;}
	.st72{fill:#22AE95;stroke:#261F26;stroke-width:1.8934;stroke-linecap:round;stroke-linejoin:round;stroke-miterlimit:10;}
	.st73{fill:none;stroke:#261F26;stroke-width:0.6099;stroke-linecap:round;stroke-linejoin:round;stroke-miterlimit:10;}
	.st74{fill:none;stroke:#261F26;stroke-width:1.5362;stroke-linecap:round;stroke-linejoin:round;stroke-miterlimit:10;}
	.st75{fill:none;stroke:#261F26;stroke-width:1.8934;stroke-linecap:round;stroke-linejoin:round;stroke-miterlimit:10;}
	.st76{fill:#261F26;stroke:#261F26;stroke-width:1.8934;stroke-linecap:round;stroke-linejoin:round;stroke-miterlimit:10;}
	.st77{fill:#FFFFFF;stroke:#261F26;stroke-width:1.8934;stroke-linecap:round;stroke-linejoin:round;stroke-miterlimit:10;}
	.st78{fill:#F3614A;stroke:#261F26;stroke-width:1.5778;stroke-linecap:round;stroke-linejoin:round;stroke-miterlimit:10;}
	.st79{fill:#1C3B47;stroke:#261F26;stroke-width:1.8934;stroke-miterlimit:10;}
	.st80{fill:#A780F1;stroke:#261F26;stroke-width:1.8934;stroke-linecap:round;stroke-linejoin:round;stroke-miterlimit:10;}
	.st81{fill:#F3614A;stroke:#261F26;stroke-width:1.495;stroke-linecap:round;stroke-linejoin:round;stroke-miterlimit:10;}
	.st82{fill:#F3614A;stroke:#261F26;stroke-width:0.9967;stroke-linecap:round;stroke-linejoin:round;stroke-miterlimit:10;}
</style>
<g>
	<g>
		<path class="st33" d="M296.03,1070.22l-27.8,45.27h43.88l11.55,23.97c0,0,76.21-40.57,46.19-86.68c-30.02-46.11,7-59.02,7-59.02
			L263.6,980.86c0,0-39.26,103.28,71.59,90.37"/>
		<path class="st2" d="M262.74,1046.29c0,0,76-22.38,96.54-16.33v-27.35H302.2l-50.9,7.65L262.74,1046.29z"/>
		<path class="st33" d="M477.41,1128.75c0,0,23.16,50.19,24.9,54.35c1.74,4.16-48.67-12.49-48.67-12.49l-10.43,36.09
			c0,0-69.53-51.36-36.5-91.61s-8.69-109.65-8.69-109.65l79.95-24.58c0,0,119.77,152.28-27.89,149.5"/>
		<path class="st2" d="M415.88,1049.4c0,0,45.6-30.03,90.45-21.18l-3.56-22.79l-104.75,0.01L415.88,1049.4z"/>
		<polygon class="st2" points="450.09,1130.36 493.18,1163 477.41,1128.75 		"/>
		<polygon class="st2" points="281.8,1096.38 332.19,1074.65 293.89,1071.83 		"/>
		<line class="st34" x1="435.33" y1="1185.37" x2="428.56" y2="1176.23"/>
		<line class="st34" x1="500.88" y1="1032.07" x2="504" y2="1039.55"/>
		<line class="st34" x1="506.33" y1="1045.2" x2="508.5" y2="1050.69"/>
		<path class="st34" d="M349.57,1032.07c0,0,0.57,5.31,3.44,7.48"/>
		<path class="st34" d="M328.12,1127.48c0,0,6.48-2.78,10.26-5.55"/>
	</g>
	<polygon class="st35" points="768.64,273.63 787.09,303.82 768.21,307.41 	"/>
	<g>
		<path class="st4" d="M318.31,1032.93c-38.08,0-80.36-0.19-125.65-0.57c-61.09-0.51-105.79-16.49-132.84-47.49
			c-33.23-38.07-27.54-85.99-27.48-86.47c0.01-0.11,0.02-0.21,0.02-0.32l-0.94-528.14l-0.68-120.7
			c107.7-49.69,225.97-74.89,351.54-74.89c113.85,0,212.81,21.14,275.78,38.87c61.21,17.24,101.19,34.68,109.09,38.24l1.13,634.36
			c0.34,49.28-12.38,87.26-37.79,112.89c-32.89,33.18-76.01,33.65-76.44,33.65l-211.89-0.44c-0.44,0.01-37.18,1.02-123.84,1.02
			C318.32,1032.93,318.32,1032.93,318.31,1032.93z"/>
		<path class="st2" d="M382.29,176.84c50.11,0,101.53,4.07,152.85,12.1c41.07,6.43,82.17,15.39,122.14,26.64
			c57.98,16.32,96.86,32.82,107.39,37.49l1.12,632.76c0.33,48.51-12.1,85.85-36.96,110.99c-16.71,16.9-36.08,24.97-49.4,28.77
			c-14.56,4.15-25.29,4.25-25.37,4.25l-211.9-0.44c0,0-0.01,0-0.01,0c-0.05,0-0.09,0-0.14,0c-0.36,0.01-37.09,1.01-123.71,1.01
			c-38.07,0-80.34-0.19-125.63-0.57c-60.27-0.5-104.31-16.16-130.89-46.53c-16.92-19.34-23.36-41.23-25.78-56.19
			c-2.65-16.38-1.21-28.31-1.19-28.42c0.03-0.21,0.04-0.43,0.04-0.64l-0.94-528.16l-0.67-119.08
			C140.23,201.73,257.65,176.84,382.29,176.84 M382.29,171.84c-109.15,0-231.61,19-354.05,75.8l0.68,122.3l0.94,528.14
			c0,0-17.31,135.26,162.78,136.77c50.19,0.42,91.78,0.57,125.68,0.57c87.72,0,123.85-1.01,123.85-1.01l211.9,0.44
			c0,0,117.75-0.22,116.73-149.05c-0.3-168.13-1.13-635.96-1.13-635.96S603.33,171.84,382.29,171.84L382.29,171.84z"/>
	</g>
	<g>
		<path class="st5" d="M765.31,264.48l0.08,46.24c-355.64-61.74-622.26-20.55-732.69,1.43l-0.29-49.06
			C270.42,200.82,527.09,203.04,765.31,264.48z"/>
	</g>
	<g>
		<path class="st36" d="M769.16,263.16c-238.26-61.44-503.38-60.97-741.41,1.32c-17.26-28.48-12.69-52.61-7.29-91.99
			c271.19-70.96,482.98-71.33,754.42-1.34C784.79,215.76,786.32,234.62,769.16,263.16z"/>
	</g>
	<polygon class="st7" points="342.77,118.57 378.43,118.41 301.62,218.16 250.32,222.09 	"/>
	<polygon class="st7" points="426.55,119.12 390.9,118.96 467.42,216.35 518.54,219.32 	"/>
	<g>
		<path class="st5" d="M601.46,254.66c0,0,78.36,140.69,162.28,136.29l-0.16-112.32L601.46,254.66z"/>
	</g>
	<g>
		<g>
			<path class="st2" d="M299.59,920.42c10.42,4.38,19.67,11.07,27.06,19.68c-14.89,4.62-32.83,3.57-49.33,3.99
				c-18.39-1.63-41.91,2.11-53.92-9.52c-13.29-11.16,10.41-53.53,59.21-51.25c46.43,3.09,63.73,42.4,51.04,52.09
				C320.46,924.14,299.49,919.99,299.59,920.42z"/>
			<path class="st37" d="M299.59,920.42c10.42,4.38,19.67,11.07,27.06,19.68c-14.89,4.62-32.83,3.57-49.33,3.99
				c-18.39-1.63-41.91,2.11-53.92-9.52c-13.29-11.16,10.41-53.53,59.21-51.25c46.43,3.09,63.73,42.4,51.04,52.09
				C320.46,924.14,299.49,919.99,299.59,920.42z"/>
		</g>
		<g>
			<path class="st2" d="M520.65,920.03c10.42,4.38,19.67,11.07,27.06,19.68c-14.89,4.62-32.83,3.57-49.33,3.99
				c-18.39-1.63-41.91,2.11-53.92-9.52c-13.29-11.16,10.41-53.53,59.21-51.25c46.43,3.09,63.73,42.4,51.04,52.09
				C541.52,923.75,520.56,919.59,520.65,920.03z"/>
			<path class="st37" d="M520.65,920.03c10.42,4.38,19.67,11.07,27.06,19.68c-14.89,4.62-32.83,3.57-49.33,3.99
				c-18.39-1.63-41.91,2.11-53.92-9.52c-13.29-11.16,10.41-53.53,59.21-51.25c46.43,3.09,63.73,42.4,51.04,52.09
				C541.52,923.75,520.56,919.59,520.65,920.03z"/>
		</g>
		<path class="st38" d="M386.11,934.75c-4.18,0.01-7.58-3.38-7.58-7.56c-0.01-4.18,3.38-7.58,7.56-7.58c2.09,0,3.98,0.84,5.36,2.21"
			/>
		<g>
			<path class="st39" d="M273.39,875.7c0,0-1.13-6.07-5.39-9.1"/>
			<path class="st39" d="M284,875.69c0,0,1.81-9.04-0.02-10.93"/>
		</g>
		<g>
			<path class="st39" d="M495.9,871.82c0,0-1.13-6.07-5.39-9.1"/>
			<path class="st39" d="M505.85,871.8c0,0,1.81-9.04-0.02-10.93"/>
		</g>
		<g>
			<path class="st38" d="M446.19,946.44c0,0-19.61,24.13,8.52,29.76"/>
			<g>
				<path class="st38" d="M439.56,962.32c-6.88,3.76-13.61,6.77-20.14,9.13"/>
				<path class="st38" d="M315.41,961.32c0,0,14.08,10.14,37.11,15.04"/>
				<path class="st38" d="M389.37,978.39c-2.23,0.23-4.39,0.39-6.53,0.5"/>
				<path class="st40" d="M382.86,979.81c0.22,8.33-6.39,15.3-14.73,15.49c-8.36,0.22-15.28-6.39-15.52-14.73l-0.1-4.21
					c8.87,1.92,19.08,3.04,30.31,2.53L382.86,979.81z"/>
				<path class="st40" d="M419.56,976.91c0.22,8.33-6.37,15.28-14.73,15.47c-8.11,0.21-14.88-5.99-15.47-13.99
					c9.43-0.95,19.5-3.11,30.05-6.94L419.56,976.91z"/>
			</g>
		</g>
		<path class="st2" d="M418.63,977.98c0.16,6.29-3.54,11.78-8.96,14.19c1.88-5.24,1.22-11.7,0.1-16.83c2.86-0.8,5.76-1.74,8.72-2.8
			L418.63,977.98z"/>
		<path class="st2" d="M381.93,980.89c0.2,7.29-4.86,13.54-11.71,15.12c2.4-4.68,2.26-10.76,1.4-16.02
			c3.32,0.14,6.75,0.14,10.29-0.02L381.93,980.89z"/>
	</g>
	<path class="st39" d="M47.21,928.44c0,0,5.51,42.75,26.19,53.18"/>
	<path class="st39" d="M82.86,993.01c0,0,39.77,31.14,91.12,27.8"/>
	<path class="st35" d="M407.28,119.04c0,0,177.03,197.62,369.05,257.07l10.76-72.28c0,0-283.48-101.46-348.04-181.49L407.28,119.04z
		"/>
	<line class="st41" x1="768.21" y1="366.81" x2="758.87" y2="363.22"/>
	<line class="st41" x1="752.05" y1="360.35" x2="740.92" y2="355.39"/>
	<g>
		<path class="st5" d="M194.84,249.99c0,0-78.36,140.69-162.28,136.29l0.16-112.32L194.84,249.99z"/>
	</g>
	<polygon class="st35" points="27.53,273.63 9.08,303.82 27.96,307.41 	"/>
	<path class="st35" d="M361.18,119.04c0,0-150.64,201.62-342.66,261.07l-9.44-76.28c0,0,233.69-77,320.33-181.49L361.18,119.04z"/>
	<line class="st41" x1="26.93" y1="367.57" x2="36.27" y2="363.97"/>
	<line class="st41" x1="43.09" y1="361.1" x2="54.7" y2="356.13"/>
	<g>
		<g>
			<g>
				<path class="st42" d="M388.46,105.43c3.44,0.15,6.81,0.49,9.77,1.1c6.16,1.27,8.98,6.04,10.25,10.76l26.92,10.45
					c95.73,2.99,96.77-39.81,103.14-64.78c1.08-4.26,2.96-8.4,5.55-12.32c7.77-11.76,15.68-33.98,15.68-33.98
					c-42.26,3.39-101.41,24.59-143.67,32.22C381.33,55.15,385.78,92.41,388.46,105.43z M409.36,110.01c0,0,10.48-48.81,56.82-50.36
					c0,0-12.14,7.75-6.62,20.15c5.52,12.39,9.94,13.94-28.68,25.96C419.84,108.08,409.36,110.01,409.36,110.01z"/>
				<path class="st42" d="M359.83,46.25c-42.26-7.63-101.41-28.83-143.67-32.22c0,0,7.91,22.21,15.68,33.98
					c2.59,3.92,4.46,8.06,5.55,12.32c6.37,24.97,7.4,67.77,103.14,64.78l26.92-10.45c1.27-4.71,4.09-9.49,10.25-10.76
					c2.97-0.61,6.34-0.95,9.77-1.1C390.14,89.79,394.59,52.53,359.83,46.25z M345.04,103.13c-38.61-12.01-34.2-13.56-28.68-25.96
					c5.51-12.4-6.62-20.15-6.62-20.15c46.34,1.55,56.82,50.36,56.82,50.36S356.08,105.46,345.04,103.13z"/>
				<path class="st42" d="M408.43,114.76c-0.44,1.93-1.67,3.51-3.45,4.79c-0.04,0.03-0.09,0.06-0.12,0.09
					c-4.74,3.32-13.3,4.66-21.68,5.08c-3.27,0.17-6.53,0.19-9.52,0.15c-2.14-0.03-4.15-0.11-5.93-0.2c-4.59-0.23-8.1-3-7.81-6.22
					c0.01-0.07,0.01-0.13,0.02-0.19c0.13-1.47,0.39-3.1,0.84-4.74c1.27-4.71,4.09-9.49,10.25-10.76c2.97-0.61,6.34-0.95,9.77-1.1
					c2.84-0.13,5.71-0.13,8.45-0.06c3.4,0.09,6.58,0.28,9.19,0.49c4.82,0.39,8.73,2.89,9.73,6.22
					C408.73,110.16,408.99,112.37,408.43,114.76z"/>
			</g>
		</g>
		<line class="st43" x1="226.18" y1="22.99" x2="229.17" y2="29.56"/>
		<line class="st43" x1="230.51" y1="33.3" x2="233.19" y2="38.59"/>
		<path class="st43" d="M368.45,110.2c0,0,0.77-2.38,3.55-2.81"/>
		<path class="st43" d="M478.9,120.13c0,0,11.47-1.95,15.56-4.54"/>
		<path class="st43" d="M498.6,113.22c0,0,6.09-2.2,7.45-3.22"/>
	</g>
</g>
</svg>
