<?xml version="1.0" encoding="utf-8"?>
<!-- Generator: Adobe Illustrator 25.4.1, SVG Export Plug-In . SVG Version: 6.00 Build 0)  -->
<svg version="1.1" id="Layer_1" xmlns="http://www.w3.org/2000/svg" xmlns:xlink="http://www.w3.org/1999/xlink" x="0px" y="0px"
	 viewBox="0 0 320 191" style="enable-background:new 0 0 320 191;" xml:space="preserve">
<style type="text/css">
	.st0{clip-path:url(#SVGID_00000047757928341661503270000012308211288249048223_);}
	.st1{fill:#F3614A;stroke:#261F26;stroke-width:1.75;stroke-linecap:round;stroke-linejoin:round;stroke-miterlimit:10;}
	.st2{fill:#261F26;stroke:#261F26;stroke-width:1.75;stroke-linecap:round;stroke-linejoin:round;stroke-miterlimit:10;}
	.st3{fill:none;stroke:#261F26;stroke-width:1.75;stroke-linecap:round;stroke-linejoin:round;stroke-miterlimit:10;}
	.st4{fill:#261F26;}
	.st5{fill:#22AE95;stroke:#261F26;stroke-width:1.75;stroke-linecap:round;stroke-linejoin:round;stroke-miterlimit:10;}
	.st6{fill:#FFFFFF;stroke:#261F26;stroke-width:1.75;stroke-linecap:round;stroke-linejoin:round;stroke-miterlimit:10;}
	.st7{fill:#1C3B47;stroke:#261F26;stroke-width:1.75;stroke-miterlimit:10;}
	.st8{fill:#1C3B47;}
	.st9{fill:#A780F1;stroke:#261F26;stroke-width:1.75;stroke-linecap:round;stroke-linejoin:round;stroke-miterlimit:10;}
	.st10{fill:#FFFFFF;}
</style>
<g>
	<g>
		<g>
			<defs>
				<rect id="SVGID_1_" x="83.7" y="-8.4" width="151.5" height="195.4"/>
			</defs>
			<clipPath id="SVGID_00000127761168298774664820000012987350284339915682_">
				<use xlink:href="#SVGID_1_"  style="overflow:visible;"/>
			</clipPath>
			<g style="clip-path:url(#SVGID_00000127761168298774664820000012987350284339915682_);">
				<g>
					<path class="st1" d="M123.9,157.7c0,0,6-33.8,4.8-42.3l12.2,11.8l10.9-9.3c0,0-1.4,38.5-5.8,49.1L123.9,157.7z"/>
					<path class="st2" d="M131.8,169c0,0,12.9,1.9,14.1-2.1c1.2-4-7.8-11.7-7.8-11.7l-17.4,13L131.8,169z"/>
					<path class="st1" d="M123.8,173.9c6.4-14.6,14.1-18.7,14.3-18.8c-0.3,0.1-17.9,2.9-26.6,5.2c0,0-6,5.9-13.1,32.8
						c-5.4,20.2-9.8,56.5,3.5,109.3c1.7,6.7,2.9,13.5,3.4,20.4c2.6,32.8-5.8,61-5.8,61s-26.2,84.1-13,109c1.7,3.1,3.7,4.8,5.7,5.6
						L94,499c0,0-2,3.7-1.8-0.5l-12.3,19.6l15.8-2.8l4.9,13.6c0,0,8.7-3.9,18.5-20.3c6.4-10.6,5.3-17.5-0.6-20.2
						c-6.7-3.1-15.2-7.6-17.2-20.1c-0.3-2-0.4-4-0.4-6c0.8-29.4,15.1-74.5,15.1-74.5s13.3-41.8,0-98.3
						C115.9,289.6,98.4,226.6,123.8,173.9"/>
					<line class="st3" x1="138.1" y1="155.1" x2="138.1" y2="155.1"/>
					<path class="st4" d="M124.6,154.3l8-2.4c5.4-1.6,11.2-0.5,15.6,2.9l0.5,0.4l3.1-38.8l-22.7,1.8L124.6,154.3z"/>
					<line class="st3" x1="118.9" y1="177" x2="116.7" y2="182.8"/>
					<path class="st3" d="M119.5,174.7c0,0,4.3-10.7,8.9-15.6"/>
				</g>
				<g>
					<g>
						<path class="st1" d="M173.6,135.6c0,0,2.7-8.7,6.8,24.2c4.2,33.8-38.8,219.9-18.4,251.2c1,1.5,3.1,1.8,4.5,0.6
							c5.1-4.5,6.6-6.9,12.8-6.3c7,0.8,6-7.6,6-7.6s-14.6,21.4-10.8-54.6s38.1-205,18-216.2c-5.4,8.4-8.7,9.1-11.9,8.7
							C177.4,135.2,173.6,135.6,173.6,135.6z"/>
					</g>
					<path class="st4" d="M180.2,155.5c1.4-1.4,5-10.6,18.9-6.4l-3.8-38.9L171.4,128L180.2,155.5z"/>
				</g>
				<path class="st5" d="M211.2,146.6H109.8c-4.6,0-8.3-3.7-8.3-8.3V51.4h118v86.9C219.5,142.9,215.7,146.6,211.2,146.6z"/>
				<g>
					<g>
						<path class="st4" d="M138.1,86.4c2,0.5,4.1,1.1,6.1,2.1c0,2.7-1.4,4.1-3.2,4.6c-1.9,0.5-4.2,0-6.6,0.1
							c-2.8-0.1-5.5,0.7-7.4-0.2c-1.9-0.8-3-3.3-2.2-6.8c0.8-3.5,3.2-6.4,5-7.9c2-1.6,3.4-2,4.6-2.1c1.1,0.1,2.5,0.5,4.3,1.9
							c1.8,1.4,4.1,3.9,5,7.2C141.6,85.9,138.1,86.4,138.1,86.4z"/>
						<path class="st3" d="M138.1,86.4c2,0.5,4.1,1.1,6.1,2.1c0,2.7-1.4,4.1-3.2,4.6c-1.9,0.5-4.2,0-6.6,0.1
							c-2.8-0.1-5.5,0.7-7.4-0.2c-1.9-0.8-3-3.3-2.2-6.8c0.8-3.5,3.2-6.4,5-7.9c2-1.6,3.4-2,4.6-2.1c1.1,0.1,2.5,0.5,4.3,1.9
							c1.8,1.4,4.1,3.9,5,7.2C141.6,85.9,138.1,86.4,138.1,86.4z"/>
					</g>
					<g>
						<path class="st4" d="M174.6,85.5c1.9,0.5,3.9,1.3,5.9,2.4c-0.6,5.4-5.5,4-10.1,4.2c-2.6,0.1-5.3,0.8-7-0.3
							c-1.7-0.9-2.6-3.7-1.5-7.2c0.9-3.5,3.3-6.2,5.1-7.6c1.9-1.5,3.2-1.8,4.3-1.8c1.1,0.1,2.5,0.6,4.3,2.1c1.7,1.5,3.9,4.2,4.6,7.4
							C178,85.2,174.6,85.5,174.6,85.5z"/>
						<path class="st3" d="M174.6,85.5c1.9,0.5,3.9,1.3,5.9,2.4c-0.6,5.4-5.5,4-10.1,4.2c-2.6,0.1-5.3,0.8-7-0.3
							c-1.7-0.9-2.6-3.7-1.5-7.2c0.9-3.5,3.3-6.2,5.1-7.6c1.9-1.5,3.2-1.8,4.3-1.8c1.1,0.1,2.5,0.6,4.3,2.1c1.7,1.5,3.9,4.2,4.6,7.4
							C178,85.2,174.6,85.5,174.6,85.5z"/>
					</g>
					<path class="st3" d="M152.7,96.7c-2,0-3.6-1.6-3.6-3.6s1.6-3.6,3.6-3.6c1,0,1.9,0.4,2.5,1.1"/>
					<path class="st3" d="M118.1,95.2c0,0-0.6-3.6,0.2-5.6"/>
					<path class="st3" d="M116,95.7c0,0-1.9-5-1.6-6.2"/>
					<path class="st3" d="M189.4,90.1c0,0,1.4-3.3,3.2-4.6"/>
					<path class="st3" d="M187.3,89.5c0,0,1.1-5.2,1.9-6.2"/>
				</g>
				<path class="st2" d="M159.7,108.5c-6.5,1.8-13.1,1.1-19.5-1.6c-9.7-4.2-24.9-8.8-27.2,1.7c-3.4,15.6,13.3,29.9,44.5,28
					c29.2-1.8,46.1-5.3,45.2-32.2c-0.1-4.1-1.3-7.8-3.2-9.6C191.3,87.2,179.5,103,159.7,108.5z"/>
				<path class="st6" d="M147,110.6c0,4.8-2,8.6-4.4,8.6s-4.4-3.9-4.4-8.6c0-1.4,0.2-2.8,0.5-3.9c0.4,0.2,0.8,0.3,1.2,0.5
					c2.3,1,4.7,1.7,7.1,2.2C147,109.7,147,110.1,147,110.6z"/>
				<path class="st6" d="M161,110.6c0,4.8-2,8.6-4.4,8.6s-4.4-3.9-4.4-8.6c0-0.3,0-0.5,0-0.8c2.4,0,4.8-0.4,7.2-1
					c0.5-0.1,1-0.3,1.5-0.4C160.9,109,161,109.8,161,110.6z"/>
				<path class="st1" d="M143.9,136.4c0,0,6.5-13.9,15.1-7.2c0,0,7.9-14.6,17.7,5.5C176.7,134.6,158,139.6,143.9,136.4z"/>
				<polygon class="st7" points="219.3,140.4 222.2,122.3 222.2,46.3 219.5,51.4 				"/>
				<rect x="102.4" y="46.3" class="st8" width="116.2" height="14"/>
				<path class="st9" d="M222,51.4H102.8c-2,0-3.7-1.7-3.7-3.7V34c0-2,1.7-3.7,3.7-3.7H222c2,0,3.7,1.6,3.7,3.7v13.7
					C225.6,49.8,224,51.4,222,51.4z"/>
				<path class="st3" d="M104.3,127.3c0,0-0.2,9.1,0,10.1"/>
				<path class="st3" d="M105.4,139.9c0,0,1.1,4.1,6.4,4.3"/>
				<g>
					<g>
						<g>
							<path class="st1" d="M162.9,28.1c0.9,0,1.9,0.1,2.7,0.3c1.7,0.4,2.4,1.6,2.8,2.9l6.1,2.4c0.9,0.3,1.8,0.5,2.7,0.5
								c24.7,0.3,25-11,26.7-17.7c0.3-1.2,0.8-2.3,1.5-3.4c2.1-3.2,4.3-9.3,4.3-9.3c-11.5,0.9-27.7,6.7-39.2,8.8
								C160.9,14.4,162.1,24.6,162.9,28.1z M168.6,29.4c0,0,2.9-13.3,15.5-13.8c0,0-3.3,2.1-1.8,5.5c1.5,3.4,2.7,3.8-7.8,7.1
								C171.4,28.9,168.6,29.4,168.6,29.4z"/>
							<path class="st1" d="M155.1,12c-11.5-2.1-27.7-7.9-39.2-8.8c0,0,2.2,6.1,4.3,9.3c0.7,1.1,1.2,2.2,1.5,3.4
								c1.7,6.6,2,17.8,25.9,17.7c1.4,0,2.9-0.3,4.2-0.8l5.4-2.1c0.4-1.3,1.1-2.6,2.8-2.9c0.8-0.2,1.7-0.3,2.7-0.3
								C163.3,23.9,164.6,13.7,155.1,12z M151,27.5c-10.5-3.3-9.3-3.7-7.8-7.1c1.5-3.4-1.8-5.5-1.8-5.5
								c12.6,0.4,15.5,13.8,15.5,13.8S154,28.1,151,27.5z"/>
							<path class="st1" d="M168.3,30.7c-0.1,0.5-0.4,1-0.9,1.3c0,0,0,0,0,0c-1.3,0.9-3.6,1.3-5.9,1.4c-0.9,0-1.8,0-2.6,0
								c-0.6,0-1.1,0-1.6,0c-1.2-0.1-2.2-0.8-2.1-1.7c0,0,0,0,0,0c0-0.4,0.1-0.9,0.2-1.3c0.4-1.3,1.1-2.6,2.8-2.9
								c0.8-0.2,1.7-0.3,2.7-0.3c0.8,0,1.6,0,2.3,0c0.9,0,1.8,0.1,2.5,0.1c1.3,0.1,2.4,0.8,2.7,1.7C168.4,29.4,168.5,30,168.3,30.7z
								"/>
						</g>
					</g>
					<line class="st3" x1="119.7" y1="6.7" x2="120.5" y2="8.5"/>
					<line class="st3" x1="121.6" y1="10.5" x2="122.3" y2="11.9"/>
					<path class="st1" d="M157.5,30.4c0,0,0.2-0.6,1-0.8"/>
					<path class="st1" d="M186.8,31.2c0,0,3.1-0.5,4.2-1.2"/>
					<path class="st1" d="M193,28.9c0,0,1.7-0.6,2-0.9"/>
				</g>
				<path class="st1" d="M195.6,150.6c0,0,0.8,5.7,0,12.8"/>
				<line class="st3" x1="195.6" y1="165.4" x2="194.9" y2="172.1"/>
			</g>
		</g>
	</g>
	<line class="st3" x1="118.4" y1="186.9" x2="100.1" y2="186.9"/>
	<line class="st3" x1="195.7" y1="186.9" x2="179.2" y2="186.9"/>
</g>
<ellipse class="st10" cx="165.8" cy="77.2" rx="3.8" ry="1.2"/>
<ellipse class="st10" cx="162.8" cy="80.1" rx="2.5" ry="0.8"/>
<ellipse class="st10" cx="127.3" cy="79.2" rx="2.4" ry="0.8"/>
<ellipse class="st10" cx="129.7" cy="77" rx="1.6" ry="0.5"/>
</svg>
