<?xml version="1.0" encoding="utf-8"?>
<!-- Generator: Adobe Illustrator 25.4.1, SVG Export Plug-In . SVG Version: 6.00 Build 0)  -->
<svg version="1.1" xmlns="http://www.w3.org/2000/svg" xmlns:xlink="http://www.w3.org/1999/xlink" x="0px" y="0px"
	 viewBox="0 0 1961.24 1202.13" style="enable-background:new 0 0 1961.24 1202.13;" xml:space="preserve">
<style type="text/css">
	.st0{display:none;}
	.st1{display:inline;}
	.st2{fill:#F3614A;stroke:#261F26;stroke-width:6.7358;stroke-linecap:round;stroke-linejoin:round;stroke-miterlimit:10;}
	.st3{fill:#261F26;}
	.st4{fill:none;stroke:#261F26;stroke-width:5.0518;stroke-linecap:round;stroke-linejoin:round;stroke-miterlimit:10;}
	.st5{fill:#F3614A;stroke:#261F26;stroke-width:5.0518;stroke-linecap:round;stroke-linejoin:round;stroke-miterlimit:10;}
	.st6{fill:#F3614A;stroke:#261F26;stroke-width:5.6638;stroke-linecap:round;stroke-linejoin:round;stroke-miterlimit:10;}
	.st7{fill:#A780F1;}
	.st8{fill:#412587;}
	.st9{fill:#22AE95;stroke:#261F26;stroke-width:7.0132;stroke-miterlimit:10;}
	.st10{fill:#096856;}
	.st11{fill:none;stroke:#261F26;stroke-width:7.5518;stroke-linecap:round;stroke-linejoin:round;stroke-miterlimit:10;}
	.st12{fill:none;stroke:#261F26;stroke-width:3.7759;stroke-linecap:round;stroke-linejoin:round;stroke-miterlimit:10;}
	.st13{fill:none;stroke:#261F26;stroke-width:1.7487;stroke-linecap:round;stroke-linejoin:round;stroke-miterlimit:10;}
	.st14{fill:none;stroke:#261F26;stroke-width:3.7688;stroke-linecap:round;stroke-linejoin:round;stroke-miterlimit:10;}
	.st15{fill:none;stroke:#261F26;stroke-width:7.5376;stroke-linecap:round;stroke-linejoin:round;stroke-miterlimit:10;}
	.st16{fill:#FFEEDC;stroke:#261F26;stroke-width:3.7688;stroke-linecap:round;stroke-linejoin:round;stroke-miterlimit:10;}
	.st17{fill:#F3614A;stroke:#261F26;stroke-width:4.7465;stroke-linecap:round;stroke-linejoin:round;stroke-miterlimit:10;}
	.st18{fill:none;stroke:#261F26;stroke-width:3.1643;stroke-linecap:round;stroke-linejoin:round;stroke-miterlimit:10;}
	.st19{fill:#F3614A;stroke:#261F26;stroke-width:3.1643;stroke-linecap:round;stroke-linejoin:round;stroke-miterlimit:10;}
</style>
<g id="NONFLEX2" class="st0">
	<g class="st1">
		<path class="st2" d="M885.66,1060.42l-27.8,45.27h43.88l11.55,23.98c0,0,76.21-40.57,46.19-86.68c-30.02-46.11,7-59.02,7-59.02
			l-113.24-12.91c0,0-39.26,103.28,71.59,90.37"/>
		<path class="st3" d="M852.37,1036.49c0,0,76-22.38,96.54-16.33v-27.35h-57.07l-50.9,7.65L852.37,1036.49z"/>
		<path class="st2" d="M1067.04,1118.95c0,0,23.16,50.19,24.9,54.35s-48.67-12.49-48.67-12.49l-10.43,36.09
			c0,0-69.53-51.36-36.5-91.61c33.02-40.25-8.69-109.65-8.69-109.65l79.95-24.58c0,0,119.77,152.28-27.89,149.5"/>
		<path class="st3" d="M1005.51,1039.6c0,0,45.6-30.03,90.45-21.18l-3.56-22.79l-104.75,0.01L1005.51,1039.6z"/>
		<polygon class="st3" points="1039.72,1120.56 1082.81,1153.2 1067.04,1118.95 		"/>
		<polygon class="st3" points="871.43,1086.58 921.82,1064.85 883.52,1062.03 		"/>
		<line class="st4" x1="1024.96" y1="1175.57" x2="1018.2" y2="1166.43"/>
		<line class="st4" x1="1090.51" y1="1022.27" x2="1093.63" y2="1029.75"/>
		<line class="st4" x1="1095.96" y1="1035.4" x2="1098.14" y2="1040.89"/>
		<path class="st5" d="M939.2,1022.27c0,0,0.57,5.31,3.44,7.48"/>
		<path class="st5" d="M917.75,1117.68c0,0,6.48-2.78,10.26-5.55"/>
	</g>
</g>
<g id="FLEX">
	<g>
		<polygon class="st6" points="1935.32,261.23 1961.24,294.02 1934.89,295 		"/>
		<g>
			<path class="st7" d="M676.96,1021.36c-73.41,0-152.34-0.09-234.62-0.27c-2.2,0.01-4.34,0.01-6.49,0.01
				c-112.72,0-204.95-9.94-274.11-29.53c-51.41-14.56-89.44-34.16-113-58.24c-23.88-24.4-23.64-44.75-23.64-44.95
				c0-0.03-0.94-528.25-0.94-528.25l-1.4-119.38c281.65-50.58,590.97-76.22,919.46-76.22c293.52,0,548.32,20.9,710.38,38.44
				c159.65,17.27,263.02,34.75,281.24,37.92l1.12,633.03c0.39,26.33-9.26,49.64-28.71,69.33c-38.7,39.2-109.94,57.93-162.9,66.73
				c-57.71,9.6-106.8,9.8-107.29,9.8l-548.21,0.16C1086.66,1019.97,966.5,1021.36,676.96,1021.36z"/>
			<path class="st3" d="M942.24,168.04c129.5,0,262.32,4.04,394.79,12c105.99,6.37,211.98,15.25,315.03,26.4
				c152.59,16.51,253.78,33.2,278.28,37.4l1.12,630.09c0,0.03,0,0.06,0,0.09c0.38,25.31-8.94,47.78-27.69,66.78
				c-16.64,16.87-40.91,31.34-72.12,43.02c-25.32,9.48-55.19,17.12-88.75,22.7c-57.44,9.56-106.34,9.77-106.82,9.77l-548.21,0.16
				c-0.03,0-0.05,0-0.08,0c-1.18,0.01-121.36,1.41-410.81,1.41c-73.39,0-152.32-0.09-234.67-0.27c-2.18,0.01-4.32,0.01-6.46,0.01
				c-111.98,0-203.62-9.82-272.38-29.18c-50.85-14.32-88.45-33.52-111.74-57.06c-22.68-22.92-23.1-41.98-23.1-42.88
				c0-0.09,0-0.1,0-0.22l-0.94-528.14c0-0.02,0-0.05,0-0.07l-1.36-116.38C306.98,193.49,615.1,168.04,942.24,168.04 M28.63,888.46
				L28.63,888.46L28.63,888.46 M942.24,161.04c-284.08,0-603.55,19.2-923,76.8l1.43,122.3l0.94,528.14
				c0,0-4.89,136.33,414.25,136.33c2.16,0,4.31,0,6.49-0.01c88.24,0.19,166.21,0.27,234.64,0.27c292.87,0,410.9-1.41,410.9-1.41
				l548.21-0.16c0,0,304.62-0.55,302.4-149.37c-0.3-168.13-1.13-635.96-1.13-635.96S1510.75,161.04,942.24,161.04L942.24,161.04z"/>
		</g>
		<g>
			<path class="st8" d="M1930.64,249.14l0.08,46.24c-356.98-61.74-1796.16-15.01-1907.01,6.97l-0.29-49.06
				C262.32,191.02,1691.52,187.69,1930.64,249.14z"/>
		</g>
		<polygon class="st8" points="505.03,263.83 27.87,438.51 27.17,253.59 		"/>
		<g>
			<path class="st9" d="M1931.42,253.59c-239.16-61.44-1673.74-61.2-1912.68,1.09C1.42,226.2,6,202.07,11.42,162.69
				c272.21-70.96,1653.27-71.1,1925.73-1.11C1947.11,206.19,1948.64,225.05,1931.42,253.59z"/>
		</g>
		<path class="st10" d="M936.13,105.79c-4.54,2.94-360.25,103.45-360.25,103.45l111.74-2.36l334.73-101.09
			C1022.35,105.79,936.13,105.79,936.13,105.79z"/>
		<polygon class="st8" points="1453.56,263.83 1930.72,438.51 1931.42,253.59 		"/>
		<path class="st10" d="M1057.39,113.46c4.54,2.94,352.91,96.32,352.91,96.32l-142.99-3.17l-298.36-91.15L1057.39,113.46z"/>
		<path class="st11" d="M42.18,873.47c0,0,5.53,42.75,26.29,53.18"/>
		<path class="st11" d="M81.83,935.5c0,0,38.98,32.3,90.59,30.48"/>
		<path class="st6" d="M994.27,113.81c0,0,763.43,193.05,956.17,252.5l10.8-72.28c0,0-712.09-128.64-911.62-184.75L994.27,113.81z"
			/>
		<line class="st12" x1="1942.29" y1="357.02" x2="1932.91" y2="353.42"/>
		<line class="st12" x1="1926.07" y1="350.55" x2="1914.9" y2="345.59"/>
		<polygon class="st6" points="18.52,263.83 0,294.02 18.95,297.61 		"/>
		<path class="st6" d="M967.99,112.2c0,0-764.45,196.53-957.19,255.98L0,295.9c0,0,686.05-127.58,885.6-183.69L967.99,112.2
			L967.99,112.2z"/>
		<line class="st12" x1="25.46" y1="355.37" x2="35.18" y2="352.89"/>
		<line class="st12" x1="42.32" y1="350.83" x2="54.47" y2="347.23"/>
	</g>
</g>
<g id="NONFLEX" class="st0">
	<g class="st1">
		<g>
			<path class="st3" d="M889.22,910.63c10.42,4.38,19.67,11.07,27.06,19.68c-14.89,4.62-32.83,3.57-49.33,3.99
				c-18.39-1.63-41.91,2.11-53.92-9.52c-13.29-11.16,10.41-53.53,59.21-51.25c46.43,3.09,63.73,42.4,51.04,52.09
				C910.09,914.34,889.13,910.19,889.22,910.63z"/>
			<path class="st13" d="M889.22,910.63c10.42,4.38,19.67,11.07,27.06,19.68c-14.89,4.62-32.83,3.57-49.33,3.99
				c-18.39-1.63-41.91,2.11-53.92-9.52c-13.29-11.16,10.41-53.53,59.21-51.25c46.43,3.09,63.73,42.4,51.04,52.09
				C910.09,914.34,889.13,910.19,889.22,910.63z"/>
		</g>
		<g>
			<path class="st3" d="M1110.28,910.23c10.42,4.38,19.67,11.07,27.06,19.68c-14.89,4.62-32.83,3.57-49.33,3.99
				c-18.39-1.63-41.91,2.11-53.92-9.52c-13.29-11.16,10.41-53.53,59.21-51.25c46.43,3.09,63.73,42.4,51.04,52.09
				C1131.15,913.95,1110.19,909.79,1110.28,910.23z"/>
			<path class="st13" d="M1110.28,910.23c10.42,4.38,19.67,11.07,27.06,19.68c-14.89,4.62-32.83,3.57-49.33,3.99
				c-18.39-1.63-41.91,2.11-53.92-9.52c-13.29-11.16,10.41-53.53,59.21-51.25c46.43,3.09,63.73,42.4,51.04,52.09
				C1131.15,913.95,1110.19,909.79,1110.28,910.23z"/>
		</g>
		<path class="st14" d="M975.74,924.95c-4.18,0.01-7.58-3.38-7.58-7.56c-0.01-4.18,3.38-7.58,7.56-7.58c2.09,0,3.98,0.84,5.36,2.21"
			/>
		<g>
			<path class="st15" d="M863.02,865.91c0,0-1.13-6.07-5.39-9.1"/>
			<path class="st15" d="M873.63,865.89c0,0,1.81-9.04-0.02-10.93"/>
		</g>
		<g>
			<path class="st15" d="M1085.53,862.02c0,0-1.13-6.07-5.39-9.1"/>
			<path class="st15" d="M1095.48,862c0,0,1.81-9.04-0.02-10.93"/>
		</g>
		<g>
			<path class="st14" d="M1035.82,936.64c0,0-19.61,24.13,8.52,29.76"/>
			<g>
				<path class="st14" d="M1029.19,952.52c-6.88,3.76-13.61,6.77-20.14,9.13"/>
				<path class="st14" d="M905.04,951.52c0,0,14.08,10.14,37.11,15.04"/>
				<path class="st14" d="M979,968.59c-2.23,0.23-4.39,0.39-6.53,0.5"/>
				<path class="st16" d="M972.49,970.01c0.22,8.33-6.39,15.3-14.73,15.49c-8.36,0.22-15.28-6.39-15.52-14.73l-0.1-4.21
					c8.87,1.92,19.08,3.04,30.31,2.53L972.49,970.01z"/>
				<path class="st16" d="M1009.2,967.11c0.22,8.33-6.37,15.28-14.73,15.47c-8.11,0.21-14.88-5.99-15.47-13.99
					c9.43-0.95,19.5-3.11,30.05-6.94L1009.2,967.11z"/>
			</g>
		</g>
		<path class="st3" d="M1008.26,968.18c0.16,6.29-3.54,11.78-8.96,14.19c1.88-5.24,1.22-11.7,0.1-16.83c2.86-0.8,5.76-1.74,8.72-2.8
			L1008.26,968.18z"/>
		<path class="st3" d="M971.56,971.09c0.2,7.29-4.86,13.54-11.71,15.12c2.4-4.68,2.26-10.76,1.4-16.02
			c3.32,0.14,6.75,0.14,10.29-0.02L971.56,971.09z"/>
	</g>
	<g class="st1">
		<g>
			<g>
				<path class="st17" d="M979.37,95.63c3.45,0.15,6.84,0.49,9.81,1.1c6.18,1.27,9.01,6.04,10.29,10.76l27.02,10.45
					c96.09,2.99,97.13-39.81,103.53-64.78c1.08-4.26,2.97-8.4,5.57-12.32c7.8-11.76,15.74-33.98,15.74-33.98
					c-42.42,3.39-101.79,24.59-144.21,32.22C972.21,45.35,976.69,82.61,979.37,95.63z M1000.35,100.21c0,0,10.52-48.81,57.03-50.36
					c0,0-12.19,7.75-6.64,20.15c5.54,12.39,9.98,13.94-28.79,25.96C1010.86,98.28,1000.35,100.21,1000.35,100.21z"/>
				<path class="st17" d="M950.64,36.45C908.22,28.82,848.85,7.62,806.43,4.23c0,0,7.94,22.21,15.74,33.98
					c2.6,3.92,4.48,8.06,5.57,12.32c6.39,24.97,7.43,67.77,103.53,64.78l27.02-10.45c1.27-4.71,4.11-9.49,10.29-10.76
					c2.98-0.61,6.36-0.95,9.81-1.1C981.05,79.99,985.53,42.73,950.64,36.45z M935.79,93.33C897.04,81.32,901.46,79.77,907,67.37
					c5.53-12.4-6.64-20.15-6.64-20.15c46.51,1.55,57.03,50.36,57.03,50.36S946.87,95.66,935.79,93.33z"/>
				<path class="st17" d="M999.42,104.97c-0.44,1.93-1.68,3.51-3.46,4.79c-0.04,0.03-0.09,0.06-0.12,0.09
					c-4.76,3.32-13.35,4.66-21.76,5.08c-3.28,0.17-6.55,0.19-9.56,0.15c-2.15-0.03-4.17-0.11-5.95-0.2c-4.61-0.23-8.13-3-7.84-6.22
					c0.01-0.07,0.01-0.13,0.02-0.19c0.13-1.47,0.39-3.1,0.84-4.74c1.27-4.71,4.11-9.49,10.29-10.76c2.98-0.61,6.36-0.95,9.81-1.1
					c2.85-0.13,5.73-0.13,8.48-0.06c3.41,0.09,6.6,0.28,9.22,0.49c4.84,0.39,8.76,2.89,9.77,6.22
					C999.71,100.36,999.97,102.57,999.42,104.97z"/>
			</g>
		</g>
		<line class="st18" x1="816.48" y1="13.2" x2="819.48" y2="19.76"/>
		<line class="st18" x1="820.83" y1="23.5" x2="823.52" y2="28.79"/>
		<path class="st19" d="M959.28,100.4c0,0,0.77-2.38,3.56-2.81"/>
		<path class="st19" d="M1070.16,110.33c0,0,11.51-1.95,15.62-4.54"/>
		<path class="st19" d="M1089.93,103.42c0,0,6.11-2.2,7.48-3.22"/>
	</g>
</g>
</svg>
