<?xml version="1.0" encoding="utf-8"?>
<!-- Generator: Adobe Illustrator 25.4.1, SVG Export Plug-In . SVG Version: 6.00 Build 0)  -->
<svg version="1.1" id="Layer_1" xmlns="http://www.w3.org/2000/svg" xmlns:xlink="http://www.w3.org/1999/xlink" x="0px" y="0px"
	 viewBox="0 0 375.63 1240.63" style="enable-background:new 0 0 375.63 1240.63;" xml:space="preserve">
<style type="text/css">
	.st0{fill:#F3614A;stroke:#261F26;stroke-width:2.6619;stroke-linecap:round;stroke-linejoin:round;stroke-miterlimit:10;}
	.st1{fill:#261F26;stroke:#261F26;stroke-width:2.6619;stroke-linecap:round;stroke-linejoin:round;stroke-miterlimit:10;}
	.st2{fill:none;stroke:#261F26;stroke-width:2.6619;stroke-linecap:round;stroke-linejoin:round;stroke-miterlimit:10;}
	.st3{fill:#261F26;}
	.st4{fill:#F3614A;}
	.st5{fill:#22AE95;stroke:#261F26;stroke-width:2.6619;stroke-linecap:round;stroke-linejoin:round;stroke-miterlimit:10;}
	.st6{fill:#FFFFFF;stroke:#261F26;stroke-width:2.6619;stroke-linecap:round;stroke-linejoin:round;stroke-miterlimit:10;}
	.st7{fill:#1C3B47;stroke:#261F26;stroke-width:2.6619;stroke-miterlimit:10;}
	.st8{fill:#1C3B47;}
	.st9{fill:#A780F1;stroke:#261F26;stroke-width:2.6619;stroke-linecap:round;stroke-linejoin:round;stroke-miterlimit:10;}
</style>
<g>
	<g>
		<path class="st0" d="M120.11,369.97c0,0,13.87-78.24,11.02-97.94l28.16,27.23l25.25-21.5c0,0-3.25,88.97-13.45,113.5
			L120.11,369.97z"/>
		<path class="st1" d="M138.56,396.09c0,0,29.77,4.49,32.54-4.84c2.77-9.33-18.04-27.12-18.04-27.12l-40.17,30.12L138.56,396.09z"/>
		<path class="st0" d="M119.96,407.52c14.87-33.65,32.67-43.16,33.1-43.38c-0.77,0.12-41.32,6.67-61.61,12.12
			c0,0-13.87,13.72-30.35,75.78c-12.55,46.77-22.68,130.65,8.06,252.84c3.9,15.49,6.67,31.26,7.94,47.18
			c6.05,75.86-13.32,141.14-13.32,141.14s-60.51,194.52-30.15,252.08c3.87,7.15,8.51,11.1,13.16,13.08l4.19,1.07
			c0,0-4.64,8.5-4.19-1.07l-28.55,45.29l36.64-6.39l11.31,31.47c0,0,20.11-9.12,42.86-46.88c14.79-24.53,12.29-40.43-1.38-46.72
			c-15.6-7.18-35.18-17.48-39.9-46.42c-0.75-4.56-0.99-9.17-0.86-13.79c1.9-67.91,34.84-172.4,34.84-172.4s30.73-96.71,0-227.3
			C101.73,675.23,61.16,529.28,119.96,407.52"/>
		<path class="st2" d="M153.05,364.13C153.05,364.13,153.05,364.13,153.05,364.13"/>
		<path class="st3" d="M121.82,362.19l18.49-5.57c12.4-3.73,25.83-1.25,36.07,6.68l1.08,0.83l7.16-89.77l-52.48,4.08L121.82,362.19z
			"/>
		<path class="st1" d="M46.81,1158.36c0,0,29.07,7.98,51.97-1.8l-73.9,37.58L46.81,1158.36z"/>
		<line class="st2" x1="108.71" y1="414.68" x2="103.61" y2="428.03"/>
		<path class="st2" d="M110.07,409.32c0,0,10.02-24.83,20.5-35.99"/>
		<path class="st2" d="M69.16,1218.47c0,0,7.44-4.03,12.41-10.54"/>
	</g>
	<g>
		<path class="st4" d="M255.12,1146.25l36.81,50.22l-45.49-8.38l-16.05,42.21c-29.22-9.74-53.58-70.62-21.92-94.17
			c31.66-23.54,63.27-96.57,63.27-96.57c16.77-32.12,27.12-64.93,27.53-98.81c0.01-0.69,0.02-1.39,0.02-2.09v-0.01
			c-0.83-14.89-24.36-27.75-34.53-32.7l-2.18,18.54v0.01l-8.07,10.87l-16.58-2.04l-18.88-12.5l17.68-43.93
			c0,0,13.73-11.33,28.14-11.72h0.11c1.4,0.22,2.91,0.58,4.46,1.09c6.43,2.09,13.77,6.81,18.96,15.41
			c3.09,4.48,2.53,10.87,5.14,15.57c50.63,76.13,31.11,145.1,10.39,185.72C303.92,1083,283.96,1120.3,255.12,1146.25z"/>
		<path class="st3" d="M239.53,874.92c0,0,4.81,31,23.67,38.32l-1.54,19.11l-30.25-2.6l4.74-51.63L239.53,874.92z"/>
		<g>
			<path class="st2" d="M292.55,893.48c52.05,75.35,32.13,144.44,13.67,184.82c0,0-22.03,50.24-74.8,85.54"/>
			<path class="st2" d="M255.65,1147.98l35.68,48.99l-45.49-8.38l-16.05,42.21c-29.22-9.74-53.58-70.62-21.92-94.16
				c31.66-23.54,63.26-96.57,63.26-96.57c24.53-46.98,35.33-95.45,21.41-146.59c-13.92-51.14-56.42-16.06-56.42-16.06"/>
			<line class="st2" x1="261.98" y1="925.02" x2="268.93" y2="865.95"/>
			<path class="st2" d="M265.05,905c0,0,35.05,16.17,33.63,36.26"/>
			<path class="st0" d="M235.09,318.86c0,0,6.27-20.22,15.82,55.91c9.8,78.13-89.63,508.61-42.57,580.93
				c2.28,3.51,7.21,4.08,10.34,1.3c11.77-10.5,15.25-16.02,29.5-14.47c16.19,1.75,13.81-17.51,13.81-17.51
				s-33.65,49.56-25.07-126.21c8.58-175.77,88.06-474.17,41.73-500.08c-12.54,19.54-20.08,20.93-27.44,20.14
				C243.85,318.07,235.09,318.86,235.09,318.86z"/>
		</g>
		<path class="st3" d="M250.45,365.03c3.13-3.22,11.66-24.45,43.67-14.91l-8.75-89.96l-55.25,41.14L250.45,365.03z"/>
		<path class="st3" d="M231.42,1165.13l21.75-19.42l21.59,29.64C274.76,1175.35,240.24,1177.95,231.42,1165.13z"/>
		<path class="st3" d="M298.59,934.85c-1.35-4.55-4.64-8.86-8.77-12.72c-9.57-9.9-23.72-16.8-25.5-17.64l2.82-24.05l0.03-0.16
			l1.69-14.34c0.17,0.04,0.35,0.1,0.52,0.16c5.87,1.91,12.5,6.01,17.57,13.26c1.39,2.44,2.69,5.26,3.85,8.51
			c0.72,3.17,1.16,6.48,2.68,9.21C296.65,909.83,298.3,922.42,298.59,934.85z"/>
	</g>
	<path class="st5" d="M322.06,344.35H87.55c-10.57,0-19.15-8.57-19.15-19.15V124.18h272.8v201.03
		C341.2,335.78,332.63,344.35,322.06,344.35z"/>
	<g>
		<g>
			<path class="st3" d="M153.09,205.14c4.64,1.06,9.38,2.57,14.19,4.86c-0.05,6.17-3.19,9.52-7.45,10.51
				c-4.3,1.14-9.73-0.07-15.35,0.2c-6.37-0.15-12.7,1.7-17.17-0.43c-4.44-1.82-7.03-7.61-5.04-15.84c1.74-8.2,7.3-14.75,11.65-18.38
				c4.57-3.77,7.92-4.61,10.56-4.74c2.57,0.19,5.69,1.08,10.01,4.48c4.11,3.3,9.42,9.11,11.63,16.72
				C161.12,204.01,153.11,205.08,153.09,205.14z"/>
			<path class="st2" d="M153.09,205.14c4.64,1.06,9.38,2.57,14.19,4.86c-0.05,6.17-3.19,9.52-7.45,10.51
				c-4.3,1.14-9.73-0.07-15.35,0.2c-6.37-0.15-12.7,1.7-17.17-0.43c-4.44-1.82-7.03-7.61-5.04-15.84c1.74-8.2,7.3-14.75,11.65-18.38
				c4.57-3.77,7.92-4.61,10.56-4.74c2.57,0.19,5.69,1.08,10.01,4.48c4.11,3.3,9.42,9.11,11.63,16.72
				C161.12,204.01,153.11,205.08,153.09,205.14z"/>
		</g>
		<g>
			<path class="st3" d="M237.44,203.03c4.46,1.22,9.03,2.91,13.67,5.49c-1.3,12.41-12.71,9.34-23.26,9.73
				c-6.14,0.17-12.17,1.89-16.18-0.64c-3.99-2.18-5.97-8.6-3.54-16.73c2.18-8.17,7.72-14.22,11.85-17.55
				c4.37-3.44,7.34-4.16,9.92-4.22c2.47,0.25,5.73,1.28,9.94,4.94c4.02,3.53,8.99,9.7,10.65,17.22
				C245.39,202.24,237.46,202.97,237.44,203.03z"/>
			<path class="st2" d="M237.44,203.03c4.46,1.22,9.03,2.91,13.67,5.49c-1.3,12.41-12.71,9.34-23.26,9.73
				c-6.14,0.17-12.17,1.89-16.18-0.64c-3.99-2.18-5.97-8.6-3.54-16.73c2.18-8.17,7.72-14.22,11.85-17.55
				c4.37-3.44,7.34-4.16,9.92-4.22c2.47,0.25,5.73,1.28,9.94,4.94c4.02,3.53,8.99,9.7,10.65,17.22
				C245.39,202.24,237.46,202.97,237.44,203.03z"/>
		</g>
		<path class="st2" d="M186.78,228.98c-4.55,0-8.24-3.75-8.24-8.39s3.69-8.39,8.24-8.39c2.27,0,4.33,0.94,5.82,2.46"/>
		<path class="st2" d="M106.88,225.36c0,0-1.33-8.22,0.5-12.99"/>
		<path class="st2" d="M102.02,226.62c0,0-4.35-11.61-3.76-14.44"/>
		<path class="st2" d="M271.71,213.7c0,0,3.24-7.68,7.33-10.74"/>
		<path class="st2" d="M266.92,212.2c0,0,2.49-12.15,4.49-14.23"/>
	</g>
	<path class="st1" d="M203.03,256.27c-15.03,4.22-30.34,2.65-45.17-3.71c-22.47-9.62-57.63-20.33-62.97,3.96
		c-7.94,36.13,30.74,69.08,102.82,64.71c67.57-4.09,106.51-12.29,104.57-74.35c-0.3-9.49-3.01-18.04-7.39-22.21
		C276.19,206.85,248.73,243.43,203.03,256.27z"/>
	<path class="st6" d="M173.61,260.99c0,10.99-4.56,19.92-10.2,19.92s-10.2-8.93-10.2-19.92c0-3.28,0.4-6.35,1.12-9.06
		c0.92,0.39,1.84,0.74,2.74,1.14c5.41,2.32,10.91,3.99,16.42,4.99C173.56,259.02,173.61,259.99,173.61,260.99z"/>
	<path class="st6" d="M205.99,260.99c0,10.99-4.58,19.92-10.22,19.92c-5.64,0-10.2-8.93-10.2-19.92c0-0.61,0.02-1.23,0.04-1.84
		c5.55-0.04,11.09-0.83,16.62-2.36c1.15-0.31,2.27-0.66,3.39-1.01C205.86,257.45,205.99,259.2,205.99,260.99z"/>
	<path class="st0" d="M166.46,320.68c0,0,14.94-32.08,34.92-16.66c0,0,18.18-33.67,41.02,12.67
		C242.4,316.69,199.1,328.19,166.46,320.68z"/>
	<polygon class="st7" points="340.82,330.11 347.58,288.2 347.58,112.38 341.2,124.18 	"/>
	<rect x="69.26" y="112.38" class="st8" width="271.08" height="32.33"/>
	<path class="st9" d="M347.01,124.18H71.44c-4.69,0-8.5-3.81-8.5-8.5V83.95c0-4.69,3.81-8.5,8.5-8.5h275.57c4.69,0,8.5,3.81,8.5,8.5
		v31.73C355.51,120.38,351.7,124.18,347.01,124.18z"/>
	<path class="st2" d="M73.49,301.49c0,0-0.54,21.05,0,23.41"/>
	<path class="st2" d="M75.97,330.72c0,0,2.59,9.47,14.78,9.85"/>
	<g>
		<g>
			<g>
				<path class="st0" d="M210.35,70.38c2.17,0.09,4.3,0.31,6.17,0.69c3.89,0.8,5.67,3.82,6.47,6.79l14.08,5.46
					c1.98,0.77,4.08,1.18,6.2,1.21c57.2,0.82,57.9-25.5,61.85-40.98c0.69-2.69,1.87-5.3,3.5-7.78c4.9-7.43,9.9-21.46,9.9-21.46
					c-26.69,2.14-64.04,15.53-90.73,20.35C205.85,38.63,208.66,62.16,210.35,70.38z M223.55,73.28c0,0,6.62-30.82,35.88-31.8
					c0,0-7.66,4.89-4.18,12.72c3.49,7.83,6.28,8.81-18.11,16.39C230.17,72.06,223.55,73.28,223.55,73.28z"/>
				<path class="st0" d="M192.27,33.01c-26.69-4.82-64.04-18.21-90.73-20.35c0,0,4.99,14.03,9.9,21.46c1.63,2.48,2.82,5.09,3.5,7.78
					c3.9,15.3,4.63,41.2,59.89,41c3.33-0.01,6.63-0.63,9.73-1.83l12.51-4.86c0.8-2.98,2.58-5.99,6.47-6.79
					c1.88-0.38,4-0.6,6.17-0.69C211.41,60.51,214.23,36.98,192.27,33.01z M182.93,68.93c-24.39-7.59-21.6-8.57-18.11-16.39
					c3.48-7.83-4.18-12.72-4.18-12.72c29.27,0.98,35.88,31.8,35.88,31.8S189.91,70.4,182.93,68.93z"/>
				<path class="st0" d="M222.97,76.28c-0.28,1.22-1.05,2.22-2.18,3.03c-0.02,0.02-0.05,0.04-0.08,0.05
					c-2.99,2.1-8.4,2.94-13.69,3.21c-2.07,0.11-4.12,0.12-6.01,0.09c-1.35-0.02-2.62-0.07-3.74-0.13c-2.9-0.14-5.12-1.9-4.93-3.93
					c0.01-0.04,0.01-0.08,0.01-0.12c0.08-0.93,0.25-1.96,0.53-2.99c0.8-2.98,2.58-5.99,6.47-6.79c1.88-0.38,4-0.6,6.17-0.69
					c1.79-0.08,3.61-0.08,5.34-0.04c2.15,0.05,4.15,0.18,5.81,0.31c3.04,0.24,5.51,1.83,6.14,3.93
					C223.15,73.37,223.31,74.77,222.97,76.28z"/>
			</g>
		</g>
		<line class="st2" x1="108.15" y1="18.77" x2="110.04" y2="22.92"/>
		<line class="st2" x1="112.58" y1="27.51" x2="114.28" y2="30.85"/>
		<path class="st0" d="M198,73.84c0,0,0.49-1.5,2.24-1.78"/>
		<path class="st0" d="M266.8,78.95c0,0,7.24-1.23,9.83-2.87"/>
		<path class="st0" d="M281.01,73.57c0,0,3.85-1.39,4.7-2.03"/>
	</g>
	<path class="st2" d="M209.21,1141.37c0,0-8.68,7.64-9.1,15.19"/>
	<path class="st2" d="M226.22,1222.88c0,0-8.72-4.22-10.69-10.98"/>
	<path class="st0" d="M212.01,952.2c0,0-8.85-16.92-9.09-22.44"/>
	<path class="st0" d="M286.07,353.54c0,0,1.74,13.23,0,29.56"/>
	<line class="st2" x1="286.07" y1="387.92" x2="284.33" y2="403.38"/>
</g>
</svg>
