<?xml version="1.0" encoding="utf-8"?>
<!-- Generator: Adobe Illustrator 25.4.1, SVG Export Plug-In . SVG Version: 6.00 Build 0)  -->
<svg version="1.1" id="Layer_1" xmlns="http://www.w3.org/2000/svg" xmlns:xlink="http://www.w3.org/1999/xlink" x="0px" y="0px"
	 viewBox="0 0 1961.2 1202.1" style="enable-background:new 0 0 1961.2 1202.1;" xml:space="preserve">
<style type="text/css">
	.st0{fill:#F3614A;stroke:#261F26;stroke-width:5;stroke-linecap:round;stroke-linejoin:round;stroke-miterlimit:10;}
	.st1{fill:#261F26;}
	.st2{fill:none;stroke:#261F26;stroke-width:5;stroke-linecap:round;stroke-linejoin:round;stroke-miterlimit:10;}
	.st3{fill:#A780F1;}
	.st4{fill:#412587;}
	.st5{fill:#22AE95;stroke:#261F26;stroke-width:5;stroke-miterlimit:10;}
	.st6{fill:#096856;}
	.st7{fill:#FFEEDC;stroke:#261F26;stroke-width:5;stroke-linecap:round;stroke-linejoin:round;stroke-miterlimit:10;}
	.st8{fill:#FFFFFF;}
</style>
<g>
	<g>
		<path class="st0" d="M885.7,1060.4l-27.8,45.3h43.9l11.5,24c0,0,76.2-40.6,46.2-86.7s7-59,7-59l-113.2-12.9
			c0,0-39.3,103.3,71.6,90.4"/>
		<path class="st1" d="M852.4,1036.5c0,0,76-22.4,96.5-16.3v-27.3h-57.1l-50.9,7.7L852.4,1036.5z"/>
		<path class="st0" d="M1067,1118.9c0,0,23.2,50.2,24.9,54.3s-48.7-12.5-48.7-12.5l-10.4,36.1c0,0-69.5-51.4-36.5-91.6
			s-8.7-109.7-8.7-109.7l80-24.6c0,0,119.8,152.3-27.9,149.5"/>
		<path class="st1" d="M1005.5,1039.6c0,0,45.6-30,90.4-21.2l-3.6-22.8H987.5L1005.5,1039.6z"/>
		<polygon class="st1" points="1039.7,1120.6 1082.8,1153.2 1067,1118.9 		"/>
		<polygon class="st1" points="871.4,1086.6 921.8,1064.8 883.5,1062 		"/>
		<line class="st2" x1="1025" y1="1175.6" x2="1018.2" y2="1166.4"/>
		<line class="st2" x1="1090.5" y1="1022.3" x2="1093.6" y2="1029.8"/>
		<line class="st2" x1="1096" y1="1035.4" x2="1098.1" y2="1040.9"/>
		<path class="st0" d="M939.2,1022.3c0,0,0.6,5.3,3.4,7.5"/>
		<path class="st0" d="M917.8,1117.7c0,0,6.5-2.8,10.3-5.6"/>
	</g>
	<polygon class="st0" points="1931.7,261.2 1957.6,294 1931.3,295 	"/>
	<g>
		<path class="st3" d="M678.1,1021.4c-73.1,0-151.8-0.1-233.7-0.3c-2.2,0-4.3,0-6.5,0c-112.3,0-204.2-9.9-273.1-29.5
			c-51.2-14.6-89.1-34.2-112.6-58.2c-23.8-24.4-23.5-44.8-23.5-45l-0.9-528.2l-1.4-119.4c280.6-50.6,588.8-76.2,916-76.2
			c292.4,0,546.3,20.9,707.7,38.4c159.1,17.3,262,34.8,280.2,37.9l1.1,633c0.4,26.3-9.2,49.6-28.6,69.3
			c-38.6,39.2-109.5,57.9-162.3,66.7c-57.5,9.6-106.4,9.8-106.9,9.8l-546.2,0.2C1086.3,1020,966.5,1021.4,678.1,1021.4z"/>
		<path class="st1" d="M942.4,168c129,0,261.3,4,393.3,12c105.6,6.4,211.2,15.2,313.8,26.4c152,16.5,252.8,33.2,277.2,37.4
			l1.1,630.1v0.1c0.4,25.3-8.9,47.8-27.6,66.8c-16.6,16.9-40.8,31.3-71.8,43c-25.2,9.5-55,17.1-88.4,22.7
			c-57.2,9.6-105.9,9.8-106.4,9.8l-546.2,0.2h-0.1c-1.2,0-120.9,1.4-409.3,1.4c-73.1,0-151.8-0.1-233.8-0.3c-2.2,0-4.3,0-6.4,0
			c-111.6,0-202.9-9.8-271.4-29.2c-50.7-14.3-88.1-33.5-111.3-57.1c-22.6-22.9-23-42-23-42.9c0-0.1,0-0.1,0-0.2l-0.9-528.1
			c0,0,0,0,0-0.1l-1.4-116.4C309.5,193.5,616.5,168,942.4,168 M32.2,888.5L32.2,888.5L32.2,888.5 M942.4,161
			c-283,0-601.3,19.2-919.5,76.8l1.4,122.3l0.9,528.1c0,0-4.9,136.3,412.7,136.3c2.1,0,4.3,0,6.5,0c87.9,0.2,165.6,0.3,233.8,0.3
			c291.8,0,409.4-1.4,409.4-1.4l546.2-0.2c0,0,303.5-0.5,301.3-149.4c-0.3-168.1-1.1-636-1.1-636S1508.8,161,942.4,161L942.4,161z"
			/>
	</g>
	<g>
		<path class="st4" d="M1927.1,249.1l0.1,46.2c-355.6-61.7-1789.4-15-1899.8,7l-0.4-49C265,191,1688.8,187.7,1927.1,249.1z"/>
	</g>
	<polygon class="st4" points="506.8,263.8 31.5,438.5 30.8,253.6 	"/>
	<g>
		<path class="st5" d="M1927.8,253.6c-238.3-61.4-1667.5-61.2-1905.5,1.1C5,226.2,9.6,202.1,15,162.7
			c271.2-71,1647.1-71.1,1918.5-1.1C1943.5,206.2,1945,225.1,1927.8,253.6z"/>
	</g>
	<path class="st6" d="M936.3,105.8c-4.5,2.9-358.9,103.4-358.9,103.4l111.3-2.4l333.5-101.1C1022.2,105.8,936.3,105.8,936.3,105.8z"
		/>
	<polygon class="st4" points="1451.8,263.8 1927.2,438.5 1927.8,253.6 	"/>
	<g>
		<g>
			<path class="st1" d="M889.2,910.6c10.4,4.4,19.7,11.1,27.1,19.7c-14.9,4.6-32.8,3.6-49.3,4c-18.4-1.6-41.9,2.1-53.9-9.5
				c-13.3-11.2,10.4-53.5,59.2-51.2c46.4,3.1,63.7,42.4,51,52.1C910.1,914.3,889.1,910.2,889.2,910.6z"/>
			<path class="st2" d="M889.2,910.6c10.4,4.4,19.7,11.1,27.1,19.7c-14.9,4.6-32.8,3.6-49.3,4c-18.4-1.6-41.9,2.1-53.9-9.5
				c-13.3-11.2,10.4-53.5,59.2-51.2c46.4,3.1,63.7,42.4,51,52.1C910.1,914.3,889.1,910.2,889.2,910.6z"/>
		</g>
		<g>
			<path class="st1" d="M1110.3,910.2c10.4,4.4,19.7,11.1,27.1,19.7c-14.9,4.6-32.8,3.6-49.3,4c-18.4-1.6-41.9,2.1-53.9-9.5
				c-13.3-11.2,10.4-53.5,59.2-51.2c46.4,3.1,63.7,42.4,51,52.1C1131.2,914,1110.2,909.8,1110.3,910.2z"/>
			<path class="st2" d="M1110.3,910.2c10.4,4.4,19.7,11.1,27.1,19.7c-14.9,4.6-32.8,3.6-49.3,4c-18.4-1.6-41.9,2.1-53.9-9.5
				c-13.3-11.2,10.4-53.5,59.2-51.2c46.4,3.1,63.7,42.4,51,52.1C1131.2,914,1110.2,909.8,1110.3,910.2z"/>
		</g>
		<path class="st2" d="M975.7,925c-4.2,0-7.6-3.4-7.6-7.6c0-4.2,3.4-7.6,7.6-7.6c2.1,0,4,0.8,5.4,2.2"/>
		<g>
			<path class="st2" d="M863,865.9c0,0-1.1-6.1-5.4-9.1"/>
			<path class="st2" d="M873.6,865.9c0,0,1.8-9,0-10.9"/>
		</g>
		<g>
			<path class="st2" d="M1085.5,862c0,0-1.1-6.1-5.4-9.1"/>
			<path class="st2" d="M1095.5,862c0,0,1.8-9,0-10.9"/>
		</g>
		<g>
			<path class="st2" d="M1035.8,936.6c0,0-19.6,24.1,8.5,29.8"/>
			<g>
				<path class="st2" d="M1029.2,952.5c-6.9,3.8-13.6,6.8-20.1,9.1"/>
				<path class="st2" d="M905,951.5c0,0,14.1,10.1,37.1,15"/>
				<path class="st2" d="M979,968.6c-2.2,0.2-4.4,0.4-6.5,0.5"/>
				<path class="st7" d="M972.5,970c0.2,8.3-6.4,15.3-14.7,15.5c-8.4,0.2-15.3-6.4-15.5-14.7l-0.1-4.2c8.9,1.9,19.1,3,30.3,2.5V970z
					"/>
				<path class="st7" d="M1009.2,967.1c0.2,8.3-6.4,15.3-14.7,15.5c-8.1,0.2-14.9-6-15.5-14c9.4-1,19.5-3.1,30-6.9L1009.2,967.1z"/>
			</g>
		</g>
		<path class="st1" d="M1008.3,968.2c0.2,6.3-3.5,11.8-9,14.2c1.9-5.2,1.2-11.7,0.1-16.8c2.9-0.8,5.8-1.7,8.7-2.8L1008.3,968.2z"/>
		<path class="st1" d="M971.6,971.1c0.2,7.3-4.9,13.5-11.7,15.1c2.4-4.7,2.3-10.8,1.4-16c3.3,0.1,6.8,0.1,10.3,0V971.1z"/>
	</g>
	<path class="st6" d="M1057.1,113.5c4.5,2.9,351.6,96.3,351.6,96.3l-142.4-3.2L969,115.5L1057.1,113.5z"/>
	<path class="st2" d="M45.7,873.5c0,0,5.5,42.8,26.2,53.2"/>
	<path class="st2" d="M85.2,935.5c0,0,38.8,32.3,90.2,30.5"/>
	<path class="st0" d="M994.2,113.8c0,0,760.6,193,952.6,252.5l10.8-72.3c0,0-719.7-140.3-918.4-196.4L994.2,113.8z"/>
	<line class="st2" x1="1938.7" y1="357" x2="1929.3" y2="353.4"/>
	<line class="st2" x1="1922.5" y1="350.5" x2="1911.4" y2="345.6"/>
	<polygon class="st0" points="22.1,263.8 3.7,294 22.6,297.6 	"/>
	<path class="st0" d="M968,112.2c0,0-761.6,196.5-953.6,256L3.7,295.9c0,0,683.5-127.6,882.3-183.7H968L968,112.2z"/>
	<line class="st2" x1="29" y1="355.4" x2="38.7" y2="352.9"/>
	<line class="st2" x1="45.8" y1="350.8" x2="58" y2="347.2"/>
	<g>
		<g>
			<g>
				<path class="st0" d="M979.4,95.6c3.4,0.2,6.8,0.5,9.8,1.1c6.2,1.3,9,6,10.2,10.8l16.5,6.4c7.4,2.9,15.2,4.3,23.1,4.2
					c83.2-1.1,84.4-41.1,90.5-64.9c1.1-4.3,3-8.4,5.6-12.3c7.8-11.8,15.7-34,15.7-34c-42.3,3.4-101.4,24.6-143.7,32.2
					C972.2,45.3,976.7,82.6,979.4,95.6z M1000.3,100.2c0,0,10.5-48.8,56.8-50.4c0,0-12.1,7.8-6.6,20.2s9.9,13.9-28.7,26
					C1010.8,98.3,1000.3,100.2,1000.3,100.2z"/>
				<path class="st0" d="M950.8,36.5C908.5,28.8,849.3,7.6,807.1,4.2c0,0,7.9,22.2,15.7,34c2.6,3.9,4.5,8.1,5.5,12.3
					c6,23.6,7.3,63,87.7,64.9c9.5,0.2,18.9-1.4,27.7-4.8l14.6-5.7c1.3-4.7,4.1-9.5,10.2-10.8c3-0.6,6.3-0.9,9.8-1.1
					C981,80,985.5,42.7,950.8,36.5z M936,93.3c-38.6-12-34.2-13.6-28.7-26s-6.6-20.2-6.6-20.2c46.3,1.5,56.8,50.4,56.8,50.4
					S947,95.7,936,93.3z"/>
				<path class="st0" d="M999.3,105c-0.4,1.9-1.7,3.5-3.5,4.8l-0.1,0.1c-4.7,3.3-13.3,4.7-21.7,5.1c-3.3,0.2-6.5,0.2-9.5,0.2
					c-2.1,0-4.2-0.1-5.9-0.2c-4.6-0.2-8.1-3-7.8-6.2c0-0.1,0-0.1,0-0.2c0.1-1.5,0.4-3.1,0.8-4.7C953,99,955.8,94.2,962,93
					c3-0.6,6.3-0.9,9.8-1.1c2.8-0.1,5.7-0.1,8.5-0.1c3.4,0.1,6.6,0.3,9.2,0.5c4.8,0.4,8.7,2.9,9.7,6.2
					C999.6,100.4,999.9,102.6,999.3,105z"/>
			</g>
		</g>
		<line class="st2" x1="817.1" y1="13.2" x2="820.1" y2="19.8"/>
		<line class="st2" x1="823.1" y1="24.9" x2="825.7" y2="30.2"/>
		<path class="st0" d="M959.8,101.5c0,0,0.8-2.4,3.5-2.8"/>
		<path class="st0" d="M1068.6,109.3c0,0,11.5-1.9,15.6-4.5"/>
		<path class="st0" d="M1089.5,102c0,0,6.1-2.2,7.4-3.2"/>
	</g>
</g>
<polygon class="st8" points="840.1,871.5 842.6,874.8 846.4,876.3 843.2,878.6 841.7,882.4 839.2,879.2 835.4,877.7 838.6,875.4 "/>
<polygon class="st8" points="828,877 829.2,885.4 834.6,891.9 826.2,893 819.6,898.6 818.6,890.1 813,883.6 821.5,882.4 "/>
<polygon class="st8" points="1061.8,869.2 1065.2,871.7 1069.2,872 1066.9,875.2 1066.6,879.3 1063.2,876.8 1059.2,876.5 
	1061.6,873.3 "/>
<polygon class="st8" points="1051,875.5 1054.5,883.3 1061.7,888 1053.9,891.6 1049.2,898.6 1045.7,890.8 1038.6,886.3 
	1046.4,882.7 "/>
</svg>
