<?xml version="1.0" encoding="utf-8"?>
<!-- Generator: Adobe Illustrator 25.4.1, SVG Export Plug-In . SVG Version: 6.00 Build 0)  -->
<svg version="1.1" id="Layer_1" xmlns="http://www.w3.org/2000/svg" xmlns:xlink="http://www.w3.org/1999/xlink" x="0px" y="0px"
	 viewBox="0 0 796.2 1221.7" style="enable-background:new 0 0 796.2 1221.7;" xml:space="preserve">
<style type="text/css">
	.st0{fill:#F3614A;stroke:#261F26;stroke-width:5;stroke-linecap:round;stroke-linejoin:round;stroke-miterlimit:10;}
	.st1{fill:#261F26;}
	.st2{fill:none;stroke:#261F26;stroke-width:5;stroke-linecap:round;stroke-linejoin:round;stroke-miterlimit:10;}
	.st3{fill:#A780F1;}
	.st4{fill:#412587;}
	.st5{fill:#22AE95;stroke:#261F26;stroke-width:5;stroke-miterlimit:10;}
	.st6{fill:#096856;}
	.st7{fill:#FFEEDC;stroke:#261F26;stroke-width:5;stroke-linecap:round;stroke-linejoin:round;stroke-miterlimit:10;}
	.st8{fill:#FFFFFF;}
</style>
<g>
	<g>
		<path class="st0" d="M296,1070.2l-27.8,45.3h43.9l11.5,24c0,0,76.2-40.6,46.2-86.7c-30-46.1,7-59,7-59l-113.2-12.9
			c0,0-39.3,103.3,71.6,90.4"/>
		<path class="st1" d="M262.7,1046.3c0,0,76-22.4,96.5-16.3v-27.3h-57.1l-50.9,7.7L262.7,1046.3z"/>
		<path class="st0" d="M477.4,1128.8c0,0,23.2,50.2,24.9,54.3s-48.7-12.5-48.7-12.5l-10.4,36.1c0,0-69.5-51.4-36.5-91.6
			s-8.7-109.7-8.7-109.7l80-24.6c0,0,119.8,152.3-27.9,149.5"/>
		<path class="st1" d="M415.9,1049.4c0,0,45.6-30,90.5-21.2l-3.6-22.8l-104.8,0L415.9,1049.4z"/>
		<polygon class="st1" points="450.1,1130.4 493.2,1163 477.4,1128.8 		"/>
		<polygon class="st1" points="281.8,1096.4 332.2,1074.7 293.9,1071.8 		"/>
		<line class="st2" x1="435.3" y1="1185.4" x2="428.6" y2="1176.2"/>
		<line class="st2" x1="500.9" y1="1032.1" x2="504" y2="1039.6"/>
		<line class="st2" x1="506.3" y1="1045.2" x2="508.5" y2="1050.7"/>
		<path class="st0" d="M349.6,1032.1c0,0,0.6,5.3,3.4,7.5"/>
		<path class="st0" d="M328.1,1127.5c0,0,6.5-2.8,10.3-5.6"/>
	</g>
	<polygon class="st0" points="768.6,273.6 787.1,303.8 768.2,307.4 	"/>
	<g>
		<path class="st3" d="M318.3,1032.9c-38.1,0-80.4-0.2-125.6-0.6c-61.1-0.5-105.8-16.5-132.8-47.5c-33.2-38.1-27.5-86-27.5-86.5
			c0-0.1,0-0.2,0-0.3l-0.9-528.1l-0.7-120.7c107.7-49.7,226-74.9,351.5-74.9c113.9,0,212.8,21.1,275.8,38.9
			c61.2,17.2,101.2,34.7,109.1,38.2l1.1,634.4c0.3,49.3-12.4,87.3-37.8,112.9c-32.9,33.2-76,33.6-76.4,33.6l-211.9-0.4
			C441.7,1031.9,405,1032.9,318.3,1032.9C318.3,1032.9,318.3,1032.9,318.3,1032.9z"/>
		<path class="st1" d="M382.3,176.8c50.1,0,101.5,4.1,152.9,12.1c41.1,6.4,82.2,15.4,122.1,26.6c58,16.3,96.9,32.8,107.4,37.5
			l1.1,632.8c0.3,48.5-12.1,85.8-37,111c-16.7,16.9-36.1,25-49.4,28.8c-14.6,4.2-25.3,4.2-25.4,4.2l-211.9-0.4h0c0,0-0.1,0-0.1,0
			c-0.4,0-37.1,1-123.7,1c-38.1,0-80.3-0.2-125.6-0.6c-60.3-0.5-104.3-16.2-130.9-46.5C44.9,964,38.4,942.1,36,927.1
			c-2.7-16.4-1.2-28.3-1.2-28.4c0-0.2,0-0.4,0-0.6l-0.9-528.2l-0.7-119.1C140.2,201.7,257.6,176.8,382.3,176.8 M382.3,171.8
			c-109.1,0-231.6,19-354,75.8l0.7,122.3l0.9,528.1c0,0-17.3,135.3,162.8,136.8c50.2,0.4,91.8,0.6,125.7,0.6c87.7,0,123.9-1,123.9-1
			l211.9,0.4c0,0,117.8-0.2,116.7-149c-0.3-168.1-1.1-636-1.1-636S603.3,171.8,382.3,171.8L382.3,171.8z"/>
	</g>
	<g>
		<path class="st4" d="M765.3,264.5l0.1,46.2c-355.6-61.7-622.3-20.5-732.7,1.4l-0.3-49.1C270.4,200.8,527.1,203,765.3,264.5z"/>
	</g>
	<g>
		<path class="st5" d="M769.2,263.2c-238.3-61.4-503.4-61-741.4,1.3c-17.3-28.5-12.7-52.6-7.3-92c271.2-71,483-71.3,754.4-1.3
			C784.8,215.8,786.3,234.6,769.2,263.2z"/>
	</g>
	<polygon class="st6" points="342.8,118.6 378.4,118.4 301.6,218.2 250.3,222.1 	"/>
	<polygon class="st6" points="426.5,119.1 390.9,119 467.4,216.4 518.5,219.3 	"/>
	<g>
		<path class="st4" d="M552.5,259.6c0,0,129,135.8,212.9,131.4l-0.2-112.3L552.5,259.6z"/>
	</g>
	<g>
		<g>
			<path class="st1" d="M299.6,920.4c10.4,4.4,19.7,11.1,27.1,19.7c-14.9,4.6-32.8,3.6-49.3,4c-18.4-1.6-41.9,2.1-53.9-9.5
				c-13.3-11.2,10.4-53.5,59.2-51.2c46.4,3.1,63.7,42.4,51,52.1C320.5,924.1,299.5,920,299.6,920.4z"/>
			<path class="st2" d="M299.6,920.4c10.4,4.4,19.7,11.1,27.1,19.7c-14.9,4.6-32.8,3.6-49.3,4c-18.4-1.6-41.9,2.1-53.9-9.5
				c-13.3-11.2,10.4-53.5,59.2-51.2c46.4,3.1,63.7,42.4,51,52.1C320.5,924.1,299.5,920,299.6,920.4z"/>
		</g>
		<g>
			<path class="st1" d="M520.7,920c10.4,4.4,19.7,11.1,27.1,19.7c-14.9,4.6-32.8,3.6-49.3,4c-18.4-1.6-41.9,2.1-53.9-9.5
				c-13.3-11.2,10.4-53.5,59.2-51.2c46.4,3.1,63.7,42.4,51,52.1C541.5,923.8,520.6,919.6,520.7,920z"/>
			<path class="st2" d="M520.7,920c10.4,4.4,19.7,11.1,27.1,19.7c-14.9,4.6-32.8,3.6-49.3,4c-18.4-1.6-41.9,2.1-53.9-9.5
				c-13.3-11.2,10.4-53.5,59.2-51.2c46.4,3.1,63.7,42.4,51,52.1C541.5,923.8,520.6,919.6,520.7,920z"/>
		</g>
		<path class="st2" d="M386.1,934.8c-4.2,0-7.6-3.4-7.6-7.6c0-4.2,3.4-7.6,7.6-7.6c2.1,0,4,0.8,5.4,2.2"/>
		<g>
			<path class="st2" d="M273.4,875.7c0,0-1.1-6.1-5.4-9.1"/>
			<path class="st2" d="M284,875.7c0,0,1.8-9,0-10.9"/>
		</g>
		<g>
			<path class="st2" d="M495.9,871.8c0,0-1.1-6.1-5.4-9.1"/>
			<path class="st2" d="M505.9,871.8c0,0,1.8-9,0-10.9"/>
		</g>
		<g>
			<path class="st2" d="M446.2,946.4c0,0-19.6,24.1,8.5,29.8"/>
			<g>
				<path class="st2" d="M439.6,962.3c-6.9,3.8-13.6,6.8-20.1,9.1"/>
				<path class="st2" d="M315.4,961.3c0,0,14.1,10.1,37.1,15"/>
				<path class="st2" d="M389.4,978.4c-2.2,0.2-4.4,0.4-6.5,0.5"/>
				<path class="st7" d="M382.9,979.8c0.2,8.3-6.4,15.3-14.7,15.5c-8.4,0.2-15.3-6.4-15.5-14.7l-0.1-4.2c8.9,1.9,19.1,3,30.3,2.5
					L382.9,979.8z"/>
				<path class="st7" d="M419.6,976.9c0.2,8.3-6.4,15.3-14.7,15.5c-8.1,0.2-14.9-6-15.5-14c9.4-1,19.5-3.1,30-6.9L419.6,976.9z"/>
			</g>
		</g>
		<path class="st1" d="M418.6,978c0.2,6.3-3.5,11.8-9,14.2c1.9-5.2,1.2-11.7,0.1-16.8c2.9-0.8,5.8-1.7,8.7-2.8L418.6,978z"/>
		<path class="st1" d="M381.9,980.9c0.2,7.3-4.9,13.5-11.7,15.1c2.4-4.7,2.3-10.8,1.4-16c3.3,0.1,6.8,0.1,10.3,0L381.9,980.9z"/>
	</g>
	<path class="st2" d="M47.2,928.4c0,0,5.5,42.8,26.2,53.2"/>
	<path class="st2" d="M82.9,993c0,0,39.8,31.1,91.1,27.8"/>
	<path class="st0" d="M407.3,119c0,0,177,197.6,369,257.1l10.8-72.3c0,0-283.5-101.5-348-181.5L407.3,119z"/>
	<line class="st2" x1="768.2" y1="366.8" x2="758.9" y2="363.2"/>
	<line class="st2" x1="752" y1="360.4" x2="740.9" y2="355.4"/>
	<g>
		<path class="st4" d="M250.3,247.6c0,0-133.8,143.1-217.8,138.7L32.7,274L250.3,247.6z"/>
	</g>
	<polygon class="st0" points="27.5,273.6 9.1,303.8 28,307.4 	"/>
	<path class="st0" d="M361.2,119c0,0-150.6,201.6-342.7,261.1l-9.4-76.3c0,0,233.7-77,320.3-181.5L361.2,119z"/>
	<line class="st2" x1="26.9" y1="367.6" x2="36.3" y2="364"/>
	<line class="st2" x1="43.1" y1="361.1" x2="54.7" y2="356.1"/>
	<g>
		<g>
			<g>
				<path class="st0" d="M388.5,105.4c3.4,0.2,6.8,0.5,9.8,1.1c6.2,1.3,9,6,10.2,10.8l15.2,5.9c8.2,3.2,17,4.8,25.9,4.7
					c81.7-1.5,83-41.2,89-64.9c1.1-4.3,3-8.4,5.5-12.3c7.8-11.8,15.7-34,15.7-34C517.5,20,458.4,41.2,416.1,48.9
					C381.3,55.2,385.8,92.4,388.5,105.4z M409.4,110c0,0,10.5-48.8,56.8-50.4c0,0-12.1,7.8-6.6,20.2c5.5,12.4,9.9,13.9-28.7,26
					C419.8,108.1,409.4,110,409.4,110z"/>
				<path class="st0" d="M359.8,46.2C317.6,38.6,258.4,17.4,216.2,14c0,0,7.9,22.2,15.7,34c2.6,3.9,4.5,8.1,5.6,12.3
					c6,23.4,7.3,62.5,86.3,64.8c10.4,0.3,20.8-1.6,30.5-5.3l13.3-5.2c1.3-4.7,4.1-9.5,10.2-10.8c3-0.6,6.3-0.9,9.8-1.1
					C390.1,89.8,394.6,52.5,359.8,46.2z M345,103.1c-38.6-12-34.2-13.6-28.7-26c5.5-12.4-6.6-20.2-6.6-20.2
					c46.3,1.5,56.8,50.4,56.8,50.4S356.1,105.5,345,103.1z"/>
				<path class="st0" d="M408.4,114.8c-0.4,1.9-1.7,3.5-3.5,4.8c0,0-0.1,0.1-0.1,0.1c-4.7,3.3-13.3,4.7-21.7,5.1
					c-3.3,0.2-6.5,0.2-9.5,0.2c-2.1,0-4.1-0.1-5.9-0.2c-4.6-0.2-8.1-3-7.8-6.2c0-0.1,0-0.1,0-0.2c0.1-1.5,0.4-3.1,0.8-4.7
					c1.3-4.7,4.1-9.5,10.2-10.8c3-0.6,6.3-0.9,9.8-1.1c2.8-0.1,5.7-0.1,8.5-0.1c3.4,0.1,6.6,0.3,9.2,0.5c4.8,0.4,8.7,2.9,9.7,6.2
					C408.7,110.2,409,112.4,408.4,114.8z"/>
			</g>
		</g>
		<line class="st2" x1="226.2" y1="23" x2="229.2" y2="29.6"/>
		<line class="st2" x1="233.2" y1="35.9" x2="235.9" y2="41.2"/>
		<path class="st0" d="M368.5,111.4c0,0,0.8-2.4,3.5-2.8"/>
		<path class="st0" d="M477.5,118.3c0,0,11.5-1.9,15.6-4.5"/>
		<path class="st0" d="M500.3,111.4c0,0,6.1-2.2,7.5-3.2"/>
	</g>
</g>
<polygon class="st8" points="247,888.1 248.7,890.4 251.3,891.4 249.1,893 248.1,895.6 246.4,893.4 243.8,892.4 246,890.7 "/>
<polygon class="st8" points="238.7,890.1 239.5,895.9 243.2,900.3 237.5,901.1 233,904.9 232.3,899.1 228.5,894.7 234.3,893.9 "/>
<polygon class="st8" points="465.4,885.6 467.6,887.4 470.4,887.6 468.7,889.8 468.4,892.6 466.2,890.9 463.4,890.6 465.2,888.4 "/>
<polygon class="st8" points="457.9,889.8 460.2,895.2 465.1,898.4 459.7,900.7 456.5,905.5 454.2,900.2 449.3,897 454.7,894.7 "/>
</svg>
