<?xml version="1.0" encoding="utf-8"?>
<!-- Generator: Adobe Illustrator 25.4.1, SVG Export Plug-In . SVG Version: 6.00 Build 0)  -->
<svg version="1.1" id="Layer_1" xmlns="http://www.w3.org/2000/svg" xmlns:xlink="http://www.w3.org/1999/xlink" x="0px" y="0px"
	 viewBox="0 0 360 454" style="enable-background:new 0 0 360 454;" xml:space="preserve">
<style type="text/css">
	.st0{fill:#F3614A;stroke:#261F26;stroke-width:1.826;stroke-linecap:round;stroke-linejoin:round;stroke-miterlimit:10;}
	.st1{fill:#261F26;}
	.st2{fill:none;stroke:#261F26;stroke-width:1.826;stroke-linecap:round;stroke-linejoin:round;stroke-miterlimit:10;}
	.st3{fill:#22AE95;}
	.st4{fill:#FFFFFF;}
	.st5{fill:none;stroke:#261F26;stroke-width:1.1607;stroke-linecap:round;stroke-linejoin:round;stroke-miterlimit:10;}
	.st6{fill:#A780F1;stroke:#261F26;stroke-width:2.0769;stroke-linecap:round;stroke-linejoin:round;stroke-miterlimit:10;}
	.st7{fill:#412587;stroke:#261F26;stroke-width:2.0769;stroke-miterlimit:10;}
	.st8{fill:#412587;}
	.st9{fill:#22AE95;stroke:#261F26;stroke-width:2.0769;stroke-linecap:round;stroke-linejoin:round;stroke-miterlimit:10;}
	.st10{fill:#F3614A;stroke:#261F26;stroke-width:2.0769;stroke-linecap:round;stroke-linejoin:round;stroke-miterlimit:10;}
	.st11{fill:none;stroke:#261F26;stroke-width:2.0769;stroke-linecap:round;stroke-linejoin:round;stroke-miterlimit:10;}
	.st12{fill:#261F26;stroke:#261F26;stroke-width:2.0769;stroke-linecap:round;stroke-linejoin:round;stroke-miterlimit:10;}
	.st13{fill:#FFFFFF;stroke:#261F26;stroke-width:1.9089;stroke-linecap:round;stroke-linejoin:round;stroke-miterlimit:10;}
	.st14{fill:#FFFFFF;stroke:#261F26;stroke-width:1.9418;stroke-linecap:round;stroke-linejoin:round;stroke-miterlimit:10;}
	.st15{fill:#F3614A;}
	.st16{opacity:0.46;}
	.st17{clip-path:url(#SVGID_00000003818817328973370140000002232458922767904689_);fill:#F3614A;}
	.st18{clip-path:url(#SVGID_00000098211594478591912590000004824676617553629085_);fill:#F3614A;}
	.st19{clip-path:url(#SVGID_00000161594000488532668490000002191445331180614067_);fill:#F3614A;}
	.st20{clip-path:url(#SVGID_00000157304238043988269690000002333086311373759142_);fill:#F3614A;}
</style>
<g>
	<g>
		<path class="st0" d="M133.8,142.3c0.3-6.5-97.2,30.8-128.1-58.1C-4.3,52.5,18,4.2,18,4.2l10.2,24.9L56.9,9
			c0,0-38.2,89.5,68.3,96.7"/>
		<path class="st1" d="M58.5,139.1c0,0,20.4,5.6,30.7-19.7l38.1-10.7l8.7,32.2C136,140.9,80.5,149.5,58.5,139.1z"/>
		<g>
			<g>
				<path class="st0" d="M167.2,323.2c-0.4,0.1-0.6,7.3-12.2-17.6c-2.8-6-5.3-21.3-3.6-40.6c1.4-19.4,6.8-42.9,14.3-66
					c7.3-23.1,16.6-45.8,20.6-64.2c3.7-18.4,2-32.4-18.1-38.6c-3.6-1.1-11.4-0.7-16.2,0.8c-17.9,5.9-22.9,7.6-44.1,12.9
					c-18.4,4.5-18.4,11.9-18.4,11.7c-0.4,0,11.2-8.1,22.6-7.3c11.4,0.6,22.8,10.3,22.3,42c0.4,15.7-4.1,35.4-6.8,55.7
					c-3,20.4-4.2,41.4-2.8,59.9c2.7,37.6,15.9,63.3,26,63.7c2.4-8.5,6-10,9.2-10.6C163.3,324.2,167.2,323.2,167.2,323.2z"/>
			</g>
			<path class="st1" d="M142,305c-1.5,1.9,8.8,14-3.1,20.5c6.1,8.8,9.4,14.3,14.7,23.6c4.1-7.2,9.6-14,16.7-20.1
				C166.4,322,147.4,311.4,142,305z"/>
			<path class="st1" d="M170.4,329c-4.1-7-23-17.6-28.4-23.9c-1.5,1.9,4.4,13.3-3.1,20.5"/>
		</g>
		<path class="st0" d="M165.5,99.4c0,0,18.5,6.7,16.7,21.7"/>
		<path class="st0" d="M139.7,319c0,0-2.8-3.9-4.4-9.5"/>
		<path class="st0" d="M134,305.2c-0.4-1.8-0.9-3.6-1.3-5.4"/>
	</g>
	<g>
		<path class="st0" d="M274,167.9c0,0,38.7,40.1,63.6,14c24.9-26.2,18.5-66.4,18.5-66.4l-22.3,12.4l-22.9-20.3
			c0,0,12.5,44.1-25,42.2L274,167.9z"/>
		<g>
			<path class="st1" d="M281.5,174.6c0,0,12.1-8.6,24.8-2.6l1-13.2l-32.8-4.9l-2.8,11.9L281.5,174.6z"/>
			<g>
				<path class="st0" d="M212.6,327.8c0.3,0.1-0.7,6,12.5-14.5c3.2-4.9,7.7-17.4,9.6-33.4c2.1-15.9,1.8-35.2-0.3-54.2
					c-1.9-19-5.5-37.6-5.6-52.6c0.1-15.1,3.8-26.5,20.7-31.7c3-0.9,9.1-0.6,12.6,0.6c13.1,4.8,16.5,6.9,32.6,10.5
					c18.1,4.8,12.5,9.8,12.6,9.6c0.3,0-7.4-6.7-16.6-6c-9.1,0.5-19.6,8.5-24.5,34.5c-2.9,12.9-2.6,29-3.8,45.7
					c-1,16.7-3.5,34-7.7,49.1c-8.4,30.8-23,51.9-31,52.3c-0.5-7-3.1-8.2-5.5-8.7C215.5,328.6,212.6,327.8,212.6,327.8z"/>
			</g>
			<path class="st1" d="M233.8,313.6c0.8,1.5-6.5,13,3.2,13.2c-6.3,7.2-12.3,14.7-18,22.3c-2-5.9-5.3-11.5-9.9-16.5
				C213.4,326.8,228.4,318.8,233.8,313.6z"/>
		</g>
		<path class="st0" d="M234.9,324.4c0,0,2.9-3.2,5-7.8"/>
		<path class="st0" d="M241.7,313.1c0.6-1.5,1.3-3,1.9-4.5"/>
		<path class="st0" d="M234.6,157.5c0,0,7.8-13.4,21.8-12.8"/>
		<path class="st2" d="M307.2,162.3c0,0-2.8,26.3,10.2,28.4"/>
	</g>
	<g>
		<g>
			<path class="st3" d="M250.5,251.1c-0.2,0-0.5,0-0.7,0c-7.7-0.5-8.9-4.1-8.9-6.2c0-8.1,13.2-11.5,18.4-11.5c1.4,0,4.8,0.2,6.9,2.4
				c1.1,1.1,1.6,2.5,1.6,4C267.8,246.7,256.4,251.1,250.5,251.1L250.5,251.1z"/>
			<path class="st1" d="M259.4,235.2c2.9,0,6.7,1.1,6.7,4.6c-0.1,5.6-10.5,9.6-15.6,9.6c-0.2,0-0.4,0-0.6,0
				c-2.7-0.2-7.1-0.9-7.1-4.4C242.8,238.5,254.3,235.2,259.4,235.2 M259.4,231.5c-6,0-20.3,3.9-20.3,13.4c0,2.2,1,7.5,10.6,8.1
				c0.2,0,0.5,0,0.8,0c3.3,0,7.7-1.2,11.3-3.1c5-2.6,7.8-6.2,7.9-10.1c0-2-0.7-3.9-2.1-5.3C265,231.8,261,231.5,259.4,231.5
				L259.4,231.5z"/>
		</g>
		<g>
			<path class="st3" d="M280.2,296.6c-7,0-12.9-2.4-16.4-6.8c-4.4,4.3-13.3,6.3-16.6,6.3c-4.1,0-8.3-2.6-8.3-7v0
				c-1.7,1.5-3.9,2.7-5.8,3.6c-4.3,2-9.6,3.5-12.5,3.5c-4.9,0-8.2-2.2-9.4-6c-4.3,3.7-11.7,6-14.8,6c-6.1,0-6.6-4.2-6.9-6.3v0
				c-0.3,0.3-0.7,0.6-1,0.9c-2.4,2.2-6.5,5.8-12.7,5.8c-4.2,0-7.6-1.9-9.7-5.3c-4.4,3.2-11.4,4.8-14.7,4.8c-4.7,0-7.6-2.8-7.6-7.2
				c0-2.9,0.7-6.3,1.3-9.5c0.3-1.5,0.6-3,0.8-4.3l0.9-7c0-0.6-0.2-0.6-0.4-0.6c-4.1,0-5.2,11.3-5.5,15.1l0,0.4
				c-0.9,10.1-3.6,12.5-14.6,13.1c-0.3,0-0.5,0-0.8,0c-4.4,0-7-2.2-7-6c0-1.8,0.6-4.9,1.4-8.5c0.2-0.7,0.3-1.4,0.4-2.2
				c-4.3,10.3-14.4,17.2-26.9,17.2c-10.1,0-17.4-5-19.5-12.9c-4.6,6.1-12.6,11.9-26.9,11.9H28.9c-1,0-2.2,0.1-3.3,0.2l-0.2,0
				c-1.2,0.1-2.3,0.1-3.5,0.1c-5.4,0-8.1-2.2-8.1-6.6c0-4.3,2.7-5.2,4.2-5.7c1.3-0.4,1.9-0.7,2.3-1.8c1.9-6.1,4.5-25.1,4.5-31.2
				c0-2.2-0.5-2.4-1.8-2.9c-1.3-0.5-3.6-1.3-3.6-4.8c0-7.2,7.4-7.2,9.8-7.2c0.3,0,0.7,0,1,0c1.2,0,2.4,0,3.6,0
				c4.1,0,8.6-0.1,12.9-0.2c2.4-0.1,4.8-0.1,7.1-0.2c0.4,0,0.8,0,1.1,0c16.5,0,25.1,8.2,25.7,24.5c5.4-5.9,13.2-9.3,21.8-9.3
				c7.2,0,13.1,2.5,16.6,6.9c0.7-0.6,1.6-1.2,2.7-1.8c3.5-2.1,11.2-4.6,15.5-4.6c4.4,0,5.1,3.8,5.5,5.9c0.1,0.3,0.1,0.6,0.2,0.9
				c0.6-0.3,1.4-0.9,2.1-1.4c3.1-2.2,7.9-5.5,13-5.5c5.4,0,11,3.3,11,9.6c0,1.3-0.1,2.8-0.4,4.4c4.3-7.8,11.2-13.2,19-14
				c0.4,0,0.9-0.1,1.3-0.1c3.4,0,5.7,1.4,7.3,2.4c0.7,0.4,1.4,0.9,1.8,0.9c0.4,0,1.5-0.7,1.9-0.9l0.3-0.2c2.6-1.3,4.9-2.3,7.7-2.3
				c2,0,3.2,0.6,4,1.4c0.9-0.4,1.9-0.7,3-0.8c1.3-0.2,1.3-0.2,2.4-3.5c0.8-2.6,1.9-5.5,4.7-6.9c3.5-1.7,8.3-2,10.8-2
				c3.1,0,4.9,1.8,4.9,4.8v0.1l0,0.1c0,0.4-0.1,1.1-0.2,1.8c-0.2,1.8-0.5,4.4-0.5,5.4c0.1,0,0.2,0,0.4,0c0.4,0,0.8,0,1.2-0.1
				c0.5,0,1.1-0.1,1.6-0.1c3.6,0,3.8,2.7,3.8,3.3c0,0.1,0,0.2,0,0.4c0.3-0.1,0.5-0.2,0.8-0.3c4.1-1.7,10.3-3.5,14.8-3.5
				c3.5,0,5.4,2,5.4,5.5c0,2.1-0.4,5.2-0.8,7.7c5-8.3,14.1-13.6,25.1-13.6c7.2,0,13.1,2.5,16.6,6.9c0.7-0.6,1.6-1.2,2.7-1.8
				c3.5-2.1,11.2-4.6,15.5-4.6c4.4,0,5.1,3.8,5.5,5.9c0,0.3,0.1,0.6,0.2,0.9c0.6-0.3,1.4-0.9,2.1-1.4c3.1-2.2,7.9-5.5,13-5.5
				c5.5,0,11,3.3,11,9.6c0,3.1-0.8,7.2-1.5,11.2c-0.7,3.5-1.3,6.9-1.3,9c0,0.1,0,0.2,0,0.2c0.1,0.1,0.4,0.2,0.6,0.2
				c1,0.3,3.2,1,3.2,3.9c0,3.3-2.7,6.3-7.7,8.5c-4.1,1.8-8.4,2.6-10.8,2.6c-4.7,0-7.6-2.8-7.6-7.2c0-2.9,0.7-6.3,1.3-9.5
				c0.3-1.5,0.6-3,0.8-4.3l0.9-7c0-0.6-0.2-0.6-0.4-0.6c-4.1,0-5.2,11.3-5.5,15.1l0,0.4c-0.9,10.1-3.6,12.5-14.6,13.1
				c-0.3,0-0.5,0-0.8,0c-4.4,0-7-2.2-7-6c0-1.8,0.6-4.9,1.4-8.5c0.1-0.7,0.3-1.4,0.5-2.2C302.8,289.7,292.6,296.6,280.2,296.6z
				 M286.5,262.5c-1.6,0-2.4,3.6-2.8,5.5l-0.1,0.7c-1,4.8-1.6,10-1.6,13.8c0,1.9,0.5,1.9,0.7,1.9c1.5,0,2.1-2.7,2.6-5.2l0.1-0.6
				c0.5-2.4,1.9-9.6,1.9-14C287.4,262.5,286.8,262.5,286.5,262.5z M99.8,262.5c-1.6,0-2.4,3.6-2.8,5.5l-0.2,0.7
				c-1,4.8-1.6,10-1.6,13.8c0,1.9,0.5,1.9,0.7,1.9c1.5,0,2.1-2.7,2.6-5.2l0.1-0.6c0.5-2.4,1.9-9.6,1.9-14
				C100.6,262.5,100.1,262.5,99.8,262.5z M45.7,282.1c0,0,0.2,0.1,0.7,0.1c9.2,0,9.9-17.4,9.9-22.7c0-8-1.8-11.3-6-11.3
				c-2,0-2.4,0.6-2.6,4.1c0,0.6-0.1,1.2-0.2,1.8l-2.1,25.4l0,0.4C45.4,280.6,45.5,281.8,45.7,282.1L45.7,282.1z M210.7,280.6
				c0.2,0,0.4,0.1,0.6,0.1c0.1-0.6,0.2-1.2,0.3-1.8l2.4-14.1c0.1-0.6,0.2-1,0.2-1.4c-0.2,0-0.7,0-1.3,0c-0.3,0-0.5,0-0.8,0
				c0,0.1,0,0.1,0,0.2c-0.5,3.8-1.1,8.1-1.5,12.9c0,0.2,0,0.5-0.1,0.7c-0.1,0.9-0.2,2.5,0,3.4L210.7,280.6z M192.9,263.5
				c-2.7,1.1-7.5,10.8-7.4,15.5c0,0.6,0.1,1,0.1,1.3c2.6-1,7.5-12.2,7.4-16C193,263.9,192.9,263.7,192.9,263.5z M237.3,263
				c-0.8,0-1.7,0.1-1.8,0.3c-0.4,0.5-0.8,2.6-1.2,5l-1,8l0,0.1c-0.4,1.8-0.2,2.9,0.1,3.3c0.1,0.1,0.1,0.1,0.4,0.1
				c0.6,0,1.3-0.3,2-0.7c0.8-0.4,1.6-0.8,2.6-0.8c0.7,0,1.4,0.2,1.9,0.5l1.2-8.1c0.1-0.6,0.2-1.2,0.3-1.8c0.2-0.8,0.3-1.6,0.4-2.2
				H242C238.7,266.7,237.6,264.9,237.3,263z"/>
			<path class="st1" d="M55,237c9,0,23.9,2.2,23.9,24.2c0,1.2-0.1,2.6-0.2,4.2c4.6-8.1,13.5-13.3,23.8-13.3c7.2,0,13.4,2.8,16.4,8.2
				c0.7-1.5,2.4-2.5,3.7-3.3c3.4-2,10.8-4.4,14.6-4.4c4.9,0,2.7,7.1,5.2,7.1c2,0,8.6-7.1,15.6-7.1c4.7,0,9.1,2.7,9.1,7.8
				c0,5.7-2.8,15.3-2.8,20.2c0,1.3,0.7,1.8,1.4,2c0-0.3,0-0.6,0-0.9c0.6-14.5,9.6-27.9,22-29.1c0.4,0,0.8-0.1,1.1-0.1
				c4.8,0,6.9,3.4,9.1,3.4c0.9,0,2.3-0.9,3.1-1.3c2.2-1.1,4.3-2.1,6.8-2.1c2,0,3.1,0.6,3.3,2.3c0.8-1,2.1-1.6,3.9-1.8
				c2.6-0.3,2.8-1.1,3.9-4.8c0.7-2.4,1.6-4.7,3.8-5.8c2.8-1.4,6.9-1.8,10-1.8c2,0,3.1,0.9,3.1,3c-0.2,1.6-0.7,6.2-0.7,7.5
				c0,1.4,0.9,1.7,2.2,1.7c0.9,0,1.9-0.1,2.8-0.1c1,0,2,0.2,2,1.4c0,1.1-0.2,2.4-0.4,3.5c0,0,0,0.1,0,0.1c1.2-0.8,2.6-1.4,3.8-1.9
				c3.8-1.6,9.9-3.4,14-3.4c2.5,0,3.6,1.3,3.6,3.7c0,3.5-1.2,10.3-1.4,11.4c-0.2,0.9-1.6,10.1-2,13.2c-0.2,1.5,0.9,1.5,2.2,1.5
				c0.1,0,0.3,0,0.4,0c-0.2-1.1-0.4-2.3-0.4-3.6c0-15.3,12-26.6,27.3-26.6c7.2,0,13.4,2.8,16.4,8.2c0.7-1.5,2.4-2.5,3.7-3.3
				c3.4-2,10.8-4.4,14.6-4.4c4.9,0,2.7,7.1,5.2,7.1c2,0,8.6-7.1,15.6-7.1c4.7,0,9.1,2.7,9.1,7.8c0,5.7-2.8,15.3-2.8,20.2
				c0,3.2,3.9,1.2,3.9,4.3c0,5.9-12.1,9.3-16.7,9.3c-3.5,0-5.8-1.8-5.8-5.4c0-4.1,1.4-9.3,2.1-13.5l1-7.1c0-1.4-0.7-2.6-2.2-2.6
				c-5.9,0-6.9,12.2-7.4,17.1c-0.8,8.8-2.6,10.9-12.9,11.5c-0.2,0-0.5,0-0.7,0c-2.7,0-5.2-0.9-5.2-4.2c0-4,3.7-16,3.5-23
				c0-1.6-0.6-2.6-2.2-2.6h-0.8c-0.1,0-0.2,0-0.4,0c0.2,1.1,0.4,2.3,0.4,3.6c0,15.3-12,26.6-27.3,26.6c-7.1,0-13.3-2.7-16.3-8
				c-2.6,4.7-12.7,7.5-16.6,7.5c-3.1,0-6.5-1.9-6.5-5.2c0-1.5,0.2-3,0.5-4.5l2.1-13.6c0.3-1.9,0.7-3.4,0.7-4.4s-0.4-1.6-1.8-1.6
				c-0.1,0-0.1,0-0.2,0c-1.2,0-2.9-0.1-2.9-2.8c0-0.3,0-0.6,0.1-0.9c-0.3,0-0.6,0-0.9,0c-4.5,0-4.6,0.2-5.7,6.7l-1,8
				c-0.8,3.5,0.2,5.7,2.2,5.7c1.9,0,3.4-1.5,4.6-1.5c1.7,0,2.2,1.5,2.2,2.9c0,6.3-15.2,11.4-19.9,11.4c-4.8,0-8-2.3-8-7.5
				c0-2.6,0.4-5.1,0.8-7.6l2.4-14.1c0.6-3.1,0.3-3.5-2.9-3.5c-1.1,0-1.9-0.2-2.4-0.7c-0.6,4.3-1.4,9.5-1.8,15.5
				c-0.1,1.3-0.4,3.9,0.1,5.1c0.3,1,0.9,0.9,1.8,1c1.2,0.2,2,0.7,2,2c0,5.2-11.7,9.9-16.1,9.9c-7.1,0-3.7-6.8-6.3-6.8
				c-2.1,0-6,7.2-14.3,7.2c-4.8,0-7.7-2.7-9.1-6.4c-3.4,3.8-11.6,5.9-15.2,5.9c-3.5,0-5.8-1.8-5.8-5.4c0-4.1,1.4-9.3,2.1-13.5l1-7.1
				c0-1.4-0.7-2.6-2.2-2.6c-5.9,0-6.9,12.2-7.4,17.1c-0.8,8.8-2.6,10.9-12.9,11.5c-0.2,0-0.4,0-0.7,0c-2.7,0-5.2-0.9-5.2-4.2
				c0-4,3.7-16,3.4-23c0-1.6-0.6-2.6-2.2-2.6h-0.8c-0.1,0-0.2,0-0.4,0c0.2,1.1,0.4,2.3,0.4,3.6c0,15.3-12,26.6-27.3,26.6
				c-10,0-18.3-5.4-18.3-15.9c0-0.2,0-0.5,0-0.7c-4,8.1-12,15.5-28.1,15.5H28.9c-1.1,0-2.3,0.1-3.5,0.2c-1.2,0.1-2.3,0.2-3.5,0.2
				c-3.5,0-6.3-0.8-6.3-4.7c0-5.5,5-2.4,6.4-7c2-6.4,4.6-25.6,4.6-31.8c0-6.5-5.4-2.9-5.4-7.7c0-4.8,4.1-5.4,7.9-5.4
				c0.3,0,0.6,0,1,0c1.2,0,2.4,0,3.7,0c6.4,0,13.4-0.3,20-0.4C54.2,237,54.6,237,55,237 M46.4,284c9.8,0,11.7-14.9,11.7-24.6
				c0-6.3-1-13.2-7.9-13.2c-4.9,0-4.2,4.5-4.6,7.5l-2.1,25.6C43.7,282,43.5,284,46.4,284 M282.8,286.2c3.4,0,4-4.8,4.5-7.2
				c0.8-4.1,1.9-10.3,1.9-14.4c0-1.9-0.4-3.9-2.6-3.9c-3.4,0-4.2,5.1-4.7,7.6c-0.9,4.3-1.6,9.8-1.6,14.2
				C280.2,284.4,280.7,286.2,282.8,286.2 M96,286.2c3.4,0,4-4.8,4.5-7.2c0.8-4.1,1.9-10.3,1.9-14.4c0-1.9-0.4-3.9-2.7-3.9
				c-3.4,0-4.2,5.1-4.7,7.6c-0.9,4.3-1.6,9.8-1.6,14.2C93.4,284.4,93.9,286.2,96,286.2 M185.3,282.1c0.1,0,0.1,0,0.2,0
				c4.2-0.3,9.5-14,9.3-18c0-1-0.3-2.6-1.5-2.6c0,0-0.1,0-0.1,0c-4.2,0.3-9.6,12.3-9.6,17.4C183.6,280.2,183.9,282.1,185.3,282.1
				 M55,233.4L55,233.4c-0.4,0-0.8,0-1.2,0c-2.3,0-4.8,0.1-7.2,0.2c-4.3,0.1-8.7,0.2-12.8,0.2c-1.3,0-2.5,0-3.6,0c-0.4,0-0.7,0-1,0
				c-2.1,0-4.7,0.1-7,1.3c-3,1.5-4.6,4.2-4.6,7.8c0,4.8,3.4,6,4.8,6.5c0.2,0.1,0.4,0.1,0.5,0.2c0,0.2,0.1,0.5,0.1,1
				c0,6-2.5,24.7-4.4,30.7c0,0.2-0.1,0.3-0.1,0.3c-0.1,0.1-0.6,0.3-1,0.4c-1.6,0.5-5.5,1.8-5.5,7.4c0,3.1,1.3,8.4,9.9,8.4
				c1.3,0,2.4-0.1,3.6-0.1l0.2,0c1.1-0.1,2.2-0.1,3.2-0.1h18.1c13,0,21.2-4.6,26.2-10c3.2,6.9,10.5,11.1,20.2,11.1
				c8.4,0,16.2-3,21.9-8.6c0.5-0.5,1-1,1.5-1.5c-0.1,0.7-0.1,1.3-0.1,1.8c0,4.8,3.5,7.8,8.8,7.8c0.3,0,0.6,0,0.9,0
				c10-0.5,14-2.9,15.7-10.2c0,0.4,0,0.8,0,1.2c0,5.5,3.7,9,9.4,9c3,0,9.4-1.3,14.2-4.1c2.4,3,6,4.6,10.2,4.6
				c5.9,0,9.9-2.8,12.6-5.1c0.9,2.3,3,4.7,7.9,4.7c2.8,0,9.3-1.7,14-5c1.9,3.1,5.4,5,10.1,5c2.8,0,11.1-1.9,17.1-5.8
				c1.5,3.6,5.6,5.7,9.5,5.7c3.3,0,11.3-1.7,16.4-5.6c3.9,3.9,9.8,6,16.6,6c8.4,0,16.2-3,21.9-8.6c0.5-0.5,1-1,1.5-1.5
				c-0.1,0.7-0.1,1.3-0.1,1.8c0,4.8,3.5,7.8,8.8,7.8c0.3,0,0.6,0,0.9,0c10-0.5,14-2.9,15.7-10.2c0,0.4,0,0.8,0,1.2
				c0,5.5,3.7,9,9.4,9c5.6,0,20.4-4,20.4-13c0-2.6-1.3-4.4-3.8-5.4c0.2-2,0.7-4.9,1.2-7.7c0.8-4,1.5-8.2,1.5-11.5
				c0-6.5-5.5-11.4-12.8-11.4c-5.6,0-10.6,3.4-13.9,5.7c-0.7-2.4-2.3-5.6-6.9-5.6c-4.6,0-12.6,2.6-16.4,4.9c-0.5,0.3-1,0.6-1.5,0.9
				c-3.9-4-9.8-6.3-16.8-6.3c-8.4,0-16.2,3-21.9,8.6c-0.2,0.2-0.5,0.4-0.7,0.7c0-0.5,0-1,0-1.5c0-4.5-2.9-7.3-7.3-7.3
				c-4.2,0-10,1.5-14.1,3.2c-0.8-1.6-2.4-2.9-5.2-2.9c-0.4,0-0.9,0-1.2,0c0.1-1.1,0.2-2.4,0.4-3.3c0.1-0.7,0.1-1.4,0.2-1.8l0-0.2
				v-0.2c0-4-2.6-6.6-6.7-6.6c-2.7,0-7.8,0.3-11.6,2.1c-3.8,1.8-5,5.9-5.7,8c-0.2,0.8-0.5,1.7-0.7,2.2c0,0-0.1,0-0.1,0
				c-0.9,0.1-1.7,0.2-2.4,0.5c-1-0.6-2.4-1.1-4.3-1.1c-3.2,0-5.9,1.2-8.5,2.5l-0.1,0l-0.1,0l-0.3,0.2c-0.2,0.1-0.6,0.4-1,0.5
				c-0.2-0.1-0.6-0.3-0.8-0.5c-1.7-1.1-4.3-2.7-8.3-2.7c-0.5,0-1,0-1.5,0.1c-6.3,0.6-12.2,3.9-16.8,9.5c-0.9-5.6-6.1-9.5-12.6-9.5
				c-5.6,0-10.6,3.4-13.9,5.7c-0.7-2.4-2.3-5.6-6.9-5.6c-4.6,0-12.6,2.6-16.4,4.9c-0.5,0.3-1,0.6-1.5,0.9c-3.9-4-9.8-6.3-16.8-6.3
				c-7.7,0-14.8,2.6-20.3,7.1C79.9,237.4,66.4,233.4,55,233.4L55,233.4z M49.8,250c0.1,0,0.2,0,0.5,0c1.6,0,4.2,0,4.2,9.5
				c0,3.4-0.4,19.6-7.2,20.8c0-0.2,0-0.3,0-0.5l0-0.3l2.1-25.3c0.1-0.6,0.1-1.2,0.2-1.8C49.5,251.6,49.6,250.4,49.8,250L49.8,250z
				 M236.1,268.5c0.1-0.8,0.3-1.7,0.4-2.4c0.7,1,1.8,1.9,3.5,2.3c0,0.1,0,0.1,0,0.2c-0.1,0.5-0.2,1.1-0.3,1.8l0,0l0,0l-0.9,6.1
				c-0.1,0-0.3,0-0.4,0c-1.4,0-2.5,0.6-3.4,1c0-0.2,0.1-0.5,0.1-0.7l0-0.2l0-0.2L236.1,268.5L236.1,268.5z M142.9,281.5
				c0.2-2.4,0.6-5.6,1.4-8.3c0-0.1,0-0.1,0.1-0.2l-0.2,1.9c-0.2,1.3-0.5,2.7-0.8,4.2C143.2,279.8,143.1,280.6,142.9,281.5
				L142.9,281.5z M329.7,281.5c0.2-2.4,0.6-5.6,1.5-8.3c0-0.1,0-0.1,0-0.2l-0.2,1.9c-0.2,1.3-0.5,2.7-0.8,4.2
				C330,279.8,329.8,280.6,329.7,281.5L329.7,281.5z"/>
		</g>
	</g>
	<g>
		<g>
			<path class="st4" d="M201.7,176.4c-4.1,0-5.2-3.2-6.1-5.6c-0.1-0.1-0.1-0.3-0.1-0.4c-0.8,3.9-2.8,5.5-9.5,6c-0.3,0-0.6,0-0.8,0
				c-2.1,0-3.7-0.9-4.3-2.5c-2.8,1.6-6.5,2.4-8.5,2.4c-3.4,0-5.5-2.1-5.5-5.3c0-1.9,0.4-4.1,0.9-6.2c0.2-0.9,0.4-1.9,0.5-2.7l0.5-4
				c-0.7,0.5-1.8,2.4-2.4,8.9l0,0.2c-0.6,6.7-2.7,8.6-10,9c-0.2,0-0.4,0-0.5,0c-3.2,0-5.1-1.7-5.1-4.5c0-1.2,0.4-3.2,0.9-5.6
				c0.6-2.9,1.4-6.6,1.3-9h-0.1c-2,0-3.3-1.4-3.3-3.5c0-1.8,1.2-3.4,3.6-4.7c2.3-1.4,7.4-3,10.2-3c3,0,3.8,2.5,4.1,3.9
				c0.2-0.1,0.4-0.2,0.5-0.4c2.1-1.4,5.2-3.6,8.7-3.6c3,0,6.1,1.5,7.2,4.3c0.1-1.3,0.2-2.6,0.2-3.7c0-0.1,0-0.2,0-0.3
				c-0.3,0-0.5,0-0.7,0c-1,0-2.8-0.4-2.9-3.1c-0.1-1.3,0.4-2.6,1.4-3.6c3.2-3.4,11.2-4,13.2-4c2.8,0,4.2,1.3,4.2,3.9
				c0,0.7-0.1,1.7-0.2,2.6l-0.1,0.7l-0.8,5.6c2.2-1.5,4.5-2.7,7.6-2.7c5.2,0,8.4,3.1,8.4,8.2c0,3.5-2,6.3-5.8,8.4l1.9,3.1
				c0.1,0.2,0.2,0.3,0.3,0.4c0,0,0.1,0.1,0.3,0.1l0.1,0c0.9,0.4,2.3,1,2.3,3.2C213.2,174.1,204.4,176.4,201.7,176.4z M198.3,157.5
				c-0.3,0.3-0.5,0.7-0.8,1.1C197.9,158.3,198.1,157.9,198.3,157.5z"/>
			<path class="st1" d="M195,137.4c1.6,0,2.4,0.4,2.4,2.1c0,0.8-0.2,2.1-0.3,3l-0.9,6.8c-0.1,0.3-0.4,2,0.5,2c0.5,0,1.2-0.6,1.6-0.9
				c2.4-1.7,4.5-3,7.5-3c4.1,0,6.5,2.1,6.5,6.4c0,3.4-2.4,5.5-5.1,6.9c-0.3,0.1-1.3,0.5-1.3,0.9c0,0.2,0.4,0.8,0.5,1l2.3,3.7
				c0.5,0.7,0.6,0.8,1.3,1.1c0.9,0.4,1.4,0.5,1.4,1.6c0,3.2-7.1,5.4-9.6,5.4c-3.2,0-3.8-2.8-4.7-5.4c-0.3-0.7-1.1-3.3-1.8-3.3
				c-0.8,0-1.1,1.4-1.2,2c-0.4,4.5-1,6-8.1,6.6c-0.2,0-0.5,0-0.7,0c-1.8,0-2.9-0.8-2.9-2.7c0-0.5,0-1,0.1-1.4c-2,2.6-7.6,4.1-10,4.1
				c-2.3,0-3.7-1.1-3.7-3.4c0-2.6,0.9-6,1.3-8.6l0.6-4.6c0-0.9-0.5-1.6-1.4-1.6c-3.8,0-4.4,7.8-4.7,10.9c-0.5,5.6-1.6,7-8.3,7.3
				c-0.1,0-0.3,0-0.4,0c-1.7,0-3.3-0.6-3.3-2.7c0-2.6,2.4-10.3,2.2-14.7c0-1-0.4-1.6-1.4-1.6h-0.5c-1,0-1.4-0.6-1.4-1.6
				c0-1.4,1.5-2.5,2.6-3.1c2.2-1.3,6.9-2.8,9.3-2.8c3.1,0,1.8,4.5,3.3,4.5c1.3,0,5.5-4.6,10-4.6c3,0,5.9,1.8,5.9,5
				c0,3.6-1.8,9.8-1.8,12.9c0,1.7,1.6,1.1,2.2,1.9c1.1-6.1,2.9-15,2.9-21.1c0-1.5-0.1-2.2-1.4-2.2c-0.1,0-0.3,0-0.5,0
				c-0.2,0-0.4,0-0.6,0c-0.8,0-1-0.2-1.1-1.3C181.9,138.6,192.1,137.4,195,137.4 M194.9,162.3c1.9,0,5.6-3.1,5.6-5.8
				c0-0.8-0.4-1.4-1.2-1.4c-2.4,0-4.8,4.6-4.8,6.7C194.6,161.9,194.6,162.3,194.9,162.3 M195,133.7c-0.1,0-10.3,0.1-14.5,4.6
				c-1.4,1.4-2,3.1-1.9,5c0,0.4,0.1,0.7,0.1,1c-0.7-0.1-1.4-0.2-2.1-0.2c-3.3,0-6.1,1.5-8.3,3c-1-1.9-2.7-2.9-5-2.9
				c-3.2,0-8.5,1.7-11.1,3.3c-3.7,2-4.5,4.5-4.5,6.2c0,2.5,1.3,4.3,3.3,5c-0.2,2.1-0.7,4.8-1.2,7c-0.5,2.5-0.9,4.5-0.9,6
				c0,3.1,2.2,6.3,7,6.3c0.2,0,0.4,0,0.6,0c5-0.3,7.8-1.4,9.5-3.5c1.2,2.1,3.5,3.5,6.5,3.5c1.7,0,4.9-0.6,7.8-1.9
				c1.1,1.2,2.9,1.9,5,1.9c0.3,0,0.7,0,1,0c3.8-0.3,6.7-0.9,8.7-2.8c0.2-0.2,0.4-0.4,0.5-0.6c1.1,1.8,3,3.4,6.2,3.4
				c2,0,4.9-0.7,7.3-1.8c5-2.2,6-5.2,6-7.2c0-3.4-2.4-4.5-3.3-4.9l-0.9-1.4c4.2-2.9,5.1-6.4,5.1-9c0-6.1-4-10-10.2-10
				c-2,0-3.8,0.4-5.3,1.1l0.3-1.9v0v0c0-0.2,0.1-0.4,0.1-0.6c0.1-0.9,0.2-2,0.2-2.8C201,138.1,200.6,133.7,195,133.7L195,133.7z"/>
		</g>
		<g>
			<path class="st4" d="M129,176.6c-2.8,0-5-1.2-6.5-3.2c-2.8,1.9-6.7,3-8.9,3c-0.2,0-0.3,0-0.4,0c-3.6-0.2-5.4-2.1-5.4-5.7
				c0-2,0.6-4.7,1.2-7.3c0.5-2,0.9-4.1,0.9-5.1c0,0,0-0.1,0-0.1c-0.6,0.5-2,2.5-2.9,10l-0.1,0.9c-0.2,1.4-0.4,3.3-1.7,4.6
				c-1.8,1.9-5.7,2.9-7.7,2.9c-5.8,0-6.3-3.8-6.3-4.9c0-1,0.3-2.5,0.6-3.9c0.1-0.7,0.3-1.4,0.3-1.9c0.2-1.2,0.5-3.1,0.9-5.2
				c0.5-2.5,1-5.5,1.4-8.2c-0.5,0.1-1.1,0.2-1.7,0.2c-3.5,0-4.6-3.1-5.3-5c0-0.1-0.1-0.2-0.1-0.3c-0.1,0.6-0.2,1.4-0.2,2.1l-0.1,1
				c-0.1,0.7-0.2,1.7-0.3,2.9c-0.4,3.6-1.1,9.1-1.1,12.4c0,1.1,0.1,1.2,1,1.5c0.9,0.3,2.9,1.1,2.9,3.7c0,5.5-10.4,5.5-14.3,5.5
				c-5.2,0-11.2-0.6-11.2-5.3c0-3,2.4-3.7,3.5-4.1c0.9-0.3,1.1-0.4,1.2-0.6c0.9-2.3,2.2-13.4,2.7-18.2c-0.8,1.9-2.3,4.4-5.7,4.4
				c-3.2,0-5.5-2.3-5.5-5.7c0-3.8,3.3-11.2,8.6-11.2c0.7,0,1.3,0.2,1.9,0.3l0.1,0c0.5,0.1,0.8,0.2,1.3,0.2h14.6
				c1.9,0,2.7-0.1,3.2-0.3c0.2,0,0.3-0.1,0.4-0.1c0.4-0.1,1-0.2,1.7-0.2c1,0,2.5,0.4,3.8,1.9c0.5-0.2,1.1-0.4,1.6-0.5
				c3.1-1,5.8-1.5,8.1-1.5c3.5,0,5.3,1.4,5.3,4.3c0,1.4-0.3,3.4-0.7,5.2c-0.1,0.7-0.2,1.3-0.3,1.8l-0.3,1.9c2-1.4,4.7-3,7.8-3
				c4.7,0,7.7,2.7,7.7,7.2c2.8-3.9,6.8-6.4,11.2-6.8c0.3,0,0.6,0,0.9,0c2.4,0,4,1,5,1.7c0.2,0.2,0.6,0.4,0.8,0.5
				c0.3-0.1,0.7-0.4,0.9-0.5l0.1-0.1c1.8-0.9,3.3-1.6,5.3-1.6c1.4,0,2.4,0.4,3.1,1.1c0.6,0.7,0.9,1.6,0.9,2.8
				c-0.1,1.4-0.3,3.1-0.6,5c-0.3,2.4-0.7,5.2-0.9,8.2l0,0.5c0,0.3-0.1,1-0.1,1.5c1.6,0.3,2.6,1.5,2.6,3c0,4.9-9,8.1-12.1,8.1
				c-3.4,0-4.4-1.9-4.8-3.4C135.7,174.4,133,176.6,129,176.6z M139.2,156.2c-1.3,1.7-3.1,5.4-3.4,7.8
				C137.1,162.3,138.9,158.5,139.2,156.2z"/>
			<path class="st1" d="M105.7,137.4c1.9,0,3.4,0.3,3.4,2.5c0,1.8-0.7,4.9-0.9,6.7l-0.5,3.2c-0.2,0.8-0.6,2.4,0.2,2.4
				c0.9,0,5-4.6,9.7-4.6c3.5,0,5.8,1.8,5.8,5.4c0,3.9-1.7,9.4-1.8,12.4c0,1,0.4,1.3,0.9,1.4c0-0.1,0-0.2,0-0.3
				c0.4-9.2,6.2-17.9,14.1-18.6c0.2,0,0.5,0,0.7,0c3.1,0,4.4,2.1,5.8,2.1c0.6,0,1.5-0.6,1.9-0.8c1.4-0.7,2.8-1.3,4.4-1.3
				c1.4,0,2.2,0.5,2.1,2c-0.2,3.1-1.1,7.7-1.5,13.2c-0.1,0.8-0.3,2.5,0.1,3.3c0.2,0.6,0.6,0.6,1.1,0.6c0.8,0.1,1.3,0.5,1.3,1.3
				c0,3.3-7.5,6.3-10.3,6.3c-4.6,0-2.4-4.4-4-4.4c-1.3,0-3.9,4.6-9.1,4.6c-3.1,0-5-1.8-5.9-4.2c-2.2,2.3-7,4-9.5,4
				c-0.1,0-0.2,0-0.3,0c-2.6-0.1-3.8-1.3-3.8-3.9c0-3.3,2.2-9.9,2.2-12.5c0-1-0.4-2.1-1.5-2.1c-3.8,0-4.8,10.3-5.1,12.3
				c-0.2,1.2-0.3,3-1.2,4c-1.3,1.3-4.6,2.4-6.4,2.4c-2.1,0-4.5-0.6-4.5-3.1c0-1.3,0.7-4,0.9-5.4c0.5-3.8,2.8-14.3,3-19.5
				c-0.3,2.3-1.6,4.1-4.2,4.1c-3.9,0-3.2-6.4-5.5-6.4c-1.6,0-1.7,2.2-2.1,5.9c-0.3,3.1-1.4,11-1.4,15.4c0,4.4,3.9,2.1,3.9,5.2
				c0,1.5-1.8,3.7-12.5,3.7c-9.2,0-9.4-2.4-9.4-3.5c0-3.1,3.6-1.5,4.6-4c1.2-3.3,3-20.2,3-21s-0.3-1.7-1.2-1.7
				c-2.6,0-1.9,6.4-6.5,6.4c-2.4,0-3.6-1.6-3.6-3.9c0-3.2,3-9.3,6.8-9.3c0.5,0,1,0.1,1.5,0.3c0.6,0.1,1.1,0.3,1.8,0.3h14.6
				c2,0,3-0.1,3.6-0.3c0.7-0.1,1-0.3,1.7-0.3c1.3,0,2.4,1,3.3,2.4c0.9-0.5,1.9-0.8,2.7-1.1C100.5,138,103.2,137.4,105.7,137.4
				 M135.1,166.7c0,0,0.1,0,0.1,0c2.7-0.2,6.1-8.9,5.9-11.5c0-0.6-0.2-1.6-1-1.6c0,0,0,0-0.1,0c-2.7,0.2-6.2,7.9-6.1,11.1
				C134,165.4,134.1,166.7,135.1,166.7 M105.7,133.7c-2.6,0-5.4,0.5-8.7,1.6c-0.2,0.1-0.4,0.1-0.6,0.2c-1.6-1.4-3.3-1.6-4.3-1.6
				c-1,0-1.7,0.2-2.2,0.3c-0.1,0-0.2,0.1-0.4,0.1c-0.3,0.1-0.9,0.2-2.8,0.2H72.2c-0.2,0-0.4-0.1-0.8-0.2l-0.1,0
				c-0.6-0.2-1.4-0.4-2.4-0.4c-6.5,0-10.4,8.4-10.4,13c0,4.4,3.1,7.5,7.3,7.5c1.3,0,2.4-0.3,3.3-0.7c-0.6,4.5-1.3,9.5-1.8,11.5
				c-0.1,0-0.1,0-0.1,0c-1.2,0.4-4.8,1.4-4.8,5.8c0,7.1,9.5,7.1,13.1,7.1c3.5,0,11.7,0,14.9-3.7c1,2.1,3.3,3.8,7.4,3.8
				c2.3,0,6.7-1.1,9-3.5c0.1-0.1,0.1-0.1,0.2-0.2c1.1,2.1,3.3,3.4,6.3,3.6c0.1,0,0.3,0,0.5,0c2.3,0,5.7-0.9,8.5-2.4
				c1.8,1.8,4.2,2.7,6.9,2.7c3.3,0,5.9-1.3,7.7-2.6c1.4,1.9,3.6,2.4,5.4,2.4c3.6,0,14-3.4,14-10c0-1.9-1-3.5-2.5-4.3
				c0,0,0-0.1,0-0.1c0-0.2,0-0.4,0-0.5c0.2-3,0.6-5.7,0.9-8.1c0.3-2,0.5-3.7,0.6-5.1c0.1-2.1-0.6-3.4-1.3-4.1
				c-1.1-1.1-2.5-1.7-4.4-1.7c-2.4,0-4.2,0.8-6,1.7l-0.1,0l-0.1,0l-0.1,0.1c-1.2-0.7-3.1-1.9-5.9-1.9c-0.4,0-0.7,0-1.1,0
				c-3.7,0.3-7.1,2-10,4.7c-1.4-3.1-4.5-5-8.7-5c-2,0-3.8,0.5-5.4,1.3c0.3-1.8,0.7-3.8,0.7-5.3C112.8,138,112.1,133.7,105.7,133.7
				L105.7,133.7z M87.6,165.4c0-3.1,0.6-8.5,1-12c0-0.2,0.1-0.4,0.1-0.6c0.9,0.8,2.2,1.4,3.8,1.5c-0.3,2-0.7,4.1-1.1,5.9
				c-0.4,2.2-0.8,4-0.9,5.3c-0.1,0.4-0.2,1-0.3,1.6C89.3,166.1,88.2,165.6,87.6,165.4L87.6,165.4z"/>
		</g>
		<g>
			<path class="st4" d="M238.2,176.3c-5.7,0-12.1,0-12.1-4.9c0-3.1,2.4-3.8,3.6-4.1c0.3-0.1,0.7-0.2,0.8-0.3l1.4-10.2
				c-0.1-0.8-0.6-1.7-1.1-2.5l-5.1-8.3c-0.4-0.5-1-0.7-1.6-1c-1-0.4-2.9-1.1-2.9-3.6c0-5.1,6-5.5,14.4-5.5c2.6,0,6.9,0,8.3,2.8
				c1.1-1.8,4.1-2.8,8.8-2.8c2.6,0,8.6,0,8.6,4.7c0,3.1-2.6,3.8-3.9,4.1c-0.6,0.1-1.3,0.3-1.4,0.6l-6,7.4c-3,3.7-3,3.7-3.2,8.7
				l-0.2,5.9c0.1,0,0.3,0.1,0.4,0.1c1,0.2,3.2,0.8,3.2,3.6c0,0.6,0,1.9-1.1,3C247.3,175.6,243.9,176.3,238.2,176.3z M242,144.5
				c0.2,0.6,0.6,1.4,0.9,2.1c0.6-0.8,1.4-1.9,1.8-2.6c-0.3-0.3-0.7-0.7-1-1.3C243.3,143.6,242.6,144.1,242,144.5
				C242.1,144.5,242.1,144.5,242,144.5z"/>
			<path class="st1" d="M252.6,137.7c4.5,0,6.8,0.7,6.8,2.9c0,2.8-3.6,1.9-5,3.5l-6,7.4c-3.4,4.2-3.4,4.6-3.6,9.9l-0.2,6
				c-0.1,2.6,3.6,0.9,3.6,3.5c0,1,0.3,3.5-10.1,3.5c-5.4,0-10.3-0.1-10.3-3c0-3.2,4.1-1.6,4.4-4.2l1.4-10.4c0-1.3-0.7-2.5-1.4-3.5
				l-5.2-8.4c-1.7-2.2-4.2-1.3-4.2-3.6c0-2.8,2.8-3.7,12.6-3.7c5.5,0,6.9,1,6.9,3c0,2.4-2.3,2.2-2.3,3.5c0,0.9,1.9,4.9,2.7,5h0
				c0.8,0,4-4.7,4-5.3c0-1-1.7-1.4-1.7-3.2C245.1,137.8,250.7,137.7,252.6,137.7 M252.6,134.1c-0.8,0-3.1,0-5.3,0.5
				c-1.4,0.3-2.5,0.8-3.4,1.4c-2.4-1.9-6.4-1.9-8.5-1.9c-5.6,0-8.8,0.3-11,0.9c-4.5,1.4-5.2,4.6-5.2,6.4c0,3.8,2.9,4.9,4.1,5.3
				c0.5,0.2,0.7,0.3,0.8,0.4l5,8.2c0.2,0.4,0.7,1.1,0.8,1.5l-1.2,8.8c-1.4,0.4-4.6,1.7-4.6,5.8c0,1.5,0.6,5.1,6.1,6.2
				c2.2,0.5,4.9,0.5,7.9,0.5c6.3,0,10.1-0.9,12.1-2.9c1.7-1.7,1.6-3.6,1.6-4.2v0c0-2.4-1.2-4.1-3.6-5l0.1-4.4v-0.1
				c0.1-2.3,0.2-3.5,0.4-4.3c0.3-0.7,1-1.7,2.4-3.4l5.8-7.1c0.2-0.1,0.5-0.1,0.7-0.2c1.3-0.4,5.3-1.4,5.3-5.9
				C263.1,134.1,255.2,134.1,252.6,134.1L252.6,134.1z"/>
		</g>
		<g>
			<path class="st4" d="M259.8,176.6c-8.1,0-13.5-4.8-13.5-12c0-10.8,8.3-18.9,19.3-18.9c4.6,0,8.5,1.6,10.9,4.4
				c1-0.8,2.2-1.4,3.1-1.9c2.2-1,5.6-2.3,9-2.3c1.7,0,4.5,0.6,4.5,4.8c0,1.7-0.6,4.9-1.1,7.6c-0.1,0.8-0.3,1.6-0.4,2.2
				c0,0.1,0,0.2-0.1,0.4c-0.3,1.5-0.4,2.3-0.4,2.9c0.3-0.3,0.8-0.9,1.2-1.9c0.9-1.9,1.1-4.4,1.4-6.6c0.4-3.1,0.7-5.8,2.5-7.3
				c2.5-2.2,8.1-2.2,8.1-2.2c4.5,0,4.8,3.1,4.8,4c0,0.5-0.1,1.2-0.2,1.9c0,0.3-0.1,0.6-0.1,0.9l0,0.1l-1.8,10
				c-0.1,0.6-0.2,1.2-0.3,1.8h0c0.9,0,3.4,0.1,3.4,3.2c0,5.6-10,8.5-13.5,8.5c-3.2,0-3.9-2.6-4.2-4c-0.1,0.1-0.2,0.1-0.2,0.2
				c-2.1,1.4-5.5,3.8-9.6,3.8c-0.1,0-0.3,0-0.4,0c-3.8-0.1-6.2-2.8-6.3-7c0-0.3,0-0.6,0-1C272.6,173.3,266.8,176.6,259.8,176.6z
				 M263.7,154.9c-0.2,0.3-0.6,1-1,2.9l-0.1,0.4c-0.6,3-1,6.2-1,8.7c0,0.2,0,0.3,0,0.4c0.2-0.3,0.5-0.9,0.8-2.6l0.1-0.4
				c0.3-1.5,1.2-6.1,1.2-8.8C263.7,155.2,263.7,155.1,263.7,154.9z"/>
			<path class="st1" d="M265.6,147.5c4.7,0,8.9,1.9,10.7,5.6c0.8-1.5,2.9-2.6,4.1-3.2c2.5-1.2,5.5-2.1,8.3-2.1c2,0,2.6,1,2.6,2.9
				c0,2-1,6.9-1.5,9.5c-0.1,0.7-1.4,5.7,0.8,5.7c1.6,0,2.8-2,3.4-3.3c2.1-4.8,1.1-11.3,3.4-13.2c1.4-1.3,5.1-1.8,7-1.8
				c1.6,0,3,0.5,3,2.2c0,0.7-0.2,1.9-0.3,2.6l-1.8,9.9c-0.1,0.8-0.3,1.6-0.3,2.4c0,1.1,0.6,1.5,1.6,1.5c1.2,0,1.8,0,1.8,1.4
				c0,4-8.6,6.7-11.7,6.7c-3.3,0-1.8-4.6-3.5-4.6c-1.1,0-5.3,4.6-10.5,4.6c-0.1,0-0.2,0-0.3,0c-2.9-0.1-4.5-2-4.6-5.3
				c-0.1-2.9,1.1-7.1,1.5-10.6c0.1-1.3,0.5-2.5-1.2-2.7c-0.4,0-0.7-0.1-1-0.2c0.1,0.6,0.2,1.3,0.2,2.1c0,9.8-7.7,17-17.5,17
				c-6.4,0-11.7-3.4-11.7-10.2C248.1,154.8,255.8,147.5,265.6,147.5 M261.5,169.3c2.2,0,2.6-3.1,2.9-4.6c0.5-2.6,1.2-6.6,1.2-9.2
				c0-1.2-0.3-2.5-1.7-2.5c-2.1,0-2.7,3.3-3,4.9c-0.6,2.8-1,6.3-1,9.1C259.8,168.1,260.1,169.3,261.5,169.3 M265.6,143.9
				c-11.8,0-21.1,9.1-21.1,20.7c0,8.3,6.2,13.8,15.4,13.8c5.9,0,11.1-2.2,14.9-5.9c1.1,3.4,3.8,5.5,7.6,5.6c0.1,0,0.3,0,0.5,0
				c3.6,0,6.7-1.6,9-3c1,2,2.8,3,5.1,3c3.7,0,15.4-3.1,15.4-10.3c0-1.5-0.5-3.8-3.1-4.7l1.7-9.9l0-0.2l0-0.2c0-0.2,0-0.5,0.1-0.8
				c0.1-0.7,0.2-1.4,0.2-2.1c0-2.7-1.7-5.9-6.6-5.9c-0.3,0-6.3,0-9.4,2.7c-0.3,0.2-0.5,0.5-0.7,0.7c-1.1-2.4-3.4-3.4-5.7-3.4
				c-3.8,0-7.4,1.3-9.8,2.5c-0.6,0.3-1.4,0.7-2.1,1.1C274,145.3,270.1,143.9,265.6,143.9L265.6,143.9z"/>
		</g>
	</g>
	<g>
		<g>
			<path class="st4" d="M137.5,229.1c-8.1,0-13.5-4.8-13.5-12c0-10.8,8.3-18.9,19.3-18.9c4.4,0,8,1.4,10.4,3.9
				c1.1-0.8,2.5-1.4,3.7-1.8c0.5-0.2,1-0.4,1.4-0.6c1.3-0.7,3.4-1.5,5.5-1.5c2.4,0,3.4,1.6,3.8,3c0.9-1.5,2.6-3.1,5.7-3.1
				c4.2,0,7.4,3.5,7.4,7.9c0,4.8-2.8,8-6.9,8c-1.9,0-3-0.6-3.8-1.5l-0.7,7.2c0.1,2.7-0.4,4.7-1.7,6.1c-1.6,1.8-4.4,2.7-8.9,2.9
				c-0.2,0-0.3,0-0.5,0c-3.3,0-5.3-1.8-5.3-4.6c0-1,0.2-2.3,0.5-3.8C150.5,225.7,144.5,229.1,137.5,229.1z M141.4,207.4
				c-0.2,0.3-0.6,1-1,2.9l-0.1,0.4c-0.6,3-1,6.2-1,8.7c0,0.2,0,0.3,0,0.4c0.2-0.3,0.5-0.9,0.8-2.6l0.1-0.4c0.3-1.5,1.2-6.1,1.2-8.8
				C141.4,207.7,141.4,207.5,141.4,207.4z"/>
			<path class="st1" d="M173.8,200c3.3,0,5.6,2.9,5.6,6.1c0,3.1-1.5,6.2-5,6.2c-1.9,0-2.6-0.7-3.4-2.2c-0.1-0.3-0.6-1.2-1-1.2
				c-0.7,0-1,2.1-1.1,2.6l-0.8,8.3c0.3,5-1.9,6.9-8.9,7.2c-0.1,0-0.3,0-0.4,0c-1.8,0-3.5-0.6-3.5-2.7c0-3.1,2.1-9.5,2.1-14.3
				c0.1-1.4-0.1-1.8-1.5-1.8c-0.4,0-0.8,0-1.1-0.1c0.1,0.7,0.2,1.4,0.2,2.1c0,9.8-7.7,17-17.4,17c-6.4,0-11.7-3.4-11.7-10.2
				c0-9.8,7.7-17,17.4-17c4.5,0,8.4,1.7,10.4,5c0.8-2.1,4.2-2.8,5.9-3.7c1.4-0.7,3.1-1.3,4.7-1.3c3.1,0,1.8,4.9,3.4,4.9
				C169.1,204.9,169,200,173.8,200 M139.1,221.8c2.1,0,2.6-3.1,2.9-4.6c0.5-2.6,1.2-6.6,1.2-9.2c0-1.2-0.3-2.5-1.7-2.5
				c-2.1,0-2.7,3.3-3,4.9c-0.6,2.8-1,6.3-1,9.1C137.5,220.6,137.8,221.8,139.1,221.8 M173.8,196.3c-2.4,0-4.1,0.8-5.4,1.8
				c-1-1.2-2.4-1.8-4.1-1.8c-2,0-4.1,0.6-6.4,1.7c-0.3,0.1-0.7,0.3-1.2,0.5c-0.8,0.3-1.8,0.7-2.8,1.2c-2.7-2.2-6.4-3.5-10.7-3.5
				c-11.8,0-21.1,9.1-21.1,20.7c0,8.3,6.2,13.8,15.3,13.8c5.5,0,10.5-2,14.2-5.2c0.6,3,3.3,5,7,5c0.2,0,0.4,0,0.6,0
				c3.4-0.1,7.6-0.7,10.2-3.5c1.6-1.8,2.3-4.2,2.2-7.3l0.4-4.2c0.7,0.2,1.4,0.3,2.3,0.3c5.1,0,8.7-4,8.7-9.8
				C183,200.6,178.9,196.3,173.8,196.3L173.8,196.3z M141.1,219.7L141.1,219.7L141.1,219.7L141.1,219.7z"/>
		</g>
		<g>
			<path class="st4" d="M246.9,229.1c-4.6,0-8.3-1.3-10.6-3.7c-2.9,2.1-7.2,3.4-9.6,3.4c-0.2,0-0.3,0-0.4,0
				c-3.6-0.2-5.4-2.1-5.4-5.7c0-2,0.6-4.7,1.2-7.3c0.5-2,0.9-4.1,0.9-5.1c0,0,0-0.1,0-0.1c-0.6,0.5-2,2.5-2.9,10.1l-0.1,0.9
				c-0.2,1.4-0.4,3.3-1.6,4.6c-1.8,1.9-5.7,2.9-7.6,2.9c-4.1,0-5.6-1.9-6.1-3.4c-3.5,2.1-8.2,3.4-10.2,3.4c-4.3,0-7-2.5-7-6.6
				c0-1.8,0.3-3.7,0.5-5.2c0,0,1.6-9.1,1.6-9.2c0,0-0.1,0-0.1,0c-3.4,0-3.7-2.5-3.7-3.6c0-3.2,1.8-5.2,4.9-5.5c0.2,0,0.3,0,0.4-0.1
				c0.1-0.3,0.4-1,0.6-1.7c0.4-1.3,1.1-3.7,3.4-4.8c2.4-1.1,5.5-1.3,7.2-1.3c1.5,0,2.7,0.6,3.3,1.7c1.3-1.9,4-2.7,5.2-3.1
				c3.1-1,5.8-1.5,8.1-1.5c3.5,0,5.3,1.4,5.3,4.3c0,1.4-0.3,3.4-0.6,5.1c-0.1,0.7-0.2,1.3-0.3,1.8l-0.3,1.9c2-1.4,4.7-3,7.8-3
				c4.7,0,7.7,2.8,7.7,7.2c0,0.1,0,0.3,0,0.4c4.3-4.9,10.8-7.6,16.9-7.6c5.8,0,9.3,3,9.3,7.9c0,3.9-2.3,7.3-5.4,9.7c0,0,0.1,0,0.2,0
				c2,0,3.9,1.9,3.9,4c0,4-4.5,6-6.6,7C253.1,228.4,250.1,229.1,246.9,229.1z M204.5,207.7c-0.2,0.5-0.4,1.7-0.6,2.8l-0.7,5.1l0,0.1
				c-0.1,0.7-0.1,1.1-0.1,1.4c0.2-0.1,0.5-0.2,0.7-0.3c0.5-0.3,1.1-0.6,1.9-0.6c0.2-0.9,0.4-1.9,0.6-3c0.3-1.7,0.7-3.6,1-5.5
				c-0.3,0.1-0.6,0.1-0.9,0.1h-0.6C205.4,207.6,204.8,207.6,204.5,207.7z M206.9,198.6c0.6,0,1.1,0.1,1.4,0.2c0-0.1,0-0.2,0-0.3
				c-0.6,0-1.9-0.1-2.7-0.9c0,0.4-0.1,0.7-0.1,1c0.1,0,0.2,0,0.3,0C206.2,198.6,206.6,198.6,206.9,198.6z"/>
			<path class="st1" d="M218.8,189.9c1.9,0,3.4,0.3,3.4,2.5c0,1.8-0.7,4.9-0.9,6.7l-0.5,3.2c-0.1,0.8-0.6,2.4,0.1,2.4
				c0.9,0,5-4.6,9.7-4.6c3.5,0,5.9,1.8,5.9,5.4c0,3.9-1.7,9.4-1.8,12.4c0,0.9,0.3,1.2,0.7,1.4c-0.1-0.5-0.1-1,0-1.5
				c0.5-10.7,10.4-17.6,19.8-17.6c4,0,7.5,1.6,7.5,6.1c0,6.2-6.9,11-12.7,11c-0.7,0-2,0-2,1.1c0,1.5,1.9,2.3,3.1,2.3
				c3.7,0,6.5-2.9,8.2-2.9c1.1,0,2.1,1.1,2.1,2.1c0,2.7-3.4,4.4-5.5,5.4c-2.9,1.3-5.6,2-8.9,2c-4.4,0-8.5-1.4-10.3-4.6
				c-2.1,2.5-7.2,4.3-9.8,4.3c-0.1,0-0.2,0-0.3,0c-2.6-0.1-3.8-1.3-3.8-3.9c0-3.3,2.1-9.9,2.1-12.5c0-1-0.4-2.1-1.5-2.1
				c-3.9,0-4.8,10.3-5.1,12.3c-0.2,1.2-0.3,3-1.2,4c-1.3,1.3-4.6,2.4-6.4,2.4c-2.1,0-4.5-0.6-4.5-3.1c0-0.6,0.2-1.6,0.4-2.6
				c-2.1,3.2-9.6,5.6-12.2,5.6c-3.1,0-5.1-1.5-5.1-4.8c0-1.6,0.3-3.3,0.5-4.9l1.5-9c0.4-2,0.2-2.3-1.9-2.3c-1.2,0-1.9-0.4-1.9-1.8
				c0-2.2,1.1-3.4,3.2-3.6c1.6-0.2,1.8-0.7,2.5-3.1c0.5-1.5,1-3,2.4-3.7c1.8-0.9,4.4-1.1,6.4-1.1c1.3,0,1.9,0.6,1.9,1.9
				c-0.1,1-0.5,4-0.5,4.8c0,0.9,0.6,1.1,1.4,1.1c0.6,0,1.2-0.1,1.8-0.1c0.7,0,1.3,0.1,1.3,0.9c0,0.7-0.1,1.5-0.3,2.2
				c-0.2,1.1-0.2,2.2-1.5,2.2c-0.2,0-0.4,0-0.6,0c-2.9,0-2.9,0.1-3.7,4.3l-0.7,5.1c-0.5,2.3,0.1,3.6,1.4,3.6c1.2,0,2.1-1,2.9-1
				c0.8,0,1.2,0.5,1.3,1.1c0-0.2,0.1-0.3,0.1-0.5c0.6-4,3-15.1,3-20c0-1.1-0.1-1.7-1.4-1.8c-1.2,0-2.3,0-2.3-1.6
				c0-2.3,2.9-3.3,4.7-3.9C213.6,190.5,216.3,189.9,218.8,189.9 M248.8,213c1.4,0,3.9-3.8,3.8-6.3c-0.1-0.7-0.4-1.6-1.2-1.6
				c-2.1,0-3.5,4.8-3.5,6.4C247.9,212.1,248.1,213,248.8,213 M218.8,186.2c-2.6,0-5.4,0.5-8.7,1.6c-0.9,0.3-3,0.9-4.6,2.2
				c-0.9-0.6-2-0.9-3.3-0.9c-1.8,0-5.3,0.2-8,1.5c-3,1.4-3.9,4.5-4.3,5.9c-0.1,0.2-0.1,0.4-0.2,0.6c-3.6,0.7-5.7,3.4-5.7,7.2
				c0,2.6,1.3,4.4,3.5,5.1l-1.2,7.3c-0.2,1.6-0.6,3.5-0.6,5.5c0,5.1,3.4,8.4,8.8,8.4c1.8,0,5.9-0.9,9.5-2.7c1.2,1.6,3.4,2.8,6.8,2.8
				c2.3,0,6.7-1.1,9-3.5c0.1-0.1,0.1-0.1,0.2-0.2c1.1,2.1,3.3,3.4,6.3,3.6c0.1,0,0.3,0,0.5,0c2.4,0,6.3-1,9.4-2.9
				c2.6,2.1,6.3,3.2,10.8,3.2c3.5,0,6.7-0.7,10.4-2.4l0,0l0,0c2.3-1.1,7.7-3.5,7.7-8.7c0-1.9-1-3.6-2.4-4.6c2.4-2.6,3.8-5.7,3.8-9
				c0-6-4.3-9.8-11.1-9.8c-5.4,0-11.1,2-15.6,5.7c-1.2-3.5-4.5-5.7-9-5.7c-2,0-3.8,0.5-5.4,1.3c0.3-1.8,0.6-3.8,0.6-5.3
				C225.9,190.5,225.2,186.2,218.8,186.2L218.8,186.2z"/>
		</g>
		<g>
			<path class="st4" d="M112.6,237.6c-3.3,0-6.6-1.5-6.6-4.9c0-1.7,0.8-2.6,1.5-3.2c0.6-0.5,0.6-0.5,0.7-1.4
				c0.1-0.3,0.1-0.6,0.2-1.1c0.8-3.6,2.2-10.5,2.4-14.4c0,0-0.4,0-0.6,0c-1.4,0-3.9,0-3.9-2.8c0-0.4,0.1-1,0.1-1.7l0.2-1.8l0-0.1
				c0-0.1,0-0.2,0.1-0.4c0.2-1.7,1.1-2.6,2.6-2.7c-0.6-1-1.3-2.5-1.3-4.8c0-5.1,4.4-10.5,12.7-10.5c4.4,0,8.9,2.5,8.9,7.3
				c0,3.3-2.2,5.9-5.2,6.2c0.5,0.5,0.9,1.1,1.2,1.8h0.4c0.7,0,1.7,0,2.4,0.8c0.8,0.8,0.7,1.9,0.6,2.9l-0.1,2.3l0,0.2
				c-0.1,1.5-0.3,3.2-3.2,3.2c0,0.1-0.1,0.3-0.1,0.4l-2,15.7c0,0.2,0,0.4,0,0.6c0,1.9,0.1,4.2-2.4,5.9
				C119.3,236.6,114.8,237.6,112.6,237.6z"/>
			<path class="st1" d="M120.8,189.8c3.2,0,7.1,1.7,7.1,5.4c0,2.4-1.6,4.5-4.1,4.5c-1.9,0-3-0.8-4.4-2c-0.5-0.4-1.2-1.2-1.9-1.2
				c-0.8,0-1.3,0.7-1.3,1.4c0,1.3,1.1,2.2,2.3,2.5c2.3,0.6,4.9,1.4,5.8,3.8c0.3,0.7,0.3,0.8,0.8,0.8c0.2,0,0.4,0,0.6,0
				c0.2,0,0.3,0,0.5,0c1.2,0,1.3,0.1,1.2,1.8l-0.2,2.3c-0.1,1.4,0.1,1.7-1.4,1.7c-1.5,0-1.6,0.5-1.8,2l-2,15.8c0,2,0.3,3.8-1.6,5.1
				c-1.7,1.2-5.8,2.1-7.8,2.1c-1.9,0-4.7-0.7-4.7-3.1c0-0.9,0.4-1.4,0.9-1.9c1.3-1.2,1.1-1.6,1.5-3.4c0.9-4,2.4-11.3,2.4-15.3
				c0-1.1-0.7-1.3-1.6-1.3c-0.3,0-0.6,0-0.8,0c-1.7,0-2.1-0.1-2.1-1c0-0.3,0.1-0.9,0.1-1.5l0.2-1.7c0.2-0.9,0-1.5,1-1.5
				c0,0,0.1,0,0.1,0c0.5,0,0.9,0,1.3,0c0.7,0,1.3-0.1,1.3-0.6c0-1.1-2.3-2-2.3-6.1C109.9,192.7,115.8,189.8,120.8,189.8
				 M120.8,186.1c-7.1,0-14.5,4.6-14.5,12.3c0,1.5,0.2,2.8,0.6,3.8c-0.9,0.6-1.7,1.6-1.9,3.5c0,0.1,0,0.2,0,0.3l0,0.1l0,0.1
				l-0.2,1.7c-0.1,0.9-0.1,1.4-0.1,1.9c0,2.7,1.8,3.8,2.6,4.1c0.6,0.3,1.2,0.4,1.8,0.4c-0.3,3.4-1.3,8.2-2.2,12.1
				c-0.1,0.5-0.2,0.8-0.2,1.2c0,0.1,0,0.2-0.1,0.3c0,0-0.1,0.1-0.1,0.1c-0.5,0.5-2.1,1.9-2.1,4.6c0,4,3.4,6.7,8.4,6.7
				c2.4,0,7.3-1,9.8-2.7c3.3-2.2,3.2-5.5,3.2-7.4c0-0.1,0-0.3,0-0.5l1.8-14.5c2.7-0.6,3.3-2.9,3.4-4.8l0-0.2l0.1-2.2
				c0.1-1.2,0.2-2.9-1.1-4.3c-0.4-0.5-0.9-0.8-1.4-1c1.9-1.5,3.1-3.8,3.1-6.6C131.5,189.3,126,186.1,120.8,186.1L120.8,186.1z"/>
		</g>
	</g>
	<g>
		<g>
			<path class="st5" d="M130.6,431c0,0-0.2,9.2,0,10.2"/>
			<path class="st5" d="M131.7,443.7c0,0,1.1,4.1,6.4,4.3"/>
			<g>
				<path class="st6" d="M239,449.6H136.8c-4.6,0-8.4-3.7-8.4-8.3v-87.6h118.9v87.6C247.4,445.9,243.6,449.6,239,449.6z"/>
				<polygon class="st7" points="247.2,443.4 250.2,425.2 250.2,348.5 247.4,353.6 				"/>
				<rect x="128.8" y="348.5" class="st8" width="118.2" height="14.1"/>
				<path class="st9" d="M249,353.6H128.9c-2.1,0-3.7-1.7-3.7-3.7v-13.8c0-2,1.7-3.7,3.7-3.7H249c2.1,0,3.7,1.7,3.7,3.7v13.8
					C252.7,352,251.1,353.6,249,353.6z"/>
				<g>
					<g>
						<g>
							<path class="st10" d="M189.4,330.2c0.9,0,1.9,0.1,2.7,0.3c1.7,0.4,2.5,1.7,2.8,3l6.1,2.4c0.9,0.3,1.8,0.5,2.7,0.5
								c24.9,0.4,25.2-11.1,27-17.9c0.3-1.2,0.8-2.3,1.5-3.4c2.1-3.2,4.3-9.4,4.3-9.4c-11.6,0.9-27.9,6.8-39.6,8.9
								C187.5,316.3,188.7,326.6,189.4,330.2z M195.2,331.5c0,0,2.9-13.4,15.6-13.9c0,0-3.3,2.1-1.8,5.5c1.5,3.4,2.7,3.8-7.9,7.1
								C198.1,330.9,195.2,331.5,195.2,331.5z"/>
							<path class="st10" d="M181.6,313.9c-11.6-2.1-27.9-7.9-39.6-8.9c0,0,2.2,6.1,4.3,9.4c0.7,1.1,1.2,2.2,1.5,3.4
								c1.7,6.7,2,18,26.1,17.9c1.4,0,2.9-0.3,4.2-0.8l5.4-2.1c0.4-1.3,1.1-2.6,2.8-3c0.8-0.2,1.8-0.3,2.7-0.3
								C189.9,325.9,191.1,315.6,181.6,313.9z M177.5,329.5c-10.6-3.3-9.4-3.7-7.9-7.1c1.5-3.4-1.8-5.5-1.8-5.5
								c12.8,0.4,15.6,13.9,15.6,13.9S180.5,330.2,177.5,329.5z"/>
							<path class="st10" d="M194.9,332.8c-0.1,0.5-0.5,1-0.9,1.3c0,0,0,0,0,0c-1.3,0.9-3.7,1.3-6,1.4c-0.9,0-1.8,0-2.6,0
								c-0.6,0-1.1,0-1.6-0.1c-1.3-0.1-2.2-0.8-2.1-1.7c0,0,0,0,0,0c0-0.4,0.1-0.9,0.2-1.3c0.4-1.3,1.1-2.6,2.8-3
								c0.8-0.2,1.8-0.3,2.7-0.3c0.8,0,1.6,0,2.3,0c0.9,0,1.8,0.1,2.5,0.1c1.3,0.1,2.4,0.8,2.7,1.7
								C195,331.5,195.1,332.1,194.9,332.8z"/>
						</g>
					</g>
					<line class="st11" x1="146.8" y1="308.9" x2="147.6" y2="310.7"/>
					<line class="st11" x1="149" y1="313.3" x2="150.2" y2="315.6"/>
					<path class="st10" d="M184.5,332.5c0,0,0.2-0.7,1-0.8"/>
					<path class="st10" d="M214.6,332.6c0,0,3.2-0.5,4.3-1.2"/>
					<path class="st10" d="M221.6,329.9c0,0,1.5-0.9,1.8-1.3"/>
				</g>
				<line class="st11" x1="236.6" y1="350.7" x2="247" y2="350.7"/>
				<line class="st11" x1="233" y1="350.7" x2="202.9" y2="350.7"/>
				<g>
					<g>
						<path class="st11" d="M183.9,410.6c-2,0-3.6-1.6-3.6-3.7s1.6-3.7,3.6-3.7c1,0,1.9,0.4,2.5,1.1"/>
						<path class="st11" d="M149.6,407.4c0,0-2.6-2.6-4.7-3.2"/>
						<path class="st11" d="M151.3,406c0,0-3-4.5-4.1-5"/>
						<path class="st11" d="M230.8,400.1c0,0,2.6-2.5,4.8-3"/>
						<path class="st11" d="M229.2,398.7c0,0,3.1-4.4,4.3-4.9"/>
					</g>
					<path class="st12" d="M188.3,418.7c-5.7,1.4-11.4,0.9-17-1.2c-8.5-3.2-21.7-6.8-23.7,1.3c-3,12.1,11.6,23.2,38.7,21.7
						c25.4-1.4,40.1-4.1,39.4-24.9c-0.1-3.2-1.1-6-2.8-7.5C215.9,402.1,205.5,414.4,188.3,418.7z"/>
					<path class="st13" d="M183.3,420.6c0.2,4-2.1,7.5-5.1,7.6c-3,0.2-5.6-3-5.8-7c-0.1-1.2,0-2.2,0.3-3.2c0.5,0.1,1,0.2,1.5,0.3
						c2.9,0.7,6,1,9,1.2C183.2,419.8,183.2,420.2,183.3,420.6z"/>
					<path class="st14" d="M196.9,417.7c0.8,4.1-1.1,8-4.2,8.5c-3.1,0.6-6.3-2.2-7.1-6.4c0-0.2,0-0.2-0.1-0.5c3.1-0.6,6.1-1.6,9-2.7
						c0.6-0.2,1.2-0.5,1.8-0.7C196.5,416.6,196.7,417,196.9,417.7z"/>
					<path class="st10" d="M171.8,440c0,0,6.5-14.5,15.2-7.8c0,0,7.9-13.7,17.9,6.5C204.9,438.7,189.5,442.3,171.8,440z"/>
					<g>
						<path class="st15" d="M160.5,384l0.1,0.6C160.6,384.4,160.5,384.2,160.5,384c-0.1-0.1-0.1-0.1-0.1-0.1v0c0,0,0,0,0,0l0,0
							C160.5,384,160.5,384,160.5,384z"/>
						<path class="st10" d="M182.8,378.5c0.2,1.5,0.1,3-0.3,4.4c-1,4.2-4.2,9-9.1,12.5c-6,4.4-6.7,7.1-6.6,8.1c0,0,0,0.1,0,0.1
							l0,0.2l-0.1-0.1c0,0,0-0.1-0.1-0.2c-0.3-1-1.7-3.4-8.6-5.9c-5.7-2.1-10.1-5.8-12.2-9.5c-0.8-1.2-1.3-2.6-1.5-4.1
							c-0.7-5.3,3-10.2,8.3-11.1c4.5-0.7,8.7,1.7,10.6,5.5c0.7-4.2,4.1-7.7,8.6-8.2C177.1,369.4,182,373.2,182.8,378.5z"/>
						<g class="st16">
							<g>
								<defs>
									<path id="SVGID_1_" d="M182.8,378.5c0.2,1.5,0.1,3-0.3,4.4c-1,4.2-4.2,9-9.1,12.5c-6,4.4-6.7,7.1-6.6,8.1c0,0,0,0.1,0,0.1
										l0,0.2l-0.1-0.1c0,0,0-0.1-0.1-0.2c-0.3-1-1.7-3.4-8.6-5.9c-5.7-2.1-10.1-5.8-12.2-9.5c-0.8-1.2-1.3-2.6-1.5-4.1
										c-0.7-5.3,3-10.2,8.3-11.1c4.5-0.7,8.7,1.7,10.6,5.5c0.7-4.2,4.1-7.7,8.6-8.2C177.1,369.4,182,373.2,182.8,378.5z"/>
								</defs>
								<clipPath id="SVGID_00000000942120315862665400000003761966512612113327_">
									<use xlink:href="#SVGID_1_"  style="overflow:visible;"/>
								</clipPath>
								<path style="clip-path:url(#SVGID_00000000942120315862665400000003761966512612113327_);fill:#F3614A;" d="M159.3,405.9
									c0,0-14.4-21-3.4-23.8c11-2.8,4.6-15,0.2-14.3c-4.4,0.6-17.4,12.3-10.4,26.8C152.8,409,159.3,405.9,159.3,405.9z"/>
							</g>
							<g>
								<defs>
									<path id="SVGID_00000166674265526134766060000010959925756254674617_" d="M182.8,378.5c0.2,1.5,0.1,3-0.3,4.4
										c-1,4.2-4.2,9-9.1,12.5c-6,4.4-6.7,7.1-6.6,8.1c0,0,0,0.1,0,0.1l0,0.2l-0.1-0.1c0,0,0-0.1-0.1-0.2c-0.3-1-1.7-3.4-8.6-5.9
										c-5.7-2.1-10.1-5.8-12.2-9.5c-0.8-1.2-1.3-2.6-1.5-4.1c-0.7-5.3,3-10.2,8.3-11.1c4.5-0.7,8.7,1.7,10.6,5.5
										c0.7-4.2,4.1-7.7,8.6-8.2C177.1,369.4,182,373.2,182.8,378.5z"/>
								</defs>
								<clipPath id="SVGID_00000003820594498515275470000000040741654496803495_">
									<use xlink:href="#SVGID_00000166674265526134766060000010959925756254674617_"  style="overflow:visible;"/>
								</clipPath>
								<path style="clip-path:url(#SVGID_00000003820594498515275470000000040741654496803495_);fill:#F3614A;" d="M174.8,382
									c0,0,0.4,10.7-21.7,14.1s1.2,38.3,18.3,16.5c17.1-21.7,21.2-29.5,17-34.4S175.8,376.2,174.8,382z"/>
							</g>
						</g>
						<path class="st11" d="M171.9,372.8c0,0,5.3-0.7,8.1,5.6"/>
					</g>
					<g>
						<path class="st15" d="M208.6,382.9l-0.1,0.5c0-0.2,0.1-0.4,0.1-0.6c0,0,0,0,0,0v0v0c0,0,0,0,0,0
							C208.6,382.8,208.6,382.9,208.6,382.9z"/>
						<path class="st10" d="M231.5,385.4c-0.3,1.5-0.9,2.9-1.8,4c-2.4,3.5-7.1,6.9-12.9,8.6c-7.1,2-8.7,4.3-9,5.3c0,0,0,0.1,0,0.1
							l-0.1,0.2l0-0.2c0,0,0-0.1,0-0.2c0.1-1-0.4-3.8-6-8.5c-4.6-3.9-7.5-8.9-8.2-13.1c-0.3-1.4-0.3-2.9,0-4.4
							c1.2-5.2,6.4-8.6,11.6-7.5c4.4,0.9,7.6,4.6,8,8.8c2.1-3.7,6.5-5.8,10.9-4.7C229.2,374.9,232.5,380.1,231.5,385.4z"/>
						<g class="st16">
							<g>
								<defs>
									<path id="SVGID_00000165213193031962951390000007789338610740452010_" d="M231.5,385.4c-0.3,1.5-0.9,2.9-1.8,4
										c-2.4,3.5-7.1,6.9-12.9,8.6c-7.1,2-8.7,4.3-9,5.3c0,0,0,0.1,0,0.1l-0.1,0.2l0-0.2c0,0,0-0.1,0-0.2c0.1-1-0.4-3.8-6-8.5
										c-4.6-3.9-7.5-8.9-8.2-13.1c-0.3-1.4-0.3-2.9,0-4.4c1.2-5.2,6.4-8.6,11.6-7.5c4.4,0.9,7.6,4.6,8,8.8
										c2.1-3.7,6.5-5.8,10.9-4.7C229.2,374.9,232.5,380.1,231.5,385.4z"/>
								</defs>
								<clipPath id="SVGID_00000042722887680424874530000014821616784477579674_">
									<use xlink:href="#SVGID_00000165213193031962951390000007789338610740452010_"  style="overflow:visible;"/>
								</clipPath>
								<path style="clip-path:url(#SVGID_00000042722887680424874530000014821616784477579674_);fill:#F3614A;" d="M224.1,377.1
									c0,0-0.6,10.7-23,11.9c-22.4,1.2-2.5,38.2,16.7,18.2s23.9-27.3,20.2-32.6C234.3,369.3,225.7,371.4,224.1,377.1z"/>
							</g>
							<g>
								<defs>
									<path id="SVGID_00000039104605368197996430000018195548246815146672_" d="M231.5,385.4c-0.3,1.5-0.9,2.9-1.8,4
										c-2.4,3.5-7.1,6.9-12.9,8.6c-7.1,2-8.7,4.3-9,5.3c0,0,0,0.1,0,0.1l-0.1,0.2l0-0.2c0,0,0-0.1,0-0.2c0.1-1-0.4-3.8-6-8.5
										c-4.6-3.9-7.5-8.9-8.2-13.1c-0.3-1.4-0.3-2.9,0-4.4c1.2-5.2,6.4-8.6,11.6-7.5c4.4,0.9,7.6,4.6,8,8.8
										c2.1-3.7,6.5-5.8,10.9-4.7C229.2,374.9,232.5,380.1,231.5,385.4z"/>
								</defs>
								<clipPath id="SVGID_00000178167903452108368780000016355785580283113630_">
									<use xlink:href="#SVGID_00000039104605368197996430000018195548246815146672_"  style="overflow:visible;"/>
								</clipPath>
								<path style="clip-path:url(#SVGID_00000178167903452108368780000016355785580283113630_);fill:#F3614A;" d="M214.4,372.9
									c-0.2-0.2-12.1-4.2-8.9,5.4c2.1,6.4-7.9,13-14.5,12.1s-3.1-24.8-3.1-24.8S211.8,362.7,214.4,372.9z"/>
							</g>
						</g>
						<path class="st11" d="M223.2,376.2c0,0,5.2,1.2,5.6,8"/>
					</g>
				</g>
			</g>
		</g>
		<g>
			<polygon class="st4" points="202,365.9 202.9,367.8 204.7,369 202.7,369.9 201.5,371.7 200.6,369.8 198.8,368.6 200.8,367.7 			
				"/>
			<polygon class="st4" points="196.4,368.9 197.9,372.3 201,374.3 197.7,375.8 195.7,378.9 194.1,375.6 191.1,373.6 194.4,372 			
				"/>
		</g>
		<g>
			<polygon class="st4" points="143.1,377.9 145.1,378.8 147.2,378.4 146.4,380.4 146.7,382.5 144.7,381.7 142.6,382 143.4,380 			
				"/>
			<polygon class="st4" points="148,368.9 150.7,371.3 154.3,372 151.8,374.7 151.2,378.3 148.5,375.8 144.9,375.2 147.4,372.5 			
				"/>
		</g>
	</g>
	<path class="st0" d="M14.6,33.6c0,0-6.9,11.6-4.4,35.2"/>
	<path class="st0" d="M320.3,183.9c0,0,18.7-2,25-26.5"/>
</g>
</svg>
