<?xml version="1.0" encoding="utf-8"?>
<!-- Generator: Adobe Illustrator 25.4.1, SVG Export Plug-In . SVG Version: 6.00 Build 0)  -->
<svg version="1.1" id="Layer_1" xmlns="http://www.w3.org/2000/svg" xmlns:xlink="http://www.w3.org/1999/xlink" x="0px" y="0px"
	 viewBox="0 0 320 213.8" style="enable-background:new 0 0 320 213.8;" xml:space="preserve">
<style type="text/css">
	.st0{clip-path:url(#SVGID_00000178199865325264823760000007664155933555786411_);}
	.st1{fill:#F3614A;stroke:#261F26;stroke-width:1.1509;stroke-linecap:round;stroke-linejoin:round;stroke-miterlimit:10;}
	.st2{fill:#261F26;stroke:#261F26;stroke-width:1.1509;stroke-linecap:round;stroke-linejoin:round;stroke-miterlimit:10;}
	.st3{fill:none;stroke:#261F26;stroke-width:1.1509;stroke-linecap:round;stroke-linejoin:round;stroke-miterlimit:10;}
	.st4{fill:#261F26;}
	.st5{fill:#F3614A;}
	.st6{fill:#22AE95;stroke:#261F26;stroke-width:1.1509;stroke-linecap:round;stroke-linejoin:round;stroke-miterlimit:10;}
	.st7{fill:#FFFFFF;stroke:#261F26;stroke-width:1.1509;stroke-linecap:round;stroke-linejoin:round;stroke-miterlimit:10;}
	.st8{fill:#1C3B47;stroke:#261F26;stroke-width:1.1509;stroke-miterlimit:10;}
	.st9{fill:#1C3B47;}
	.st10{fill:#A780F1;stroke:#261F26;stroke-width:1.1509;stroke-linecap:round;stroke-linejoin:round;stroke-miterlimit:10;}
</style>
<g>
	<defs>
		<rect id="SVGID_1_" x="74.1" y="15.7" width="171.9" height="195"/>
	</defs>
	<clipPath id="SVGID_00000062183127518729516510000007072250125562293684_">
		<use xlink:href="#SVGID_1_"  style="overflow:visible;"/>
	</clipPath>
	<g style="clip-path:url(#SVGID_00000062183127518729516510000007072250125562293684_);">
		<g>
			<path class="st1" d="M147.5-153.4c6.4-14.5,14.1-18.7,14.3-18.8c-0.3,0-17.9,2.9-26.6,5.2c0,0-6,5.9-13.1,32.8
				c-5.4,20.2-9.8,56.5,3.5,109.3c1.7,6.7,2.9,13.5,3.4,20.4c2.6,32.8-5.8,61-5.8,61s-26.2,84.1-13,109c1.7,3.1,3.7,4.8,5.7,5.7
				l1.8,0.5c0,0-2,3.7-1.8-0.5l-12.3,19.6l15.8-2.8l4.9,13.6c0,0,8.7-3.9,18.5-20.3c6.4-10.6,5.3-17.5-0.6-20.2
				c-6.7-3.1-15.2-7.6-17.3-20.1c-0.3-2-0.4-4-0.4-6c0.8-29.4,15.1-74.5,15.1-74.5s13.3-41.8,0-98.3
				C139.6-37.7,122.1-100.8,147.5-153.4"/>
			<path class="st2" d="M115.9,171.2c0,0,12.6,3.4,22.5-0.8l-32,16.2L115.9,171.2z"/>
			<path class="st3" d="M125.6,197.2c0,0,3.2-1.7,5.4-4.6"/>
		</g>
		<g>
			<path class="st5" d="M206,166l15.9,21.7l-19.7-3.6l-6.9,18.2c-12.6-4.2-23.2-30.5-9.5-40.7c13.7-10.2,27.4-41.8,27.4-41.8
				c7.3-13.9,11.7-28.1,11.9-42.7c0-0.3,0-0.6,0-0.9v0c-0.4-6.4-10.5-12-14.9-14.1l-0.9,8v0l-3.5,4.7l-7.2-0.9l-8.2-5.4l7.6-19
				c0,0,5.9-4.9,12.2-5.1h0c0.6,0.1,1.3,0.2,1.9,0.5c2.8,0.9,6,2.9,8.2,6.7c1.3,1.9,1.1,4.7,2.2,6.7c21.9,32.9,13.5,62.7,4.5,80.3
				C227.1,138.6,218.4,154.7,206,166z"/>
			<path class="st4" d="M199.2,48.7c0,0,2.1,13.4,10.2,16.6l-0.7,8.3l-13.1-1.1l2.1-22.3L199.2,48.7z"/>
			<g>
				<path class="st3" d="M222.1,56.7c22.5,32.6,13.9,62.5,5.9,79.9c0,0-9.5,21.7-32.3,37"/>
				<path class="st3" d="M206.2,166.7l15.4,21.2l-19.7-3.6l-6.9,18.3c-12.6-4.2-23.2-30.5-9.5-40.7c13.7-10.2,27.4-41.8,27.4-41.8
					c10.6-20.3,15.3-41.3,9.3-63.4s-24.4-6.9-24.4-6.9"/>
				<line class="st1" x1="208.9" y1="70.3" x2="211.9" y2="44.8"/>
				<path class="st3" d="M210.3,61.7c0,0,15.2,7,14.5,15.7"/>
				<path class="st1" d="M197.3-191.8c0,0,2.7-8.7,6.8,24.2c4.2,33.8-38.8,219.9-18.4,251.2c1,1.5,3.1,1.8,4.5,0.6
					c5.1-4.5,6.6-6.9,12.8-6.3c7,0.8,6-7.6,6-7.6s-14.5,21.4-10.8-54.6c3.7-76,38.1-205,18-216.2c-5.4,8.5-8.7,9.1-11.9,8.7
					C201.1-192.1,197.3-191.8,197.3-191.8z"/>
			</g>
			<path class="st4" d="M195.7,174.1l9.4-8.4l9.3,12.8C214.5,178.5,199.5,179.7,195.7,174.1z"/>
			<path class="st4" d="M224.8,74.6c-0.6-2-2-3.8-3.8-5.5c-4.1-4.3-10.3-7.3-11-7.6l1.2-10.4l0-0.1l0.7-6.2c0.1,0,0.1,0,0.2,0.1
				c2.5,0.8,5.4,2.6,7.6,5.7c0.6,1.1,1.2,2.3,1.7,3.7c0.3,1.4,0.5,2.8,1.2,4C223.9,63.7,224.6,69.2,224.8,74.6z"/>
		</g>
		<path class="st3" d="M186.1,163.9c0,0-3.8,3.3-3.9,6.6"/>
		<path class="st3" d="M193.5,199.1c0,0-3.8-1.8-4.6-4.7"/>
		<path class="st1" d="M187.3,82.1c0,0-3.8-7.3-3.9-9.7"/>
	</g>
</g>
<line class="st1" x1="182.1" y1="15.7" x2="198.1" y2="15.7"/>
<line class="st1" x1="129.3" y1="15.7" x2="145.5" y2="15.7"/>
</svg>
